G04 EAGLE Gerber RS-274X export*
G75*
%MOMM*%
%FSLAX34Y34*%
%LPD*%
%INTop Copper*%
%IPPOS*%
%AMOC8*
5,1,8,0,0,1.08239X$1,22.5*%
G01*
%ADD10C,0.177800*%
%ADD11R,1.300000X1.500000*%
%ADD12R,1.500000X1.300000*%
%ADD13R,1.000000X1.100000*%
%ADD14C,1.000000*%
%ADD15R,1.270000X0.558800*%
%ADD16R,1.100000X1.000000*%
%ADD17R,1.200000X1.200000*%
%ADD18R,1.000000X1.000000*%
%ADD19R,1.200000X0.550000*%
%ADD20R,1.100000X1.900000*%
%ADD21R,1.400000X1.400000*%
%ADD22C,0.256000*%
%ADD23R,1.000000X1.000000*%
%ADD24C,0.110000*%
%ADD25R,1.000000X1.200000*%
%ADD26C,1.422400*%
%ADD27C,3.450000*%
%ADD28C,2.400300*%
%ADD29C,1.600000*%
%ADD30R,1.600200X1.168400*%
%ADD31R,0.990000X0.690000*%
%ADD32C,1.905000*%
%ADD33C,2.667000*%
%ADD34P,2.089446X8X202.500000*%
%ADD35R,0.736600X1.676400*%
%ADD36C,0.850000*%
%ADD37C,0.508000*%
%ADD38C,0.609600*%
%ADD39C,0.304800*%
%ADD40C,0.600000*%
%ADD41C,0.254000*%
%ADD42C,0.406400*%
%ADD43C,4.013200*%
%ADD44C,0.400000*%
%ADD45C,0.403200*%
%ADD46C,0.504800*%


D10*
X8509Y149183D02*
X16891Y149183D01*
X16891Y151511D02*
X16891Y146854D01*
X14563Y142977D02*
X10837Y142977D01*
X14563Y142976D02*
X14658Y142974D01*
X14753Y142968D01*
X14847Y142959D01*
X14941Y142945D01*
X15035Y142928D01*
X15127Y142907D01*
X15219Y142882D01*
X15309Y142853D01*
X15399Y142821D01*
X15487Y142785D01*
X15573Y142745D01*
X15658Y142703D01*
X15741Y142656D01*
X15822Y142606D01*
X15900Y142553D01*
X15977Y142497D01*
X16051Y142438D01*
X16123Y142376D01*
X16192Y142311D01*
X16259Y142243D01*
X16322Y142173D01*
X16383Y142099D01*
X16441Y142024D01*
X16495Y141946D01*
X16547Y141866D01*
X16595Y141784D01*
X16639Y141701D01*
X16681Y141615D01*
X16718Y141528D01*
X16752Y141439D01*
X16783Y141349D01*
X16810Y141258D01*
X16833Y141166D01*
X16852Y141073D01*
X16867Y140979D01*
X16879Y140885D01*
X16887Y140790D01*
X16891Y140695D01*
X16891Y140601D01*
X16887Y140506D01*
X16879Y140411D01*
X16867Y140317D01*
X16852Y140223D01*
X16833Y140130D01*
X16810Y140038D01*
X16783Y139947D01*
X16752Y139857D01*
X16718Y139768D01*
X16681Y139681D01*
X16639Y139595D01*
X16595Y139512D01*
X16547Y139430D01*
X16495Y139350D01*
X16441Y139272D01*
X16383Y139197D01*
X16322Y139123D01*
X16259Y139053D01*
X16192Y138985D01*
X16123Y138920D01*
X16051Y138858D01*
X15977Y138799D01*
X15900Y138743D01*
X15822Y138690D01*
X15741Y138640D01*
X15658Y138593D01*
X15573Y138551D01*
X15487Y138511D01*
X15399Y138475D01*
X15309Y138443D01*
X15219Y138414D01*
X15127Y138389D01*
X15035Y138368D01*
X14941Y138351D01*
X14847Y138337D01*
X14753Y138328D01*
X14658Y138322D01*
X14563Y138320D01*
X10837Y138320D01*
X10742Y138322D01*
X10647Y138328D01*
X10553Y138337D01*
X10459Y138351D01*
X10365Y138368D01*
X10273Y138389D01*
X10181Y138414D01*
X10091Y138443D01*
X10001Y138475D01*
X9913Y138511D01*
X9827Y138551D01*
X9742Y138593D01*
X9659Y138640D01*
X9578Y138690D01*
X9500Y138743D01*
X9423Y138799D01*
X9349Y138858D01*
X9277Y138920D01*
X9208Y138985D01*
X9141Y139053D01*
X9078Y139123D01*
X9017Y139197D01*
X8959Y139272D01*
X8905Y139350D01*
X8853Y139430D01*
X8805Y139512D01*
X8761Y139595D01*
X8719Y139681D01*
X8682Y139768D01*
X8648Y139857D01*
X8617Y139947D01*
X8590Y140038D01*
X8567Y140130D01*
X8548Y140223D01*
X8533Y140317D01*
X8521Y140411D01*
X8513Y140506D01*
X8509Y140601D01*
X8509Y140695D01*
X8513Y140790D01*
X8521Y140885D01*
X8533Y140979D01*
X8548Y141073D01*
X8567Y141166D01*
X8590Y141258D01*
X8617Y141349D01*
X8648Y141439D01*
X8682Y141528D01*
X8719Y141615D01*
X8761Y141701D01*
X8805Y141784D01*
X8853Y141866D01*
X8905Y141946D01*
X8959Y142024D01*
X9017Y142099D01*
X9078Y142173D01*
X9141Y142243D01*
X9208Y142311D01*
X9277Y142376D01*
X9349Y142438D01*
X9423Y142497D01*
X9500Y142553D01*
X9578Y142606D01*
X9659Y142656D01*
X9742Y142703D01*
X9827Y142745D01*
X9913Y142785D01*
X10001Y142821D01*
X10091Y142853D01*
X10181Y142882D01*
X10273Y142907D01*
X10365Y142928D01*
X10459Y142945D01*
X10553Y142959D01*
X10647Y142968D01*
X10742Y142974D01*
X10837Y142976D01*
X8509Y133312D02*
X16891Y133312D01*
X16891Y130984D01*
X16889Y130889D01*
X16883Y130794D01*
X16874Y130700D01*
X16860Y130606D01*
X16843Y130512D01*
X16822Y130420D01*
X16797Y130328D01*
X16768Y130238D01*
X16736Y130148D01*
X16700Y130060D01*
X16660Y129974D01*
X16618Y129889D01*
X16571Y129806D01*
X16521Y129725D01*
X16468Y129647D01*
X16412Y129570D01*
X16353Y129496D01*
X16291Y129424D01*
X16226Y129355D01*
X16158Y129288D01*
X16088Y129225D01*
X16014Y129164D01*
X15939Y129106D01*
X15861Y129052D01*
X15781Y129000D01*
X15699Y128952D01*
X15616Y128908D01*
X15530Y128866D01*
X15443Y128829D01*
X15354Y128795D01*
X15264Y128764D01*
X15173Y128737D01*
X15081Y128714D01*
X14988Y128695D01*
X14894Y128680D01*
X14800Y128668D01*
X14705Y128660D01*
X14610Y128656D01*
X14516Y128656D01*
X14421Y128660D01*
X14326Y128668D01*
X14232Y128680D01*
X14138Y128695D01*
X14045Y128714D01*
X13953Y128737D01*
X13862Y128764D01*
X13772Y128795D01*
X13683Y128829D01*
X13596Y128866D01*
X13510Y128908D01*
X13427Y128952D01*
X13345Y129000D01*
X13265Y129052D01*
X13187Y129106D01*
X13112Y129164D01*
X13038Y129225D01*
X12968Y129288D01*
X12900Y129355D01*
X12835Y129424D01*
X12773Y129496D01*
X12714Y129570D01*
X12658Y129647D01*
X12605Y129725D01*
X12555Y129806D01*
X12508Y129889D01*
X12466Y129974D01*
X12426Y130060D01*
X12390Y130148D01*
X12358Y130238D01*
X12329Y130328D01*
X12304Y130420D01*
X12283Y130512D01*
X12266Y130606D01*
X12252Y130700D01*
X12243Y130794D01*
X12237Y130889D01*
X12235Y130984D01*
X12234Y130984D02*
X12234Y133312D01*
D11*
G36*
X383735Y255899D02*
X374543Y265091D01*
X385149Y275697D01*
X394341Y266505D01*
X383735Y255899D01*
G37*
G36*
X397171Y242463D02*
X387979Y251655D01*
X398585Y262261D01*
X407777Y253069D01*
X397171Y242463D01*
G37*
X108610Y379730D03*
X127610Y379730D03*
D12*
X81280Y302920D03*
X81280Y321920D03*
D11*
X109880Y336550D03*
X128880Y336550D03*
X111150Y358140D03*
X130150Y358140D03*
D13*
X45330Y346710D03*
X28330Y346710D03*
X366150Y322580D03*
X383150Y322580D03*
X221860Y58420D03*
X204860Y58420D03*
D14*
X208280Y41910D03*
X10160Y391160D03*
D15*
X290576Y269748D03*
X290576Y250952D03*
X311404Y260350D03*
D11*
X43790Y377190D03*
X24790Y377190D03*
D16*
X165980Y342900D03*
X148980Y342900D03*
D12*
X158750Y324460D03*
X158750Y305460D03*
D17*
X12700Y331810D03*
X12700Y310810D03*
D16*
X173600Y280670D03*
X156600Y280670D03*
X12700Y278520D03*
X12700Y295520D03*
D18*
G36*
X394449Y224474D02*
X387378Y231545D01*
X394449Y238616D01*
X401520Y231545D01*
X394449Y224474D01*
G37*
G36*
X383135Y213160D02*
X376064Y220231D01*
X383135Y227302D01*
X390206Y220231D01*
X383135Y213160D01*
G37*
G36*
X354851Y241444D02*
X347780Y248515D01*
X354851Y255586D01*
X361922Y248515D01*
X354851Y241444D01*
G37*
G36*
X366165Y252758D02*
X359094Y259829D01*
X366165Y266900D01*
X373236Y259829D01*
X366165Y252758D01*
G37*
D19*
X107649Y315570D03*
X107649Y306070D03*
X107649Y296570D03*
X133651Y296570D03*
X133651Y315570D03*
D13*
X180340Y311540D03*
X180340Y328540D03*
X189230Y250580D03*
X189230Y267580D03*
D16*
X248040Y250190D03*
X265040Y250190D03*
D20*
X203900Y254000D03*
X227900Y254000D03*
D21*
X78190Y284480D03*
X41190Y284480D03*
D22*
X217930Y275180D02*
X217930Y269240D01*
X217290Y269240D01*
X217290Y275180D01*
X217930Y275180D01*
X217930Y271672D02*
X217290Y271672D01*
X217290Y274104D02*
X217930Y274104D01*
X222930Y275180D02*
X222930Y269240D01*
X222290Y269240D01*
X222290Y275180D01*
X222930Y275180D01*
X222930Y271672D02*
X222290Y271672D01*
X222290Y274104D02*
X222930Y274104D01*
X227930Y275180D02*
X227930Y269240D01*
X227290Y269240D01*
X227290Y275180D01*
X227930Y275180D01*
X227930Y271672D02*
X227290Y271672D01*
X227290Y274104D02*
X227930Y274104D01*
X232930Y275180D02*
X232930Y269240D01*
X232290Y269240D01*
X232290Y275180D01*
X232930Y275180D01*
X232930Y271672D02*
X232290Y271672D01*
X232290Y274104D02*
X232930Y274104D01*
X237930Y275180D02*
X237930Y269240D01*
X237290Y269240D01*
X237290Y275180D01*
X237930Y275180D01*
X237930Y271672D02*
X237290Y271672D01*
X237290Y274104D02*
X237930Y274104D01*
X242930Y275180D02*
X242930Y269240D01*
X242290Y269240D01*
X242290Y275180D01*
X242930Y275180D01*
X242930Y271672D02*
X242290Y271672D01*
X242290Y274104D02*
X242930Y274104D01*
X247930Y275180D02*
X247930Y269240D01*
X247290Y269240D01*
X247290Y275180D01*
X247930Y275180D01*
X247930Y271672D02*
X247290Y271672D01*
X247290Y274104D02*
X247930Y274104D01*
X252930Y275180D02*
X252930Y269240D01*
X252290Y269240D01*
X252290Y275180D01*
X252930Y275180D01*
X252930Y271672D02*
X252290Y271672D01*
X252290Y274104D02*
X252930Y274104D01*
X257930Y275180D02*
X257930Y269240D01*
X257290Y269240D01*
X257290Y275180D01*
X257930Y275180D01*
X257930Y271672D02*
X257290Y271672D01*
X257290Y274104D02*
X257930Y274104D01*
X262930Y275180D02*
X262930Y269240D01*
X262290Y269240D01*
X262290Y275180D01*
X262930Y275180D01*
X262930Y271672D02*
X262290Y271672D01*
X262290Y274104D02*
X262930Y274104D01*
X267930Y275180D02*
X267930Y269240D01*
X267290Y269240D01*
X267290Y275180D01*
X267930Y275180D01*
X267930Y271672D02*
X267290Y271672D01*
X267290Y274104D02*
X267930Y274104D01*
X272930Y275180D02*
X272930Y269240D01*
X272290Y269240D01*
X272290Y275180D01*
X272930Y275180D01*
X272930Y271672D02*
X272290Y271672D01*
X272290Y274104D02*
X272930Y274104D01*
X284890Y287780D02*
X290830Y287780D01*
X290830Y287140D01*
X284890Y287140D01*
X284890Y287780D01*
X284890Y292780D02*
X290830Y292780D01*
X290830Y292140D01*
X284890Y292140D01*
X284890Y292780D01*
X284890Y297780D02*
X290830Y297780D01*
X290830Y297140D01*
X284890Y297140D01*
X284890Y297780D01*
X284890Y302780D02*
X290830Y302780D01*
X290830Y302140D01*
X284890Y302140D01*
X284890Y302780D01*
X284890Y307780D02*
X290830Y307780D01*
X290830Y307140D01*
X284890Y307140D01*
X284890Y307780D01*
X284890Y312780D02*
X290830Y312780D01*
X290830Y312140D01*
X284890Y312140D01*
X284890Y312780D01*
X284890Y317780D02*
X290830Y317780D01*
X290830Y317140D01*
X284890Y317140D01*
X284890Y317780D01*
X284890Y322780D02*
X290830Y322780D01*
X290830Y322140D01*
X284890Y322140D01*
X284890Y322780D01*
X284890Y327780D02*
X290830Y327780D01*
X290830Y327140D01*
X284890Y327140D01*
X284890Y327780D01*
X284890Y332780D02*
X290830Y332780D01*
X290830Y332140D01*
X284890Y332140D01*
X284890Y332780D01*
X284890Y337780D02*
X290830Y337780D01*
X290830Y337140D01*
X284890Y337140D01*
X284890Y337780D01*
X284890Y342780D02*
X290830Y342780D01*
X290830Y342140D01*
X284890Y342140D01*
X284890Y342780D01*
X272930Y354740D02*
X272930Y360680D01*
X272930Y354740D02*
X272290Y354740D01*
X272290Y360680D01*
X272930Y360680D01*
X272930Y357172D02*
X272290Y357172D01*
X272290Y359604D02*
X272930Y359604D01*
X267930Y360680D02*
X267930Y354740D01*
X267290Y354740D01*
X267290Y360680D01*
X267930Y360680D01*
X267930Y357172D02*
X267290Y357172D01*
X267290Y359604D02*
X267930Y359604D01*
X262930Y360680D02*
X262930Y354740D01*
X262290Y354740D01*
X262290Y360680D01*
X262930Y360680D01*
X262930Y357172D02*
X262290Y357172D01*
X262290Y359604D02*
X262930Y359604D01*
X257930Y360680D02*
X257930Y354740D01*
X257290Y354740D01*
X257290Y360680D01*
X257930Y360680D01*
X257930Y357172D02*
X257290Y357172D01*
X257290Y359604D02*
X257930Y359604D01*
X252930Y360680D02*
X252930Y354740D01*
X252290Y354740D01*
X252290Y360680D01*
X252930Y360680D01*
X252930Y357172D02*
X252290Y357172D01*
X252290Y359604D02*
X252930Y359604D01*
X247930Y360680D02*
X247930Y354740D01*
X247290Y354740D01*
X247290Y360680D01*
X247930Y360680D01*
X247930Y357172D02*
X247290Y357172D01*
X247290Y359604D02*
X247930Y359604D01*
X242930Y360680D02*
X242930Y354740D01*
X242290Y354740D01*
X242290Y360680D01*
X242930Y360680D01*
X242930Y357172D02*
X242290Y357172D01*
X242290Y359604D02*
X242930Y359604D01*
X237930Y360680D02*
X237930Y354740D01*
X237290Y354740D01*
X237290Y360680D01*
X237930Y360680D01*
X237930Y357172D02*
X237290Y357172D01*
X237290Y359604D02*
X237930Y359604D01*
X232930Y360680D02*
X232930Y354740D01*
X232290Y354740D01*
X232290Y360680D01*
X232930Y360680D01*
X232930Y357172D02*
X232290Y357172D01*
X232290Y359604D02*
X232930Y359604D01*
X227930Y360680D02*
X227930Y354740D01*
X227290Y354740D01*
X227290Y360680D01*
X227930Y360680D01*
X227930Y357172D02*
X227290Y357172D01*
X227290Y359604D02*
X227930Y359604D01*
X222930Y360680D02*
X222930Y354740D01*
X222290Y354740D01*
X222290Y360680D01*
X222930Y360680D01*
X222930Y357172D02*
X222290Y357172D01*
X222290Y359604D02*
X222930Y359604D01*
X217930Y360680D02*
X217930Y354740D01*
X217290Y354740D01*
X217290Y360680D01*
X217930Y360680D01*
X217930Y357172D02*
X217290Y357172D01*
X217290Y359604D02*
X217930Y359604D01*
X205330Y342780D02*
X199390Y342780D01*
X205330Y342780D02*
X205330Y342140D01*
X199390Y342140D01*
X199390Y342780D01*
X199390Y337780D02*
X205330Y337780D01*
X205330Y337140D01*
X199390Y337140D01*
X199390Y337780D01*
X199390Y332780D02*
X205330Y332780D01*
X205330Y332140D01*
X199390Y332140D01*
X199390Y332780D01*
X199390Y327780D02*
X205330Y327780D01*
X205330Y327140D01*
X199390Y327140D01*
X199390Y327780D01*
X199390Y322780D02*
X205330Y322780D01*
X205330Y322140D01*
X199390Y322140D01*
X199390Y322780D01*
X199390Y317780D02*
X205330Y317780D01*
X205330Y317140D01*
X199390Y317140D01*
X199390Y317780D01*
X199390Y312780D02*
X205330Y312780D01*
X205330Y312140D01*
X199390Y312140D01*
X199390Y312780D01*
X199390Y307780D02*
X205330Y307780D01*
X205330Y307140D01*
X199390Y307140D01*
X199390Y307780D01*
D14*
X245110Y314960D03*
D22*
X205330Y302780D02*
X199390Y302780D01*
X205330Y302780D02*
X205330Y302140D01*
X199390Y302140D01*
X199390Y302780D01*
X199390Y297780D02*
X205330Y297780D01*
X205330Y297140D01*
X199390Y297140D01*
X199390Y297780D01*
X199390Y292780D02*
X205330Y292780D01*
X205330Y292140D01*
X199390Y292140D01*
X199390Y292780D01*
X199390Y287780D02*
X205330Y287780D01*
X205330Y287140D01*
X199390Y287140D01*
X199390Y287780D01*
D23*
X35400Y220980D03*
X15400Y220980D03*
X64930Y220980D03*
X84930Y220980D03*
D24*
X176510Y227660D02*
X176510Y239560D01*
X176510Y227660D02*
X166610Y227660D01*
X166610Y239560D01*
X176510Y239560D01*
X176510Y228705D02*
X166610Y228705D01*
X166610Y229750D02*
X176510Y229750D01*
X176510Y230795D02*
X166610Y230795D01*
X166610Y231840D02*
X176510Y231840D01*
X176510Y232885D02*
X166610Y232885D01*
X166610Y233930D02*
X176510Y233930D01*
X176510Y234975D02*
X166610Y234975D01*
X166610Y236020D02*
X176510Y236020D01*
X176510Y237065D02*
X166610Y237065D01*
X166610Y238110D02*
X176510Y238110D01*
X176510Y239155D02*
X166610Y239155D01*
X158510Y250660D02*
X158510Y262560D01*
X158510Y250660D02*
X148610Y250660D01*
X148610Y262560D01*
X158510Y262560D01*
X158510Y251705D02*
X148610Y251705D01*
X148610Y252750D02*
X158510Y252750D01*
X158510Y253795D02*
X148610Y253795D01*
X148610Y254840D02*
X158510Y254840D01*
X158510Y255885D02*
X148610Y255885D01*
X148610Y256930D02*
X158510Y256930D01*
X158510Y257975D02*
X148610Y257975D01*
X148610Y259020D02*
X158510Y259020D01*
X158510Y260065D02*
X148610Y260065D01*
X148610Y261110D02*
X158510Y261110D01*
X158510Y262155D02*
X148610Y262155D01*
X176510Y262560D02*
X176510Y250660D01*
X166610Y250660D01*
X166610Y262560D01*
X176510Y262560D01*
X176510Y251705D02*
X166610Y251705D01*
X166610Y252750D02*
X176510Y252750D01*
X176510Y253795D02*
X166610Y253795D01*
X166610Y254840D02*
X176510Y254840D01*
X176510Y255885D02*
X166610Y255885D01*
X166610Y256930D02*
X176510Y256930D01*
X176510Y257975D02*
X166610Y257975D01*
X166610Y259020D02*
X176510Y259020D01*
X176510Y260065D02*
X166610Y260065D01*
X166610Y261110D02*
X176510Y261110D01*
X176510Y262155D02*
X166610Y262155D01*
X158510Y239560D02*
X158510Y227660D01*
X148610Y227660D01*
X148610Y239560D01*
X158510Y239560D01*
X158510Y228705D02*
X148610Y228705D01*
X148610Y229750D02*
X158510Y229750D01*
X158510Y230795D02*
X148610Y230795D01*
X148610Y231840D02*
X158510Y231840D01*
X158510Y232885D02*
X148610Y232885D01*
X148610Y233930D02*
X158510Y233930D01*
X158510Y234975D02*
X148610Y234975D01*
X148610Y236020D02*
X158510Y236020D01*
X158510Y237065D02*
X148610Y237065D01*
X148610Y238110D02*
X158510Y238110D01*
X158510Y239155D02*
X148610Y239155D01*
D22*
X188720Y148180D02*
X188720Y142240D01*
X188080Y142240D01*
X188080Y148180D01*
X188720Y148180D01*
X188720Y144672D02*
X188080Y144672D01*
X188080Y147104D02*
X188720Y147104D01*
X193720Y148180D02*
X193720Y142240D01*
X193080Y142240D01*
X193080Y148180D01*
X193720Y148180D01*
X193720Y144672D02*
X193080Y144672D01*
X193080Y147104D02*
X193720Y147104D01*
X198720Y148180D02*
X198720Y142240D01*
X198080Y142240D01*
X198080Y148180D01*
X198720Y148180D01*
X198720Y144672D02*
X198080Y144672D01*
X198080Y147104D02*
X198720Y147104D01*
X203720Y148180D02*
X203720Y142240D01*
X203080Y142240D01*
X203080Y148180D01*
X203720Y148180D01*
X203720Y144672D02*
X203080Y144672D01*
X203080Y147104D02*
X203720Y147104D01*
X208720Y148180D02*
X208720Y142240D01*
X208080Y142240D01*
X208080Y148180D01*
X208720Y148180D01*
X208720Y144672D02*
X208080Y144672D01*
X208080Y147104D02*
X208720Y147104D01*
X213720Y148180D02*
X213720Y142240D01*
X213080Y142240D01*
X213080Y148180D01*
X213720Y148180D01*
X213720Y144672D02*
X213080Y144672D01*
X213080Y147104D02*
X213720Y147104D01*
X218720Y148180D02*
X218720Y142240D01*
X218080Y142240D01*
X218080Y148180D01*
X218720Y148180D01*
X218720Y144672D02*
X218080Y144672D01*
X218080Y147104D02*
X218720Y147104D01*
X223720Y148180D02*
X223720Y142240D01*
X223080Y142240D01*
X223080Y148180D01*
X223720Y148180D01*
X223720Y144672D02*
X223080Y144672D01*
X223080Y147104D02*
X223720Y147104D01*
X228720Y148180D02*
X228720Y142240D01*
X228080Y142240D01*
X228080Y148180D01*
X228720Y148180D01*
X228720Y144672D02*
X228080Y144672D01*
X228080Y147104D02*
X228720Y147104D01*
X233720Y148180D02*
X233720Y142240D01*
X233080Y142240D01*
X233080Y148180D01*
X233720Y148180D01*
X233720Y144672D02*
X233080Y144672D01*
X233080Y147104D02*
X233720Y147104D01*
X238720Y148180D02*
X238720Y142240D01*
X238080Y142240D01*
X238080Y148180D01*
X238720Y148180D01*
X238720Y144672D02*
X238080Y144672D01*
X238080Y147104D02*
X238720Y147104D01*
X243720Y148180D02*
X243720Y142240D01*
X243080Y142240D01*
X243080Y148180D01*
X243720Y148180D01*
X243720Y144672D02*
X243080Y144672D01*
X243080Y147104D02*
X243720Y147104D01*
X255680Y160780D02*
X261620Y160780D01*
X261620Y160140D01*
X255680Y160140D01*
X255680Y160780D01*
X255680Y165780D02*
X261620Y165780D01*
X261620Y165140D01*
X255680Y165140D01*
X255680Y165780D01*
X255680Y170780D02*
X261620Y170780D01*
X261620Y170140D01*
X255680Y170140D01*
X255680Y170780D01*
X255680Y175780D02*
X261620Y175780D01*
X261620Y175140D01*
X255680Y175140D01*
X255680Y175780D01*
X255680Y180780D02*
X261620Y180780D01*
X261620Y180140D01*
X255680Y180140D01*
X255680Y180780D01*
X255680Y185780D02*
X261620Y185780D01*
X261620Y185140D01*
X255680Y185140D01*
X255680Y185780D01*
X255680Y190780D02*
X261620Y190780D01*
X261620Y190140D01*
X255680Y190140D01*
X255680Y190780D01*
X255680Y195780D02*
X261620Y195780D01*
X261620Y195140D01*
X255680Y195140D01*
X255680Y195780D01*
X255680Y200780D02*
X261620Y200780D01*
X261620Y200140D01*
X255680Y200140D01*
X255680Y200780D01*
X255680Y205780D02*
X261620Y205780D01*
X261620Y205140D01*
X255680Y205140D01*
X255680Y205780D01*
X255680Y210780D02*
X261620Y210780D01*
X261620Y210140D01*
X255680Y210140D01*
X255680Y210780D01*
X255680Y215780D02*
X261620Y215780D01*
X261620Y215140D01*
X255680Y215140D01*
X255680Y215780D01*
X243720Y227740D02*
X243720Y233680D01*
X243720Y227740D02*
X243080Y227740D01*
X243080Y233680D01*
X243720Y233680D01*
X243720Y230172D02*
X243080Y230172D01*
X243080Y232604D02*
X243720Y232604D01*
X238720Y233680D02*
X238720Y227740D01*
X238080Y227740D01*
X238080Y233680D01*
X238720Y233680D01*
X238720Y230172D02*
X238080Y230172D01*
X238080Y232604D02*
X238720Y232604D01*
X233720Y233680D02*
X233720Y227740D01*
X233080Y227740D01*
X233080Y233680D01*
X233720Y233680D01*
X233720Y230172D02*
X233080Y230172D01*
X233080Y232604D02*
X233720Y232604D01*
X228720Y233680D02*
X228720Y227740D01*
X228080Y227740D01*
X228080Y233680D01*
X228720Y233680D01*
X228720Y230172D02*
X228080Y230172D01*
X228080Y232604D02*
X228720Y232604D01*
X223720Y233680D02*
X223720Y227740D01*
X223080Y227740D01*
X223080Y233680D01*
X223720Y233680D01*
X223720Y230172D02*
X223080Y230172D01*
X223080Y232604D02*
X223720Y232604D01*
X218720Y233680D02*
X218720Y227740D01*
X218080Y227740D01*
X218080Y233680D01*
X218720Y233680D01*
X218720Y230172D02*
X218080Y230172D01*
X218080Y232604D02*
X218720Y232604D01*
X213720Y233680D02*
X213720Y227740D01*
X213080Y227740D01*
X213080Y233680D01*
X213720Y233680D01*
X213720Y230172D02*
X213080Y230172D01*
X213080Y232604D02*
X213720Y232604D01*
X208720Y233680D02*
X208720Y227740D01*
X208080Y227740D01*
X208080Y233680D01*
X208720Y233680D01*
X208720Y230172D02*
X208080Y230172D01*
X208080Y232604D02*
X208720Y232604D01*
X203720Y233680D02*
X203720Y227740D01*
X203080Y227740D01*
X203080Y233680D01*
X203720Y233680D01*
X203720Y230172D02*
X203080Y230172D01*
X203080Y232604D02*
X203720Y232604D01*
X198720Y233680D02*
X198720Y227740D01*
X198080Y227740D01*
X198080Y233680D01*
X198720Y233680D01*
X198720Y230172D02*
X198080Y230172D01*
X198080Y232604D02*
X198720Y232604D01*
X193720Y233680D02*
X193720Y227740D01*
X193080Y227740D01*
X193080Y233680D01*
X193720Y233680D01*
X193720Y230172D02*
X193080Y230172D01*
X193080Y232604D02*
X193720Y232604D01*
X188720Y233680D02*
X188720Y227740D01*
X188080Y227740D01*
X188080Y233680D01*
X188720Y233680D01*
X188720Y230172D02*
X188080Y230172D01*
X188080Y232604D02*
X188720Y232604D01*
X176120Y215780D02*
X170180Y215780D01*
X176120Y215780D02*
X176120Y215140D01*
X170180Y215140D01*
X170180Y215780D01*
X170180Y210780D02*
X176120Y210780D01*
X176120Y210140D01*
X170180Y210140D01*
X170180Y210780D01*
X170180Y205780D02*
X176120Y205780D01*
X176120Y205140D01*
X170180Y205140D01*
X170180Y205780D01*
X170180Y200780D02*
X176120Y200780D01*
X176120Y200140D01*
X170180Y200140D01*
X170180Y200780D01*
X170180Y195780D02*
X176120Y195780D01*
X176120Y195140D01*
X170180Y195140D01*
X170180Y195780D01*
X170180Y190780D02*
X176120Y190780D01*
X176120Y190140D01*
X170180Y190140D01*
X170180Y190780D01*
X170180Y185780D02*
X176120Y185780D01*
X176120Y185140D01*
X170180Y185140D01*
X170180Y185780D01*
X170180Y180780D02*
X176120Y180780D01*
X176120Y180140D01*
X170180Y180140D01*
X170180Y180780D01*
D14*
X215900Y187960D03*
D22*
X176120Y175780D02*
X170180Y175780D01*
X176120Y175780D02*
X176120Y175140D01*
X170180Y175140D01*
X170180Y175780D01*
X170180Y170780D02*
X176120Y170780D01*
X176120Y170140D01*
X170180Y170140D01*
X170180Y170780D01*
X170180Y165780D02*
X176120Y165780D01*
X176120Y165140D01*
X170180Y165140D01*
X170180Y165780D01*
X170180Y160780D02*
X176120Y160780D01*
X176120Y160140D01*
X170180Y160140D01*
X170180Y160780D01*
D25*
X273050Y109650D03*
X273050Y131650D03*
D12*
X189230Y113640D03*
X189230Y94640D03*
D13*
X255270Y131690D03*
X255270Y114690D03*
D26*
X75260Y265230D03*
X75260Y240230D03*
X43260Y240230D03*
X43260Y265230D03*
D27*
X48260Y192530D03*
X48260Y312930D03*
D28*
X22860Y62738D03*
X180340Y62738D03*
D29*
X38227Y142748D03*
X63627Y142748D03*
X139573Y142748D03*
X164973Y142748D03*
X57150Y38100D03*
X69850Y12700D03*
X82550Y38100D03*
X95250Y12700D03*
X107950Y38100D03*
X120650Y12700D03*
X133350Y38100D03*
X146050Y12700D03*
D16*
X74930Y122800D03*
X74930Y105800D03*
D13*
X99450Y254000D03*
X116450Y254000D03*
X116450Y237490D03*
X99450Y237490D03*
D16*
X125730Y122800D03*
X125730Y105800D03*
D30*
X101600Y105410D03*
X101600Y120650D03*
D13*
X59300Y163830D03*
X42300Y163830D03*
D16*
X78740Y177410D03*
X78740Y160410D03*
X97790Y177410D03*
X97790Y160410D03*
X116840Y177410D03*
X116840Y160410D03*
X135890Y177410D03*
X135890Y160410D03*
X137160Y253610D03*
X137160Y236610D03*
D13*
X211210Y127000D03*
X228210Y127000D03*
X154940Y177410D03*
X154940Y160410D03*
D11*
X278790Y151130D03*
X297790Y151130D03*
D16*
X267090Y229870D03*
X284090Y229870D03*
D13*
X298060Y172720D03*
X281060Y172720D03*
X15240Y88020D03*
X15240Y105020D03*
D16*
X136770Y270510D03*
X119770Y270510D03*
X136770Y219710D03*
X119770Y219710D03*
D13*
X95250Y56270D03*
X95250Y73270D03*
X133350Y56270D03*
X133350Y73270D03*
D16*
X152400Y56270D03*
X152400Y73270D03*
X114300Y56270D03*
X114300Y73270D03*
D13*
X171450Y18170D03*
X171450Y35170D03*
D16*
X30870Y12700D03*
X47870Y12700D03*
X57150Y56270D03*
X57150Y73270D03*
D13*
X37710Y38100D03*
X20710Y38100D03*
D16*
X76200Y56270D03*
X76200Y73270D03*
D31*
X267770Y410820D03*
X267770Y401320D03*
X267770Y391820D03*
X293670Y391820D03*
X293670Y410820D03*
D32*
X330200Y203200D03*
D33*
X366261Y203200D03*
X330200Y239261D03*
X294139Y203200D03*
X330200Y167139D03*
D34*
X414020Y292100D03*
X414020Y266700D03*
D35*
X406400Y362585D03*
X406400Y399415D03*
X393700Y362585D03*
X393700Y399415D03*
X381000Y362585D03*
X381000Y399415D03*
X368300Y362585D03*
X368300Y399415D03*
X355600Y362585D03*
X355600Y399415D03*
X342900Y362585D03*
X342900Y399415D03*
X330200Y362585D03*
X330200Y399415D03*
X317500Y362585D03*
X317500Y399415D03*
D34*
X76200Y406400D03*
X101600Y406400D03*
X127000Y406400D03*
X152400Y406400D03*
X177800Y406400D03*
X203200Y406400D03*
X228600Y406400D03*
D16*
X191770Y41520D03*
X191770Y24520D03*
X15240Y176920D03*
X15240Y193920D03*
X191770Y376800D03*
X191770Y359800D03*
X171450Y376800D03*
X171450Y359800D03*
D13*
X233290Y377190D03*
X216290Y377190D03*
D34*
X50800Y406400D03*
X25400Y406400D03*
D36*
X17780Y360680D03*
D37*
X107649Y306070D02*
X120650Y306070D01*
D36*
X120650Y306070D03*
D38*
X120650Y320040D01*
X128880Y328270D02*
X128880Y336550D01*
X128880Y328270D02*
X120650Y320040D01*
X142630Y336550D02*
X148980Y342900D01*
X142630Y336550D02*
X128880Y336550D01*
D39*
X202360Y317460D02*
X212050Y317460D01*
X212090Y317500D01*
D40*
X212090Y317500D03*
D39*
X183270Y328540D02*
X180340Y328540D01*
X194350Y317460D02*
X202360Y317460D01*
X194350Y317460D02*
X183270Y328540D01*
X120650Y306070D02*
X120650Y293370D01*
X124460Y289560D01*
X158140Y305460D02*
X158750Y305460D01*
X142240Y289560D02*
X124460Y289560D01*
X142240Y289560D02*
X158140Y305460D01*
D40*
X219710Y331470D03*
D39*
X222610Y334370D02*
X222610Y357710D01*
X222610Y334370D02*
X219710Y331470D01*
D36*
X402590Y322580D03*
D37*
X383150Y322580D01*
D36*
X143510Y383540D03*
D41*
X287860Y312460D02*
X295783Y312460D01*
X299636Y316314D01*
D40*
X299636Y316314D03*
D41*
X237610Y272210D02*
X237610Y266580D01*
X238931Y265259D02*
X238931Y260794D01*
D40*
X238931Y260794D03*
D41*
X238931Y265259D02*
X237610Y266580D01*
X189230Y267580D02*
X178190Y267580D01*
X175260Y270510D01*
D40*
X175260Y270510D03*
D41*
X156600Y277740D02*
X156600Y280670D01*
X173990Y271780D02*
X175260Y270510D01*
X162560Y271780D02*
X156600Y277740D01*
X162560Y271780D02*
X173990Y271780D01*
X95250Y220980D02*
X84930Y220980D01*
X95250Y220980D02*
X97790Y223520D01*
D40*
X97790Y223520D03*
D41*
X99450Y225180D02*
X99450Y237490D01*
X99450Y225180D02*
X97790Y223520D01*
X101600Y219710D02*
X119770Y219710D01*
X101600Y219710D02*
X97790Y223520D01*
X99450Y237490D02*
X99450Y254000D01*
X115960Y270510D02*
X119770Y270510D01*
X115960Y270510D02*
X99450Y254000D01*
X265040Y250190D02*
X266310Y248920D01*
X276860Y248920D01*
D40*
X276860Y248920D03*
D41*
X284090Y241690D02*
X284090Y229870D01*
X284090Y241690D02*
X276860Y248920D01*
X188400Y160460D02*
X173150Y160460D01*
X188400Y160460D02*
X189230Y161290D01*
D36*
X189230Y161290D03*
D41*
X173150Y160460D02*
X154990Y160460D01*
X154940Y160410D01*
D37*
X135890Y160410D01*
X116840Y160410D01*
X97790Y160410D01*
X78740Y160410D01*
D41*
X223400Y220860D02*
X223400Y230710D01*
X223400Y220860D02*
X218440Y215900D01*
D36*
X218440Y215900D03*
D41*
X298060Y199279D02*
X298060Y172720D01*
X298060Y199279D02*
X294139Y203200D01*
X297790Y151130D02*
X314191Y151130D01*
X330200Y167139D01*
X258650Y190460D02*
X248880Y190460D01*
X238760Y180340D01*
D36*
X238760Y180340D03*
D41*
X243640Y175460D02*
X258650Y175460D01*
X243640Y175460D02*
X238760Y180340D01*
X246740Y165460D02*
X258650Y165460D01*
X246740Y165460D02*
X245110Y163830D01*
D40*
X245110Y163830D03*
D41*
X198400Y157200D02*
X198400Y145210D01*
X194310Y161290D02*
X189230Y161290D01*
X194310Y161290D02*
X198400Y157200D01*
D42*
X171450Y18170D02*
X165980Y12700D01*
X146050Y12700D01*
D41*
X228400Y145210D02*
X228400Y158090D01*
X231600Y161290D01*
D40*
X231600Y161290D03*
D41*
X228400Y145210D02*
X228400Y139500D01*
X214630Y135890D02*
X210820Y132080D01*
X211210Y131690D01*
X211210Y127000D01*
X224790Y135890D02*
X228400Y139500D01*
X224790Y135890D02*
X214630Y135890D01*
D37*
X248040Y121920D02*
X255270Y114690D01*
X248040Y121920D02*
X240030Y121920D01*
D36*
X240030Y121920D03*
D41*
X163220Y305460D02*
X158750Y305460D01*
X163220Y305460D02*
X170180Y312420D01*
X170180Y321310D01*
X177410Y328540D01*
X180340Y328540D01*
D37*
X24790Y377190D02*
X24130Y376530D01*
X24130Y367030D01*
X17780Y360680D01*
D39*
X290576Y250952D02*
X302267Y239261D01*
X330200Y239261D01*
D37*
X345597Y239261D02*
X354851Y248515D01*
X345597Y239261D02*
X330200Y239261D01*
X366261Y203357D02*
X383135Y220231D01*
X366261Y203357D02*
X366261Y203200D01*
X406400Y243840D02*
X397878Y252362D01*
X406400Y243840D02*
X406400Y243840D01*
D36*
X406400Y243840D03*
X199390Y76200D03*
D37*
X199390Y84480D02*
X189230Y94640D01*
X199390Y84480D02*
X199390Y76200D01*
X204860Y70730D02*
X204860Y58420D01*
X204860Y70730D02*
X199390Y76200D01*
D36*
X26670Y119380D03*
X16510Y22860D03*
D37*
X20320Y12700D02*
X30870Y12700D01*
X20320Y12700D02*
X16510Y16510D01*
X16510Y22860D01*
X15240Y105020D02*
X15240Y115570D01*
X19050Y119380D02*
X26670Y119380D01*
X19050Y119380D02*
X15240Y115570D01*
X185420Y18170D02*
X191770Y24520D01*
X185420Y18170D02*
X171450Y18170D01*
D36*
X24130Y234950D03*
X27940Y161290D03*
X397510Y415290D03*
X408940Y384810D03*
D37*
X406400Y387350D02*
X406400Y399415D01*
X406400Y387350D02*
X408940Y384810D01*
X406400Y399415D02*
X406400Y406400D01*
X397510Y415290D01*
X15240Y176920D02*
X15240Y166370D01*
X20320Y161290D02*
X25790Y161290D01*
X27940Y161290D01*
X20320Y161290D02*
X15240Y166370D01*
X28330Y163830D02*
X42300Y163830D01*
X28330Y163830D02*
X25790Y161290D01*
D36*
X280670Y401320D03*
D37*
X277520Y410820D02*
X267770Y410820D01*
X277520Y410820D02*
X280670Y407670D01*
X280670Y401320D01*
X278790Y391820D02*
X267770Y391820D01*
X278790Y391820D02*
X280670Y393700D01*
X280670Y401320D01*
X143510Y383540D02*
X139700Y379730D01*
X127610Y379730D01*
X127610Y360680D01*
X130150Y358140D01*
X128880Y356870D02*
X128880Y336550D01*
X128880Y356870D02*
X130150Y358140D01*
D36*
X147320Y359410D03*
D37*
X146050Y358140D01*
X130150Y358140D01*
D36*
X95250Y325120D03*
X29210Y331470D03*
D37*
X81280Y321920D02*
X92050Y321920D01*
X95250Y325120D01*
X13040Y331470D02*
X12700Y331810D01*
X13040Y331470D02*
X29210Y331470D01*
X28330Y332350D02*
X28330Y346710D01*
X28330Y332350D02*
X29210Y331470D01*
X15400Y226220D02*
X15400Y220980D01*
X15400Y226220D02*
X24130Y234950D01*
D39*
X144276Y391314D02*
X145778Y391015D01*
X144276Y391314D02*
X143510Y391314D01*
X143510Y383540D01*
X143510Y383540D01*
X143510Y391314D01*
X142744Y391314D01*
X141242Y391015D01*
X139828Y390429D01*
X138554Y389578D01*
X137472Y388496D01*
X137434Y388440D01*
X137394Y388590D01*
X136930Y389394D01*
X136274Y390050D01*
X135470Y390514D01*
X134574Y390754D01*
X129134Y390754D01*
X129134Y381254D01*
X126086Y381254D01*
X126086Y390754D01*
X120646Y390754D01*
X119750Y390514D01*
X118946Y390050D01*
X118851Y389955D01*
X117004Y391802D01*
X100216Y391802D01*
X97538Y389124D01*
X97538Y387009D01*
X96379Y389807D01*
X93897Y392289D01*
X90655Y393632D01*
X87145Y393632D01*
X83903Y392289D01*
X83312Y391698D01*
X83312Y393396D01*
X89641Y399725D01*
X96142Y393224D01*
X100584Y393224D01*
X100584Y405384D01*
X102616Y405384D01*
X102616Y393224D01*
X107058Y393224D01*
X113559Y399725D01*
X121108Y392176D01*
X132892Y392176D01*
X139700Y398984D01*
X146304Y392380D01*
X146304Y390797D01*
X145778Y391015D01*
X161378Y369906D02*
X162984Y368300D01*
X161378Y366694D01*
X161378Y352906D01*
X161812Y352472D01*
X158586Y352472D01*
X156739Y350625D01*
X156644Y350720D01*
X155840Y351184D01*
X154944Y351424D01*
X149956Y351424D01*
X149956Y343876D01*
X148004Y343876D01*
X148004Y351424D01*
X143016Y351424D01*
X142120Y351184D01*
X141316Y350720D01*
X140660Y350064D01*
X140196Y349260D01*
X139956Y348364D01*
X139956Y343876D01*
X148004Y343876D01*
X148004Y341924D01*
X139956Y341924D01*
X139956Y337436D01*
X140196Y336540D01*
X140660Y335736D01*
X141316Y335080D01*
X142120Y334616D01*
X143016Y334376D01*
X148004Y334376D01*
X148004Y341924D01*
X149956Y341924D01*
X149956Y335532D01*
X149356Y335532D01*
X147034Y333209D01*
X145265Y333942D01*
X141755Y333942D01*
X138904Y332761D01*
X138904Y335026D01*
X130404Y335026D01*
X130404Y338074D01*
X138904Y338074D01*
X138904Y344514D01*
X138664Y345410D01*
X138200Y346214D01*
X137544Y346870D01*
X137116Y347117D01*
X138010Y347356D01*
X138814Y347820D01*
X139470Y348476D01*
X139934Y349280D01*
X140174Y350176D01*
X140174Y356348D01*
X140431Y355728D01*
X141282Y354454D01*
X142364Y353372D01*
X143638Y352521D01*
X145052Y351935D01*
X146554Y351636D01*
X147320Y351636D01*
X147320Y359410D01*
X147320Y359410D01*
X147320Y351636D01*
X148086Y351636D01*
X149588Y351935D01*
X151002Y352521D01*
X152276Y353372D01*
X153358Y354454D01*
X154209Y355728D01*
X154795Y357142D01*
X155094Y358644D01*
X155094Y359410D01*
X147320Y359410D01*
X147320Y359410D01*
X155094Y359410D01*
X155094Y360176D01*
X154795Y361678D01*
X154209Y363092D01*
X153358Y364366D01*
X152276Y365448D01*
X151002Y366299D01*
X149588Y366885D01*
X148086Y367184D01*
X147320Y367184D01*
X147320Y359410D01*
X147320Y359410D01*
X147320Y367184D01*
X146554Y367184D01*
X145052Y366885D01*
X143638Y366299D01*
X142364Y365448D01*
X141282Y364366D01*
X140431Y363092D01*
X140174Y362472D01*
X140174Y366104D01*
X139934Y367000D01*
X139470Y367804D01*
X138814Y368460D01*
X138010Y368924D01*
X137114Y369164D01*
X135847Y369164D01*
X136274Y369410D01*
X136930Y370066D01*
X137394Y370870D01*
X137634Y371766D01*
X137634Y378206D01*
X129134Y378206D01*
X129134Y381254D01*
X136042Y381254D01*
X136621Y379858D01*
X137472Y378584D01*
X138554Y377502D01*
X139828Y376651D01*
X141242Y376065D01*
X142744Y375766D01*
X143510Y375766D01*
X143510Y383540D01*
X143510Y383540D01*
X143510Y375766D01*
X144276Y375766D01*
X145778Y376065D01*
X147192Y376651D01*
X148466Y377502D01*
X149548Y378584D01*
X150399Y379858D01*
X150540Y380199D01*
X159107Y371632D01*
X161347Y370704D01*
X161378Y370704D01*
X161378Y369906D01*
X260000Y386206D02*
X260656Y385550D01*
X261460Y385086D01*
X262356Y384846D01*
X267569Y384846D01*
X267569Y391619D01*
X267971Y391619D01*
X267971Y384846D01*
X273184Y384846D01*
X274080Y385086D01*
X274884Y385550D01*
X275540Y386206D01*
X276004Y387010D01*
X276244Y387906D01*
X276244Y391619D01*
X267971Y391619D01*
X267971Y392021D01*
X276244Y392021D01*
X276244Y394928D01*
X276988Y394431D01*
X278402Y393845D01*
X279904Y393546D01*
X280670Y393546D01*
X280670Y401320D01*
X280670Y401320D01*
X280670Y393546D01*
X281436Y393546D01*
X282938Y393845D01*
X284148Y394346D01*
X284148Y386476D01*
X285512Y385112D01*
X285512Y384302D01*
X257751Y384302D01*
X259874Y386425D01*
X260000Y386206D01*
X249279Y394509D02*
X247869Y395919D01*
X245255Y397002D01*
X242425Y397002D01*
X239811Y395919D01*
X239624Y395732D01*
X238048Y395732D01*
X242824Y400508D01*
X242824Y412292D01*
X234492Y420624D01*
X222708Y420624D01*
X215900Y413816D01*
X209092Y420624D01*
X197308Y420624D01*
X190500Y413816D01*
X183692Y420624D01*
X171908Y420624D01*
X165100Y413816D01*
X158292Y420624D01*
X146508Y420624D01*
X139700Y413816D01*
X132892Y420624D01*
X121108Y420624D01*
X113559Y413075D01*
X107058Y419576D01*
X102616Y419576D01*
X102616Y407416D01*
X100584Y407416D01*
X100584Y419576D01*
X96142Y419576D01*
X89641Y413075D01*
X82092Y420624D01*
X70308Y420624D01*
X63500Y413816D01*
X56692Y420624D01*
X44908Y420624D01*
X38100Y413816D01*
X31292Y420624D01*
X19508Y420624D01*
X11176Y412292D01*
X11176Y400732D01*
X8256Y400732D01*
X4738Y399275D01*
X4699Y399236D01*
X4699Y400050D01*
X5010Y404004D01*
X7454Y411524D01*
X12101Y417921D01*
X18498Y422568D01*
X26018Y425012D01*
X29972Y425323D01*
X257234Y425323D01*
X254069Y422159D01*
X252211Y420301D01*
X251206Y417874D01*
X251206Y396435D01*
X249279Y394509D01*
X387263Y296401D02*
X389111Y294553D01*
X387263Y296401D02*
X384847Y297402D01*
X382233Y297402D01*
X379817Y296401D01*
X377969Y294553D01*
X376968Y292137D01*
X376968Y289523D01*
X377969Y287107D01*
X379817Y285259D01*
X380966Y284783D01*
X385480Y280269D01*
X383256Y280269D01*
X381642Y278655D01*
X380932Y279366D01*
X380932Y279885D01*
X379589Y283127D01*
X377107Y285609D01*
X373865Y286952D01*
X370355Y286952D01*
X367113Y285609D01*
X364631Y283127D01*
X363288Y279885D01*
X363288Y276375D01*
X364631Y273133D01*
X366292Y271472D01*
X364271Y271472D01*
X354522Y261723D01*
X354522Y259110D01*
X354387Y259110D01*
X353491Y258870D01*
X352687Y258406D01*
X349514Y255233D01*
X354851Y249896D01*
X353471Y248515D01*
X348133Y253852D01*
X344960Y250679D01*
X344496Y249875D01*
X344256Y248979D01*
X344256Y248633D01*
X344248Y248647D01*
X343160Y250066D01*
X332355Y239261D01*
X330200Y241416D01*
X341004Y252221D01*
X339586Y253309D01*
X337673Y254414D01*
X335631Y255260D01*
X333496Y255832D01*
X331305Y256120D01*
X329095Y256120D01*
X326904Y255832D01*
X324769Y255260D01*
X322727Y254414D01*
X320814Y253309D01*
X319395Y252221D01*
X330200Y241416D01*
X328045Y239261D01*
X317240Y250066D01*
X316152Y248647D01*
X315047Y246734D01*
X314201Y244692D01*
X313629Y242557D01*
X313341Y240366D01*
X313341Y238156D01*
X313629Y235965D01*
X314201Y233830D01*
X315047Y231788D01*
X316152Y229875D01*
X317240Y228457D01*
X328045Y239261D01*
X330200Y237106D01*
X319395Y226301D01*
X320814Y225213D01*
X322727Y224108D01*
X324769Y223262D01*
X326904Y222691D01*
X329095Y222402D01*
X331305Y222402D01*
X333496Y222691D01*
X335631Y223262D01*
X337673Y224108D01*
X339586Y225213D01*
X341004Y226301D01*
X330200Y237106D01*
X332355Y239261D01*
X343160Y228457D01*
X344248Y229875D01*
X345353Y231788D01*
X346199Y233830D01*
X346771Y235965D01*
X347059Y238156D01*
X347059Y240366D01*
X346771Y242557D01*
X346199Y244692D01*
X345901Y245411D01*
X348133Y243178D01*
X353471Y248515D01*
X354851Y247135D01*
X349514Y241798D01*
X352687Y238624D01*
X353491Y238160D01*
X354387Y237920D01*
X355315Y237920D01*
X356211Y238160D01*
X357015Y238624D01*
X360188Y241798D01*
X354851Y247135D01*
X356231Y248515D01*
X361569Y243178D01*
X364742Y246351D01*
X365206Y247155D01*
X365446Y248051D01*
X365446Y248186D01*
X368058Y248186D01*
X369542Y249670D01*
X370361Y248851D01*
X373144Y247698D01*
X373601Y247698D01*
X378714Y242585D01*
X378714Y239971D01*
X379642Y237731D01*
X381357Y236016D01*
X383370Y234003D01*
X382806Y233438D01*
X382806Y230826D01*
X382671Y230826D01*
X381775Y230586D01*
X380971Y230122D01*
X377798Y226949D01*
X383135Y221611D01*
X381755Y220231D01*
X376418Y225568D01*
X373244Y222395D01*
X372780Y221591D01*
X372540Y220695D01*
X372540Y219767D01*
X372780Y218871D01*
X372874Y218709D01*
X371692Y219199D01*
X369557Y219771D01*
X367366Y220059D01*
X365156Y220059D01*
X362965Y219771D01*
X360830Y219199D01*
X358789Y218353D01*
X356875Y217248D01*
X355457Y216160D01*
X366261Y205355D01*
X364106Y203200D01*
X353301Y214004D01*
X352213Y212586D01*
X351108Y210673D01*
X350263Y208631D01*
X349691Y206496D01*
X349402Y204305D01*
X349402Y202095D01*
X349691Y199904D01*
X350263Y197769D01*
X351108Y195727D01*
X352213Y193814D01*
X353301Y192395D01*
X364106Y203200D01*
X366261Y201045D01*
X355457Y190240D01*
X356875Y189152D01*
X358789Y188047D01*
X360830Y187201D01*
X362965Y186629D01*
X365156Y186341D01*
X365370Y186341D01*
X347059Y168030D01*
X347059Y168244D01*
X346771Y170435D01*
X346199Y172570D01*
X345353Y174611D01*
X344248Y176525D01*
X343160Y177943D01*
X332355Y167139D01*
X330200Y169294D01*
X341004Y180099D01*
X339586Y181187D01*
X337673Y182292D01*
X335631Y183137D01*
X333496Y183709D01*
X331305Y183998D01*
X329095Y183998D01*
X326904Y183709D01*
X324769Y183137D01*
X322727Y182292D01*
X320814Y181187D01*
X319395Y180099D01*
X330200Y169294D01*
X328045Y167139D01*
X317240Y177943D01*
X316152Y176525D01*
X315047Y174611D01*
X314201Y172570D01*
X313629Y170435D01*
X313341Y168244D01*
X313341Y166034D01*
X313629Y163843D01*
X314201Y161708D01*
X315047Y159666D01*
X316152Y157752D01*
X317240Y156334D01*
X328045Y167139D01*
X330200Y164984D01*
X319395Y154179D01*
X320814Y153091D01*
X322727Y151986D01*
X324769Y151140D01*
X326904Y150568D01*
X329095Y150280D01*
X329309Y150280D01*
X282622Y103593D01*
X282622Y109164D01*
X291049Y117591D01*
X293049Y119591D01*
X294132Y122205D01*
X294132Y125446D01*
X294499Y125813D01*
X295842Y129055D01*
X295842Y132565D01*
X294499Y135807D01*
X292017Y138289D01*
X288775Y139632D01*
X287758Y139632D01*
X289031Y140905D01*
X289126Y140810D01*
X289930Y140346D01*
X290826Y140106D01*
X296266Y140106D01*
X296266Y149606D01*
X299314Y149606D01*
X299314Y140106D01*
X304754Y140106D01*
X305650Y140346D01*
X306454Y140810D01*
X307110Y141466D01*
X307574Y142270D01*
X307814Y143166D01*
X307814Y149606D01*
X299314Y149606D01*
X299314Y152654D01*
X307814Y152654D01*
X307814Y159094D01*
X307574Y159990D01*
X307110Y160794D01*
X306454Y161450D01*
X305650Y161914D01*
X304754Y162154D01*
X299314Y162154D01*
X299314Y152654D01*
X296266Y152654D01*
X296266Y162154D01*
X290826Y162154D01*
X289930Y161914D01*
X289126Y161450D01*
X289031Y161355D01*
X287738Y162648D01*
X287954Y162648D01*
X290301Y164995D01*
X290896Y164400D01*
X291700Y163936D01*
X292596Y163696D01*
X297084Y163696D01*
X297084Y171744D01*
X299036Y171744D01*
X299036Y163696D01*
X303524Y163696D01*
X304420Y163936D01*
X305224Y164400D01*
X305880Y165056D01*
X306344Y165860D01*
X306584Y166756D01*
X306584Y171744D01*
X299036Y171744D01*
X299036Y173696D01*
X306584Y173696D01*
X306584Y178684D01*
X306344Y179580D01*
X305880Y180384D01*
X305224Y181040D01*
X304420Y181504D01*
X303524Y181744D01*
X299036Y181744D01*
X299036Y173696D01*
X297084Y173696D01*
X297084Y181744D01*
X292596Y181744D01*
X291700Y181504D01*
X290896Y181040D01*
X290301Y180445D01*
X287954Y182792D01*
X286902Y182792D01*
X286902Y187950D01*
X288708Y187201D01*
X290843Y186629D01*
X293034Y186341D01*
X295244Y186341D01*
X297435Y186629D01*
X299570Y187201D01*
X301612Y188047D01*
X303525Y189152D01*
X304943Y190240D01*
X294139Y201045D01*
X296294Y203200D01*
X307099Y192395D01*
X308187Y193814D01*
X309292Y195727D01*
X310138Y197769D01*
X310709Y199904D01*
X310998Y202095D01*
X310998Y204305D01*
X310709Y206496D01*
X310138Y208631D01*
X309292Y210673D01*
X308187Y212586D01*
X307099Y214004D01*
X296294Y203200D01*
X294139Y205355D01*
X304943Y216160D01*
X303525Y217248D01*
X301612Y218353D01*
X299570Y219199D01*
X297435Y219771D01*
X295244Y220059D01*
X293034Y220059D01*
X290843Y219771D01*
X288708Y219199D01*
X286666Y218353D01*
X284753Y217248D01*
X283334Y216160D01*
X294139Y205355D01*
X291984Y203200D01*
X281179Y214004D01*
X280091Y212586D01*
X278986Y210673D01*
X278223Y208829D01*
X270750Y216302D01*
X267472Y216302D01*
X267472Y218204D01*
X265378Y220298D01*
X274484Y220298D01*
X276331Y222145D01*
X276426Y222050D01*
X277230Y221586D01*
X278126Y221346D01*
X283114Y221346D01*
X283114Y228894D01*
X285066Y228894D01*
X285066Y221346D01*
X290054Y221346D01*
X290950Y221586D01*
X291754Y222050D01*
X292410Y222706D01*
X292874Y223510D01*
X293114Y224406D01*
X293114Y228894D01*
X285066Y228894D01*
X285066Y230846D01*
X293114Y230846D01*
X293114Y235334D01*
X292874Y236230D01*
X292410Y237034D01*
X291754Y237690D01*
X290950Y238154D01*
X290054Y238394D01*
X285066Y238394D01*
X285066Y230846D01*
X283114Y230846D01*
X283114Y238394D01*
X278126Y238394D01*
X277230Y238154D01*
X276426Y237690D01*
X276331Y237595D01*
X274484Y239442D01*
X259696Y239442D01*
X257018Y236764D01*
X257018Y235712D01*
X256660Y235712D01*
X249572Y228624D01*
X249572Y236104D01*
X246144Y239532D01*
X225656Y239532D01*
X224554Y238430D01*
X224352Y238484D01*
X224242Y238484D01*
X224242Y239928D01*
X235294Y239928D01*
X237972Y242606D01*
X237972Y243292D01*
X240646Y240618D01*
X255434Y240618D01*
X257281Y242465D01*
X257376Y242370D01*
X258180Y241906D01*
X259076Y241666D01*
X264064Y241666D01*
X264064Y249214D01*
X266016Y249214D01*
X266016Y241666D01*
X271004Y241666D01*
X271900Y241906D01*
X272704Y242370D01*
X273360Y243026D01*
X273521Y243305D01*
X273770Y243139D01*
X274957Y242647D01*
X276217Y242396D01*
X276860Y242396D01*
X276860Y248920D01*
X276860Y248920D01*
X276860Y242396D01*
X277503Y242396D01*
X278763Y242647D01*
X279950Y243139D01*
X281019Y243852D01*
X281928Y244761D01*
X282243Y245234D01*
X282866Y244874D01*
X283762Y244634D01*
X290576Y244634D01*
X290576Y250952D01*
X290576Y250952D01*
X290576Y244634D01*
X297390Y244634D01*
X298286Y244874D01*
X299090Y245338D01*
X299746Y245994D01*
X300210Y246798D01*
X300450Y247694D01*
X300450Y250952D01*
X290576Y250952D01*
X290576Y250952D01*
X300450Y250952D01*
X300450Y254210D01*
X300438Y254254D01*
X301890Y254254D01*
X303160Y252984D01*
X319648Y252984D01*
X322326Y255662D01*
X322326Y263327D01*
X330125Y260096D01*
X339927Y260096D01*
X348982Y263847D01*
X355913Y270778D01*
X359664Y279833D01*
X359664Y287166D01*
X370787Y298288D01*
X370843Y298313D01*
X371857Y299358D01*
X372887Y300388D01*
X372910Y300445D01*
X372953Y300489D01*
X373489Y301843D01*
X374047Y303189D01*
X374047Y303250D01*
X374069Y303307D01*
X374047Y304764D01*
X374047Y306221D01*
X374023Y306277D01*
X373913Y313378D01*
X375391Y314855D01*
X375986Y314260D01*
X376790Y313796D01*
X377686Y313556D01*
X382174Y313556D01*
X382174Y321604D01*
X384126Y321604D01*
X384126Y313556D01*
X388614Y313556D01*
X389510Y313796D01*
X390314Y314260D01*
X390970Y314916D01*
X391434Y315720D01*
X391674Y316616D01*
X391674Y321604D01*
X384126Y321604D01*
X384126Y323556D01*
X391674Y323556D01*
X391674Y328544D01*
X391434Y329440D01*
X390970Y330244D01*
X390314Y330900D01*
X389510Y331364D01*
X388614Y331604D01*
X384126Y331604D01*
X384126Y323556D01*
X382174Y323556D01*
X382174Y331604D01*
X377686Y331604D01*
X376790Y331364D01*
X375986Y330900D01*
X375391Y330305D01*
X373718Y331978D01*
X383420Y331978D01*
X397604Y346162D01*
X398921Y342983D01*
X401403Y340501D01*
X404645Y339158D01*
X408155Y339158D01*
X411397Y340501D01*
X412496Y341600D01*
X412496Y306324D01*
X408128Y306324D01*
X399796Y297992D01*
X399796Y286208D01*
X406604Y279400D01*
X405098Y277893D01*
X389587Y293404D01*
X389111Y294553D01*
X344297Y206004D02*
X344297Y200396D01*
X344297Y206004D02*
X342151Y211185D01*
X338185Y215151D01*
X333004Y217297D01*
X327396Y217297D01*
X322215Y215151D01*
X318249Y211185D01*
X316103Y206004D01*
X316103Y200396D01*
X318249Y195215D01*
X322215Y191249D01*
X327396Y189103D01*
X333004Y189103D01*
X338185Y191249D01*
X342151Y195215D01*
X344297Y200396D01*
X402590Y322580D02*
X402590Y330354D01*
X402590Y322580D02*
X402590Y322580D01*
X402590Y330354D01*
X401824Y330354D01*
X400322Y330055D01*
X398908Y329469D01*
X397634Y328618D01*
X396552Y327536D01*
X395701Y326262D01*
X395115Y324848D01*
X394816Y323346D01*
X394816Y322580D01*
X402590Y322580D01*
X402590Y322580D01*
X394816Y322580D01*
X394816Y321814D01*
X395115Y320312D01*
X395701Y318898D01*
X396552Y317624D01*
X397634Y316542D01*
X398908Y315691D01*
X400322Y315105D01*
X401824Y314806D01*
X402590Y314806D01*
X402590Y322580D01*
X402590Y322580D01*
X402590Y314806D01*
X403356Y314806D01*
X404858Y315105D01*
X406272Y315691D01*
X407546Y316542D01*
X408628Y317624D01*
X409479Y318898D01*
X410065Y320312D01*
X410364Y321814D01*
X410364Y322580D01*
X402590Y322580D01*
X402590Y322580D01*
X410364Y322580D01*
X410364Y323346D01*
X410065Y324848D01*
X409479Y326262D01*
X408628Y327536D01*
X407546Y328618D01*
X406272Y329469D01*
X404858Y330055D01*
X403356Y330354D01*
X402590Y330354D01*
X389736Y415290D02*
X389736Y416056D01*
X389736Y415290D02*
X397510Y415290D01*
X397510Y415290D01*
X389736Y415290D01*
X389736Y414524D01*
X390035Y413022D01*
X390305Y412369D01*
X388123Y412369D01*
X387350Y411596D01*
X386577Y412369D01*
X375423Y412369D01*
X374650Y411596D01*
X373877Y412369D01*
X362723Y412369D01*
X361950Y411596D01*
X361177Y412369D01*
X350023Y412369D01*
X349250Y411596D01*
X348477Y412369D01*
X337323Y412369D01*
X336550Y411596D01*
X335777Y412369D01*
X324623Y412369D01*
X323850Y411596D01*
X323077Y412369D01*
X311923Y412369D01*
X309245Y409691D01*
X309245Y409351D01*
X308527Y410069D01*
X305285Y411412D01*
X304047Y411412D01*
X303192Y412267D01*
X303192Y416164D01*
X303050Y416306D01*
X389786Y416306D01*
X389736Y416056D01*
X284148Y416164D02*
X284148Y408294D01*
X282938Y408795D01*
X281436Y409094D01*
X280670Y409094D01*
X280670Y401320D01*
X280670Y401320D01*
X280670Y409094D01*
X279904Y409094D01*
X278402Y408795D01*
X276988Y408209D01*
X276244Y407712D01*
X276244Y410619D01*
X267971Y410619D01*
X267971Y411021D01*
X276244Y411021D01*
X276244Y414734D01*
X276004Y415630D01*
X275614Y416306D01*
X284290Y416306D01*
X284148Y416164D01*
X406082Y399733D02*
X406718Y399733D01*
X406082Y399733D02*
X406082Y410078D01*
X406718Y409443D01*
X406718Y399733D01*
X172094Y153406D02*
X167474Y155320D01*
X163464Y155320D01*
X163464Y159434D01*
X155916Y159434D01*
X155916Y161386D01*
X163464Y161386D01*
X163464Y166374D01*
X163224Y167270D01*
X162760Y168074D01*
X162665Y168169D01*
X164114Y169618D01*
X164328Y169618D01*
X164328Y162716D01*
X165430Y161614D01*
X165376Y161412D01*
X165376Y160460D01*
X166584Y160460D01*
X166584Y160460D01*
X165376Y160460D01*
X165376Y159508D01*
X165703Y158286D01*
X166336Y157190D01*
X167230Y156296D01*
X168326Y155663D01*
X169548Y155336D01*
X173150Y155336D01*
X173150Y159288D01*
X173150Y159288D01*
X173150Y155336D01*
X176752Y155336D01*
X177974Y155663D01*
X179070Y156296D01*
X179964Y157190D01*
X180597Y158286D01*
X180924Y159508D01*
X180924Y160460D01*
X179716Y160460D01*
X179716Y160460D01*
X180924Y160460D01*
X180924Y161412D01*
X180870Y161614D01*
X181492Y162236D01*
X181456Y162056D01*
X181456Y161290D01*
X189230Y161290D01*
X189230Y161290D01*
X181456Y161290D01*
X181456Y160524D01*
X181755Y159022D01*
X182078Y158242D01*
X181730Y158242D01*
X177920Y154432D01*
X174498Y151010D01*
X174498Y151002D01*
X172094Y153406D01*
X210656Y136388D02*
X220632Y136388D01*
X218969Y134725D01*
X218374Y135320D01*
X217570Y135784D01*
X216674Y136024D01*
X212186Y136024D01*
X212186Y127976D01*
X210234Y127976D01*
X210234Y136024D01*
X207786Y136024D01*
X208150Y136388D01*
X210656Y136388D01*
X135851Y25528D02*
X130849Y25528D01*
X135851Y25528D02*
X140471Y27442D01*
X144008Y30979D01*
X145922Y35599D01*
X145922Y40601D01*
X144008Y45221D01*
X141638Y47592D01*
X142875Y48829D01*
X145006Y46698D01*
X145796Y46698D01*
X145796Y43136D01*
X146098Y42407D01*
X146098Y41674D01*
X147251Y38891D01*
X149381Y36761D01*
X151718Y35793D01*
X157939Y29571D01*
X160366Y28566D01*
X161878Y28566D01*
X161878Y27776D01*
X163725Y25929D01*
X163630Y25834D01*
X163166Y25030D01*
X162926Y24134D01*
X162926Y19146D01*
X170474Y19146D01*
X170474Y17194D01*
X162926Y17194D01*
X162926Y12206D01*
X163166Y11310D01*
X163630Y10506D01*
X164286Y9850D01*
X165090Y9386D01*
X165986Y9146D01*
X170474Y9146D01*
X170474Y17194D01*
X172426Y17194D01*
X172426Y9146D01*
X176914Y9146D01*
X177810Y9386D01*
X178614Y9850D01*
X179270Y10506D01*
X179734Y11310D01*
X179974Y12206D01*
X179974Y17194D01*
X172426Y17194D01*
X172426Y19146D01*
X179974Y19146D01*
X179974Y24134D01*
X179734Y25030D01*
X179270Y25834D01*
X179175Y25929D01*
X181022Y27776D01*
X181022Y42210D01*
X181698Y41534D01*
X181698Y34626D01*
X184045Y32279D01*
X183450Y31684D01*
X182986Y30880D01*
X182746Y29984D01*
X182746Y25496D01*
X190794Y25496D01*
X190794Y23544D01*
X182746Y23544D01*
X182746Y19056D01*
X182986Y18160D01*
X183450Y17356D01*
X184106Y16700D01*
X184910Y16236D01*
X185806Y15996D01*
X190794Y15996D01*
X190794Y23544D01*
X192746Y23544D01*
X192746Y15996D01*
X195025Y15996D01*
X192605Y13577D01*
X192588Y13577D01*
X191230Y12201D01*
X191219Y12190D01*
X188756Y10003D01*
X183081Y6678D01*
X176739Y4935D01*
X173453Y4699D01*
X154346Y4699D01*
X154840Y5193D01*
X155906Y6660D01*
X156730Y8276D01*
X157290Y10001D01*
X157574Y11793D01*
X157574Y12001D01*
X146749Y12001D01*
X146749Y13399D01*
X157574Y13399D01*
X157574Y13607D01*
X157290Y15399D01*
X156730Y17124D01*
X155906Y18740D01*
X154840Y20207D01*
X153557Y21490D01*
X152090Y22556D01*
X150474Y23380D01*
X148749Y23940D01*
X146957Y24224D01*
X146749Y24224D01*
X146749Y13399D01*
X145351Y13399D01*
X145351Y24224D01*
X145143Y24224D01*
X143351Y23940D01*
X141626Y23380D01*
X140010Y22556D01*
X138543Y21490D01*
X137260Y20207D01*
X136194Y18740D01*
X135370Y17124D01*
X134810Y15399D01*
X134526Y13607D01*
X134526Y13399D01*
X145351Y13399D01*
X145351Y12001D01*
X134526Y12001D01*
X134526Y11793D01*
X134810Y10001D01*
X135370Y8276D01*
X136194Y6660D01*
X137260Y5193D01*
X137754Y4699D01*
X130428Y4699D01*
X131308Y5579D01*
X133222Y10199D01*
X133222Y15201D01*
X131308Y19821D01*
X127771Y23358D01*
X127254Y23572D01*
X127254Y27017D01*
X130849Y25528D01*
X162752Y43438D02*
X164556Y45242D01*
X162752Y43438D02*
X161057Y45132D01*
X160229Y47133D01*
X162472Y49376D01*
X162472Y63164D01*
X160866Y64770D01*
X162472Y66376D01*
X162472Y80164D01*
X161864Y80772D01*
X162893Y80772D01*
X170548Y83943D01*
X176407Y89802D01*
X179042Y96164D01*
X187706Y96164D01*
X187706Y93116D01*
X178206Y93116D01*
X178206Y87676D01*
X178446Y86780D01*
X178910Y85976D01*
X179566Y85320D01*
X180370Y84856D01*
X181266Y84616D01*
X187706Y84616D01*
X187706Y93116D01*
X190754Y93116D01*
X190754Y84616D01*
X197194Y84616D01*
X198090Y84856D01*
X198894Y85320D01*
X199550Y85976D01*
X200014Y86780D01*
X200254Y87676D01*
X200254Y93116D01*
X190754Y93116D01*
X190754Y96164D01*
X200254Y96164D01*
X200254Y101604D01*
X200014Y102500D01*
X199550Y103304D01*
X199455Y103399D01*
X201302Y105246D01*
X201302Y122034D01*
X198624Y124712D01*
X196342Y124712D01*
X196342Y126186D01*
X196974Y126818D01*
X198312Y130048D01*
X201810Y130048D01*
X202686Y130924D01*
X202686Y127976D01*
X210234Y127976D01*
X210234Y126024D01*
X202686Y126024D01*
X202686Y121036D01*
X202926Y120140D01*
X203390Y119336D01*
X204046Y118680D01*
X204850Y118216D01*
X205746Y117976D01*
X210234Y117976D01*
X210234Y126024D01*
X212186Y126024D01*
X212186Y117976D01*
X216674Y117976D01*
X217570Y118216D01*
X218374Y118680D01*
X218969Y119275D01*
X219729Y118515D01*
X213374Y115883D01*
X206443Y108952D01*
X202692Y99897D01*
X202692Y90095D01*
X206443Y81040D01*
X213374Y74109D01*
X214240Y73750D01*
X214240Y67766D01*
X212619Y66145D01*
X212024Y66740D01*
X211220Y67204D01*
X210324Y67444D01*
X205836Y67444D01*
X205836Y59396D01*
X203884Y59396D01*
X203884Y67444D01*
X199396Y67444D01*
X198500Y67204D01*
X197696Y66740D01*
X197040Y66084D01*
X196913Y65864D01*
X196913Y66035D01*
X195499Y69450D01*
X195708Y69311D01*
X197122Y68725D01*
X198624Y68426D01*
X199390Y68426D01*
X199390Y76200D01*
X199390Y76200D01*
X199390Y68426D01*
X200156Y68426D01*
X201658Y68725D01*
X203072Y69311D01*
X204346Y70162D01*
X205428Y71244D01*
X206279Y72518D01*
X206865Y73932D01*
X207164Y75434D01*
X207164Y76200D01*
X199390Y76200D01*
X199390Y76200D01*
X207164Y76200D01*
X207164Y76966D01*
X206865Y78468D01*
X206279Y79882D01*
X205428Y81156D01*
X204346Y82238D01*
X203072Y83089D01*
X201658Y83675D01*
X200156Y83974D01*
X199390Y83974D01*
X199390Y76200D01*
X199390Y76200D01*
X199390Y83974D01*
X198624Y83974D01*
X197122Y83675D01*
X195708Y83089D01*
X194434Y82238D01*
X193352Y81156D01*
X192501Y79882D01*
X191915Y78468D01*
X191616Y76966D01*
X191616Y76200D01*
X199390Y76200D01*
X199390Y76200D01*
X191616Y76200D01*
X191616Y75434D01*
X191749Y74768D01*
X189728Y76788D01*
X183637Y79311D01*
X177043Y79311D01*
X170952Y76788D01*
X166290Y72126D01*
X163767Y66035D01*
X163767Y59441D01*
X166290Y53350D01*
X170952Y48688D01*
X177043Y46165D01*
X177068Y46165D01*
X177990Y45242D01*
X164556Y45242D01*
X24284Y23626D02*
X24284Y22860D01*
X24284Y23626D02*
X23985Y25128D01*
X23399Y26542D01*
X22548Y27816D01*
X22336Y28028D01*
X27604Y28028D01*
X29210Y29634D01*
X30816Y28028D01*
X44604Y28028D01*
X47023Y30447D01*
X50029Y27442D01*
X54649Y25528D01*
X59651Y25528D01*
X63246Y27017D01*
X63246Y23572D01*
X62729Y23358D01*
X59192Y19821D01*
X58978Y19304D01*
X57942Y19304D01*
X57942Y19594D01*
X55264Y22272D01*
X40476Y22272D01*
X38629Y20425D01*
X38534Y20520D01*
X37730Y20984D01*
X36834Y21224D01*
X31846Y21224D01*
X31846Y13676D01*
X29894Y13676D01*
X29894Y21224D01*
X24906Y21224D01*
X24066Y20999D01*
X24284Y22094D01*
X24284Y22860D01*
X16510Y22860D01*
X16510Y22860D01*
X24284Y22860D01*
X152145Y140247D02*
X152145Y145249D01*
X150231Y149869D01*
X148330Y151770D01*
X148580Y151626D01*
X149476Y151386D01*
X153964Y151386D01*
X153964Y159434D01*
X155916Y159434D01*
X155916Y151470D01*
X154315Y149869D01*
X152401Y145249D01*
X152401Y140247D01*
X153621Y137302D01*
X150925Y137302D01*
X152145Y140247D01*
X232231Y70358D02*
X241286Y74109D01*
X248217Y81040D01*
X251968Y90095D01*
X251968Y99897D01*
X249550Y105735D01*
X249806Y105666D01*
X254294Y105666D01*
X254294Y113714D01*
X256246Y113714D01*
X256246Y105666D01*
X260734Y105666D01*
X261630Y105906D01*
X262434Y106370D01*
X263090Y107026D01*
X263478Y107699D01*
X263478Y101756D01*
X266156Y99078D01*
X278107Y99078D01*
X231432Y52403D01*
X231432Y65814D01*
X229480Y67766D01*
X229480Y70358D01*
X232231Y70358D01*
X243712Y115031D02*
X244986Y115882D01*
X246068Y116964D01*
X246746Y117978D01*
X246746Y115666D01*
X254294Y115666D01*
X254294Y113714D01*
X246746Y113714D01*
X246746Y110423D01*
X242600Y114570D01*
X243712Y115031D01*
X128143Y303892D02*
X128424Y305304D01*
X128424Y306070D01*
X120650Y306070D01*
X120650Y306070D01*
X128424Y306070D01*
X128424Y306836D01*
X128143Y308248D01*
X129783Y308248D01*
X129608Y307825D01*
X129608Y304315D01*
X129783Y303892D01*
X128143Y303892D01*
X211294Y268072D02*
X211438Y267928D01*
X211294Y268072D02*
X196506Y268072D01*
X195038Y266604D01*
X190206Y266604D01*
X190206Y268556D01*
X197754Y268556D01*
X197754Y273544D01*
X197514Y274440D01*
X197437Y274574D01*
X211438Y274574D01*
X211438Y267928D01*
X14264Y177896D02*
X6216Y177896D01*
X14264Y177896D02*
X14264Y175944D01*
X6216Y175944D01*
X6216Y171456D01*
X6456Y170560D01*
X6920Y169756D01*
X7576Y169100D01*
X8380Y168636D01*
X9276Y168396D01*
X14264Y168396D01*
X14264Y175944D01*
X16216Y175944D01*
X16216Y168396D01*
X21204Y168396D01*
X22100Y168636D01*
X22904Y169100D01*
X23560Y169756D01*
X24024Y170560D01*
X24264Y171456D01*
X24264Y175944D01*
X16216Y175944D01*
X16216Y177896D01*
X24264Y177896D01*
X24264Y182384D01*
X24024Y183280D01*
X23560Y184084D01*
X22965Y184679D01*
X25094Y186808D01*
X27010Y186808D01*
X29760Y180169D01*
X35899Y174030D01*
X38739Y172854D01*
X36836Y172854D01*
X35940Y172614D01*
X35136Y172150D01*
X34480Y171494D01*
X34016Y170690D01*
X33776Y169794D01*
X33776Y166448D01*
X32896Y167328D01*
X31622Y168179D01*
X30208Y168765D01*
X28706Y169064D01*
X27940Y169064D01*
X27940Y161290D01*
X27940Y161290D01*
X27940Y169064D01*
X27174Y169064D01*
X25672Y168765D01*
X24258Y168179D01*
X22984Y167328D01*
X21902Y166246D01*
X21051Y164972D01*
X20465Y163558D01*
X20166Y162056D01*
X20166Y161290D01*
X27940Y161290D01*
X27940Y161290D01*
X20166Y161290D01*
X20166Y160524D01*
X20465Y159022D01*
X21051Y157608D01*
X21902Y156334D01*
X22984Y155252D01*
X24258Y154401D01*
X25672Y153815D01*
X27174Y153516D01*
X27940Y153516D01*
X27940Y161290D01*
X27940Y161290D01*
X27940Y153516D01*
X28706Y153516D01*
X30208Y153815D01*
X31622Y154401D01*
X32896Y155252D01*
X33978Y156334D01*
X34195Y156659D01*
X34480Y156166D01*
X35136Y155510D01*
X35574Y155257D01*
X31106Y153406D01*
X27569Y149869D01*
X25655Y145249D01*
X25655Y140247D01*
X27569Y135627D01*
X31106Y132090D01*
X35726Y130176D01*
X38836Y130176D01*
X46584Y122428D01*
X40307Y122428D01*
X34444Y119999D01*
X34444Y120146D01*
X34145Y121648D01*
X33559Y123062D01*
X32708Y124336D01*
X31626Y125418D01*
X30352Y126269D01*
X28938Y126855D01*
X27436Y127154D01*
X26670Y127154D01*
X26670Y119380D01*
X26670Y119380D01*
X26670Y127154D01*
X25904Y127154D01*
X24402Y126855D01*
X22988Y126269D01*
X21714Y125418D01*
X20632Y124336D01*
X19781Y123062D01*
X19195Y121648D01*
X18896Y120146D01*
X18896Y119380D01*
X26670Y119380D01*
X26670Y119380D01*
X18896Y119380D01*
X18896Y118614D01*
X19195Y117112D01*
X19781Y115698D01*
X20632Y114424D01*
X21125Y113931D01*
X20704Y114044D01*
X16216Y114044D01*
X16216Y105996D01*
X14264Y105996D01*
X14264Y114044D01*
X9776Y114044D01*
X8880Y113804D01*
X8076Y113340D01*
X7420Y112684D01*
X6956Y111880D01*
X6716Y110984D01*
X6716Y105996D01*
X14264Y105996D01*
X14264Y104044D01*
X6716Y104044D01*
X6716Y99056D01*
X6956Y98160D01*
X7420Y97356D01*
X7515Y97261D01*
X5668Y95414D01*
X5668Y80626D01*
X8346Y77948D01*
X15254Y77948D01*
X15552Y77650D01*
X13472Y76788D01*
X8810Y72126D01*
X6287Y66035D01*
X6287Y59441D01*
X8810Y53350D01*
X13472Y48688D01*
X14717Y48172D01*
X13816Y48172D01*
X11138Y45494D01*
X11138Y30706D01*
X12388Y29456D01*
X11554Y28898D01*
X10472Y27816D01*
X9621Y26542D01*
X9035Y25128D01*
X8736Y23626D01*
X8736Y22860D01*
X16510Y22860D01*
X16510Y22860D01*
X8736Y22860D01*
X8736Y22094D01*
X9035Y20592D01*
X9621Y19178D01*
X10472Y17904D01*
X11554Y16822D01*
X12828Y15971D01*
X14242Y15385D01*
X15744Y15086D01*
X16510Y15086D01*
X16510Y22860D01*
X16510Y22860D01*
X16510Y15086D01*
X17276Y15086D01*
X18778Y15385D01*
X20192Y15971D01*
X21466Y16822D01*
X21846Y17202D01*
X21846Y13676D01*
X29894Y13676D01*
X29894Y11724D01*
X21846Y11724D01*
X21846Y7236D01*
X22086Y6340D01*
X22123Y6276D01*
X18498Y7454D01*
X12101Y12101D01*
X7454Y18498D01*
X5010Y26018D01*
X4699Y29972D01*
X4699Y129399D01*
X6247Y127851D01*
X7211Y127851D01*
X9749Y124358D01*
X9749Y124358D01*
X9749Y124358D01*
X14563Y122793D01*
X14563Y122793D01*
X19377Y124358D01*
X19377Y124358D01*
X22352Y128453D01*
X22352Y135574D01*
X21410Y136516D01*
X22753Y140648D01*
X22753Y140648D01*
X21687Y143928D01*
X22352Y144592D01*
X22352Y153773D01*
X19153Y156972D01*
X14629Y156972D01*
X12301Y154644D01*
X6247Y154644D01*
X4699Y153096D01*
X4699Y269555D01*
X5306Y268948D01*
X6604Y268948D01*
X6604Y265487D01*
X7532Y263247D01*
X23217Y247562D01*
X25457Y246634D01*
X33266Y246634D01*
X31576Y242554D01*
X31576Y238604D01*
X31191Y238218D01*
X31019Y238632D01*
X30168Y239906D01*
X29086Y240988D01*
X27812Y241839D01*
X26398Y242425D01*
X24896Y242724D01*
X24130Y242724D01*
X24130Y234950D01*
X24130Y234950D01*
X24130Y242724D01*
X23364Y242724D01*
X21862Y242425D01*
X20448Y241839D01*
X19174Y240988D01*
X18092Y239906D01*
X17241Y238632D01*
X16655Y237218D01*
X16356Y235716D01*
X16356Y234950D01*
X24130Y234950D01*
X24130Y234950D01*
X16356Y234950D01*
X16356Y234184D01*
X16655Y232682D01*
X17241Y231268D01*
X18092Y229994D01*
X18582Y229504D01*
X16376Y229504D01*
X16376Y221956D01*
X14424Y221956D01*
X14424Y229504D01*
X9936Y229504D01*
X9040Y229264D01*
X8236Y228800D01*
X7580Y228144D01*
X7116Y227340D01*
X6876Y226444D01*
X6876Y221956D01*
X14424Y221956D01*
X14424Y220004D01*
X6876Y220004D01*
X6876Y215516D01*
X7116Y214620D01*
X7580Y213816D01*
X8236Y213160D01*
X9040Y212696D01*
X9936Y212456D01*
X14424Y212456D01*
X14424Y220004D01*
X16376Y220004D01*
X16376Y212456D01*
X20864Y212456D01*
X21760Y212696D01*
X22564Y213160D01*
X23220Y213816D01*
X23684Y214620D01*
X23924Y215516D01*
X23924Y220004D01*
X16376Y220004D01*
X16376Y221956D01*
X23924Y221956D01*
X23924Y226444D01*
X23728Y227176D01*
X24130Y227176D01*
X24130Y234950D01*
X24130Y234950D01*
X24130Y227176D01*
X24896Y227176D01*
X25828Y227361D01*
X25828Y214086D01*
X28506Y211408D01*
X36812Y211408D01*
X35899Y211030D01*
X29760Y204891D01*
X28162Y201032D01*
X25094Y201032D01*
X22634Y203492D01*
X7846Y203492D01*
X5168Y200814D01*
X5168Y187026D01*
X7515Y184679D01*
X6920Y184084D01*
X6456Y183280D01*
X6216Y182384D01*
X6216Y177896D01*
X376109Y215203D02*
X376418Y214894D01*
X381755Y220231D01*
X383135Y218851D01*
X377798Y213513D01*
X378264Y213048D01*
X368416Y203200D01*
X366261Y205355D01*
X376109Y215203D01*
X114173Y128386D02*
X114173Y112914D01*
X114173Y128386D02*
X111495Y131064D01*
X108712Y131064D01*
X108712Y133273D01*
X109172Y134384D01*
X109172Y137396D01*
X108019Y140179D01*
X105889Y142309D01*
X103106Y143462D01*
X100094Y143462D01*
X97311Y142309D01*
X95181Y140179D01*
X94028Y137396D01*
X94028Y134384D01*
X94488Y133273D01*
X94488Y131064D01*
X91705Y131064D01*
X89027Y128386D01*
X89027Y112522D01*
X85002Y112522D01*
X85002Y112694D01*
X83396Y114300D01*
X85002Y115906D01*
X85002Y129694D01*
X82324Y132372D01*
X71030Y132372D01*
X74285Y135627D01*
X76199Y140247D01*
X76199Y145249D01*
X74285Y149869D01*
X72083Y152072D01*
X72776Y151886D01*
X77764Y151886D01*
X77764Y159434D01*
X79716Y159434D01*
X79716Y151886D01*
X84704Y151886D01*
X85600Y152126D01*
X86404Y152590D01*
X87060Y153246D01*
X87524Y154050D01*
X87764Y154946D01*
X87764Y159434D01*
X79716Y159434D01*
X79716Y161386D01*
X87764Y161386D01*
X87764Y165874D01*
X87524Y166770D01*
X87060Y167574D01*
X86465Y168169D01*
X88265Y169969D01*
X90065Y168169D01*
X89470Y167574D01*
X89006Y166770D01*
X88766Y165874D01*
X88766Y161386D01*
X96814Y161386D01*
X96814Y159434D01*
X88766Y159434D01*
X88766Y154946D01*
X89006Y154050D01*
X89470Y153246D01*
X90126Y152590D01*
X90930Y152126D01*
X91826Y151886D01*
X96814Y151886D01*
X96814Y159434D01*
X98766Y159434D01*
X98766Y151886D01*
X103754Y151886D01*
X104650Y152126D01*
X105454Y152590D01*
X106110Y153246D01*
X106574Y154050D01*
X106814Y154946D01*
X106814Y159434D01*
X98766Y159434D01*
X98766Y161386D01*
X106814Y161386D01*
X106814Y165874D01*
X106574Y166770D01*
X106110Y167574D01*
X105515Y168169D01*
X107315Y169969D01*
X109115Y168169D01*
X108520Y167574D01*
X108056Y166770D01*
X107816Y165874D01*
X107816Y161386D01*
X115864Y161386D01*
X115864Y159434D01*
X107816Y159434D01*
X107816Y154946D01*
X108056Y154050D01*
X108520Y153246D01*
X109176Y152590D01*
X109980Y152126D01*
X110876Y151886D01*
X115864Y151886D01*
X115864Y159434D01*
X117816Y159434D01*
X117816Y151886D01*
X122804Y151886D01*
X123700Y152126D01*
X124504Y152590D01*
X125160Y153246D01*
X125624Y154050D01*
X125864Y154946D01*
X125864Y159434D01*
X117816Y159434D01*
X117816Y161386D01*
X125864Y161386D01*
X125864Y165874D01*
X125624Y166770D01*
X125160Y167574D01*
X124565Y168169D01*
X126365Y169969D01*
X128165Y168169D01*
X127570Y167574D01*
X127106Y166770D01*
X126866Y165874D01*
X126866Y161386D01*
X134914Y161386D01*
X134914Y159434D01*
X126866Y159434D01*
X126866Y154946D01*
X127106Y154050D01*
X127570Y153246D01*
X128226Y152590D01*
X129030Y152126D01*
X129926Y151886D01*
X130932Y151886D01*
X128915Y149869D01*
X128911Y149860D01*
X128633Y149860D01*
X126019Y148777D01*
X119701Y142459D01*
X118618Y139845D01*
X118618Y132372D01*
X118336Y132372D01*
X115658Y129694D01*
X115658Y115906D01*
X117264Y114300D01*
X115658Y112694D01*
X115658Y112522D01*
X114173Y112522D01*
X114173Y112914D01*
X126086Y369164D02*
X128626Y369164D01*
X126086Y369164D02*
X126086Y378206D01*
X129134Y378206D01*
X129134Y368706D01*
X131674Y368706D01*
X131674Y359664D01*
X128626Y359664D01*
X128626Y369164D01*
X130404Y347574D02*
X131674Y347574D01*
X130404Y347574D02*
X130404Y338074D01*
X127356Y338074D01*
X127356Y347116D01*
X128626Y347116D01*
X128626Y356616D01*
X131674Y356616D01*
X131674Y347574D01*
X145909Y301073D02*
X144223Y299387D01*
X145909Y301073D02*
X147252Y304315D01*
X147252Y307825D01*
X146050Y310727D01*
X146050Y312307D01*
X144890Y315107D01*
X144223Y315774D01*
X144223Y315775D01*
X144746Y316298D01*
X145265Y316298D01*
X146573Y316840D01*
X146678Y316840D01*
X146678Y316066D01*
X148525Y314219D01*
X148430Y314124D01*
X147966Y313320D01*
X147726Y312424D01*
X147726Y306984D01*
X157226Y306984D01*
X157226Y303936D01*
X147726Y303936D01*
X147726Y298496D01*
X147966Y297600D01*
X148430Y296796D01*
X148453Y296774D01*
X144223Y292544D01*
X144223Y299387D01*
X118221Y298662D02*
X118221Y291926D01*
X118382Y298595D02*
X118221Y298662D01*
X118382Y298595D02*
X119884Y298296D01*
X120650Y298296D01*
X120650Y306070D01*
X120650Y306070D01*
X120650Y298296D01*
X121416Y298296D01*
X122918Y298595D01*
X123079Y298662D01*
X123079Y291926D01*
X124429Y290576D01*
X118167Y290576D01*
X115954Y289659D01*
X118221Y291926D01*
X155624Y279694D02*
X157576Y279694D01*
X157576Y273812D01*
X156090Y273812D01*
X155624Y274278D01*
X155624Y279694D01*
X164264Y272850D02*
X164359Y272945D01*
X166206Y271098D01*
X168736Y271098D01*
X168736Y270510D01*
X175260Y270510D01*
X175260Y270510D01*
X168736Y270510D01*
X168736Y269867D01*
X168987Y268607D01*
X169370Y267682D01*
X168750Y267682D01*
X163831Y272600D01*
X164264Y272850D01*
X160274Y303936D02*
X169774Y303936D01*
X160274Y303936D02*
X160274Y306984D01*
X169774Y306984D01*
X169774Y312424D01*
X169534Y313320D01*
X169070Y314124D01*
X168975Y314219D01*
X170768Y316012D01*
X170768Y304146D01*
X171143Y303771D01*
X170111Y302739D01*
X169774Y301926D01*
X169774Y303936D01*
X219710Y337994D02*
X220353Y337994D01*
X219710Y337994D02*
X219710Y331470D01*
X219710Y331470D01*
X219710Y337994D01*
X219067Y337994D01*
X217807Y337743D01*
X216620Y337251D01*
X215551Y336538D01*
X214642Y335629D01*
X214208Y334979D01*
X213596Y335232D01*
X211182Y335232D01*
X211182Y345204D01*
X207754Y348632D01*
X196966Y348632D01*
X193538Y345204D01*
X193538Y319716D01*
X194640Y318614D01*
X194624Y318556D01*
X189912Y318556D01*
X189912Y318934D01*
X188065Y320781D01*
X188160Y320876D01*
X188624Y321680D01*
X188864Y322576D01*
X188864Y327564D01*
X181316Y327564D01*
X181316Y329516D01*
X188864Y329516D01*
X188864Y334504D01*
X188624Y335400D01*
X188160Y336204D01*
X187504Y336860D01*
X186700Y337324D01*
X185804Y337564D01*
X185649Y337564D01*
X186607Y337961D01*
X189089Y340443D01*
X190432Y343685D01*
X190432Y347195D01*
X190078Y348050D01*
X192256Y350228D01*
X199164Y350228D01*
X200980Y352044D01*
X203668Y352044D01*
X203991Y351721D01*
X206774Y350568D01*
X209786Y350568D01*
X212190Y351564D01*
X214866Y348888D01*
X220354Y348888D01*
X221456Y349990D01*
X221514Y349974D01*
X221514Y337763D01*
X220353Y337994D01*
X179364Y329516D02*
X179364Y327564D01*
X172519Y327564D01*
X173327Y329516D01*
X179364Y329516D01*
X117173Y306070D02*
X107649Y306070D01*
X107649Y306070D01*
X120650Y306070D01*
X120650Y306070D01*
X117173Y306070D01*
X22772Y271626D02*
X20094Y268948D01*
X22772Y271626D02*
X22772Y285414D01*
X21166Y287020D01*
X22772Y288626D01*
X22772Y302414D01*
X22771Y302415D01*
X23272Y302916D01*
X23272Y318704D01*
X20594Y321382D01*
X4806Y321382D01*
X4699Y321275D01*
X4699Y322896D01*
X5340Y322526D01*
X6236Y322286D01*
X11224Y322286D01*
X11224Y330334D01*
X14176Y330334D01*
X14176Y322286D01*
X19164Y322286D01*
X20060Y322526D01*
X20864Y322990D01*
X21520Y323646D01*
X21984Y324450D01*
X22224Y325346D01*
X22224Y328021D01*
X22321Y327788D01*
X23172Y326514D01*
X24254Y325432D01*
X25528Y324581D01*
X26942Y323995D01*
X28444Y323696D01*
X29099Y323696D01*
X26438Y317271D01*
X26438Y308589D01*
X29760Y300569D01*
X34277Y296052D01*
X32296Y296052D01*
X29618Y293374D01*
X29618Y275586D01*
X32296Y272908D01*
X35896Y272908D01*
X35147Y272159D01*
X34163Y270804D01*
X33403Y269313D01*
X32886Y267721D01*
X32624Y266067D01*
X32624Y265956D01*
X42534Y265956D01*
X42534Y264504D01*
X32624Y264504D01*
X32624Y264393D01*
X32886Y262739D01*
X33403Y261147D01*
X34163Y259656D01*
X34766Y258826D01*
X29195Y258826D01*
X19073Y268948D01*
X20094Y268948D01*
X50799Y145249D02*
X50799Y140247D01*
X50799Y145249D02*
X48885Y149869D01*
X45348Y153406D01*
X41324Y155073D01*
X41324Y162854D01*
X43276Y162854D01*
X43276Y154806D01*
X47764Y154806D01*
X48660Y155046D01*
X49464Y155510D01*
X50059Y156105D01*
X52406Y153758D01*
X57355Y153758D01*
X56506Y153406D01*
X52969Y149869D01*
X51055Y145249D01*
X51055Y140247D01*
X52593Y136535D01*
X50237Y138891D01*
X50799Y140247D01*
X52357Y259656D02*
X53117Y261147D01*
X53634Y262739D01*
X53896Y264393D01*
X53896Y264504D01*
X43986Y264504D01*
X43986Y265956D01*
X53896Y265956D01*
X53896Y266067D01*
X53634Y267721D01*
X53117Y269313D01*
X52357Y270804D01*
X52164Y271070D01*
X64408Y258826D01*
X51754Y258826D01*
X52357Y259656D01*
X98474Y254976D02*
X98474Y253024D01*
X90926Y253024D01*
X90926Y248036D01*
X91166Y247140D01*
X91630Y246336D01*
X92221Y245745D01*
X91630Y245154D01*
X91166Y244350D01*
X90926Y243454D01*
X90926Y238466D01*
X98474Y238466D01*
X98474Y236514D01*
X90926Y236514D01*
X90926Y231526D01*
X91166Y230630D01*
X91630Y229826D01*
X92286Y229170D01*
X93090Y228706D01*
X93610Y228567D01*
X92910Y227866D01*
X92750Y228144D01*
X92094Y228800D01*
X91290Y229264D01*
X90394Y229504D01*
X85906Y229504D01*
X85906Y221956D01*
X83954Y221956D01*
X83954Y229504D01*
X79897Y229504D01*
X81878Y230325D01*
X85165Y233612D01*
X86944Y237906D01*
X86944Y242554D01*
X85165Y246848D01*
X84534Y247480D01*
X84733Y247562D01*
X86448Y249277D01*
X92147Y254976D01*
X98474Y254976D01*
X118794Y269534D02*
X118794Y271486D01*
X118794Y269534D02*
X113055Y269534D01*
X115007Y271486D01*
X118794Y271486D01*
X54862Y384302D02*
X54862Y386584D01*
X52184Y389262D01*
X35396Y389262D01*
X33549Y387415D01*
X33454Y387510D01*
X32650Y387974D01*
X31754Y388214D01*
X26314Y388214D01*
X26314Y378714D01*
X23266Y378714D01*
X23266Y388214D01*
X19300Y388214D01*
X19732Y389256D01*
X19732Y392176D01*
X31292Y392176D01*
X38100Y398984D01*
X44908Y392176D01*
X56692Y392176D01*
X63500Y398984D01*
X68098Y394386D01*
X58014Y384302D01*
X54862Y384302D01*
X100078Y348746D02*
X100844Y347980D01*
X98808Y345944D01*
X98808Y332061D01*
X97518Y332595D01*
X96016Y332894D01*
X95250Y332894D01*
X95250Y325120D01*
X95250Y325120D01*
X95250Y332894D01*
X94484Y332894D01*
X92982Y332595D01*
X91568Y332009D01*
X90661Y331403D01*
X90140Y331704D01*
X89244Y331944D01*
X85416Y331944D01*
X89648Y333697D01*
X96579Y340628D01*
X100078Y349075D01*
X100078Y348746D01*
X70496Y329780D02*
X70256Y328884D01*
X70256Y323444D01*
X79756Y323444D01*
X79756Y320396D01*
X70256Y320396D01*
X70256Y314956D01*
X70496Y314060D01*
X70960Y313256D01*
X71055Y313161D01*
X70082Y312188D01*
X70082Y317271D01*
X66760Y325291D01*
X60621Y331430D01*
X52601Y334752D01*
X43919Y334752D01*
X36984Y331879D01*
X36984Y332236D01*
X36685Y333738D01*
X36099Y335152D01*
X35248Y336426D01*
X34166Y337508D01*
X33870Y337706D01*
X34690Y337926D01*
X35494Y338390D01*
X36089Y338985D01*
X38436Y336638D01*
X52224Y336638D01*
X54676Y339090D01*
X56343Y339090D01*
X61736Y333697D01*
X70630Y330013D01*
X70496Y329780D01*
X38436Y356782D02*
X36089Y354435D01*
X35494Y355030D01*
X34690Y355494D01*
X33794Y355734D01*
X29306Y355734D01*
X29306Y347686D01*
X27354Y347686D01*
X27354Y355734D01*
X23825Y355734D01*
X24669Y356998D01*
X25255Y358412D01*
X25554Y359914D01*
X25554Y360680D01*
X17780Y360680D01*
X17780Y360680D01*
X25554Y360680D01*
X25554Y361446D01*
X25255Y362948D01*
X24669Y364362D01*
X23818Y365636D01*
X23266Y366188D01*
X23266Y375666D01*
X26314Y375666D01*
X26314Y366166D01*
X31754Y366166D01*
X32650Y366406D01*
X33454Y366870D01*
X33549Y366965D01*
X35396Y365118D01*
X52184Y365118D01*
X54238Y367173D01*
X51054Y359485D01*
X51054Y356782D01*
X38436Y356782D01*
X29210Y339244D02*
X28444Y339244D01*
X27354Y339027D01*
X27354Y345734D01*
X29306Y345734D01*
X29306Y339244D01*
X29210Y339244D01*
X29210Y331470D01*
X29210Y331470D01*
X29210Y339244D01*
X21436Y331470D02*
X21436Y330704D01*
X21510Y330334D01*
X14176Y330334D01*
X14176Y333286D01*
X21645Y333286D01*
X21436Y332236D01*
X21436Y331470D01*
X29210Y331470D01*
X29210Y331470D01*
X21436Y331470D01*
X146416Y159434D02*
X146416Y154446D01*
X146656Y153550D01*
X146800Y153300D01*
X146694Y153406D01*
X144720Y154224D01*
X144914Y154946D01*
X144914Y159434D01*
X136866Y159434D01*
X136866Y161386D01*
X144914Y161386D01*
X144914Y165874D01*
X144674Y166770D01*
X144210Y167574D01*
X143615Y168169D01*
X145415Y169969D01*
X147215Y168169D01*
X147120Y168074D01*
X146656Y167270D01*
X146416Y166374D01*
X146416Y161386D01*
X153964Y161386D01*
X153964Y159434D01*
X146416Y159434D01*
X98474Y246514D02*
X98474Y253024D01*
X100426Y253024D01*
X100426Y238466D01*
X98474Y238466D01*
X98474Y246514D01*
X69716Y159434D02*
X69716Y154946D01*
X69956Y154050D01*
X70196Y153635D01*
X67279Y154843D01*
X68872Y156436D01*
X68872Y162210D01*
X69716Y163054D01*
X69716Y161386D01*
X77764Y161386D01*
X77764Y159434D01*
X69716Y159434D01*
X425087Y253283D02*
X425323Y256569D01*
X425087Y253283D02*
X423344Y246941D01*
X420019Y241266D01*
X417831Y238803D01*
X417821Y238792D01*
X416445Y237434D01*
X416445Y237417D01*
X383120Y204091D01*
X383120Y204305D01*
X382832Y206496D01*
X382260Y208631D01*
X381734Y209900D01*
X381775Y209876D01*
X382671Y209636D01*
X383599Y209636D01*
X384495Y209876D01*
X385299Y210340D01*
X388472Y213513D01*
X383135Y218851D01*
X384516Y220231D01*
X389853Y214894D01*
X393026Y218067D01*
X393490Y218871D01*
X393730Y219767D01*
X393730Y219902D01*
X396343Y219902D01*
X406092Y229651D01*
X406092Y233438D01*
X402302Y237229D01*
X402718Y236951D01*
X404132Y236365D01*
X405634Y236066D01*
X406400Y236066D01*
X406400Y243840D01*
X406400Y243840D01*
X406400Y236066D01*
X407166Y236066D01*
X408668Y236365D01*
X410082Y236951D01*
X411356Y237802D01*
X412438Y238884D01*
X413289Y240158D01*
X413875Y241572D01*
X414174Y243074D01*
X414174Y243840D01*
X406400Y243840D01*
X406400Y243840D01*
X414174Y243840D01*
X414174Y244606D01*
X413875Y246108D01*
X413289Y247522D01*
X412438Y248796D01*
X411356Y249878D01*
X410285Y250594D01*
X410597Y250906D01*
X411061Y251709D01*
X411266Y252476D01*
X419912Y252476D01*
X425323Y257887D01*
X425323Y256569D01*
X196895Y59396D02*
X194390Y53350D01*
X196895Y59396D02*
X203884Y59396D01*
X203884Y57444D01*
X196336Y57444D01*
X196336Y52456D01*
X196576Y51560D01*
X196846Y51092D01*
X192256Y51092D01*
X192194Y51154D01*
X194390Y53350D01*
X200794Y29984D02*
X200794Y25496D01*
X200794Y29984D02*
X200554Y30880D01*
X200090Y31684D01*
X199495Y32279D01*
X201842Y34626D01*
X201842Y34811D01*
X202858Y33795D01*
X206376Y32338D01*
X210184Y32338D01*
X212203Y33174D01*
X200794Y21765D01*
X200794Y23544D01*
X192746Y23544D01*
X192746Y25496D01*
X200794Y25496D01*
X18546Y352906D02*
X17780Y352906D01*
X18546Y352906D02*
X19943Y353184D01*
X19806Y352674D01*
X19806Y347686D01*
X27354Y347686D01*
X27354Y345734D01*
X19806Y345734D01*
X19806Y341162D01*
X19164Y341334D01*
X14176Y341334D01*
X14176Y333286D01*
X11224Y333286D01*
X11224Y341334D01*
X6236Y341334D01*
X5340Y341094D01*
X4699Y340724D01*
X4699Y383084D01*
X4738Y383045D01*
X8256Y381588D01*
X12064Y381588D01*
X14766Y382707D01*
X14766Y378714D01*
X23266Y378714D01*
X23266Y375666D01*
X14766Y375666D01*
X14766Y369226D01*
X15006Y368330D01*
X15185Y368020D01*
X14098Y367569D01*
X12824Y366718D01*
X11742Y365636D01*
X10891Y364362D01*
X10305Y362948D01*
X10006Y361446D01*
X10006Y360680D01*
X17780Y360680D01*
X17780Y360680D01*
X10006Y360680D01*
X10006Y359914D01*
X10305Y358412D01*
X10891Y356998D01*
X11742Y355724D01*
X12824Y354642D01*
X14098Y353791D01*
X15512Y353205D01*
X17014Y352906D01*
X17780Y352906D01*
X17780Y360680D01*
X17780Y360680D01*
X17780Y352906D01*
X123079Y320214D02*
X125757Y322892D01*
X123079Y320214D02*
X123079Y313478D01*
X122918Y313545D01*
X121416Y313844D01*
X120650Y313844D01*
X120650Y306070D01*
X120650Y306070D01*
X120650Y313844D01*
X119884Y313844D01*
X118382Y313545D01*
X118221Y313478D01*
X118221Y320214D01*
X115543Y322892D01*
X114761Y322892D01*
X114761Y324478D01*
X118274Y324478D01*
X120121Y326325D01*
X120216Y326230D01*
X121020Y325766D01*
X121916Y325526D01*
X127356Y325526D01*
X127356Y335026D01*
X130404Y335026D01*
X130404Y325526D01*
X133858Y325526D01*
X131224Y322892D01*
X125757Y322892D01*
X246235Y178072D02*
X245649Y176658D01*
X246235Y178072D02*
X246534Y179574D01*
X246534Y180340D01*
X238760Y180340D01*
X238760Y180340D01*
X246534Y180340D01*
X246534Y181106D01*
X246235Y182608D01*
X245649Y184022D01*
X244798Y185296D01*
X244780Y185314D01*
X246239Y186773D01*
X247582Y190015D01*
X247582Y192330D01*
X249828Y194576D01*
X249828Y192716D01*
X250930Y191614D01*
X250876Y191412D01*
X250876Y190460D01*
X252084Y190460D01*
X252084Y190460D01*
X252084Y190460D01*
X250876Y190460D01*
X250876Y189508D01*
X250930Y189306D01*
X249828Y188204D01*
X249828Y177716D01*
X250930Y176614D01*
X250876Y176412D01*
X250876Y176302D01*
X245412Y176302D01*
X245649Y176658D01*
X122428Y205620D02*
X119230Y202422D01*
X78590Y202422D01*
X70082Y193914D01*
X70082Y196871D01*
X66760Y204891D01*
X60621Y211030D01*
X59708Y211408D01*
X71824Y211408D01*
X74502Y214086D01*
X74502Y227874D01*
X73830Y228546D01*
X77512Y228546D01*
X77110Y228144D01*
X76646Y227340D01*
X76406Y226444D01*
X76406Y221956D01*
X83954Y221956D01*
X83954Y220004D01*
X76406Y220004D01*
X76406Y215516D01*
X76646Y214620D01*
X77110Y213816D01*
X77766Y213160D01*
X78570Y212696D01*
X79466Y212456D01*
X83954Y212456D01*
X83954Y220004D01*
X85906Y220004D01*
X85906Y212456D01*
X90394Y212456D01*
X91290Y212696D01*
X92094Y213160D01*
X92750Y213816D01*
X93214Y214620D01*
X93454Y215516D01*
X93454Y218630D01*
X93631Y218452D01*
X94700Y217739D01*
X95887Y217247D01*
X97147Y216996D01*
X97790Y216996D01*
X97790Y223520D01*
X97790Y223520D01*
X97790Y216996D01*
X98433Y216996D01*
X99693Y217247D01*
X100880Y217739D01*
X101949Y218452D01*
X102858Y219361D01*
X103571Y220430D01*
X104063Y221617D01*
X104314Y222877D01*
X104314Y223520D01*
X97790Y223520D01*
X97790Y223520D01*
X104314Y223520D01*
X104314Y224163D01*
X104063Y225423D01*
X103571Y226610D01*
X102858Y227679D01*
X102070Y228466D01*
X104914Y228466D01*
X105810Y228706D01*
X106614Y229170D01*
X107209Y229765D01*
X109556Y227418D01*
X111994Y227418D01*
X111450Y226874D01*
X110986Y226070D01*
X110746Y225174D01*
X110746Y220686D01*
X118794Y220686D01*
X118794Y218734D01*
X110746Y218734D01*
X110746Y214246D01*
X110986Y213350D01*
X111450Y212546D01*
X112106Y211890D01*
X112910Y211426D01*
X113806Y211186D01*
X118794Y211186D01*
X118794Y218734D01*
X120746Y218734D01*
X120746Y211186D01*
X122428Y211186D01*
X122428Y210940D01*
X123698Y209670D01*
X125088Y208280D01*
X122428Y205620D01*
X244467Y157306D02*
X245110Y157306D01*
X245110Y163830D01*
X245110Y163830D01*
X245110Y157306D01*
X245753Y157306D01*
X247013Y157557D01*
X248200Y158049D01*
X249269Y158762D01*
X249828Y159322D01*
X249828Y157716D01*
X253256Y154288D01*
X264044Y154288D01*
X267472Y157716D01*
X267472Y159876D01*
X267718Y159630D01*
X267718Y142222D01*
X266156Y142222D01*
X263930Y139996D01*
X262164Y141762D01*
X249572Y141762D01*
X249572Y150604D01*
X246144Y154032D01*
X244242Y154032D01*
X244242Y157351D01*
X244467Y157306D01*
X216136Y165052D02*
X215444Y165052D01*
X214699Y166849D01*
X212569Y168979D01*
X209786Y170132D01*
X206774Y170132D01*
X203991Y168979D01*
X201861Y166849D01*
X200708Y164066D01*
X200708Y161054D01*
X201861Y158271D01*
X202558Y157574D01*
X202558Y154032D01*
X200656Y154032D01*
X199554Y152930D01*
X199352Y152984D01*
X199242Y152984D01*
X199242Y153190D01*
X197612Y154820D01*
X197612Y154820D01*
X195600Y156831D01*
X196119Y157608D01*
X196705Y159022D01*
X197004Y160524D01*
X197004Y161290D01*
X189230Y161290D01*
X189230Y161290D01*
X197004Y161290D01*
X197004Y162056D01*
X196705Y163558D01*
X196119Y164972D01*
X195268Y166246D01*
X194186Y167328D01*
X192912Y168179D01*
X191498Y168765D01*
X189996Y169064D01*
X189230Y169064D01*
X189230Y161290D01*
X189230Y161290D01*
X189230Y169064D01*
X188464Y169064D01*
X186962Y168765D01*
X185548Y168179D01*
X184274Y167328D01*
X183192Y166246D01*
X182341Y164972D01*
X181972Y164082D01*
X181972Y169618D01*
X185500Y169618D01*
X187400Y171518D01*
X189715Y171518D01*
X192957Y172861D01*
X195439Y175343D01*
X196782Y178585D01*
X196782Y182095D01*
X195439Y185337D01*
X192957Y187819D01*
X189715Y189162D01*
X187400Y189162D01*
X185260Y191302D01*
X181972Y191302D01*
X181972Y209618D01*
X182408Y209618D01*
X182967Y209059D01*
X185383Y208058D01*
X187997Y208058D01*
X190413Y209059D01*
X192261Y210907D01*
X193262Y213323D01*
X193262Y215274D01*
X194397Y214139D01*
X196813Y213138D01*
X199427Y213138D01*
X201843Y214139D01*
X203200Y215496D01*
X204557Y214139D01*
X206973Y213138D01*
X209587Y213138D01*
X210951Y213703D01*
X210965Y213632D01*
X211551Y212218D01*
X212402Y210944D01*
X213484Y209862D01*
X214758Y209011D01*
X216172Y208425D01*
X217674Y208126D01*
X218440Y208126D01*
X218440Y215900D01*
X218440Y215900D01*
X218440Y208126D01*
X219206Y208126D01*
X220708Y208425D01*
X222122Y209011D01*
X222656Y209368D01*
X223603Y208421D01*
X226845Y207078D01*
X230355Y207078D01*
X230378Y207088D01*
X230378Y203730D01*
X229648Y201967D01*
X229648Y199353D01*
X230649Y196937D01*
X231146Y196440D01*
X230985Y196052D01*
X226669Y201464D01*
X219743Y204799D01*
X212057Y204799D01*
X205131Y201464D01*
X200338Y195454D01*
X198628Y187960D01*
X200338Y180466D01*
X205131Y174456D01*
X212057Y171121D01*
X219743Y171121D01*
X220256Y171368D01*
X217558Y168670D01*
X217558Y164463D01*
X216136Y165052D01*
X229697Y155017D02*
X230957Y154766D01*
X231600Y154766D01*
X231600Y161290D01*
X231600Y161290D01*
X231600Y154766D01*
X232243Y154766D01*
X232558Y154829D01*
X232558Y154032D01*
X230656Y154032D01*
X229554Y152930D01*
X229352Y152984D01*
X229242Y152984D01*
X229242Y155205D01*
X229697Y155017D01*
X288302Y399842D02*
X288444Y400554D01*
X288444Y401320D01*
X280670Y401320D01*
X280670Y401320D01*
X288444Y401320D01*
X288444Y402086D01*
X288302Y402798D01*
X293983Y402798D01*
X294708Y402073D01*
X294708Y400835D01*
X295119Y399842D01*
X288302Y399842D01*
X139546Y359410D02*
X139546Y358644D01*
X139845Y357142D01*
X140063Y356616D01*
X131674Y356616D01*
X131674Y359664D01*
X139546Y359664D01*
X139546Y359410D01*
X147320Y359410D01*
X147320Y359410D01*
X139546Y359410D01*
X136604Y6096D02*
X131522Y6096D01*
X155496Y6096D02*
X180963Y6096D01*
X29894Y12192D02*
X12035Y12192D01*
X133222Y12192D02*
X145351Y12192D01*
X146749Y12192D02*
X162930Y12192D01*
X170474Y12192D02*
X172426Y12192D01*
X179970Y12192D02*
X191221Y12192D01*
X10215Y18288D02*
X7606Y18288D01*
X16510Y18288D02*
X16510Y18288D01*
X29894Y18288D02*
X31846Y18288D01*
X131943Y18288D02*
X135964Y18288D01*
X145351Y18288D02*
X146749Y18288D01*
X156136Y18288D02*
X170474Y18288D01*
X172426Y18288D02*
X182952Y18288D01*
X190794Y18288D02*
X192746Y18288D01*
X8887Y24384D02*
X5541Y24384D01*
X24133Y24384D02*
X63246Y24384D01*
X127254Y24384D02*
X162993Y24384D01*
X179907Y24384D02*
X190794Y24384D01*
X192746Y24384D02*
X203413Y24384D01*
X11364Y30480D02*
X4699Y30480D01*
X143509Y30480D02*
X157031Y30480D01*
X181022Y30480D02*
X182879Y30480D01*
X200661Y30480D02*
X209509Y30480D01*
X11138Y36576D02*
X4699Y36576D01*
X145922Y36576D02*
X149827Y36576D01*
X181022Y36576D02*
X181698Y36576D01*
X11138Y42672D02*
X4699Y42672D01*
X145064Y42672D02*
X145988Y42672D01*
X13392Y48768D02*
X4699Y48768D01*
X142814Y48768D02*
X142936Y48768D01*
X161864Y48768D02*
X170872Y48768D01*
X8182Y54864D02*
X4699Y54864D01*
X162472Y54864D02*
X165662Y54864D01*
X195017Y54864D02*
X196336Y54864D01*
X231432Y54864D02*
X233893Y54864D01*
X6287Y60960D02*
X4699Y60960D01*
X162472Y60960D02*
X163767Y60960D01*
X203884Y60960D02*
X205836Y60960D01*
X231432Y60960D02*
X239989Y60960D01*
X6710Y67056D02*
X4699Y67056D01*
X162472Y67056D02*
X164190Y67056D01*
X196490Y67056D02*
X198244Y67056D01*
X203884Y67056D02*
X205836Y67056D01*
X211476Y67056D02*
X213530Y67056D01*
X230190Y67056D02*
X246085Y67056D01*
X9836Y73152D02*
X4699Y73152D01*
X162472Y73152D02*
X167316Y73152D01*
X199390Y73152D02*
X199390Y73152D01*
X206542Y73152D02*
X214240Y73152D01*
X238976Y73152D02*
X252181Y73152D01*
X7046Y79248D02*
X4699Y79248D01*
X162472Y79248D02*
X176890Y79248D01*
X183790Y79248D02*
X192238Y79248D01*
X199390Y79248D02*
X199390Y79248D01*
X206542Y79248D02*
X208235Y79248D01*
X246425Y79248D02*
X258277Y79248D01*
X5668Y85344D02*
X4699Y85344D01*
X171949Y85344D02*
X179542Y85344D01*
X187706Y85344D02*
X190754Y85344D01*
X198918Y85344D02*
X204660Y85344D01*
X250000Y85344D02*
X264373Y85344D01*
X5668Y91440D02*
X4699Y91440D01*
X177086Y91440D02*
X178206Y91440D01*
X187706Y91440D02*
X190754Y91440D01*
X200254Y91440D02*
X202692Y91440D01*
X251968Y91440D02*
X270469Y91440D01*
X7316Y97536D02*
X4699Y97536D01*
X200254Y97536D02*
X202692Y97536D01*
X251968Y97536D02*
X276565Y97536D01*
X6716Y103632D02*
X4699Y103632D01*
X199688Y103632D02*
X204239Y103632D01*
X250421Y103632D02*
X263478Y103632D01*
X282622Y103632D02*
X282661Y103632D01*
X6716Y109728D02*
X4699Y109728D01*
X14264Y109728D02*
X16216Y109728D01*
X201302Y109728D02*
X207219Y109728D01*
X254294Y109728D02*
X256246Y109728D01*
X283186Y109728D02*
X288757Y109728D01*
X19728Y115824D02*
X4699Y115824D01*
X84920Y115824D02*
X89027Y115824D01*
X114173Y115824D02*
X115740Y115824D01*
X201302Y115824D02*
X213315Y115824D01*
X244900Y115824D02*
X246746Y115824D01*
X289282Y115824D02*
X294853Y115824D01*
X19308Y121920D02*
X4699Y121920D01*
X26670Y121920D02*
X26670Y121920D01*
X34032Y121920D02*
X39081Y121920D01*
X85002Y121920D02*
X89027Y121920D01*
X114173Y121920D02*
X115658Y121920D01*
X201302Y121920D02*
X202686Y121920D01*
X210234Y121920D02*
X212186Y121920D01*
X294014Y121920D02*
X300949Y121920D01*
X6082Y128016D02*
X4699Y128016D01*
X22035Y128016D02*
X40996Y128016D01*
X85002Y128016D02*
X89027Y128016D01*
X114173Y128016D02*
X115658Y128016D01*
X197470Y128016D02*
X202686Y128016D01*
X210234Y128016D02*
X212186Y128016D01*
X295412Y128016D02*
X307045Y128016D01*
X29084Y134112D02*
X22352Y134112D01*
X72770Y134112D02*
X94141Y134112D01*
X109059Y134112D02*
X118618Y134112D01*
X210234Y134112D02*
X212186Y134112D01*
X295201Y134112D02*
X313141Y134112D01*
X25671Y140208D02*
X22610Y140208D01*
X50783Y140208D02*
X51071Y140208D01*
X76183Y140208D02*
X95210Y140208D01*
X107990Y140208D02*
X118769Y140208D01*
X152129Y140208D02*
X152417Y140208D01*
X263718Y140208D02*
X264142Y140208D01*
X288334Y140208D02*
X290445Y140208D01*
X296266Y140208D02*
X299314Y140208D01*
X305135Y140208D02*
X319237Y140208D01*
X26092Y146304D02*
X22352Y146304D01*
X50362Y146304D02*
X51492Y146304D01*
X75762Y146304D02*
X123546Y146304D01*
X151708Y146304D02*
X152838Y146304D01*
X249572Y146304D02*
X267718Y146304D01*
X296266Y146304D02*
X299314Y146304D01*
X307814Y146304D02*
X325333Y146304D01*
X30100Y152400D02*
X22352Y152400D01*
X46354Y152400D02*
X55500Y152400D01*
X77764Y152400D02*
X79716Y152400D01*
X86075Y152400D02*
X90455Y152400D01*
X96814Y152400D02*
X98766Y152400D01*
X105125Y152400D02*
X109505Y152400D01*
X115864Y152400D02*
X117816Y152400D01*
X124175Y152400D02*
X128555Y152400D01*
X153964Y152400D02*
X155916Y152400D01*
X173100Y152400D02*
X175888Y152400D01*
X247776Y152400D02*
X267718Y152400D01*
X299314Y152400D02*
X322011Y152400D01*
X20683Y158496D02*
X4699Y158496D01*
X27940Y158496D02*
X27940Y158496D01*
X41324Y158496D02*
X43276Y158496D01*
X68872Y158496D02*
X69716Y158496D01*
X77764Y158496D02*
X79716Y158496D01*
X87764Y158496D02*
X88766Y158496D01*
X96814Y158496D02*
X98766Y158496D01*
X106814Y158496D02*
X107816Y158496D01*
X115864Y158496D02*
X117816Y158496D01*
X125864Y158496D02*
X126866Y158496D01*
X144914Y158496D02*
X146416Y158496D01*
X153964Y158496D02*
X155916Y158496D01*
X163464Y158496D02*
X165647Y158496D01*
X173150Y158496D02*
X173150Y158496D01*
X180653Y158496D02*
X181973Y158496D01*
X196487Y158496D02*
X201767Y158496D01*
X231600Y158496D02*
X231600Y158496D01*
X245110Y158496D02*
X245110Y158496D01*
X248870Y158496D02*
X249828Y158496D01*
X267472Y158496D02*
X267718Y158496D01*
X296266Y158496D02*
X299314Y158496D01*
X307814Y158496D02*
X315723Y158496D01*
X319402Y158496D02*
X323712Y158496D01*
X20893Y164592D02*
X4699Y164592D01*
X27940Y164592D02*
X27940Y164592D01*
X87764Y164592D02*
X88766Y164592D01*
X106814Y164592D02*
X107816Y164592D01*
X125864Y164592D02*
X126866Y164592D01*
X144914Y164592D02*
X146416Y164592D01*
X163464Y164592D02*
X164328Y164592D01*
X181972Y164592D02*
X182183Y164592D01*
X189230Y164592D02*
X189230Y164592D01*
X196277Y164592D02*
X200926Y164592D01*
X217247Y164592D02*
X217558Y164592D01*
X289898Y164592D02*
X290704Y164592D01*
X297084Y164592D02*
X299036Y164592D01*
X305416Y164592D02*
X313531Y164592D01*
X325498Y164592D02*
X329808Y164592D01*
X6422Y170688D02*
X4699Y170688D01*
X14264Y170688D02*
X16216Y170688D01*
X24058Y170688D02*
X34016Y170688D01*
X186570Y170688D02*
X219576Y170688D01*
X297084Y170688D02*
X299036Y170688D01*
X306584Y170688D02*
X313697Y170688D01*
X324496Y170688D02*
X328806Y170688D01*
X331594Y170688D02*
X335904Y170688D01*
X346703Y170688D02*
X349717Y170688D01*
X14264Y176784D02*
X4699Y176784D01*
X16216Y176784D02*
X33145Y176784D01*
X196036Y176784D02*
X203275Y176784D01*
X245702Y176784D02*
X250760Y176784D01*
X297084Y176784D02*
X299036Y176784D01*
X306584Y176784D02*
X316351Y176784D01*
X318400Y176784D02*
X322710Y176784D01*
X337690Y176784D02*
X342000Y176784D01*
X344049Y176784D02*
X355813Y176784D01*
X6349Y182880D02*
X4699Y182880D01*
X24131Y182880D02*
X28637Y182880D01*
X196457Y182880D02*
X199787Y182880D01*
X246122Y182880D02*
X249828Y182880D01*
X286902Y182880D02*
X324148Y182880D01*
X336252Y182880D02*
X361909Y182880D01*
X5168Y188976D02*
X4699Y188976D01*
X190164Y188976D02*
X198860Y188976D01*
X247152Y188976D02*
X250600Y188976D01*
X303220Y188976D02*
X357180Y188976D01*
X5168Y195072D02*
X4699Y195072D01*
X70082Y195072D02*
X71240Y195072D01*
X181972Y195072D02*
X200251Y195072D01*
X300112Y195072D02*
X304422Y195072D01*
X308913Y195072D02*
X318392Y195072D01*
X342008Y195072D02*
X351487Y195072D01*
X355978Y195072D02*
X360288Y195072D01*
X5522Y201168D02*
X4699Y201168D01*
X24958Y201168D02*
X28218Y201168D01*
X68302Y201168D02*
X77336Y201168D01*
X181972Y201168D02*
X204895Y201168D01*
X226905Y201168D02*
X229648Y201168D01*
X294262Y201168D02*
X298326Y201168D01*
X310876Y201168D02*
X316103Y201168D01*
X344297Y201168D02*
X349524Y201168D01*
X362074Y201168D02*
X366138Y201168D01*
X32133Y207264D02*
X4699Y207264D01*
X64387Y207264D02*
X124072Y207264D01*
X181972Y207264D02*
X226396Y207264D01*
X287920Y207264D02*
X292230Y207264D01*
X296048Y207264D02*
X300358Y207264D01*
X310504Y207264D02*
X316625Y207264D01*
X343775Y207264D02*
X349896Y207264D01*
X360042Y207264D02*
X364352Y207264D01*
X368170Y207264D02*
X372480Y207264D01*
X382626Y207264D02*
X386293Y207264D01*
X8036Y213360D02*
X4699Y213360D01*
X14424Y213360D02*
X16376Y213360D01*
X22764Y213360D02*
X26554Y213360D01*
X73776Y213360D02*
X77566Y213360D01*
X83954Y213360D02*
X85906Y213360D01*
X92294Y213360D02*
X110983Y213360D01*
X118794Y213360D02*
X120746Y213360D01*
X193262Y213360D02*
X196277Y213360D01*
X199963Y213360D02*
X206437Y213360D01*
X210123Y213360D02*
X211078Y213360D01*
X218440Y213360D02*
X218440Y213360D01*
X273692Y213360D02*
X280685Y213360D01*
X281824Y213360D02*
X286134Y213360D01*
X302144Y213360D02*
X306454Y213360D01*
X307593Y213360D02*
X320424Y213360D01*
X339976Y213360D02*
X352807Y213360D01*
X353946Y213360D02*
X358256Y213360D01*
X374266Y213360D02*
X377951Y213360D01*
X388319Y213360D02*
X392389Y213360D01*
X6876Y219456D02*
X4699Y219456D01*
X14424Y219456D02*
X16376Y219456D01*
X23924Y219456D02*
X25828Y219456D01*
X74502Y219456D02*
X76406Y219456D01*
X83954Y219456D02*
X85906Y219456D01*
X97790Y219456D02*
X97790Y219456D01*
X102921Y219456D02*
X118794Y219456D01*
X266220Y219456D02*
X289669Y219456D01*
X298609Y219456D02*
X361791Y219456D01*
X370731Y219456D02*
X372624Y219456D01*
X380980Y219456D02*
X382530Y219456D01*
X383741Y219456D02*
X385291Y219456D01*
X393647Y219456D02*
X398485Y219456D01*
X6876Y225552D02*
X4699Y225552D01*
X14424Y225552D02*
X16376Y225552D01*
X23924Y225552D02*
X25828Y225552D01*
X74502Y225552D02*
X76406Y225552D01*
X83954Y225552D02*
X85906Y225552D01*
X104010Y225552D02*
X110847Y225552D01*
X283114Y225552D02*
X285066Y225552D01*
X293114Y225552D02*
X320372Y225552D01*
X340028Y225552D02*
X376402Y225552D01*
X376434Y225552D02*
X379195Y225552D01*
X401993Y225552D02*
X404581Y225552D01*
X17083Y231648D02*
X4699Y231648D01*
X24130Y231648D02*
X24130Y231648D01*
X83202Y231648D02*
X90926Y231648D01*
X249572Y231648D02*
X252596Y231648D01*
X283114Y231648D02*
X285066Y231648D01*
X293114Y231648D02*
X315128Y231648D01*
X320432Y231648D02*
X324742Y231648D01*
X335658Y231648D02*
X339968Y231648D01*
X345272Y231648D02*
X382806Y231648D01*
X406092Y231648D02*
X410677Y231648D01*
X16873Y237744D02*
X4699Y237744D01*
X24130Y237744D02*
X24130Y237744D01*
X86877Y237744D02*
X98474Y237744D01*
X247932Y237744D02*
X257998Y237744D01*
X276182Y237744D02*
X276520Y237744D01*
X283114Y237744D02*
X285066Y237744D01*
X291660Y237744D02*
X313395Y237744D01*
X326528Y237744D02*
X329562Y237744D01*
X330838Y237744D02*
X333872Y237744D01*
X347005Y237744D02*
X379636Y237744D01*
X406400Y237744D02*
X406400Y237744D01*
X411270Y237744D02*
X416759Y237744D01*
X32109Y243840D02*
X4699Y243840D01*
X86411Y243840D02*
X91029Y243840D01*
X98474Y243840D02*
X100426Y243840D01*
X264064Y243840D02*
X266016Y243840D01*
X276860Y243840D02*
X276860Y243840D01*
X281000Y243840D02*
X313973Y243840D01*
X323466Y243840D02*
X327776Y243840D01*
X332624Y243840D02*
X336934Y243840D01*
X346427Y243840D02*
X347471Y243840D01*
X348795Y243840D02*
X351556Y243840D01*
X358146Y243840D02*
X360907Y243840D01*
X362230Y243840D02*
X377459Y243840D01*
X406400Y243840D02*
X421527Y243840D01*
X20843Y249936D02*
X4699Y249936D01*
X87107Y249936D02*
X90926Y249936D01*
X98474Y249936D02*
X100426Y249936D01*
X290576Y249936D02*
X290576Y249936D01*
X300450Y249936D02*
X317141Y249936D01*
X317370Y249936D02*
X321680Y249936D01*
X338720Y249936D02*
X343030Y249936D01*
X343259Y249936D02*
X344531Y249936D01*
X352050Y249936D02*
X354811Y249936D01*
X411270Y249936D02*
X424167Y249936D01*
X14747Y256032D02*
X4699Y256032D01*
X322326Y256032D02*
X328427Y256032D01*
X331973Y256032D02*
X350313Y256032D01*
X423468Y256032D02*
X425284Y256032D01*
X8651Y262128D02*
X4699Y262128D01*
X25893Y262128D02*
X33085Y262128D01*
X53435Y262128D02*
X61106Y262128D01*
X322326Y262128D02*
X325220Y262128D01*
X344832Y262128D02*
X354927Y262128D01*
X6604Y268224D02*
X4699Y268224D01*
X19797Y268224D02*
X33049Y268224D01*
X53471Y268224D02*
X55010Y268224D01*
X168208Y268224D02*
X169145Y268224D01*
X190206Y268224D02*
X211438Y268224D01*
X353359Y268224D02*
X361023Y268224D01*
X30884Y274320D02*
X22772Y274320D01*
X155624Y274320D02*
X157576Y274320D01*
X197546Y274320D02*
X211438Y274320D01*
X357380Y274320D02*
X364139Y274320D01*
X29618Y280416D02*
X22772Y280416D01*
X359664Y280416D02*
X363508Y280416D01*
X380712Y280416D02*
X385333Y280416D01*
X402575Y280416D02*
X405588Y280416D01*
X29618Y286512D02*
X21674Y286512D01*
X359664Y286512D02*
X369293Y286512D01*
X374927Y286512D02*
X378564Y286512D01*
X396479Y286512D02*
X399796Y286512D01*
X29618Y292608D02*
X22772Y292608D01*
X118221Y292608D02*
X123079Y292608D01*
X144223Y292608D02*
X144287Y292608D01*
X365106Y292608D02*
X377163Y292608D01*
X390383Y292608D02*
X399796Y292608D01*
X31625Y298704D02*
X22772Y298704D01*
X120650Y298704D02*
X120650Y298704D01*
X144223Y298704D02*
X147726Y298704D01*
X371222Y298704D02*
X400508Y298704D01*
X28008Y304800D02*
X23272Y304800D01*
X120650Y304800D02*
X120650Y304800D01*
X128324Y304800D02*
X129608Y304800D01*
X147252Y304800D02*
X157226Y304800D01*
X160274Y304800D02*
X170768Y304800D01*
X374047Y304800D02*
X406604Y304800D01*
X26438Y310896D02*
X23272Y310896D01*
X120650Y310896D02*
X120650Y310896D01*
X146050Y310896D02*
X147726Y310896D01*
X169774Y310896D02*
X170768Y310896D01*
X373952Y310896D02*
X412496Y310896D01*
X26438Y316992D02*
X23272Y316992D01*
X70082Y316992D02*
X70256Y316992D01*
X118221Y316992D02*
X123079Y316992D01*
X382174Y316992D02*
X384126Y316992D01*
X391674Y316992D02*
X397184Y316992D01*
X402590Y316992D02*
X402590Y316992D01*
X407996Y316992D02*
X412496Y316992D01*
X14176Y323088D02*
X11224Y323088D01*
X20962Y323088D02*
X28848Y323088D01*
X67672Y323088D02*
X79756Y323088D01*
X114761Y323088D02*
X131420Y323088D01*
X188864Y323088D02*
X193538Y323088D01*
X384126Y323088D02*
X394816Y323088D01*
X402590Y323088D02*
X402590Y323088D01*
X410364Y323088D02*
X412496Y323088D01*
X14176Y329184D02*
X11224Y329184D01*
X62867Y329184D02*
X70336Y329184D01*
X95250Y329184D02*
X95250Y329184D01*
X127356Y329184D02*
X130404Y329184D01*
X173190Y329184D02*
X179364Y329184D01*
X181316Y329184D02*
X193538Y329184D01*
X382174Y329184D02*
X384126Y329184D01*
X391502Y329184D02*
X398481Y329184D01*
X402590Y329184D02*
X402590Y329184D01*
X406699Y329184D02*
X412496Y329184D01*
X14176Y335280D02*
X11224Y335280D01*
X29210Y335280D02*
X29210Y335280D01*
X36014Y335280D02*
X60153Y335280D01*
X91231Y335280D02*
X98808Y335280D01*
X130404Y335280D02*
X141116Y335280D01*
X148004Y335280D02*
X149104Y335280D01*
X188656Y335280D02*
X193538Y335280D01*
X211182Y335280D02*
X214409Y335280D01*
X219710Y335280D02*
X219710Y335280D01*
X386722Y335280D02*
X412496Y335280D01*
X19806Y341376D02*
X4699Y341376D01*
X27354Y341376D02*
X29306Y341376D01*
X96889Y341376D02*
X98808Y341376D01*
X127356Y341376D02*
X130404Y341376D01*
X138904Y341376D02*
X139956Y341376D01*
X148004Y341376D02*
X149956Y341376D01*
X189475Y341376D02*
X193538Y341376D01*
X211182Y341376D02*
X221514Y341376D01*
X392818Y341376D02*
X400528Y341376D01*
X412272Y341376D02*
X412496Y341376D01*
X27354Y347472D02*
X4699Y347472D01*
X99414Y347472D02*
X100336Y347472D01*
X128626Y347472D02*
X130404Y347472D01*
X138211Y347472D02*
X139956Y347472D01*
X148004Y347472D02*
X149956Y347472D01*
X190317Y347472D02*
X195806Y347472D01*
X208914Y347472D02*
X221514Y347472D01*
X14635Y353568D02*
X4699Y353568D01*
X17780Y353568D02*
X17780Y353568D01*
X27354Y353568D02*
X29306Y353568D01*
X128626Y353568D02*
X131674Y353568D01*
X140174Y353568D02*
X142168Y353568D01*
X147320Y353568D02*
X147320Y353568D01*
X152472Y353568D02*
X161378Y353568D01*
X10056Y359664D02*
X4699Y359664D01*
X17780Y359664D02*
X17780Y359664D01*
X25504Y359664D02*
X51128Y359664D01*
X147320Y359664D02*
X147320Y359664D01*
X155094Y359664D02*
X161378Y359664D01*
X11866Y365760D02*
X4699Y365760D01*
X23694Y365760D02*
X34754Y365760D01*
X52826Y365760D02*
X53653Y365760D01*
X128626Y365760D02*
X131674Y365760D01*
X140174Y365760D02*
X142831Y365760D01*
X147320Y365760D02*
X147320Y365760D01*
X151809Y365760D02*
X161378Y365760D01*
X14766Y371856D02*
X4699Y371856D01*
X23266Y371856D02*
X26314Y371856D01*
X126086Y371856D02*
X129134Y371856D01*
X137634Y371856D02*
X158883Y371856D01*
X23266Y377952D02*
X4699Y377952D01*
X126086Y377952D02*
X129134Y377952D01*
X137634Y377952D02*
X138104Y377952D01*
X143510Y377952D02*
X143510Y377952D01*
X148916Y377952D02*
X152787Y377952D01*
X26314Y384048D02*
X23266Y384048D01*
X126086Y384048D02*
X129134Y384048D01*
X143510Y384048D02*
X143510Y384048D01*
X63856Y390144D02*
X19732Y390144D01*
X96042Y390144D02*
X98558Y390144D01*
X118662Y390144D02*
X119109Y390144D01*
X126086Y390144D02*
X129134Y390144D01*
X136111Y390144D02*
X139401Y390144D01*
X143510Y390144D02*
X143510Y390144D01*
X267569Y390144D02*
X267971Y390144D01*
X276244Y390144D02*
X284148Y390144D01*
X40844Y396240D02*
X35356Y396240D01*
X60756Y396240D02*
X66244Y396240D01*
X86156Y396240D02*
X93126Y396240D01*
X100584Y396240D02*
X102616Y396240D01*
X110074Y396240D02*
X117044Y396240D01*
X136956Y396240D02*
X142444Y396240D01*
X238556Y396240D02*
X240586Y396240D01*
X247094Y396240D02*
X251011Y396240D01*
X280670Y396240D02*
X280670Y396240D01*
X11176Y402336D02*
X4879Y402336D01*
X100584Y402336D02*
X102616Y402336D01*
X242824Y402336D02*
X251206Y402336D01*
X280670Y402336D02*
X280670Y402336D01*
X288394Y402336D02*
X294445Y402336D01*
X406082Y402336D02*
X406718Y402336D01*
X11176Y408432D02*
X6449Y408432D01*
X100584Y408432D02*
X102616Y408432D01*
X242824Y408432D02*
X251206Y408432D01*
X276244Y408432D02*
X277526Y408432D01*
X280670Y408432D02*
X280670Y408432D01*
X283814Y408432D02*
X284148Y408432D01*
X406082Y408432D02*
X406718Y408432D01*
X13412Y414528D02*
X9636Y414528D01*
X37388Y414528D02*
X38812Y414528D01*
X62788Y414528D02*
X64212Y414528D01*
X88188Y414528D02*
X91094Y414528D01*
X100584Y414528D02*
X102616Y414528D01*
X112106Y414528D02*
X115012Y414528D01*
X138988Y414528D02*
X140412Y414528D01*
X164388Y414528D02*
X165812Y414528D01*
X189788Y414528D02*
X191212Y414528D01*
X215188Y414528D02*
X216612Y414528D01*
X240588Y414528D02*
X251206Y414528D01*
X276244Y414528D02*
X284148Y414528D01*
X303192Y414528D02*
X389736Y414528D01*
X252535Y420624D02*
X15822Y420624D01*
X6096Y80198D02*
X6096Y22676D01*
X6096Y95842D02*
X6096Y128002D01*
X6096Y154493D02*
X6096Y186098D01*
X6096Y201742D02*
X6096Y268948D01*
X6096Y321382D02*
X6096Y322324D01*
X6096Y341296D02*
X6096Y382483D01*
X6096Y399837D02*
X6096Y407346D01*
X12192Y16396D02*
X12192Y12035D01*
X12192Y22860D02*
X12192Y22860D01*
X12192Y29325D02*
X12192Y29652D01*
X12192Y46548D02*
X12192Y49968D01*
X12192Y75508D02*
X12192Y77948D01*
X12192Y104044D02*
X12192Y105996D01*
X12192Y114044D02*
X12192Y123564D01*
X12192Y154644D02*
X12192Y168396D01*
X12192Y175944D02*
X12192Y177896D01*
X12192Y203492D02*
X12192Y212456D01*
X12192Y220004D02*
X12192Y221956D01*
X12192Y229504D02*
X12192Y258587D01*
X12192Y321382D02*
X12192Y330334D01*
X12192Y333286D02*
X12192Y355274D01*
X12192Y360680D02*
X12192Y360680D01*
X12192Y366086D02*
X12192Y381641D01*
X12192Y413308D02*
X12192Y417987D01*
X18288Y15287D02*
X18288Y7606D01*
X18288Y22860D02*
X18288Y22860D01*
X18288Y114044D02*
X18288Y124004D01*
X18288Y156972D02*
X18288Y168396D01*
X18288Y175944D02*
X18288Y177896D01*
X18288Y203492D02*
X18288Y212456D01*
X18288Y220004D02*
X18288Y221956D01*
X18288Y229504D02*
X18288Y229798D01*
X18288Y234950D02*
X18288Y234950D01*
X18288Y240102D02*
X18288Y252491D01*
X18288Y321382D02*
X18288Y322286D01*
X18288Y330334D02*
X18288Y333286D01*
X18288Y341334D02*
X18288Y352906D01*
X18288Y360680D02*
X18288Y360680D01*
X18288Y375666D02*
X18288Y378714D01*
X18288Y419404D02*
X18288Y422416D01*
X24384Y13676D02*
X24384Y11724D01*
X24384Y21084D02*
X24384Y28028D01*
X24384Y119380D02*
X24384Y119380D01*
X24384Y126848D02*
X24384Y154348D01*
X24384Y161290D02*
X24384Y161290D01*
X24384Y168232D02*
X24384Y186098D01*
X24384Y201742D02*
X24384Y227176D01*
X24384Y242724D02*
X24384Y247079D01*
X24384Y263637D02*
X24384Y325345D01*
X24384Y331470D02*
X24384Y331470D01*
X24384Y345734D02*
X24384Y347686D01*
X24384Y355734D02*
X24384Y356571D01*
X24384Y360680D02*
X24384Y360680D01*
X24384Y364789D02*
X24384Y375666D01*
X24384Y378714D02*
X24384Y392176D01*
X24384Y420624D02*
X24384Y424481D01*
X30480Y28364D02*
X30480Y13676D01*
X30480Y126184D02*
X30480Y132716D01*
X30480Y152780D02*
X30480Y153928D01*
X30480Y168652D02*
X30480Y179449D01*
X30480Y205611D02*
X30480Y211408D01*
X30480Y239439D02*
X30480Y246634D01*
X30480Y258826D02*
X30480Y274724D01*
X30480Y294236D02*
X30480Y299849D01*
X30480Y355734D02*
X30480Y366166D01*
X30480Y388214D02*
X30480Y392176D01*
X30480Y420624D02*
X30480Y425323D01*
X36576Y28028D02*
X36576Y21224D01*
X36576Y120883D02*
X36576Y130176D01*
X36576Y172784D02*
X36576Y173750D01*
X36576Y211310D02*
X36576Y211408D01*
X36576Y264504D02*
X36576Y265956D01*
X36576Y334001D02*
X36576Y338498D01*
X36576Y354922D02*
X36576Y365118D01*
X36576Y389262D02*
X36576Y397460D01*
X36576Y415340D02*
X36576Y425323D01*
X42672Y28028D02*
X42672Y22272D01*
X42672Y122428D02*
X42672Y126340D01*
X42672Y154515D02*
X42672Y162854D01*
X42672Y334235D02*
X42672Y336638D01*
X42672Y356782D02*
X42672Y365118D01*
X42672Y389262D02*
X42672Y394412D01*
X42672Y418388D02*
X42672Y425323D01*
X48768Y28703D02*
X48768Y22272D01*
X48768Y149986D02*
X48768Y155108D01*
X48768Y264504D02*
X48768Y265956D01*
X48768Y334752D02*
X48768Y336638D01*
X48768Y356782D02*
X48768Y365118D01*
X48768Y389262D02*
X48768Y392176D01*
X48768Y420624D02*
X48768Y425323D01*
X54864Y25528D02*
X54864Y22272D01*
X54864Y151764D02*
X54864Y153758D01*
X54864Y258826D02*
X54864Y268370D01*
X54864Y333814D02*
X54864Y339090D01*
X54864Y384302D02*
X54864Y392176D01*
X54864Y420624D02*
X54864Y425323D01*
X60960Y26070D02*
X60960Y21589D01*
X60960Y210691D02*
X60960Y211408D01*
X60960Y258826D02*
X60960Y262274D01*
X60960Y331091D02*
X60960Y334473D01*
X60960Y387248D02*
X60960Y396444D01*
X60960Y416356D02*
X60960Y425323D01*
X67056Y211408D02*
X67056Y204176D01*
X67056Y324576D02*
X67056Y331493D01*
X67056Y393344D02*
X67056Y395428D01*
X67056Y417372D02*
X67056Y425323D01*
X73152Y134494D02*
X73152Y132372D01*
X73152Y151002D02*
X73152Y151886D01*
X73152Y159434D02*
X73152Y161386D01*
X73152Y196984D02*
X73152Y212736D01*
X73152Y320396D02*
X73152Y323444D01*
X73152Y420624D02*
X73152Y425323D01*
X79248Y159434D02*
X79248Y132372D01*
X79248Y202422D02*
X79248Y212514D01*
X79248Y220004D02*
X79248Y221956D01*
X79248Y320396D02*
X79248Y323444D01*
X79248Y420624D02*
X79248Y425323D01*
X85344Y152058D02*
X85344Y112522D01*
X85344Y159434D02*
X85344Y161386D01*
X85344Y202422D02*
X85344Y220004D01*
X85344Y221956D02*
X85344Y234043D01*
X85344Y246417D02*
X85344Y248173D01*
X85344Y392886D02*
X85344Y395428D01*
X85344Y417372D02*
X85344Y425323D01*
X91440Y151989D02*
X91440Y130799D01*
X91440Y159434D02*
X91440Y161386D01*
X91440Y202422D02*
X91440Y212783D01*
X91440Y229177D02*
X91440Y230155D01*
X91440Y236514D02*
X91440Y238466D01*
X91440Y244825D02*
X91440Y246665D01*
X91440Y253024D02*
X91440Y254269D01*
X91440Y331924D02*
X91440Y335489D01*
X91440Y393307D02*
X91440Y397926D01*
X91440Y414874D02*
X91440Y425323D01*
X97536Y159434D02*
X97536Y142403D01*
X97536Y202422D02*
X97536Y216996D01*
X97536Y236514D02*
X97536Y238466D01*
X97536Y253024D02*
X97536Y254976D01*
X97536Y332588D02*
X97536Y342938D01*
X97536Y387014D02*
X97536Y393224D01*
X97536Y419576D02*
X97536Y425323D01*
X103632Y151886D02*
X103632Y143244D01*
X103632Y159434D02*
X103632Y161386D01*
X103632Y202422D02*
X103632Y220576D01*
X103632Y223520D02*
X103632Y223520D01*
X103632Y226464D02*
X103632Y228466D01*
X103632Y391802D02*
X103632Y393224D01*
X103632Y419576D02*
X103632Y425323D01*
X109728Y152272D02*
X109728Y131064D01*
X109728Y159434D02*
X109728Y161386D01*
X109728Y202422D02*
X109728Y227418D01*
X109728Y306070D02*
X109728Y306070D01*
X109728Y391802D02*
X109728Y395894D01*
X109728Y416906D02*
X109728Y425323D01*
X115824Y115740D02*
X115824Y112860D01*
X115824Y129860D02*
X115824Y151886D01*
X115824Y159434D02*
X115824Y161386D01*
X115824Y202422D02*
X115824Y211186D01*
X115824Y218734D02*
X115824Y220686D01*
X115824Y269534D02*
X115824Y271486D01*
X115824Y306070D02*
X115824Y306070D01*
X115824Y322611D02*
X115824Y324478D01*
X115824Y391802D02*
X115824Y397460D01*
X115824Y415340D02*
X115824Y425323D01*
X121920Y151886D02*
X121920Y144678D01*
X121920Y159434D02*
X121920Y161386D01*
X121920Y205112D02*
X121920Y211186D01*
X121920Y290576D02*
X121920Y298396D01*
X121920Y306070D02*
X121920Y306070D01*
X121920Y313744D02*
X121920Y325526D01*
X121920Y390754D02*
X121920Y392176D01*
X121920Y420624D02*
X121920Y425323D01*
X128016Y26702D02*
X128016Y23113D01*
X128016Y149604D02*
X128016Y152800D01*
X128016Y159434D02*
X128016Y161386D01*
X128016Y168020D02*
X128016Y168318D01*
X128016Y306070D02*
X128016Y306070D01*
X128016Y322892D02*
X128016Y335026D01*
X128016Y338074D02*
X128016Y347116D01*
X128016Y369164D02*
X128016Y378206D01*
X128016Y381254D02*
X128016Y392176D01*
X128016Y420624D02*
X128016Y425323D01*
X134112Y25528D02*
X134112Y4699D01*
X134112Y159434D02*
X134112Y161386D01*
X134112Y335026D02*
X134112Y338074D01*
X134112Y356616D02*
X134112Y359664D01*
X134112Y378206D02*
X134112Y381254D01*
X134112Y390754D02*
X134112Y393396D01*
X134112Y419404D02*
X134112Y425323D01*
X140208Y13399D02*
X140208Y12001D01*
X140208Y22657D02*
X140208Y27333D01*
X140208Y159434D02*
X140208Y161386D01*
X140208Y333301D02*
X140208Y336519D01*
X140208Y341924D02*
X140208Y343876D01*
X140208Y349281D02*
X140208Y356266D01*
X140208Y359410D02*
X140208Y359410D01*
X140208Y362555D02*
X140208Y376493D01*
X140208Y390587D02*
X140208Y398476D01*
X140208Y414324D02*
X140208Y425323D01*
X146304Y41177D02*
X146304Y13399D01*
X146304Y153568D02*
X146304Y169080D01*
X146304Y294625D02*
X146304Y302027D01*
X146304Y310113D02*
X146304Y316728D01*
X146304Y333512D02*
X146304Y334376D01*
X146304Y341924D02*
X146304Y343876D01*
X146304Y351424D02*
X146304Y351686D01*
X146304Y359410D02*
X146304Y359410D01*
X146304Y367134D02*
X146304Y376283D01*
X146304Y420420D02*
X146304Y425323D01*
X152400Y13399D02*
X152400Y12001D01*
X152400Y22331D02*
X152400Y35111D01*
X152400Y137302D02*
X152400Y151386D01*
X152400Y159434D02*
X152400Y161386D01*
X152400Y303936D02*
X152400Y306984D01*
X152400Y351424D02*
X152400Y353496D01*
X152400Y359410D02*
X152400Y359410D01*
X152400Y365324D02*
X152400Y378339D01*
X152400Y420624D02*
X152400Y425323D01*
X158496Y29341D02*
X158496Y4699D01*
X158496Y159434D02*
X158496Y161386D01*
X158496Y352382D02*
X158496Y372243D01*
X158496Y420420D02*
X158496Y425323D01*
X164592Y9674D02*
X164592Y4699D01*
X164592Y17194D02*
X164592Y19146D01*
X164592Y45242D02*
X164592Y57448D01*
X164592Y68028D02*
X164592Y81476D01*
X164592Y155320D02*
X164592Y162452D01*
X164592Y271840D02*
X164592Y272712D01*
X164592Y303936D02*
X164592Y306984D01*
X164592Y414324D02*
X164592Y425323D01*
X170688Y17194D02*
X170688Y4699D01*
X170688Y45242D02*
X170688Y48952D01*
X170688Y76524D02*
X170688Y84083D01*
X170688Y153989D02*
X170688Y155336D01*
X170688Y270510D02*
X170688Y270510D01*
X170688Y303316D02*
X170688Y315932D01*
X170688Y419404D02*
X170688Y425323D01*
X176784Y9146D02*
X176784Y4948D01*
X176784Y17194D02*
X176784Y19146D01*
X176784Y45242D02*
X176784Y46272D01*
X176784Y79204D02*
X176784Y90712D01*
X176784Y153296D02*
X176784Y155344D01*
X176784Y327564D02*
X176784Y329516D01*
X176784Y420624D02*
X176784Y425323D01*
X182880Y18556D02*
X182880Y6623D01*
X182880Y23544D02*
X182880Y25496D01*
X182880Y30484D02*
X182880Y33444D01*
X182880Y79311D02*
X182880Y84616D01*
X182880Y93116D02*
X182880Y96164D01*
X182880Y161290D02*
X182880Y161290D01*
X182880Y165779D02*
X182880Y169618D01*
X182880Y191302D02*
X182880Y209146D01*
X182880Y327564D02*
X182880Y329516D01*
X182880Y420624D02*
X182880Y425323D01*
X188976Y15996D02*
X188976Y10198D01*
X188976Y23544D02*
X188976Y25496D01*
X188976Y77100D02*
X188976Y93116D01*
X188976Y161290D02*
X188976Y161290D01*
X188976Y169064D02*
X188976Y171518D01*
X188976Y189162D02*
X188976Y208463D01*
X188976Y319870D02*
X188976Y340330D01*
X188976Y415340D02*
X188976Y425323D01*
X195072Y25496D02*
X195072Y23544D01*
X195072Y51092D02*
X195072Y54996D01*
X195072Y76200D02*
X195072Y76200D01*
X195072Y82665D02*
X195072Y84616D01*
X195072Y93116D02*
X195072Y96164D01*
X195072Y161290D02*
X195072Y161290D01*
X195072Y166442D02*
X195072Y174976D01*
X195072Y185704D02*
X195072Y213859D01*
X195072Y266638D02*
X195072Y268556D01*
X195072Y346738D02*
X195072Y350228D01*
X195072Y418388D02*
X195072Y425323D01*
X201168Y33952D02*
X201168Y22139D01*
X201168Y57444D02*
X201168Y59396D01*
X201168Y67444D02*
X201168Y68627D01*
X201168Y76200D02*
X201168Y76200D01*
X201168Y83773D02*
X201168Y105112D01*
X201168Y122168D02*
X201168Y130048D01*
X201168Y154032D02*
X201168Y159943D01*
X201168Y165177D02*
X201168Y179426D01*
X201168Y196494D02*
X201168Y213859D01*
X201168Y268072D02*
X201168Y274574D01*
X201168Y348632D02*
X201168Y352044D01*
X201168Y420624D02*
X201168Y425323D01*
X207264Y32338D02*
X207264Y28235D01*
X207264Y67444D02*
X207264Y80219D01*
X207264Y109773D02*
X207264Y117976D01*
X207264Y126024D02*
X207264Y127976D01*
X207264Y170132D02*
X207264Y173429D01*
X207264Y202491D02*
X207264Y213138D01*
X207264Y268072D02*
X207264Y274574D01*
X207264Y348632D02*
X207264Y350568D01*
X207264Y420624D02*
X207264Y425323D01*
X213360Y74123D02*
X213360Y66886D01*
X213360Y115869D02*
X213360Y117976D01*
X213360Y136024D02*
X213360Y136388D01*
X213360Y168188D02*
X213360Y171121D01*
X213360Y204799D02*
X213360Y209986D01*
X213360Y335232D02*
X213360Y350394D01*
X213360Y416356D02*
X213360Y425323D01*
X219456Y118788D02*
X219456Y118402D01*
X219456Y135212D02*
X219456Y136388D01*
X219456Y170568D02*
X219456Y171121D01*
X219456Y204799D02*
X219456Y208176D01*
X219456Y337994D02*
X219456Y348888D01*
X219456Y417372D02*
X219456Y425323D01*
X225552Y207614D02*
X225552Y202002D01*
X225552Y239428D02*
X225552Y239928D01*
X225552Y420624D02*
X225552Y425323D01*
X231648Y70358D02*
X231648Y52619D01*
X231648Y154032D02*
X231648Y154766D01*
X231648Y239532D02*
X231648Y239928D01*
X231648Y420624D02*
X231648Y425323D01*
X237744Y72642D02*
X237744Y58715D01*
X237744Y239532D02*
X237744Y242378D01*
X237744Y417372D02*
X237744Y425323D01*
X243840Y76663D02*
X243840Y64811D01*
X243840Y113329D02*
X243840Y115116D01*
X243840Y180340D02*
X243840Y180340D01*
X243840Y239532D02*
X243840Y240618D01*
X243840Y397002D02*
X243840Y425323D01*
X249936Y85190D02*
X249936Y70907D01*
X249936Y104802D02*
X249936Y105666D01*
X249936Y113714D02*
X249936Y115666D01*
X249936Y141762D02*
X249936Y157608D01*
X249936Y176302D02*
X249936Y177608D01*
X249936Y188312D02*
X249936Y192608D01*
X249936Y228988D02*
X249936Y240618D01*
X249936Y395165D02*
X249936Y425323D01*
X256032Y113714D02*
X256032Y77003D01*
X256032Y141762D02*
X256032Y154288D01*
X256032Y235084D02*
X256032Y241216D01*
X256032Y424121D02*
X256032Y425323D01*
X262128Y106194D02*
X262128Y83099D01*
X262128Y141762D02*
X262128Y154288D01*
X262128Y239442D02*
X262128Y241666D01*
X262128Y384302D02*
X262128Y384907D01*
X268224Y99078D02*
X268224Y89195D01*
X268224Y216302D02*
X268224Y220298D01*
X268224Y239442D02*
X268224Y241666D01*
X268224Y384302D02*
X268224Y384846D01*
X268224Y391619D02*
X268224Y392021D01*
X268224Y410619D02*
X268224Y411021D01*
X274320Y99078D02*
X274320Y95291D01*
X274320Y212732D02*
X274320Y220298D01*
X274320Y239442D02*
X274320Y242911D01*
X274320Y384302D02*
X274320Y385225D01*
X274320Y391619D02*
X274320Y392021D01*
X274320Y410619D02*
X274320Y411021D01*
X280416Y221346D02*
X280416Y213010D01*
X280416Y238394D02*
X280416Y243450D01*
X280416Y384302D02*
X280416Y393546D01*
X280416Y409094D02*
X280416Y416306D01*
X286512Y113054D02*
X286512Y107483D01*
X286512Y208672D02*
X286512Y212982D01*
X286512Y218264D02*
X286512Y221346D01*
X286512Y228894D02*
X286512Y230846D01*
X286512Y238394D02*
X286512Y244634D01*
X286512Y401320D02*
X286512Y401320D01*
X292608Y119150D02*
X292608Y113579D01*
X292608Y137698D02*
X292608Y140106D01*
X292608Y162154D02*
X292608Y163696D01*
X292608Y181744D02*
X292608Y186397D01*
X292608Y203824D02*
X292608Y206886D01*
X292608Y220003D02*
X292608Y223049D01*
X292608Y228894D02*
X292608Y230846D01*
X292608Y236691D02*
X292608Y244634D01*
X292608Y250952D02*
X292608Y250952D01*
X292608Y399842D02*
X292608Y402798D01*
X298704Y149606D02*
X298704Y119675D01*
X298704Y152654D02*
X298704Y171744D01*
X298704Y173696D02*
X298704Y186969D01*
X298704Y196480D02*
X298704Y200790D01*
X298704Y205610D02*
X298704Y209920D01*
X298704Y219430D02*
X298704Y245115D01*
X298704Y250952D02*
X298704Y250952D01*
X304800Y140118D02*
X304800Y125771D01*
X304800Y149606D02*
X304800Y152654D01*
X304800Y162142D02*
X304800Y164155D01*
X304800Y171744D02*
X304800Y173696D01*
X304800Y181285D02*
X304800Y190130D01*
X304800Y190384D02*
X304800Y194694D01*
X304800Y211706D02*
X304800Y216016D01*
X304800Y216270D02*
X304800Y252984D01*
X304800Y411412D02*
X304800Y416306D01*
X310896Y201321D02*
X310896Y131867D01*
X310896Y205079D02*
X310896Y252984D01*
X310896Y411342D02*
X310896Y416306D01*
X316992Y156658D02*
X316992Y137963D01*
X316992Y177620D02*
X316992Y198250D01*
X316992Y208150D02*
X316992Y228780D01*
X316992Y249742D02*
X316992Y252984D01*
X316992Y412369D02*
X316992Y416306D01*
X323088Y151837D02*
X323088Y144059D01*
X323088Y157872D02*
X323088Y162182D01*
X323088Y172096D02*
X323088Y176406D01*
X323088Y182441D02*
X323088Y190887D01*
X323088Y215513D02*
X323088Y223959D01*
X323088Y229994D02*
X323088Y234304D01*
X323088Y244218D02*
X323088Y248528D01*
X323088Y254563D02*
X323088Y263011D01*
X323088Y412358D02*
X323088Y416306D01*
X329184Y150280D02*
X329184Y150155D01*
X329184Y163968D02*
X329184Y165999D01*
X329184Y168278D02*
X329184Y170310D01*
X329184Y183998D02*
X329184Y189103D01*
X329184Y217297D02*
X329184Y222402D01*
X329184Y236090D02*
X329184Y238122D01*
X329184Y240400D02*
X329184Y242432D01*
X329184Y256120D02*
X329184Y260486D01*
X329184Y412369D02*
X329184Y416306D01*
X335280Y174374D02*
X335280Y170064D01*
X335280Y183231D02*
X335280Y190046D01*
X335280Y216354D02*
X335280Y223168D01*
X335280Y232026D02*
X335280Y236336D01*
X335280Y242186D02*
X335280Y246496D01*
X335280Y255354D02*
X335280Y260096D01*
X335280Y412369D02*
X335280Y416306D01*
X341376Y194440D02*
X341376Y176160D01*
X341376Y211960D02*
X341376Y230240D01*
X341376Y248282D02*
X341376Y260696D01*
X341376Y412369D02*
X341376Y416306D01*
X347472Y243840D02*
X347472Y168443D01*
X347472Y253191D02*
X347472Y263221D01*
X347472Y412369D02*
X347472Y416306D01*
X353568Y192662D02*
X353568Y174539D01*
X353568Y213738D02*
X353568Y238140D01*
X353568Y245852D02*
X353568Y248418D01*
X353568Y248613D02*
X353568Y251179D01*
X353568Y258891D02*
X353568Y268433D01*
X353568Y412369D02*
X353568Y416306D01*
X359664Y187685D02*
X359664Y180635D01*
X359664Y194448D02*
X359664Y198758D01*
X359664Y207642D02*
X359664Y211952D01*
X359664Y218715D02*
X359664Y241274D01*
X359664Y242322D02*
X359664Y245083D01*
X359664Y266865D02*
X359664Y287166D01*
X359664Y412369D02*
X359664Y416306D01*
X365760Y201546D02*
X365760Y200544D01*
X365760Y204854D02*
X365760Y205856D01*
X365760Y220059D02*
X365760Y248186D01*
X365760Y271472D02*
X365760Y272004D01*
X365760Y284256D02*
X365760Y293262D01*
X365760Y412369D02*
X365760Y416306D01*
X371856Y210950D02*
X371856Y206640D01*
X371856Y219131D02*
X371856Y248231D01*
X371856Y286952D02*
X371856Y299358D01*
X371856Y412369D02*
X371856Y416306D01*
X377952Y213359D02*
X377952Y212736D01*
X377952Y213667D02*
X377952Y216428D01*
X377952Y224034D02*
X377952Y226795D01*
X377952Y227102D02*
X377952Y243347D01*
X377952Y284764D02*
X377952Y287147D01*
X377952Y294513D02*
X377952Y313556D01*
X377952Y331604D02*
X377952Y331978D01*
X377952Y412369D02*
X377952Y416306D01*
X384048Y209756D02*
X384048Y205019D01*
X384048Y217938D02*
X384048Y219763D01*
X384048Y280269D02*
X384048Y281701D01*
X384048Y297402D02*
X384048Y321604D01*
X384048Y323556D02*
X384048Y332606D01*
X384048Y412369D02*
X384048Y416306D01*
X390144Y215185D02*
X390144Y211115D01*
X390144Y292847D02*
X390144Y314162D01*
X390144Y321604D02*
X390144Y323556D01*
X390144Y330998D02*
X390144Y338702D01*
X390144Y412369D02*
X390144Y412759D01*
X390144Y415290D02*
X390144Y415290D01*
X396240Y219902D02*
X396240Y217211D01*
X396240Y286751D02*
X396240Y318091D01*
X396240Y322580D02*
X396240Y322580D01*
X396240Y327069D02*
X396240Y344798D01*
X396240Y415290D02*
X396240Y415290D01*
X402336Y225895D02*
X402336Y223307D01*
X402336Y237194D02*
X402336Y237206D01*
X402336Y280655D02*
X402336Y283668D01*
X402336Y300532D02*
X402336Y314806D01*
X402336Y322580D02*
X402336Y322580D01*
X402336Y330354D02*
X402336Y340115D01*
X408432Y236318D02*
X408432Y229403D01*
X408432Y243840D02*
X408432Y243840D01*
X408432Y306324D02*
X408432Y317428D01*
X408432Y322580D02*
X408432Y322580D01*
X408432Y327732D02*
X408432Y339273D01*
X414528Y252476D02*
X414528Y235499D01*
X420624Y242298D02*
X420624Y253188D01*
D38*
X90170Y284480D02*
X78190Y284480D01*
X90170Y284480D02*
X92710Y281940D01*
D36*
X92710Y281940D03*
X105410Y281940D03*
D37*
X105410Y294331D01*
X107649Y296570D01*
X87630Y296570D01*
X83515Y300685D01*
X81280Y302920D01*
X98400Y315570D02*
X107649Y315570D01*
X98400Y315570D02*
X83515Y300685D01*
X107649Y315570D02*
X107649Y334319D01*
X109880Y336550D01*
X105410Y281940D02*
X92710Y281940D01*
D36*
X88900Y384810D03*
D37*
X93980Y379730D02*
X108610Y379730D01*
X93980Y379730D02*
X88900Y384810D01*
D36*
X402590Y377190D03*
X406400Y347980D03*
D37*
X406400Y362585D02*
X406400Y373380D01*
X402590Y377190D01*
X406400Y362585D02*
X406400Y347980D01*
D36*
X372110Y278130D03*
D37*
X384442Y265798D01*
X372110Y278130D02*
X372110Y278130D01*
X111150Y377190D02*
X108610Y379730D01*
X111150Y377190D02*
X111150Y358140D01*
X109880Y356870D02*
X109880Y336550D01*
X109880Y356870D02*
X111150Y358140D01*
X60960Y377190D02*
X43790Y377190D01*
X76200Y392430D02*
X76200Y406400D01*
X76200Y392430D02*
X60960Y377190D01*
D43*
X75692Y354584D03*
D38*
X67818Y346710D01*
X45330Y346710D01*
D43*
X335026Y284734D03*
D38*
X366427Y304705D02*
X366150Y322580D01*
X366427Y304705D02*
X346456Y284734D01*
X335026Y284734D01*
D43*
X227330Y94996D03*
D38*
X222250Y89916D01*
X222250Y89780D01*
X221860Y87997D01*
X221860Y58420D01*
D39*
X211890Y327460D02*
X202360Y327460D01*
X211890Y327460D02*
X212090Y327660D01*
D40*
X212090Y327660D03*
X374650Y255270D03*
D41*
X185860Y215460D02*
X173150Y215460D01*
X185860Y215460D02*
X186690Y214630D01*
D44*
X186690Y214630D03*
D40*
X302260Y270510D03*
D39*
X301498Y269748D02*
X290576Y269748D01*
X301498Y269748D02*
X302260Y270510D01*
X366165Y259829D02*
X370091Y259829D01*
X374650Y255270D01*
X384810Y241184D02*
X394449Y231545D01*
X384810Y245110D02*
X374650Y255270D01*
X384810Y245110D02*
X384810Y241184D01*
D44*
X234471Y301469D03*
X193040Y222250D03*
D41*
X193040Y230350D01*
X193400Y230710D01*
X274200Y322460D02*
X287860Y322460D01*
X237490Y298450D02*
X234471Y301469D01*
X250190Y298450D02*
X274200Y322460D01*
X250190Y298450D02*
X237490Y298450D01*
D44*
X236220Y293370D03*
X198120Y219710D03*
D41*
X198120Y230430D01*
X198400Y230710D01*
X275550Y317460D02*
X287860Y317460D01*
X251460Y293370D02*
X236220Y293370D01*
X251460Y293370D02*
X275550Y317460D01*
X203400Y230710D02*
X203400Y222450D01*
X203200Y222250D01*
D44*
X203200Y222250D03*
X234950Y284480D03*
D41*
X252270Y282400D02*
X252270Y272550D01*
X252610Y272210D01*
X252270Y282400D02*
X250190Y284480D01*
X234950Y284480D01*
D39*
X231140Y280670D02*
X173600Y280670D01*
X232610Y279200D02*
X232610Y272210D01*
X232610Y279200D02*
X231140Y280670D01*
D37*
X138430Y310791D02*
X133651Y315570D01*
D38*
X138430Y310791D02*
X138430Y306070D01*
D36*
X138430Y306070D03*
X143510Y325120D03*
D38*
X144170Y324460D02*
X158750Y324460D01*
X144170Y324460D02*
X143510Y325120D01*
X158750Y324460D02*
X165980Y331690D01*
X165980Y342900D01*
D37*
X143510Y325120D02*
X133960Y315570D01*
X133651Y315570D01*
D39*
X202360Y307460D02*
X202480Y307340D01*
X212090Y307340D01*
D40*
X212090Y307340D03*
D39*
X217610Y357710D02*
X217180Y358140D01*
X208280Y358140D01*
D40*
X208280Y358140D03*
X299720Y307340D03*
D41*
X287980Y307340D01*
X287860Y307460D01*
X242610Y272210D02*
X242610Y267930D01*
X247650Y262890D02*
X251460Y262890D01*
D40*
X251460Y262890D03*
D41*
X247650Y262890D02*
X242610Y267930D01*
D36*
X187960Y180340D03*
D41*
X173150Y175460D02*
X166170Y175460D01*
X163830Y177800D02*
X163830Y180340D01*
X163830Y185420D01*
X163830Y177800D02*
X166170Y175460D01*
X163950Y180460D02*
X173150Y180460D01*
X163950Y180460D02*
X163830Y180340D01*
X163870Y185460D02*
X173150Y185460D01*
X163870Y185460D02*
X163830Y185420D01*
X154940Y184150D02*
X154940Y177410D01*
X154940Y184150D02*
X156210Y185420D01*
X163830Y185420D01*
X173150Y185460D02*
X182840Y185460D01*
X187960Y180340D01*
X187840Y180460D02*
X173150Y180460D01*
X187840Y180460D02*
X187960Y180340D01*
X183080Y175460D02*
X173150Y175460D01*
X183080Y175460D02*
X187960Y180340D01*
X228400Y216100D02*
X228400Y230710D01*
X228400Y216100D02*
X228600Y215900D01*
D36*
X228600Y215900D03*
D37*
X101600Y135890D02*
X101600Y120650D01*
D40*
X101600Y135890D03*
D37*
X273050Y109650D02*
X287020Y123620D01*
X287020Y130810D01*
D36*
X287020Y130810D03*
D39*
X276860Y262890D02*
X251460Y262890D01*
X276860Y262890D02*
X279400Y260350D01*
X311404Y260350D01*
D36*
X181610Y345440D03*
D37*
X181610Y349640D02*
X171450Y359800D01*
X181610Y349640D02*
X191770Y359800D01*
X181610Y349640D02*
X181610Y345440D01*
X179070Y342900D02*
X165980Y342900D01*
X179070Y342900D02*
X181610Y345440D01*
D39*
X193430Y358140D02*
X208280Y358140D01*
X193430Y358140D02*
X191770Y359800D01*
D36*
X303530Y402590D03*
D42*
X295300Y410820D02*
X293670Y410820D01*
X295300Y410820D02*
X303530Y402590D01*
X12700Y310810D02*
X12700Y295520D01*
D41*
X295480Y337460D02*
X301830Y343810D01*
X295480Y337460D02*
X287860Y337460D01*
X301830Y343810D02*
X332380Y343810D01*
X342900Y354330D02*
X342900Y362585D01*
X342900Y354330D02*
X332380Y343810D01*
D39*
X202360Y312460D02*
X181260Y312460D01*
X180340Y311540D01*
X227610Y327940D02*
X227610Y357710D01*
X227610Y327940D02*
X220980Y321310D01*
X220980Y304800D01*
X215900Y299720D01*
D40*
X215900Y299720D03*
D37*
X35400Y232370D02*
X35400Y220980D01*
X35400Y232370D02*
X43260Y240230D01*
D39*
X232610Y325320D02*
X232610Y357710D01*
X227330Y299720D02*
X227426Y299624D01*
D40*
X227426Y299624D03*
D39*
X227330Y320040D02*
X232610Y325320D01*
X227330Y320040D02*
X227330Y299720D01*
D37*
X64930Y229900D02*
X64930Y220980D01*
X64930Y229900D02*
X75260Y240230D01*
D39*
X217610Y258820D02*
X217610Y272210D01*
X217610Y258820D02*
X212790Y254000D01*
X203900Y254000D01*
X200480Y250580D02*
X189230Y250580D01*
X200480Y250580D02*
X203900Y254000D01*
X222610Y259290D02*
X222610Y272210D01*
X222610Y259290D02*
X227900Y254000D01*
X231710Y250190D02*
X248040Y250190D01*
X231710Y250190D02*
X227900Y254000D01*
D41*
X208400Y230710D02*
X208400Y219830D01*
X208280Y219710D01*
D44*
X208280Y219710D03*
X240030Y280210D03*
D41*
X245570Y280210D01*
X247610Y278170D02*
X247610Y272210D01*
X247610Y278170D02*
X245570Y280210D01*
D39*
X202360Y292460D02*
X152760Y292460D01*
X12700Y278520D02*
X12700Y266700D01*
X144780Y284480D02*
X152760Y292460D01*
X144780Y284480D02*
X119380Y284480D01*
X101600Y266700D01*
X95250Y266700D01*
X81280Y252730D01*
X26670Y252730D01*
X12700Y266700D01*
X177520Y297460D02*
X202360Y297460D01*
X177520Y297460D02*
X176530Y298450D01*
D40*
X176530Y298450D03*
D39*
X191024Y302460D02*
X202360Y302460D01*
X191024Y302460D02*
X190500Y302984D01*
D40*
X190500Y302984D03*
D41*
X243400Y230710D02*
X243400Y207840D01*
X241300Y205740D01*
D44*
X241300Y205740D03*
D41*
X251740Y205460D02*
X258650Y205460D01*
X251740Y205460D02*
X250190Y207010D01*
X250190Y220980D01*
X259080Y229870D02*
X267090Y229870D01*
X259080Y229870D02*
X250190Y220980D01*
X193400Y150770D02*
X193400Y145210D01*
X193400Y150770D02*
X191770Y152400D01*
X170370Y129730D02*
X152400Y129730D01*
D40*
X152400Y129730D03*
D41*
X184150Y152400D02*
X191770Y152400D01*
X184150Y152400D02*
X180340Y148590D01*
X180340Y139700D01*
X170370Y129730D01*
D42*
X57150Y38100D02*
X37710Y38100D01*
D41*
X213400Y145210D02*
X213400Y156250D01*
X214630Y157480D01*
D40*
X214630Y157480D03*
X104140Y73660D03*
D42*
X95640Y73660D01*
X95250Y73270D01*
X113910Y73660D02*
X114300Y73270D01*
X113910Y73660D02*
X104140Y73660D01*
D41*
X208400Y145210D02*
X208400Y162440D01*
X208280Y162560D01*
D40*
X208280Y162560D03*
X142240Y73660D03*
D42*
X133740Y73660D01*
X133350Y73270D01*
X152010Y73660D02*
X152400Y73270D01*
X152010Y73660D02*
X142240Y73660D01*
D41*
X188400Y141400D02*
X188400Y145210D01*
X188400Y141400D02*
X170190Y123190D01*
X144780Y123190D01*
D40*
X144780Y123190D03*
D42*
X76200Y44450D02*
X82550Y38100D01*
X76200Y44450D02*
X76200Y56270D01*
D41*
X247450Y200460D02*
X258650Y200460D01*
X247450Y200460D02*
X238760Y191770D01*
D36*
X238760Y191770D03*
D41*
X238760Y170460D02*
X234670Y170460D01*
X238760Y170460D02*
X258650Y170460D01*
X238760Y191770D02*
X231140Y184150D01*
X231140Y173990D01*
X234670Y170460D01*
X258650Y170460D02*
X264440Y170460D01*
X266700Y172720D01*
X266700Y177800D01*
X264040Y180460D01*
X258650Y180460D01*
X238400Y170100D02*
X238400Y145210D01*
X238400Y170100D02*
X238760Y170460D01*
D37*
X189230Y131550D02*
X189230Y113640D01*
X189230Y131550D02*
X189495Y131815D01*
D36*
X189495Y131815D03*
D37*
X255310Y131650D02*
X273050Y131650D01*
X255310Y131650D02*
X255270Y131690D01*
X242960Y131690D01*
X241300Y133350D01*
D36*
X241300Y133350D03*
D41*
X203400Y139900D02*
X203400Y145210D01*
X203400Y139900D02*
X199390Y135890D01*
X193570Y135890D02*
X189230Y131550D01*
X193570Y135890D02*
X199390Y135890D01*
X238400Y136250D02*
X238400Y145210D01*
X238400Y136250D02*
X242960Y131690D01*
D42*
X29283Y46673D02*
X20710Y38100D01*
X29283Y46673D02*
X29515Y46673D01*
X32372Y49530D02*
X38100Y49530D01*
X44450Y55880D01*
X44450Y68580D01*
X49140Y73270D02*
X57150Y73270D01*
X32372Y49530D02*
X29515Y46673D01*
X44450Y68580D02*
X49140Y73270D01*
X57150Y73270D02*
X76200Y73270D01*
X76200Y81280D01*
X72390Y85090D01*
D36*
X72390Y85090D03*
D41*
X223400Y145210D02*
X223400Y166250D01*
X231140Y173990D01*
D37*
X20710Y82550D02*
X15240Y88020D01*
X30480Y82550D02*
X44450Y68580D01*
X30480Y82550D02*
X20710Y82550D01*
D41*
X136770Y254000D02*
X136770Y270510D01*
X136770Y254000D02*
X137160Y253610D01*
X150950Y254000D02*
X153560Y256610D01*
X150950Y254000D02*
X136770Y254000D01*
X153560Y256610D02*
X163790Y246380D01*
X177800Y246380D01*
X182880Y241300D01*
X218400Y237530D02*
X218400Y230710D01*
X218400Y237530D02*
X214630Y241300D01*
X182880Y241300D01*
X137160Y220100D02*
X136770Y219710D01*
X137160Y220100D02*
X137160Y236610D01*
X143120Y242570D01*
X162600Y242570D02*
X171560Y233610D01*
X162600Y242570D02*
X143120Y242570D01*
X213400Y234910D02*
X213400Y230710D01*
X213400Y234910D02*
X210820Y237490D01*
X175440Y237490D02*
X171560Y233610D01*
X175440Y237490D02*
X210820Y237490D01*
X258650Y210460D02*
X268330Y210460D01*
X275590Y203200D02*
X275590Y193040D01*
X281060Y187570D01*
X281060Y172720D01*
X275590Y203200D02*
X268330Y210460D01*
X233400Y223800D02*
X233400Y230710D01*
X233400Y223800D02*
X236220Y220980D01*
X236220Y200660D01*
D44*
X236220Y200660D03*
D41*
X97790Y182880D02*
X97790Y177410D01*
X104140Y189230D02*
X127000Y189230D01*
X104140Y189230D02*
X97790Y182880D01*
X163630Y200460D02*
X173150Y200460D01*
X163630Y200460D02*
X159250Y196080D01*
X133850Y196080D02*
X127000Y189230D01*
X133850Y196080D02*
X159250Y196080D01*
X116840Y181610D02*
X116840Y177410D01*
X120650Y185420D02*
X130810Y185420D01*
X120650Y185420D02*
X116840Y181610D01*
X164980Y195460D02*
X173150Y195460D01*
X164980Y195460D02*
X162060Y192540D01*
X137930Y192540D02*
X130810Y185420D01*
X137930Y192540D02*
X162060Y192540D01*
X135890Y182880D02*
X135890Y177410D01*
X166330Y190460D02*
X173150Y190460D01*
X166330Y190460D02*
X164870Y189000D01*
X142010Y189000D02*
X135890Y182880D01*
X142010Y189000D02*
X164870Y189000D01*
X258650Y195460D02*
X264280Y195460D01*
X271780Y187960D02*
X271780Y163830D01*
X278790Y156820D01*
X278790Y151130D01*
X271780Y187960D02*
X264280Y195460D01*
X173150Y210460D02*
X160930Y210460D01*
X153670Y203200D01*
X128270Y203200D02*
X121650Y196580D01*
X62230Y163830D02*
X59300Y163830D01*
X128270Y203200D02*
X153670Y203200D01*
X121650Y196580D02*
X81010Y196580D01*
X68580Y184150D01*
X68580Y170180D01*
X62230Y163830D01*
D38*
X68780Y265230D02*
X75260Y265230D01*
X49530Y284480D02*
X41190Y284480D01*
X49530Y284480D02*
X68780Y265230D01*
D41*
X116450Y254000D02*
X124460Y254000D01*
X160200Y267970D02*
X171560Y256610D01*
X128270Y257810D02*
X124460Y254000D01*
X128270Y257810D02*
X128270Y276860D01*
X130810Y279400D01*
X142240Y279400D01*
X153670Y267970D01*
X160200Y267970D01*
X124460Y237490D02*
X116450Y237490D01*
X124460Y237490D02*
X128270Y233680D01*
X128270Y213360D01*
X129540Y212090D01*
X153560Y219600D02*
X153560Y233610D01*
X146050Y212090D02*
X129540Y212090D01*
X146050Y212090D02*
X153560Y219600D01*
D37*
X38227Y142748D02*
X38227Y140843D01*
X56270Y122800D02*
X74930Y122800D01*
X56270Y122800D02*
X38227Y140843D01*
X74930Y105800D02*
X75320Y105410D01*
X101600Y105410D01*
X125340Y105410D02*
X125730Y105800D01*
X125340Y105410D02*
X101600Y105410D01*
X130048Y142748D02*
X139573Y142748D01*
X125730Y138430D02*
X125730Y122800D01*
X125730Y138430D02*
X130048Y142748D01*
D41*
X78740Y177410D02*
X78740Y182880D01*
X88900Y193040D02*
X124460Y193040D01*
X88900Y193040D02*
X78740Y182880D01*
X162280Y205460D02*
X173150Y205460D01*
X162280Y205460D02*
X156440Y199620D01*
X131040Y199620D02*
X124460Y193040D01*
X131040Y199620D02*
X156440Y199620D01*
X228210Y127000D02*
X233400Y132190D01*
X233400Y145210D01*
D42*
X133350Y56270D02*
X133350Y55880D01*
X120650Y43180D02*
X120650Y12700D01*
X120650Y43180D02*
X133350Y55880D01*
X95250Y56270D02*
X95250Y12700D01*
X107950Y38100D02*
X114300Y44450D01*
X114300Y56270D01*
X152400Y56270D02*
X152400Y44450D01*
X153670Y43180D01*
D40*
X153670Y43180D03*
D42*
X161680Y35170D02*
X171450Y35170D01*
X161680Y35170D02*
X153670Y43180D01*
X69850Y12700D02*
X47870Y12700D01*
X57150Y56270D02*
X58030Y56270D01*
X69850Y44450D01*
X69850Y12700D01*
D39*
X293670Y386380D02*
X293670Y391820D01*
X293670Y386380D02*
X292100Y384810D01*
D45*
X292100Y384810D03*
X292100Y356870D03*
D39*
X292100Y359410D01*
X295275Y362585D02*
X317500Y362585D01*
X295275Y362585D02*
X292100Y359410D01*
D41*
X220150Y287460D02*
X202360Y287460D01*
D44*
X252730Y288290D03*
D41*
X243840Y288290D01*
X243030Y289100D01*
X221790Y289100D01*
D44*
X383540Y290830D03*
D41*
X221790Y289100D02*
X220150Y287460D01*
D39*
X383540Y290830D02*
X407670Y266700D01*
X414020Y266700D01*
D41*
X295000Y292460D02*
X287860Y292460D01*
X381000Y350520D02*
X381000Y362585D01*
X308610Y306070D02*
X295000Y292460D01*
X308610Y306070D02*
X308610Y317500D01*
X320040Y328930D01*
X339090Y328930D01*
X351790Y341630D01*
X372110Y341630D01*
X381000Y350520D01*
X296750Y332460D02*
X287860Y332460D01*
X296750Y332460D02*
X303380Y339090D01*
X355600Y351790D02*
X355600Y362585D01*
X336550Y339090D02*
X303380Y339090D01*
X336550Y339090D02*
X346710Y349250D01*
X353060Y349250D01*
X355600Y351790D01*
X342900Y387350D02*
X342900Y399415D01*
D45*
X342900Y387350D03*
X252730Y367030D03*
D41*
X252730Y357830D01*
X252610Y357710D01*
X287860Y287460D02*
X296350Y287460D01*
X393700Y350520D02*
X393700Y362585D01*
X313690Y304800D02*
X296350Y287460D01*
X313690Y304800D02*
X313690Y316230D01*
X321310Y323850D01*
X340360Y323850D01*
X354330Y337820D01*
X381000Y337820D01*
X393700Y350520D01*
X288060Y327660D02*
X287860Y327460D01*
X368300Y351790D02*
X368300Y362585D01*
X298450Y327660D02*
X288060Y327660D01*
X298450Y327660D02*
X304800Y334010D01*
X337820Y334010D01*
X349250Y345440D01*
X361950Y345440D01*
X368300Y351790D01*
X330200Y387350D02*
X330200Y399415D01*
D45*
X330200Y387350D03*
X252730Y373380D03*
D41*
X247650Y368300D01*
X247650Y357750D01*
X247610Y357710D01*
X287860Y342460D02*
X294210Y348810D01*
X327220Y348810D01*
X330200Y351790D02*
X330200Y362585D01*
X330200Y351790D02*
X327220Y348810D01*
X317500Y389255D02*
X317500Y399415D01*
X317500Y389255D02*
X314960Y386715D01*
X305435Y386715D01*
X297180Y378460D01*
X242610Y369610D02*
X242610Y357710D01*
X251460Y378460D02*
X297180Y378460D01*
X251460Y378460D02*
X242610Y369610D01*
D46*
X243840Y389890D03*
D37*
X242570Y388620D01*
X220980Y388620D01*
X216290Y383930D01*
X216290Y377190D01*
D41*
X355600Y387350D02*
X355600Y399415D01*
D45*
X355600Y387350D03*
X279400Y358140D03*
D41*
X278970Y357710D01*
X272610Y357710D01*
X368300Y387350D02*
X368300Y399415D01*
X368300Y387350D02*
X363220Y382270D01*
X307340Y382270D01*
X299290Y374220D01*
X263960Y374220D02*
X257610Y367870D01*
X257610Y357710D01*
X263960Y374220D02*
X299290Y374220D01*
X381000Y383540D02*
X381000Y399415D01*
X381000Y383540D02*
X375920Y378460D01*
X309880Y378460D01*
X301830Y370410D01*
X267690Y370410D01*
X262610Y365330D01*
X262610Y357710D01*
X393700Y381000D02*
X393700Y399415D01*
X393700Y381000D02*
X387350Y374650D01*
X312420Y374650D01*
X270150Y366600D02*
X267610Y364060D01*
X267610Y357710D01*
X270150Y366600D02*
X304370Y366600D01*
X312420Y374650D01*
X272610Y284040D02*
X272610Y272210D01*
X272610Y284040D02*
X274320Y285750D01*
D45*
X274320Y285750D03*
D41*
X267610Y289200D02*
X267610Y272210D01*
X267610Y289200D02*
X269240Y290830D01*
D45*
X269240Y290830D03*
D41*
X262610Y295630D02*
X262610Y272210D01*
X262610Y295630D02*
X262890Y295910D01*
D45*
X262890Y295910D03*
D39*
X191770Y376800D02*
X191770Y393310D01*
X178680Y406400D01*
X177800Y406400D01*
D41*
X257610Y283410D02*
X257610Y272210D01*
X257610Y283410D02*
X256540Y284480D01*
D45*
X256540Y284480D03*
D39*
X152400Y386960D02*
X152400Y406400D01*
X162560Y376800D02*
X171450Y376800D01*
X162560Y376800D02*
X152400Y386960D01*
D37*
X180340Y52950D02*
X191770Y41520D01*
X180340Y52950D02*
X180340Y62738D01*
X46870Y193920D02*
X15240Y193920D01*
X46870Y193920D02*
X48260Y192530D01*
D42*
X241300Y377190D02*
X257810Y393700D01*
X414020Y292100D02*
X419100Y297180D01*
X264160Y422910D02*
X257810Y416560D01*
X257810Y401320D01*
X257810Y393700D01*
X419100Y406400D02*
X419100Y297180D01*
X419100Y406400D02*
X402590Y422910D01*
X264160Y422910D01*
X241300Y377190D02*
X233290Y377190D01*
X257810Y401320D02*
X267770Y401320D01*
M02*
