G04 EAGLE Gerber RS-274X export*
G75*
%MOMM*%
%FSLAX34Y34*%
%LPD*%
%INCopper Layer 14*%
%IPPOS*%
%AMOC8*
5,1,8,0,0,1.08239X$1,22.5*%
G01*
%ADD10C,0.177800*%
%ADD11C,1.422400*%
%ADD12C,3.450000*%
%ADD13C,2.400300*%
%ADD14C,1.600000*%
%ADD15C,1.905000*%
%ADD16C,2.667000*%
%ADD17C,1.930400*%
%ADD18C,0.850000*%
%ADD19C,0.600000*%
%ADD20C,4.013200*%
%ADD21C,0.400000*%
%ADD22C,0.304800*%
%ADD23C,0.609600*%
%ADD24C,0.403200*%
%ADD25C,0.504800*%


D10*
X16891Y194691D02*
X8509Y194691D01*
X8509Y190966D01*
X8509Y187566D02*
X16891Y184772D01*
X8509Y181978D01*
X10605Y182676D02*
X10605Y186867D01*
X16891Y178422D02*
X12933Y175628D01*
X16891Y172834D01*
X12933Y175628D02*
X8509Y175628D01*
X8509Y168478D02*
X8509Y164753D01*
X8509Y168478D02*
X16891Y168478D01*
X16891Y164753D01*
X13166Y165684D02*
X13166Y168478D01*
X16891Y160489D02*
X8509Y160489D01*
X16891Y160489D02*
X16891Y158160D01*
X16889Y158065D01*
X16883Y157970D01*
X16874Y157876D01*
X16860Y157782D01*
X16843Y157688D01*
X16822Y157596D01*
X16797Y157504D01*
X16768Y157414D01*
X16736Y157324D01*
X16700Y157236D01*
X16660Y157150D01*
X16618Y157065D01*
X16571Y156982D01*
X16521Y156901D01*
X16468Y156823D01*
X16412Y156746D01*
X16353Y156672D01*
X16291Y156600D01*
X16226Y156531D01*
X16158Y156464D01*
X16088Y156401D01*
X16014Y156340D01*
X15939Y156282D01*
X15861Y156228D01*
X15781Y156176D01*
X15699Y156128D01*
X15616Y156084D01*
X15530Y156042D01*
X15443Y156005D01*
X15354Y155971D01*
X15264Y155940D01*
X15173Y155913D01*
X15081Y155890D01*
X14988Y155871D01*
X14894Y155856D01*
X14800Y155844D01*
X14705Y155836D01*
X14610Y155832D01*
X14516Y155832D01*
X14421Y155836D01*
X14326Y155844D01*
X14232Y155856D01*
X14138Y155871D01*
X14045Y155890D01*
X13953Y155913D01*
X13862Y155940D01*
X13772Y155971D01*
X13683Y156005D01*
X13596Y156042D01*
X13510Y156084D01*
X13427Y156128D01*
X13345Y156176D01*
X13265Y156228D01*
X13187Y156282D01*
X13112Y156340D01*
X13038Y156401D01*
X12968Y156464D01*
X12900Y156531D01*
X12835Y156600D01*
X12773Y156672D01*
X12714Y156746D01*
X12658Y156823D01*
X12605Y156901D01*
X12555Y156982D01*
X12508Y157065D01*
X12466Y157150D01*
X12426Y157236D01*
X12390Y157324D01*
X12358Y157414D01*
X12329Y157504D01*
X12304Y157596D01*
X12283Y157688D01*
X12266Y157782D01*
X12252Y157876D01*
X12243Y157970D01*
X12237Y158065D01*
X12235Y158160D01*
X12234Y158160D02*
X12234Y160489D01*
X12234Y157695D02*
X8509Y155832D01*
X15028Y146562D02*
X16891Y144233D01*
X8509Y144233D01*
X8509Y141905D02*
X8509Y146562D01*
X10372Y137418D02*
X16891Y135555D01*
X10372Y137418D02*
X10372Y132761D01*
X12234Y134158D02*
X8509Y134158D01*
X12700Y123487D02*
X12892Y123485D01*
X13083Y123478D01*
X13275Y123466D01*
X13466Y123450D01*
X13657Y123429D01*
X13847Y123404D01*
X14036Y123374D01*
X14225Y123340D01*
X14413Y123301D01*
X14600Y123257D01*
X14786Y123209D01*
X14970Y123157D01*
X15153Y123100D01*
X15335Y123039D01*
X15515Y122974D01*
X15694Y122904D01*
X15871Y122830D01*
X16046Y122751D01*
X16219Y122669D01*
X16390Y122582D01*
X16559Y122491D01*
X16726Y122396D01*
X16890Y122297D01*
X17052Y122195D01*
X17212Y122088D01*
X17369Y121978D01*
X17523Y121863D01*
X17674Y121746D01*
X17823Y121624D01*
X12700Y123487D02*
X12508Y123485D01*
X12317Y123478D01*
X12125Y123466D01*
X11934Y123450D01*
X11743Y123429D01*
X11553Y123404D01*
X11364Y123374D01*
X11175Y123340D01*
X10987Y123301D01*
X10800Y123257D01*
X10614Y123209D01*
X10430Y123157D01*
X10247Y123100D01*
X10065Y123039D01*
X9885Y122974D01*
X9706Y122904D01*
X9529Y122830D01*
X9354Y122751D01*
X9181Y122669D01*
X9010Y122582D01*
X8841Y122491D01*
X8674Y122396D01*
X8510Y122297D01*
X8348Y122195D01*
X8188Y122088D01*
X8031Y121978D01*
X7877Y121863D01*
X7726Y121746D01*
X7577Y121624D01*
X11769Y117462D02*
X11769Y111874D01*
X8975Y114668D02*
X14563Y114668D01*
X8509Y107243D02*
X8509Y104914D01*
X8511Y104819D01*
X8517Y104724D01*
X8526Y104630D01*
X8540Y104536D01*
X8557Y104442D01*
X8578Y104350D01*
X8603Y104258D01*
X8632Y104168D01*
X8664Y104078D01*
X8700Y103990D01*
X8740Y103904D01*
X8782Y103819D01*
X8829Y103736D01*
X8879Y103655D01*
X8932Y103577D01*
X8988Y103500D01*
X9047Y103426D01*
X9109Y103354D01*
X9174Y103285D01*
X9242Y103218D01*
X9312Y103155D01*
X9386Y103094D01*
X9461Y103036D01*
X9539Y102982D01*
X9619Y102930D01*
X9701Y102882D01*
X9784Y102838D01*
X9870Y102796D01*
X9957Y102759D01*
X10046Y102725D01*
X10136Y102694D01*
X10227Y102667D01*
X10319Y102644D01*
X10412Y102625D01*
X10506Y102610D01*
X10600Y102598D01*
X10695Y102590D01*
X10790Y102586D01*
X10884Y102586D01*
X10979Y102590D01*
X11074Y102598D01*
X11168Y102610D01*
X11262Y102625D01*
X11355Y102644D01*
X11447Y102667D01*
X11538Y102694D01*
X11628Y102725D01*
X11717Y102759D01*
X11804Y102796D01*
X11890Y102838D01*
X11973Y102882D01*
X12055Y102930D01*
X12135Y102982D01*
X12213Y103036D01*
X12288Y103094D01*
X12362Y103155D01*
X12432Y103218D01*
X12500Y103285D01*
X12565Y103354D01*
X12627Y103426D01*
X12686Y103500D01*
X12742Y103577D01*
X12795Y103655D01*
X12845Y103736D01*
X12892Y103819D01*
X12934Y103904D01*
X12974Y103990D01*
X13010Y104078D01*
X13042Y104168D01*
X13071Y104258D01*
X13096Y104350D01*
X13117Y104442D01*
X13134Y104536D01*
X13148Y104630D01*
X13157Y104724D01*
X13163Y104819D01*
X13165Y104914D01*
X16891Y104449D02*
X16891Y107243D01*
X16891Y104449D02*
X16889Y104364D01*
X16883Y104280D01*
X16874Y104195D01*
X16860Y104112D01*
X16843Y104029D01*
X16822Y103946D01*
X16797Y103865D01*
X16769Y103785D01*
X16737Y103707D01*
X16701Y103630D01*
X16662Y103554D01*
X16620Y103481D01*
X16574Y103410D01*
X16525Y103340D01*
X16473Y103273D01*
X16418Y103209D01*
X16360Y103147D01*
X16300Y103087D01*
X16236Y103031D01*
X16171Y102977D01*
X16102Y102927D01*
X16032Y102880D01*
X15959Y102836D01*
X15885Y102795D01*
X15809Y102758D01*
X15731Y102724D01*
X15652Y102694D01*
X15571Y102667D01*
X15490Y102644D01*
X15407Y102625D01*
X15324Y102610D01*
X15240Y102598D01*
X15155Y102590D01*
X15070Y102586D01*
X14986Y102586D01*
X14901Y102590D01*
X14816Y102598D01*
X14732Y102610D01*
X14649Y102625D01*
X14566Y102644D01*
X14485Y102667D01*
X14404Y102694D01*
X14325Y102724D01*
X14247Y102758D01*
X14171Y102795D01*
X14096Y102836D01*
X14024Y102880D01*
X13954Y102927D01*
X13885Y102977D01*
X13820Y103031D01*
X13756Y103087D01*
X13696Y103147D01*
X13638Y103209D01*
X13583Y103273D01*
X13531Y103340D01*
X13482Y103410D01*
X13436Y103481D01*
X13394Y103554D01*
X13355Y103630D01*
X13319Y103707D01*
X13287Y103785D01*
X13259Y103865D01*
X13234Y103946D01*
X13213Y104029D01*
X13196Y104112D01*
X13182Y104195D01*
X13173Y104280D01*
X13167Y104364D01*
X13165Y104449D01*
X13166Y104449D02*
X13166Y106311D01*
X16891Y98564D02*
X8509Y95770D01*
X16891Y92976D01*
X8509Y88955D02*
X8509Y86626D01*
X8511Y86531D01*
X8517Y86436D01*
X8526Y86342D01*
X8540Y86248D01*
X8557Y86154D01*
X8578Y86062D01*
X8603Y85970D01*
X8632Y85880D01*
X8664Y85790D01*
X8700Y85702D01*
X8740Y85616D01*
X8782Y85531D01*
X8829Y85448D01*
X8879Y85367D01*
X8932Y85289D01*
X8988Y85212D01*
X9047Y85138D01*
X9109Y85066D01*
X9174Y84997D01*
X9242Y84930D01*
X9312Y84867D01*
X9386Y84806D01*
X9461Y84748D01*
X9539Y84694D01*
X9619Y84642D01*
X9701Y84594D01*
X9784Y84550D01*
X9870Y84508D01*
X9957Y84471D01*
X10046Y84437D01*
X10136Y84406D01*
X10227Y84379D01*
X10319Y84356D01*
X10412Y84337D01*
X10506Y84322D01*
X10600Y84310D01*
X10695Y84302D01*
X10790Y84298D01*
X10884Y84298D01*
X10979Y84302D01*
X11074Y84310D01*
X11168Y84322D01*
X11262Y84337D01*
X11355Y84356D01*
X11447Y84379D01*
X11538Y84406D01*
X11628Y84437D01*
X11717Y84471D01*
X11804Y84508D01*
X11890Y84550D01*
X11973Y84594D01*
X12055Y84642D01*
X12135Y84694D01*
X12213Y84748D01*
X12288Y84806D01*
X12362Y84867D01*
X12432Y84930D01*
X12500Y84997D01*
X12565Y85066D01*
X12627Y85138D01*
X12686Y85212D01*
X12742Y85289D01*
X12795Y85367D01*
X12845Y85448D01*
X12892Y85531D01*
X12934Y85616D01*
X12974Y85702D01*
X13010Y85790D01*
X13042Y85880D01*
X13071Y85970D01*
X13096Y86062D01*
X13117Y86154D01*
X13134Y86248D01*
X13148Y86342D01*
X13157Y86436D01*
X13163Y86531D01*
X13165Y86626D01*
X16891Y86161D02*
X16891Y88955D01*
X16891Y86161D02*
X16889Y86076D01*
X16883Y85992D01*
X16874Y85907D01*
X16860Y85824D01*
X16843Y85741D01*
X16822Y85658D01*
X16797Y85577D01*
X16769Y85497D01*
X16737Y85419D01*
X16701Y85342D01*
X16662Y85266D01*
X16620Y85193D01*
X16574Y85122D01*
X16525Y85052D01*
X16473Y84985D01*
X16418Y84921D01*
X16360Y84859D01*
X16300Y84799D01*
X16236Y84743D01*
X16171Y84689D01*
X16102Y84639D01*
X16032Y84592D01*
X15959Y84548D01*
X15885Y84507D01*
X15809Y84470D01*
X15731Y84436D01*
X15652Y84406D01*
X15571Y84379D01*
X15490Y84356D01*
X15407Y84337D01*
X15324Y84322D01*
X15240Y84310D01*
X15155Y84302D01*
X15070Y84298D01*
X14986Y84298D01*
X14901Y84302D01*
X14816Y84310D01*
X14732Y84322D01*
X14649Y84337D01*
X14566Y84356D01*
X14485Y84379D01*
X14404Y84406D01*
X14325Y84436D01*
X14247Y84470D01*
X14171Y84507D01*
X14096Y84548D01*
X14024Y84592D01*
X13954Y84639D01*
X13885Y84689D01*
X13820Y84743D01*
X13756Y84799D01*
X13696Y84859D01*
X13638Y84921D01*
X13583Y84985D01*
X13531Y85052D01*
X13482Y85122D01*
X13436Y85193D01*
X13394Y85266D01*
X13355Y85342D01*
X13319Y85419D01*
X13287Y85497D01*
X13259Y85577D01*
X13234Y85658D01*
X13213Y85741D01*
X13196Y85824D01*
X13182Y85907D01*
X13173Y85992D01*
X13167Y86076D01*
X13165Y86161D01*
X13166Y86161D02*
X13166Y88023D01*
X7577Y80280D02*
X7726Y80158D01*
X7877Y80041D01*
X8031Y79926D01*
X8188Y79816D01*
X8348Y79709D01*
X8510Y79607D01*
X8674Y79508D01*
X8841Y79413D01*
X9010Y79322D01*
X9181Y79235D01*
X9354Y79153D01*
X9529Y79074D01*
X9706Y79000D01*
X9885Y78930D01*
X10065Y78865D01*
X10247Y78804D01*
X10430Y78747D01*
X10614Y78695D01*
X10800Y78647D01*
X10987Y78603D01*
X11175Y78564D01*
X11364Y78530D01*
X11553Y78500D01*
X11743Y78475D01*
X11934Y78454D01*
X12125Y78438D01*
X12316Y78426D01*
X12508Y78419D01*
X12700Y78417D01*
X12892Y78419D01*
X13084Y78426D01*
X13275Y78438D01*
X13466Y78454D01*
X13657Y78475D01*
X13847Y78500D01*
X14036Y78530D01*
X14225Y78564D01*
X14413Y78603D01*
X14600Y78647D01*
X14786Y78695D01*
X14970Y78747D01*
X15153Y78804D01*
X15335Y78865D01*
X15515Y78930D01*
X15694Y79000D01*
X15871Y79074D01*
X16046Y79153D01*
X16219Y79235D01*
X16390Y79322D01*
X16559Y79413D01*
X16726Y79508D01*
X16890Y79607D01*
X17052Y79709D01*
X17212Y79816D01*
X17369Y79926D01*
X17523Y80041D01*
X17674Y80158D01*
X17823Y80280D01*
D11*
X75260Y265230D03*
X75260Y240230D03*
X43260Y240230D03*
X43260Y265230D03*
D12*
X48260Y192530D03*
X48260Y312930D03*
D13*
X22860Y62738D03*
X180340Y62738D03*
D14*
X38227Y142748D03*
X63627Y142748D03*
X139573Y142748D03*
X164973Y142748D03*
X57150Y38100D03*
X69850Y12700D03*
X82550Y38100D03*
X95250Y12700D03*
X107950Y38100D03*
X120650Y12700D03*
X133350Y38100D03*
X146050Y12700D03*
D15*
X330200Y203200D03*
D16*
X366261Y203200D03*
X330200Y239261D03*
X294139Y203200D03*
X330200Y167139D03*
D17*
X414020Y292100D03*
X414020Y266700D03*
X76200Y406400D03*
X101600Y406400D03*
X127000Y406400D03*
X152400Y406400D03*
X177800Y406400D03*
X203200Y406400D03*
X228600Y406400D03*
X50800Y406400D03*
X25400Y406400D03*
D18*
X17780Y360680D03*
X120650Y306070D03*
D19*
X212090Y317500D03*
X219710Y331470D03*
D18*
X402590Y322580D03*
X143510Y383540D03*
D19*
X299636Y316314D03*
X238931Y260794D03*
X175260Y270510D03*
X97790Y223520D03*
X276860Y248920D03*
D18*
X189230Y161290D03*
X218440Y215900D03*
X238760Y180340D03*
D19*
X245110Y163830D03*
X231600Y161290D03*
D18*
X240030Y121920D03*
X406400Y243840D03*
X199390Y76200D03*
X26670Y119380D03*
X16510Y22860D03*
X24130Y234950D03*
X27940Y161290D03*
X397510Y415290D03*
X408940Y384810D03*
X280670Y401320D03*
X147320Y359410D03*
X95250Y325120D03*
X29210Y331470D03*
X92710Y281940D03*
X105410Y281940D03*
X88900Y384810D03*
X402590Y377190D03*
X406400Y347980D03*
X372110Y278130D03*
D20*
X75692Y354584D03*
X335026Y284734D03*
X227330Y94996D03*
D19*
X212090Y327660D03*
X374650Y255270D03*
D21*
X186690Y214630D03*
D19*
X302260Y270510D03*
D21*
X234471Y301469D03*
X193040Y222250D03*
X236220Y293370D03*
X198120Y219710D03*
X203200Y222250D03*
X234950Y284480D03*
D22*
X50799Y145249D02*
X50799Y140247D01*
X50799Y145249D02*
X48885Y149869D01*
X45348Y153406D01*
X40728Y155320D01*
X35726Y155320D01*
X33541Y154415D01*
X35419Y156293D01*
X36762Y159535D01*
X36762Y163045D01*
X35419Y166287D01*
X32937Y168769D01*
X29695Y170112D01*
X26185Y170112D01*
X22943Y168769D01*
X22352Y168178D01*
X22352Y170740D01*
X22203Y170889D01*
X22657Y171532D01*
X21951Y175628D01*
X22657Y179723D01*
X21507Y181351D01*
X21949Y182676D01*
X22787Y184352D01*
X22647Y184772D01*
X22787Y185191D01*
X21949Y186867D01*
X21356Y188644D01*
X20961Y188842D01*
X20764Y189237D01*
X19561Y189638D01*
X22352Y192429D01*
X22352Y196953D01*
X19153Y200152D01*
X11430Y200152D01*
X11430Y354554D01*
X12783Y353201D01*
X16025Y351858D01*
X19535Y351858D01*
X22777Y353201D01*
X25259Y355683D01*
X26602Y358925D01*
X26602Y362435D01*
X25259Y365677D01*
X22777Y368159D01*
X19535Y369502D01*
X16025Y369502D01*
X12783Y368159D01*
X11430Y366806D01*
X11430Y401320D01*
X11910Y401800D01*
X13341Y398343D01*
X17343Y394341D01*
X22571Y392176D01*
X28229Y392176D01*
X33457Y394341D01*
X37459Y398343D01*
X38100Y399891D01*
X38741Y398343D01*
X42743Y394341D01*
X47971Y392176D01*
X53629Y392176D01*
X58857Y394341D01*
X62859Y398343D01*
X63500Y399891D01*
X64141Y398343D01*
X68143Y394341D01*
X73371Y392176D01*
X79029Y392176D01*
X84257Y394341D01*
X88259Y398343D01*
X88900Y399891D01*
X89541Y398343D01*
X93543Y394341D01*
X98771Y392176D01*
X104429Y392176D01*
X109657Y394341D01*
X113659Y398343D01*
X114851Y401221D01*
X115731Y399494D01*
X116950Y397816D01*
X118416Y396350D01*
X120094Y395131D01*
X121942Y394189D01*
X123915Y393548D01*
X125963Y393224D01*
X125984Y393224D01*
X125984Y405384D01*
X128016Y405384D01*
X128016Y393224D01*
X128037Y393224D01*
X130085Y393548D01*
X132058Y394189D01*
X133906Y395131D01*
X135584Y396350D01*
X137050Y397816D01*
X138269Y399494D01*
X139149Y401221D01*
X140341Y398343D01*
X144343Y394341D01*
X149571Y392176D01*
X155229Y392176D01*
X160457Y394341D01*
X164459Y398343D01*
X165100Y399891D01*
X165741Y398343D01*
X169743Y394341D01*
X174971Y392176D01*
X180629Y392176D01*
X185857Y394341D01*
X189859Y398343D01*
X190500Y399891D01*
X191141Y398343D01*
X195143Y394341D01*
X200371Y392176D01*
X206029Y392176D01*
X211257Y394341D01*
X215259Y398343D01*
X215900Y399891D01*
X216541Y398343D01*
X220543Y394341D01*
X225771Y392176D01*
X231429Y392176D01*
X236657Y394341D01*
X240659Y398343D01*
X242824Y403571D01*
X242824Y409229D01*
X240659Y414457D01*
X236657Y418459D01*
X235109Y419100D01*
X389539Y419100D01*
X388688Y417045D01*
X388688Y413535D01*
X390031Y410293D01*
X392513Y407811D01*
X395755Y406468D01*
X399265Y406468D01*
X402507Y407811D01*
X404989Y410293D01*
X406332Y413535D01*
X406332Y417045D01*
X405729Y418501D01*
X419100Y405130D01*
X419100Y305392D01*
X416849Y306324D01*
X411191Y306324D01*
X405963Y304159D01*
X401961Y300157D01*
X399796Y294929D01*
X399796Y289271D01*
X401961Y284043D01*
X405963Y280041D01*
X407511Y279400D01*
X405963Y278759D01*
X401961Y274757D01*
X399796Y269529D01*
X399796Y263871D01*
X401961Y258643D01*
X405963Y254641D01*
X411191Y252476D01*
X416849Y252476D01*
X419100Y253408D01*
X419100Y247650D01*
X415222Y243772D01*
X415222Y245595D01*
X413879Y248837D01*
X411397Y251319D01*
X408155Y252662D01*
X404645Y252662D01*
X401403Y251319D01*
X398921Y248837D01*
X397578Y245595D01*
X397578Y242085D01*
X398921Y238843D01*
X401403Y236361D01*
X404645Y235018D01*
X406468Y235018D01*
X382424Y210974D01*
X381442Y213343D01*
X376405Y218381D01*
X369823Y221107D01*
X362699Y221107D01*
X356118Y218381D01*
X351080Y213343D01*
X348354Y206762D01*
X348354Y199638D01*
X351080Y193057D01*
X356118Y188019D01*
X358488Y187038D01*
X346362Y174912D01*
X345381Y177282D01*
X340343Y182320D01*
X333762Y185046D01*
X326638Y185046D01*
X320057Y182320D01*
X315019Y177282D01*
X312293Y170701D01*
X312293Y163577D01*
X315019Y156995D01*
X320057Y151958D01*
X322426Y150976D01*
X182880Y11430D01*
X158622Y11430D01*
X158622Y15201D01*
X156708Y19821D01*
X153171Y23358D01*
X148551Y25272D01*
X143549Y25272D01*
X138929Y23358D01*
X135392Y19821D01*
X133478Y15201D01*
X133478Y11430D01*
X133222Y11430D01*
X133222Y15201D01*
X131308Y19821D01*
X127771Y23358D01*
X123151Y25272D01*
X118149Y25272D01*
X113529Y23358D01*
X109992Y19821D01*
X108078Y15201D01*
X108078Y11430D01*
X107822Y11430D01*
X107822Y15201D01*
X105908Y19821D01*
X102371Y23358D01*
X97751Y25272D01*
X92749Y25272D01*
X88129Y23358D01*
X84592Y19821D01*
X82678Y15201D01*
X82678Y11430D01*
X82422Y11430D01*
X82422Y15201D01*
X80508Y19821D01*
X76971Y23358D01*
X72351Y25272D01*
X67349Y25272D01*
X62729Y23358D01*
X59192Y19821D01*
X57278Y15201D01*
X57278Y11430D01*
X25400Y11430D01*
X21466Y15364D01*
X21507Y15381D01*
X23989Y17863D01*
X25332Y21105D01*
X25332Y24615D01*
X23989Y27857D01*
X21507Y30339D01*
X18265Y31682D01*
X14755Y31682D01*
X11513Y30339D01*
X11430Y30256D01*
X11430Y50730D01*
X13472Y48688D01*
X19563Y46165D01*
X26157Y46165D01*
X32248Y48688D01*
X36910Y53350D01*
X39433Y59441D01*
X39433Y66035D01*
X36910Y72126D01*
X32248Y76788D01*
X26157Y79311D01*
X23219Y79311D01*
X23461Y82054D01*
X22195Y83565D01*
X22352Y83781D01*
X22352Y91217D01*
X22134Y91435D01*
X22787Y93395D01*
X21600Y95770D01*
X22787Y98145D01*
X21754Y101246D01*
X22352Y102069D01*
X22352Y109505D01*
X19737Y112119D01*
X20024Y112406D01*
X20024Y113550D01*
X21673Y111901D01*
X24915Y110558D01*
X25617Y110558D01*
X23622Y105743D01*
X23622Y97457D01*
X26793Y89802D01*
X32652Y83943D01*
X40307Y80772D01*
X48593Y80772D01*
X56248Y83943D01*
X62107Y89802D01*
X65278Y97457D01*
X65278Y105743D01*
X62107Y113398D01*
X56248Y119257D01*
X48593Y122428D01*
X40307Y122428D01*
X35492Y120433D01*
X35492Y121135D01*
X34149Y124377D01*
X31667Y126859D01*
X28425Y128202D01*
X24915Y128202D01*
X21673Y126859D01*
X20945Y126132D01*
X19516Y127330D01*
X15067Y128947D01*
X14747Y128947D01*
X15945Y130146D01*
X17566Y129683D01*
X21520Y131880D01*
X22763Y136230D01*
X20568Y140181D01*
X22069Y141382D01*
X22107Y141726D01*
X22352Y141971D01*
X22352Y143931D01*
X22568Y145879D01*
X22352Y146149D01*
X22352Y146495D01*
X20966Y147881D01*
X18319Y151190D01*
X19377Y151534D01*
X19377Y151534D01*
X21835Y154918D01*
X22943Y153811D01*
X26185Y152468D01*
X29695Y152468D01*
X30502Y152802D01*
X27569Y149869D01*
X25655Y145249D01*
X25655Y140247D01*
X27569Y135627D01*
X31106Y132090D01*
X35726Y130176D01*
X40728Y130176D01*
X45348Y132090D01*
X48885Y135627D01*
X50799Y140247D01*
X250936Y388479D02*
X250936Y391301D01*
X249856Y393910D01*
X247860Y395906D01*
X245251Y396986D01*
X242429Y396986D01*
X239820Y395906D01*
X237824Y393910D01*
X236744Y391301D01*
X236744Y388479D01*
X237824Y385870D01*
X239820Y383874D01*
X242429Y382794D01*
X245251Y382794D01*
X247860Y383874D01*
X249856Y385870D01*
X250936Y388479D01*
X261580Y289322D02*
X262734Y289322D01*
X263655Y287098D01*
X265508Y285245D01*
X267790Y284300D01*
X268735Y282018D01*
X270588Y280165D01*
X273010Y279162D01*
X275630Y279162D01*
X278052Y280165D01*
X279905Y282018D01*
X280908Y284440D01*
X280908Y287060D01*
X279905Y289482D01*
X278052Y291335D01*
X275770Y292280D01*
X274825Y294562D01*
X272972Y296415D01*
X270550Y297418D01*
X269396Y297418D01*
X268475Y299642D01*
X266622Y301495D01*
X264200Y302498D01*
X261580Y302498D01*
X259158Y301495D01*
X257305Y299642D01*
X256302Y297220D01*
X256302Y294600D01*
X256717Y293597D01*
X256453Y293861D01*
X254037Y294862D01*
X251423Y294862D01*
X249007Y293861D01*
X247159Y292013D01*
X246158Y289597D01*
X246158Y286983D01*
X247159Y284567D01*
X249007Y282719D01*
X250373Y282153D01*
X250955Y280748D01*
X252808Y278895D01*
X255230Y277892D01*
X257850Y277892D01*
X260272Y278895D01*
X262125Y280748D01*
X263128Y283170D01*
X263128Y285790D01*
X262125Y288212D01*
X260615Y289721D01*
X261580Y289322D01*
X176407Y113398D02*
X179578Y105743D01*
X176407Y113398D02*
X170548Y119257D01*
X162893Y122428D01*
X154607Y122428D01*
X152257Y121455D01*
X152352Y121684D01*
X152352Y122158D01*
X153906Y122158D01*
X156689Y123311D01*
X158819Y125441D01*
X159972Y128224D01*
X159972Y131212D01*
X162472Y130176D01*
X167474Y130176D01*
X172094Y132090D01*
X175631Y135627D01*
X177545Y140247D01*
X177545Y145249D01*
X175631Y149869D01*
X172094Y153406D01*
X167474Y155320D01*
X162472Y155320D01*
X157852Y153406D01*
X154315Y149869D01*
X152401Y145249D01*
X152401Y140247D01*
X153621Y137302D01*
X150925Y137302D01*
X152145Y140247D01*
X152145Y145249D01*
X150231Y149869D01*
X146694Y153406D01*
X142074Y155320D01*
X137072Y155320D01*
X132452Y153406D01*
X128915Y149869D01*
X127001Y145249D01*
X127001Y140247D01*
X128915Y135627D01*
X132452Y132090D01*
X137072Y130176D01*
X141859Y130176D01*
X140491Y129609D01*
X138361Y127479D01*
X137208Y124696D01*
X137208Y121684D01*
X138361Y118901D01*
X140491Y116771D01*
X143274Y115618D01*
X143313Y115618D01*
X141093Y113398D01*
X137922Y105743D01*
X137922Y97457D01*
X139888Y92710D01*
X77047Y92710D01*
X74145Y93912D01*
X70635Y93912D01*
X67393Y92569D01*
X64911Y90087D01*
X63568Y86845D01*
X63568Y83335D01*
X64911Y80093D01*
X67393Y77611D01*
X70635Y76268D01*
X74145Y76268D01*
X77047Y77470D01*
X97522Y77470D01*
X96568Y75166D01*
X96568Y72154D01*
X97721Y69371D01*
X99851Y67241D01*
X102634Y66088D01*
X105646Y66088D01*
X108429Y67241D01*
X110559Y69371D01*
X111712Y72154D01*
X111712Y75166D01*
X110758Y77470D01*
X135622Y77470D01*
X134668Y75166D01*
X134668Y72154D01*
X135821Y69371D01*
X137951Y67241D01*
X140734Y66088D01*
X143746Y66088D01*
X146529Y67241D01*
X148659Y69371D01*
X149384Y71120D01*
X165873Y71120D01*
X163767Y66035D01*
X163767Y59441D01*
X166290Y53350D01*
X170952Y48688D01*
X177043Y46165D01*
X183637Y46165D01*
X189728Y48688D01*
X194390Y53350D01*
X196913Y59441D01*
X196913Y66035D01*
X196092Y68017D01*
X197635Y67378D01*
X201145Y67378D01*
X204387Y68721D01*
X206869Y71203D01*
X208212Y74445D01*
X208212Y77955D01*
X207282Y80201D01*
X213374Y74109D01*
X222429Y70358D01*
X232231Y70358D01*
X241286Y74109D01*
X248217Y81040D01*
X251968Y90095D01*
X251968Y99897D01*
X248217Y108952D01*
X243402Y113768D01*
X245027Y114441D01*
X247509Y116923D01*
X248852Y120165D01*
X248852Y123675D01*
X247509Y126917D01*
X247426Y127000D01*
X248779Y128353D01*
X250122Y131595D01*
X250122Y135105D01*
X248779Y138347D01*
X246297Y140829D01*
X243055Y142172D01*
X239545Y142172D01*
X236303Y140829D01*
X234909Y139435D01*
X231140Y139435D01*
X231140Y153718D01*
X233106Y153718D01*
X235889Y154871D01*
X238019Y157001D01*
X238960Y159272D01*
X240821Y157411D01*
X243604Y156258D01*
X246616Y156258D01*
X249399Y157411D01*
X251529Y159541D01*
X252682Y162324D01*
X252682Y165336D01*
X251529Y168119D01*
X249399Y170249D01*
X246616Y171402D01*
X243604Y171402D01*
X240821Y170249D01*
X238691Y168119D01*
X237750Y165848D01*
X235889Y167709D01*
X233106Y168862D01*
X231140Y168862D01*
X231140Y175683D01*
X231281Y175343D01*
X233763Y172861D01*
X237005Y171518D01*
X240515Y171518D01*
X243757Y172861D01*
X246239Y175343D01*
X247582Y178585D01*
X247582Y182095D01*
X246239Y185337D01*
X245521Y186055D01*
X246239Y186773D01*
X247582Y190015D01*
X247582Y193525D01*
X246239Y196767D01*
X243757Y199249D01*
X243280Y199447D01*
X245023Y200169D01*
X246871Y202017D01*
X247872Y204433D01*
X247872Y207047D01*
X246871Y209463D01*
X245023Y211311D01*
X242607Y212312D01*
X239993Y212312D01*
X237577Y211311D01*
X235729Y209463D01*
X234782Y207178D01*
X232497Y206231D01*
X230649Y204383D01*
X229648Y201967D01*
X229648Y199353D01*
X230003Y198495D01*
X229364Y198230D01*
X217060Y185926D01*
X215900Y183126D01*
X215900Y165052D01*
X215444Y165052D01*
X214699Y166849D01*
X212569Y168979D01*
X209786Y170132D01*
X206774Y170132D01*
X203991Y168979D01*
X201861Y166849D01*
X200708Y164066D01*
X200708Y161054D01*
X201861Y158271D01*
X203991Y156141D01*
X206774Y154988D01*
X207466Y154988D01*
X208211Y153191D01*
X210341Y151061D01*
X213124Y149908D01*
X215900Y149908D01*
X215900Y139435D01*
X194152Y139435D01*
X191250Y140637D01*
X187740Y140637D01*
X184498Y139294D01*
X182016Y136812D01*
X180673Y133570D01*
X180673Y130060D01*
X181875Y127158D01*
X181875Y102481D01*
X179578Y100184D01*
X179578Y105743D01*
X184102Y296944D02*
X184102Y298674D01*
X186211Y296565D01*
X188994Y295412D01*
X192006Y295412D01*
X194789Y296565D01*
X196919Y298695D01*
X198072Y301478D01*
X198072Y304490D01*
X196919Y307273D01*
X194789Y309403D01*
X192006Y310556D01*
X188994Y310556D01*
X186211Y309403D01*
X184081Y307273D01*
X182928Y304490D01*
X182928Y302760D01*
X180819Y304869D01*
X178036Y306022D01*
X175024Y306022D01*
X172241Y304869D01*
X170111Y302739D01*
X168958Y299956D01*
X168958Y296944D01*
X170111Y294161D01*
X172241Y292031D01*
X175024Y290878D01*
X178036Y290878D01*
X180819Y292031D01*
X182949Y294161D01*
X184102Y296944D01*
X181610Y345440D02*
X181610Y353214D01*
X181610Y345440D02*
X181610Y345440D01*
X181610Y353214D01*
X180844Y353214D01*
X179342Y352915D01*
X177928Y352329D01*
X176654Y351478D01*
X175572Y350396D01*
X174721Y349122D01*
X174135Y347708D01*
X173836Y346206D01*
X173836Y345440D01*
X181610Y345440D01*
X181610Y345440D01*
X173836Y345440D01*
X173836Y344674D01*
X174135Y343172D01*
X174721Y341758D01*
X175572Y340484D01*
X176654Y339402D01*
X177928Y338551D01*
X179342Y337965D01*
X180844Y337666D01*
X181610Y337666D01*
X181610Y345440D01*
X181610Y345440D01*
X181610Y337666D01*
X182376Y337666D01*
X183878Y337965D01*
X185292Y338551D01*
X186566Y339402D01*
X187648Y340484D01*
X188499Y341758D01*
X189085Y343172D01*
X189384Y344674D01*
X189384Y345440D01*
X181610Y345440D01*
X181610Y345440D01*
X189384Y345440D01*
X189384Y346206D01*
X189085Y347708D01*
X188499Y349122D01*
X187648Y350396D01*
X186566Y351478D01*
X185292Y352329D01*
X183878Y352915D01*
X182376Y353214D01*
X181610Y353214D01*
X101600Y142414D02*
X101600Y135890D01*
X101600Y135890D01*
X101600Y142414D01*
X100957Y142414D01*
X99697Y142163D01*
X98510Y141671D01*
X97441Y140958D01*
X96532Y140049D01*
X95819Y138980D01*
X95327Y137793D01*
X95076Y136533D01*
X95076Y135890D01*
X101600Y135890D01*
X101600Y135890D01*
X95076Y135890D01*
X95076Y135247D01*
X95327Y133987D01*
X95819Y132800D01*
X96532Y131731D01*
X97441Y130822D01*
X98510Y130109D01*
X99697Y129617D01*
X100957Y129366D01*
X101600Y129366D01*
X101600Y135890D01*
X101600Y135890D01*
X101600Y129366D01*
X102243Y129366D01*
X103503Y129617D01*
X104690Y130109D01*
X105759Y130822D01*
X106668Y131731D01*
X107381Y132800D01*
X107873Y133987D01*
X108124Y135247D01*
X108124Y135890D01*
X101600Y135890D01*
X101600Y135890D01*
X108124Y135890D01*
X108124Y136533D01*
X107873Y137793D01*
X107381Y138980D01*
X106668Y140049D01*
X105759Y140958D01*
X104690Y141671D01*
X103503Y142163D01*
X102243Y142414D01*
X101600Y142414D01*
X187960Y180340D02*
X187960Y188114D01*
X187960Y180340D02*
X187960Y180340D01*
X187960Y188114D01*
X187194Y188114D01*
X185692Y187815D01*
X184278Y187229D01*
X183004Y186378D01*
X181922Y185296D01*
X181071Y184022D01*
X180485Y182608D01*
X180186Y181106D01*
X180186Y180340D01*
X187960Y180340D01*
X187960Y180340D01*
X180186Y180340D01*
X180186Y179574D01*
X180485Y178072D01*
X181071Y176658D01*
X181922Y175384D01*
X183004Y174302D01*
X184278Y173451D01*
X185692Y172865D01*
X187194Y172566D01*
X187960Y172566D01*
X187960Y180340D01*
X187960Y180340D01*
X187960Y172566D01*
X188726Y172566D01*
X190228Y172865D01*
X191642Y173451D01*
X192916Y174302D01*
X193998Y175384D01*
X194849Y176658D01*
X195435Y178072D01*
X195734Y179574D01*
X195734Y180340D01*
X187960Y180340D01*
X187960Y180340D01*
X195734Y180340D01*
X195734Y181106D01*
X195435Y182608D01*
X194849Y184022D01*
X193998Y185296D01*
X192916Y186378D01*
X191642Y187229D01*
X190228Y187815D01*
X188726Y188114D01*
X187960Y188114D01*
X299077Y300816D02*
X299720Y300816D01*
X299720Y307340D01*
X299720Y307340D01*
X299720Y300816D01*
X300363Y300816D01*
X301623Y301067D01*
X302810Y301559D01*
X303879Y302272D01*
X304788Y303181D01*
X305501Y304250D01*
X305993Y305437D01*
X306244Y306697D01*
X306244Y307340D01*
X299720Y307340D01*
X299720Y307340D01*
X306244Y307340D01*
X306244Y307983D01*
X305993Y309243D01*
X305501Y310430D01*
X305085Y311054D01*
X306056Y312024D01*
X307208Y314807D01*
X307208Y317820D01*
X306056Y320603D01*
X303926Y322733D01*
X301143Y323886D01*
X298130Y323886D01*
X295347Y322733D01*
X293217Y320603D01*
X292064Y317820D01*
X292064Y314807D01*
X293217Y312024D01*
X294288Y310953D01*
X293939Y310430D01*
X293447Y309243D01*
X293196Y307983D01*
X293196Y307340D01*
X299720Y307340D01*
X299720Y307340D01*
X293196Y307340D01*
X293196Y306697D01*
X293447Y305437D01*
X293939Y304250D01*
X294652Y303181D01*
X295561Y302272D01*
X296630Y301559D01*
X297817Y301067D01*
X299077Y300816D01*
X138430Y306070D02*
X138430Y313844D01*
X138430Y306070D02*
X138430Y306070D01*
X138430Y313844D01*
X137664Y313844D01*
X136162Y313545D01*
X134748Y312959D01*
X133474Y312108D01*
X132392Y311026D01*
X131541Y309752D01*
X130955Y308338D01*
X130656Y306836D01*
X130656Y306070D01*
X138430Y306070D01*
X138430Y306070D01*
X130656Y306070D01*
X130656Y305304D01*
X130955Y303802D01*
X131541Y302388D01*
X132392Y301114D01*
X133474Y300032D01*
X134748Y299181D01*
X136162Y298595D01*
X137664Y298296D01*
X138430Y298296D01*
X138430Y306070D01*
X138430Y306070D01*
X138430Y298296D01*
X139196Y298296D01*
X140698Y298595D01*
X142112Y299181D01*
X143386Y300032D01*
X144468Y301114D01*
X145319Y302388D01*
X145905Y303802D01*
X146204Y305304D01*
X146204Y306070D01*
X138430Y306070D01*
X138430Y306070D01*
X146204Y306070D01*
X146204Y306836D01*
X145905Y308338D01*
X145319Y309752D01*
X144468Y311026D01*
X143386Y312108D01*
X142112Y312959D01*
X140698Y313545D01*
X139196Y313844D01*
X138430Y313844D01*
X380932Y279885D02*
X380932Y276375D01*
X380932Y279885D02*
X379589Y283127D01*
X377107Y285609D01*
X373865Y286952D01*
X370355Y286952D01*
X367113Y285609D01*
X364631Y283127D01*
X363288Y279885D01*
X363288Y276375D01*
X364631Y273133D01*
X367113Y270651D01*
X370355Y269308D01*
X373865Y269308D01*
X377107Y270651D01*
X379589Y273133D01*
X380932Y276375D01*
X415222Y346225D02*
X415222Y349735D01*
X413879Y352977D01*
X411397Y355459D01*
X408155Y356802D01*
X404645Y356802D01*
X401403Y355459D01*
X398921Y352977D01*
X397578Y349735D01*
X397578Y346225D01*
X398921Y342983D01*
X401403Y340501D01*
X404645Y339158D01*
X408155Y339158D01*
X411397Y340501D01*
X413879Y342983D01*
X415222Y346225D01*
X198052Y163045D02*
X198052Y159535D01*
X198052Y163045D02*
X196709Y166287D01*
X194227Y168769D01*
X190985Y170112D01*
X187475Y170112D01*
X184233Y168769D01*
X181751Y166287D01*
X180408Y163045D01*
X180408Y159535D01*
X181751Y156293D01*
X184233Y153811D01*
X187475Y152468D01*
X190985Y152468D01*
X194227Y153811D01*
X196709Y156293D01*
X198052Y159535D01*
X284432Y247414D02*
X284432Y250426D01*
X283279Y253209D01*
X281149Y255339D01*
X278366Y256492D01*
X275354Y256492D01*
X272571Y255339D01*
X270441Y253209D01*
X269288Y250426D01*
X269288Y247414D01*
X270441Y244631D01*
X272571Y242501D01*
X275354Y241348D01*
X278366Y241348D01*
X281149Y242501D01*
X283279Y244631D01*
X284432Y247414D01*
X105362Y225026D02*
X105362Y222014D01*
X105362Y225026D02*
X104209Y227809D01*
X102079Y229939D01*
X99296Y231092D01*
X96284Y231092D01*
X93501Y229939D01*
X91371Y227809D01*
X90218Y225026D01*
X90218Y222014D01*
X91371Y219231D01*
X93501Y217101D01*
X96284Y215948D01*
X99296Y215948D01*
X102079Y217101D01*
X104209Y219231D01*
X105362Y222014D01*
X182832Y269004D02*
X182832Y272016D01*
X181679Y274799D01*
X179549Y276929D01*
X176766Y278082D01*
X173754Y278082D01*
X170971Y276929D01*
X168841Y274799D01*
X167688Y272016D01*
X167688Y269004D01*
X168841Y266221D01*
X170971Y264091D01*
X173754Y262938D01*
X176766Y262938D01*
X179549Y264091D01*
X181679Y266221D01*
X182832Y269004D01*
X152332Y381785D02*
X152332Y385295D01*
X150989Y388537D01*
X148507Y391019D01*
X145265Y392362D01*
X141755Y392362D01*
X138513Y391019D01*
X136031Y388537D01*
X134688Y385295D01*
X134688Y381785D01*
X136031Y378543D01*
X138513Y376061D01*
X141755Y374718D01*
X145265Y374718D01*
X148507Y376061D01*
X150989Y378543D01*
X152332Y381785D01*
X129472Y307825D02*
X129472Y304315D01*
X129472Y307825D02*
X128129Y311067D01*
X125647Y313549D01*
X122405Y314892D01*
X118895Y314892D01*
X115653Y313549D01*
X113171Y311067D01*
X111828Y307825D01*
X111828Y304315D01*
X113171Y301073D01*
X115653Y298591D01*
X118895Y297248D01*
X122405Y297248D01*
X125647Y298591D01*
X128129Y301073D01*
X129472Y304315D01*
X312046Y206762D02*
X312046Y199638D01*
X312046Y206762D02*
X309320Y213343D01*
X304282Y218381D01*
X297701Y221107D01*
X290577Y221107D01*
X283995Y218381D01*
X278958Y213343D01*
X276232Y206762D01*
X276232Y199638D01*
X278958Y193057D01*
X283995Y188019D01*
X290577Y185293D01*
X297701Y185293D01*
X304282Y188019D01*
X309320Y193057D01*
X312046Y199638D01*
X344297Y200396D02*
X344297Y206004D01*
X342151Y211185D01*
X338185Y215151D01*
X333004Y217297D01*
X327396Y217297D01*
X322215Y215151D01*
X318249Y211185D01*
X316103Y206004D01*
X316103Y200396D01*
X318249Y195215D01*
X322215Y191249D01*
X327396Y189103D01*
X333004Y189103D01*
X338185Y191249D01*
X342151Y195215D01*
X344297Y200396D01*
X145922Y40601D02*
X145922Y35599D01*
X145922Y40601D02*
X144008Y45221D01*
X140471Y48758D01*
X135851Y50672D01*
X130849Y50672D01*
X126229Y48758D01*
X122692Y45221D01*
X120778Y40601D01*
X120778Y35599D01*
X122692Y30979D01*
X126229Y27442D01*
X130849Y25528D01*
X135851Y25528D01*
X140471Y27442D01*
X144008Y30979D01*
X145922Y35599D01*
X95122Y35599D02*
X95122Y40601D01*
X93208Y45221D01*
X89671Y48758D01*
X85051Y50672D01*
X80049Y50672D01*
X75429Y48758D01*
X71892Y45221D01*
X69978Y40601D01*
X69978Y35599D01*
X71892Y30979D01*
X75429Y27442D01*
X80049Y25528D01*
X85051Y25528D01*
X89671Y27442D01*
X93208Y30979D01*
X95122Y35599D01*
X86944Y262906D02*
X86944Y267554D01*
X85165Y271848D01*
X81878Y275135D01*
X77584Y276914D01*
X72936Y276914D01*
X68642Y275135D01*
X65355Y271848D01*
X63576Y267554D01*
X63576Y262906D01*
X65355Y258612D01*
X68642Y255325D01*
X72936Y253546D01*
X77584Y253546D01*
X81878Y255325D01*
X85165Y258612D01*
X86944Y262906D01*
X86944Y242554D02*
X86944Y237906D01*
X86944Y242554D02*
X85165Y246848D01*
X81878Y250135D01*
X77584Y251914D01*
X72936Y251914D01*
X68642Y250135D01*
X65355Y246848D01*
X63576Y242554D01*
X63576Y237906D01*
X65355Y233612D01*
X68642Y230325D01*
X72936Y228546D01*
X77584Y228546D01*
X81878Y230325D01*
X85165Y233612D01*
X86944Y237906D01*
X54944Y237906D02*
X54944Y242554D01*
X53165Y246848D01*
X49878Y250135D01*
X45584Y251914D01*
X40936Y251914D01*
X36642Y250135D01*
X33355Y246848D01*
X31576Y242554D01*
X31576Y239980D01*
X29127Y242429D01*
X25885Y243772D01*
X22375Y243772D01*
X19133Y242429D01*
X16651Y239947D01*
X15308Y236705D01*
X15308Y233195D01*
X16651Y229953D01*
X19133Y227471D01*
X22375Y226128D01*
X25885Y226128D01*
X29127Y227471D01*
X31609Y229953D01*
X32952Y233195D01*
X32952Y234584D01*
X33355Y233612D01*
X36642Y230325D01*
X40936Y228546D01*
X45584Y228546D01*
X49878Y230325D01*
X53165Y233612D01*
X54944Y237906D01*
X54944Y262906D02*
X54944Y267554D01*
X53165Y271848D01*
X49878Y275135D01*
X45584Y276914D01*
X40936Y276914D01*
X36642Y275135D01*
X33355Y271848D01*
X31576Y267554D01*
X31576Y262906D01*
X33355Y258612D01*
X36642Y255325D01*
X40936Y253546D01*
X45584Y253546D01*
X49878Y255325D01*
X53165Y258612D01*
X54944Y262906D01*
X70082Y196871D02*
X70082Y188189D01*
X70082Y196871D02*
X66760Y204891D01*
X60621Y211030D01*
X52601Y214352D01*
X43919Y214352D01*
X35899Y211030D01*
X29760Y204891D01*
X26438Y196871D01*
X26438Y188189D01*
X29760Y180169D01*
X35899Y174030D01*
X43919Y170708D01*
X52601Y170708D01*
X60621Y174030D01*
X66760Y180169D01*
X70082Y188189D01*
X70082Y308589D02*
X70082Y317271D01*
X66760Y325291D01*
X60621Y331430D01*
X52601Y334752D01*
X43919Y334752D01*
X38032Y332313D01*
X38032Y333225D01*
X36689Y336467D01*
X34207Y338949D01*
X30965Y340292D01*
X27455Y340292D01*
X24213Y338949D01*
X21731Y336467D01*
X20388Y333225D01*
X20388Y329715D01*
X21731Y326473D01*
X24213Y323991D01*
X27455Y322648D01*
X28665Y322648D01*
X26438Y317271D01*
X26438Y308589D01*
X29760Y300569D01*
X35899Y294430D01*
X43919Y291108D01*
X52601Y291108D01*
X60621Y294430D01*
X66760Y300569D01*
X70082Y308589D01*
X76199Y145249D02*
X76199Y140247D01*
X76199Y145249D02*
X74285Y149869D01*
X70748Y153406D01*
X66128Y155320D01*
X61126Y155320D01*
X56506Y153406D01*
X52969Y149869D01*
X51055Y145249D01*
X51055Y140247D01*
X52969Y135627D01*
X56506Y132090D01*
X61126Y130176D01*
X66128Y130176D01*
X70748Y132090D01*
X74285Y135627D01*
X76199Y140247D01*
X69722Y40601D02*
X69722Y35599D01*
X69722Y40601D02*
X67808Y45221D01*
X64271Y48758D01*
X59651Y50672D01*
X54649Y50672D01*
X50029Y48758D01*
X46492Y45221D01*
X44578Y40601D01*
X44578Y35599D01*
X46492Y30979D01*
X50029Y27442D01*
X54649Y25528D01*
X59651Y25528D01*
X64271Y27442D01*
X67808Y30979D01*
X69722Y35599D01*
X120522Y35599D02*
X120522Y40601D01*
X118608Y45221D01*
X115071Y48758D01*
X110451Y50672D01*
X105449Y50672D01*
X100829Y48758D01*
X97292Y45221D01*
X95378Y40601D01*
X95378Y35599D01*
X97292Y30979D01*
X100829Y27442D01*
X105449Y25528D01*
X110451Y25528D01*
X115071Y27442D01*
X118608Y30979D01*
X120522Y35599D01*
X348107Y235699D02*
X348107Y242823D01*
X345381Y249405D01*
X340343Y254442D01*
X333762Y257168D01*
X326638Y257168D01*
X320057Y254442D01*
X315019Y249405D01*
X312293Y242823D01*
X312293Y235699D01*
X315019Y229118D01*
X320057Y224080D01*
X326638Y221354D01*
X333762Y221354D01*
X340343Y224080D01*
X345381Y229118D01*
X348107Y235699D01*
X411412Y320825D02*
X411412Y324335D01*
X410069Y327577D01*
X407587Y330059D01*
X404345Y331402D01*
X400835Y331402D01*
X397593Y330059D01*
X395111Y327577D01*
X393768Y324335D01*
X393768Y320825D01*
X395111Y317583D01*
X397593Y315101D01*
X400835Y313758D01*
X404345Y313758D01*
X407587Y315101D01*
X410069Y317583D01*
X411412Y320825D01*
X417762Y383055D02*
X417762Y386565D01*
X416419Y389807D01*
X413937Y392289D01*
X410695Y393632D01*
X407185Y393632D01*
X403943Y392289D01*
X401461Y389807D01*
X400118Y386565D01*
X400118Y385715D01*
X397593Y384669D01*
X395111Y382187D01*
X393768Y378945D01*
X393768Y375435D01*
X395111Y372193D01*
X397593Y369711D01*
X400835Y368368D01*
X404345Y368368D01*
X407587Y369711D01*
X410069Y372193D01*
X411412Y375435D01*
X411412Y376285D01*
X413937Y377331D01*
X416419Y379813D01*
X417762Y383055D01*
X289492Y399565D02*
X289492Y403075D01*
X288149Y406317D01*
X285667Y408799D01*
X282425Y410142D01*
X278915Y410142D01*
X275673Y408799D01*
X273191Y406317D01*
X271848Y403075D01*
X271848Y399565D01*
X273191Y396323D01*
X275673Y393841D01*
X278915Y392498D01*
X282425Y392498D01*
X285667Y393841D01*
X288149Y396323D01*
X289492Y399565D01*
X156142Y361165D02*
X156142Y357655D01*
X156142Y361165D02*
X154799Y364407D01*
X152317Y366889D01*
X149075Y368232D01*
X145565Y368232D01*
X142323Y366889D01*
X139841Y364407D01*
X138498Y361165D01*
X138498Y357655D01*
X139841Y354413D01*
X142323Y351931D01*
X145565Y350588D01*
X149075Y350588D01*
X152317Y351931D01*
X154799Y354413D01*
X156142Y357655D01*
X104072Y326875D02*
X104072Y323365D01*
X104072Y326875D02*
X102729Y330117D01*
X100247Y332599D01*
X97005Y333942D01*
X93495Y333942D01*
X90253Y332599D01*
X87771Y330117D01*
X86428Y326875D01*
X86428Y323365D01*
X87771Y320123D01*
X90253Y317641D01*
X93495Y316298D01*
X97005Y316298D01*
X100247Y317641D01*
X102729Y320123D01*
X104072Y323365D01*
X94465Y290762D02*
X97707Y289419D01*
X94465Y290762D02*
X90955Y290762D01*
X87713Y289419D01*
X85231Y286937D01*
X83888Y283695D01*
X83888Y280185D01*
X85231Y276943D01*
X87713Y274461D01*
X90955Y273118D01*
X94465Y273118D01*
X97707Y274461D01*
X99060Y275814D01*
X100413Y274461D01*
X103655Y273118D01*
X107165Y273118D01*
X110407Y274461D01*
X112889Y276943D01*
X114232Y280185D01*
X114232Y283695D01*
X112889Y286937D01*
X110407Y289419D01*
X107165Y290762D01*
X103655Y290762D01*
X100413Y289419D01*
X99060Y288066D01*
X97707Y289419D01*
X97722Y383055D02*
X97722Y386565D01*
X96379Y389807D01*
X93897Y392289D01*
X90655Y393632D01*
X87145Y393632D01*
X83903Y392289D01*
X81421Y389807D01*
X80078Y386565D01*
X80078Y383055D01*
X81421Y379813D01*
X83015Y378219D01*
X80593Y379222D01*
X70791Y379222D01*
X61736Y375471D01*
X54805Y368540D01*
X51054Y359485D01*
X51054Y349683D01*
X54805Y340628D01*
X61736Y333697D01*
X70791Y329946D01*
X80593Y329946D01*
X89648Y333697D01*
X96579Y340628D01*
X100330Y349683D01*
X100330Y359485D01*
X96579Y368540D01*
X89648Y375471D01*
X88400Y375988D01*
X90655Y375988D01*
X93897Y377331D01*
X96379Y379813D01*
X97722Y383055D01*
X359664Y289635D02*
X359664Y279833D01*
X359664Y289635D02*
X355913Y298690D01*
X348982Y305621D01*
X339927Y309372D01*
X330125Y309372D01*
X321070Y305621D01*
X314139Y298690D01*
X310388Y289635D01*
X310388Y279833D01*
X314139Y270778D01*
X321070Y263847D01*
X330125Y260096D01*
X339927Y260096D01*
X348982Y263847D01*
X355913Y270778D01*
X359664Y279833D01*
X382222Y256776D02*
X382222Y253764D01*
X382222Y256776D02*
X381069Y259559D01*
X378939Y261689D01*
X376156Y262842D01*
X373144Y262842D01*
X370361Y261689D01*
X368231Y259559D01*
X367078Y256776D01*
X367078Y253764D01*
X368231Y250981D01*
X370361Y248851D01*
X373144Y247698D01*
X376156Y247698D01*
X378939Y248851D01*
X381069Y250981D01*
X382222Y253764D01*
X193262Y215274D02*
X193262Y213323D01*
X194397Y214139D02*
X193262Y215274D01*
X194397Y214139D02*
X196813Y213138D01*
X199427Y213138D01*
X201843Y214139D01*
X203200Y215496D01*
X204557Y214139D01*
X206973Y213138D01*
X209587Y213138D01*
X209970Y213296D01*
X210961Y210903D01*
X213443Y208421D01*
X216685Y207078D01*
X220195Y207078D01*
X223437Y208421D01*
X224384Y209368D01*
X224918Y209011D01*
X226332Y208425D01*
X227834Y208126D01*
X228600Y208126D01*
X228600Y215900D01*
X228600Y215900D01*
X228600Y208126D01*
X229366Y208126D01*
X230868Y208425D01*
X232282Y209011D01*
X233556Y209862D01*
X234638Y210944D01*
X235489Y212218D01*
X236075Y213632D01*
X236374Y215134D01*
X236374Y215900D01*
X228600Y215900D01*
X228600Y215900D01*
X236374Y215900D01*
X236374Y216666D01*
X236075Y218168D01*
X235489Y219582D01*
X234638Y220856D01*
X233556Y221938D01*
X232282Y222789D01*
X230868Y223375D01*
X229366Y223674D01*
X228600Y223674D01*
X228600Y215900D01*
X228600Y215900D01*
X228600Y223674D01*
X227834Y223674D01*
X226332Y223375D01*
X224918Y222789D01*
X224384Y222432D01*
X223437Y223379D01*
X220195Y224722D01*
X216685Y224722D01*
X213770Y223514D01*
X212003Y225281D01*
X209587Y226282D01*
X208462Y226282D01*
X206923Y227821D01*
X204507Y228822D01*
X201893Y228822D01*
X199477Y227821D01*
X198120Y226464D01*
X196763Y227821D01*
X194347Y228822D01*
X191733Y228822D01*
X189317Y227821D01*
X187469Y225973D01*
X186468Y223557D01*
X186468Y221202D01*
X185383Y221202D01*
X182967Y220201D01*
X181119Y218353D01*
X180118Y215937D01*
X180118Y213323D01*
X181119Y210907D01*
X182967Y209059D01*
X185383Y208058D01*
X187997Y208058D01*
X190413Y209059D01*
X192261Y210907D01*
X193262Y213323D01*
X309832Y269004D02*
X309832Y272016D01*
X308679Y274799D01*
X306549Y276929D01*
X303766Y278082D01*
X300754Y278082D01*
X297971Y276929D01*
X295841Y274799D01*
X294688Y272016D01*
X294688Y269004D01*
X295841Y266221D01*
X297971Y264091D01*
X300754Y262938D01*
X303766Y262938D01*
X306549Y264091D01*
X308679Y266221D01*
X309832Y269004D01*
X241043Y300162D02*
X241043Y302777D01*
X240042Y305192D01*
X238193Y307041D01*
X235778Y308041D01*
X233163Y308041D01*
X230748Y307041D01*
X230326Y306619D01*
X228932Y307196D01*
X225920Y307196D01*
X223137Y306043D01*
X221711Y304617D01*
X220189Y306139D01*
X218614Y306792D01*
X218614Y307340D01*
X212090Y307340D01*
X212090Y307340D01*
X218614Y307340D01*
X218614Y307983D01*
X218363Y309243D01*
X217871Y310430D01*
X217158Y311499D01*
X216977Y311679D01*
X218509Y313211D01*
X219662Y315994D01*
X219662Y319006D01*
X218509Y321789D01*
X217718Y322580D01*
X218509Y323371D01*
X218728Y323898D01*
X221216Y323898D01*
X223999Y325051D01*
X226129Y327181D01*
X227282Y329964D01*
X227282Y332976D01*
X226129Y335759D01*
X223999Y337889D01*
X221216Y339042D01*
X218204Y339042D01*
X215421Y337889D01*
X213291Y335759D01*
X213072Y335232D01*
X210584Y335232D01*
X207801Y334079D01*
X205671Y331949D01*
X204518Y329166D01*
X204518Y326154D01*
X205671Y323371D01*
X206462Y322580D01*
X205671Y321789D01*
X204518Y319006D01*
X204518Y315994D01*
X205671Y313211D01*
X207203Y311679D01*
X207022Y311499D01*
X206309Y310430D01*
X205817Y309243D01*
X205566Y307983D01*
X205566Y307340D01*
X212090Y307340D01*
X212090Y307340D01*
X205566Y307340D01*
X205566Y306697D01*
X205817Y305437D01*
X206309Y304250D01*
X207022Y303181D01*
X207931Y302272D01*
X208581Y301838D01*
X208328Y301226D01*
X208328Y298214D01*
X209481Y295431D01*
X211611Y293301D01*
X214394Y292148D01*
X217406Y292148D01*
X220189Y293301D01*
X221615Y294727D01*
X223137Y293205D01*
X225920Y292052D01*
X228932Y292052D01*
X229648Y292348D01*
X229648Y292063D01*
X230649Y289647D01*
X230736Y289560D01*
X229379Y288203D01*
X228378Y285787D01*
X228378Y283173D01*
X229379Y280757D01*
X231227Y278909D01*
X233643Y277908D01*
X233870Y277908D01*
X234459Y276487D01*
X236307Y274639D01*
X238723Y273638D01*
X241337Y273638D01*
X243753Y274639D01*
X245601Y276487D01*
X246602Y278903D01*
X246602Y281517D01*
X245601Y283933D01*
X243753Y285781D01*
X241337Y286782D01*
X241110Y286782D01*
X240521Y288203D01*
X240434Y288290D01*
X241791Y289647D01*
X242792Y292063D01*
X242792Y294677D01*
X241791Y297093D01*
X240363Y298521D01*
X241043Y300162D01*
X143510Y325120D02*
X143510Y332894D01*
X143510Y325120D02*
X143510Y325120D01*
X143510Y332894D01*
X142744Y332894D01*
X141242Y332595D01*
X139828Y332009D01*
X138554Y331158D01*
X137472Y330076D01*
X136621Y328802D01*
X136035Y327388D01*
X135736Y325886D01*
X135736Y325120D01*
X143510Y325120D01*
X143510Y325120D01*
X135736Y325120D01*
X135736Y324354D01*
X136035Y322852D01*
X136621Y321438D01*
X137472Y320164D01*
X138554Y319082D01*
X139828Y318231D01*
X141242Y317645D01*
X142744Y317346D01*
X143510Y317346D01*
X143510Y325120D01*
X143510Y325120D01*
X143510Y317346D01*
X144276Y317346D01*
X145778Y317645D01*
X147192Y318231D01*
X148466Y319082D01*
X149548Y320164D01*
X150399Y321438D01*
X150985Y322852D01*
X151284Y324354D01*
X151284Y325120D01*
X143510Y325120D01*
X143510Y325120D01*
X151284Y325120D01*
X151284Y325886D01*
X150985Y327388D01*
X150399Y328802D01*
X149548Y330076D01*
X148466Y331158D01*
X147192Y332009D01*
X145778Y332595D01*
X144276Y332894D01*
X143510Y332894D01*
X208280Y358140D02*
X208280Y364664D01*
X208280Y358140D02*
X208280Y358140D01*
X208280Y364664D01*
X207637Y364664D01*
X206377Y364413D01*
X205190Y363921D01*
X204121Y363208D01*
X203212Y362299D01*
X202499Y361230D01*
X202007Y360043D01*
X201756Y358783D01*
X201756Y358140D01*
X208280Y358140D01*
X208280Y358140D01*
X201756Y358140D01*
X201756Y357497D01*
X202007Y356237D01*
X202499Y355050D01*
X203212Y353981D01*
X204121Y353072D01*
X205190Y352359D01*
X206377Y351867D01*
X207637Y351616D01*
X208280Y351616D01*
X208280Y358140D01*
X208280Y358140D01*
X208280Y351616D01*
X208923Y351616D01*
X210183Y351867D01*
X211370Y352359D01*
X212439Y353072D01*
X213348Y353981D01*
X214061Y355050D01*
X214553Y356237D01*
X214804Y357497D01*
X214804Y358140D01*
X208280Y358140D01*
X208280Y358140D01*
X214804Y358140D01*
X214804Y358783D01*
X214553Y360043D01*
X214061Y361230D01*
X213348Y362299D01*
X212439Y363208D01*
X211370Y363921D01*
X210183Y364413D01*
X208923Y364664D01*
X208280Y364664D01*
X251460Y269414D02*
X251460Y262890D01*
X251460Y262890D01*
X251460Y269414D01*
X250817Y269414D01*
X249557Y269163D01*
X248370Y268671D01*
X247301Y267958D01*
X246392Y267049D01*
X245679Y265980D01*
X245320Y265114D01*
X243220Y267213D01*
X240437Y268366D01*
X237425Y268366D01*
X234642Y267213D01*
X232512Y265083D01*
X231359Y262300D01*
X231359Y259288D01*
X232512Y256505D01*
X234642Y254375D01*
X237425Y253222D01*
X240437Y253222D01*
X243220Y254375D01*
X245350Y256505D01*
X246318Y258842D01*
X246392Y258731D01*
X247301Y257822D01*
X248370Y257109D01*
X249557Y256617D01*
X250817Y256366D01*
X251460Y256366D01*
X251460Y262890D01*
X251460Y262890D01*
X251460Y256366D01*
X252103Y256366D01*
X253363Y256617D01*
X254550Y257109D01*
X255619Y257822D01*
X256528Y258731D01*
X257241Y259800D01*
X257733Y260987D01*
X257984Y262247D01*
X257984Y262890D01*
X251460Y262890D01*
X251460Y262890D01*
X257984Y262890D01*
X257984Y263533D01*
X257733Y264793D01*
X257241Y265980D01*
X256528Y267049D01*
X255619Y267958D01*
X254550Y268671D01*
X253363Y269163D01*
X252103Y269414D01*
X251460Y269414D01*
X287020Y138584D02*
X287020Y130810D01*
X287020Y130810D01*
X287020Y138584D01*
X286254Y138584D01*
X284752Y138285D01*
X283338Y137699D01*
X282064Y136848D01*
X280982Y135766D01*
X280131Y134492D01*
X279545Y133078D01*
X279246Y131576D01*
X279246Y130810D01*
X287020Y130810D01*
X287020Y130810D01*
X279246Y130810D01*
X279246Y130044D01*
X279545Y128542D01*
X280131Y127128D01*
X280982Y125854D01*
X282064Y124772D01*
X283338Y123921D01*
X284752Y123335D01*
X286254Y123036D01*
X287020Y123036D01*
X287020Y130810D01*
X287020Y130810D01*
X287020Y123036D01*
X287786Y123036D01*
X289288Y123335D01*
X290702Y123921D01*
X291976Y124772D01*
X293058Y125854D01*
X293909Y127128D01*
X294495Y128542D01*
X294794Y130044D01*
X294794Y130810D01*
X287020Y130810D01*
X287020Y130810D01*
X294794Y130810D01*
X294794Y131576D01*
X294495Y133078D01*
X293909Y134492D01*
X293058Y135766D01*
X291976Y136848D01*
X290702Y137699D01*
X289288Y138285D01*
X287786Y138584D01*
X287020Y138584D01*
X303530Y402590D02*
X303530Y410364D01*
X303530Y402590D02*
X303530Y402590D01*
X303530Y410364D01*
X302764Y410364D01*
X301262Y410065D01*
X299848Y409479D01*
X298574Y408628D01*
X297492Y407546D01*
X296641Y406272D01*
X296055Y404858D01*
X295756Y403356D01*
X295756Y402590D01*
X303530Y402590D01*
X303530Y402590D01*
X295756Y402590D01*
X295756Y401824D01*
X296055Y400322D01*
X296641Y398908D01*
X297492Y397634D01*
X298574Y396552D01*
X299848Y395701D01*
X301262Y395115D01*
X302764Y394816D01*
X303530Y394816D01*
X303530Y402590D01*
X303530Y402590D01*
X303530Y394816D01*
X304296Y394816D01*
X305798Y395115D01*
X307212Y395701D01*
X308486Y396552D01*
X309568Y397634D01*
X310419Y398908D01*
X311005Y400322D01*
X311304Y401824D01*
X311304Y402590D01*
X303530Y402590D01*
X303530Y402590D01*
X311304Y402590D01*
X311304Y403356D01*
X311005Y404858D01*
X310419Y406272D01*
X309568Y407546D01*
X308486Y408628D01*
X307212Y409479D01*
X305798Y410065D01*
X304296Y410364D01*
X303530Y410364D01*
X161242Y44686D02*
X161242Y41674D01*
X161242Y44686D02*
X160089Y47469D01*
X157959Y49599D01*
X155176Y50752D01*
X152164Y50752D01*
X149381Y49599D01*
X147251Y47469D01*
X146098Y44686D01*
X146098Y41674D01*
X147251Y38891D01*
X149381Y36761D01*
X152164Y35608D01*
X155176Y35608D01*
X157959Y36761D01*
X160089Y38891D01*
X161242Y41674D01*
X298688Y383500D02*
X298688Y386120D01*
X297685Y388542D01*
X295832Y390395D01*
X293410Y391398D01*
X290790Y391398D01*
X288368Y390395D01*
X286515Y388542D01*
X285512Y386120D01*
X285512Y383500D01*
X286515Y381078D01*
X288368Y379225D01*
X290790Y378222D01*
X293410Y378222D01*
X295832Y379225D01*
X297685Y381078D01*
X298688Y383500D01*
X298688Y358180D02*
X298688Y355560D01*
X298688Y358180D02*
X297685Y360602D01*
X295832Y362455D01*
X293410Y363458D01*
X290790Y363458D01*
X288368Y362455D01*
X286515Y360602D01*
X285988Y359329D01*
X285988Y359450D01*
X284985Y361872D01*
X283132Y363725D01*
X280710Y364728D01*
X278090Y364728D01*
X275668Y363725D01*
X273815Y361872D01*
X272812Y359450D01*
X272812Y356830D01*
X273815Y354408D01*
X275668Y352555D01*
X278090Y351552D01*
X280710Y351552D01*
X283132Y352555D01*
X284985Y354408D01*
X285512Y355681D01*
X285512Y355560D01*
X286515Y353138D01*
X288368Y351285D01*
X290790Y350282D01*
X293410Y350282D01*
X295832Y351285D01*
X297685Y353138D01*
X298688Y355560D01*
X390112Y292137D02*
X390112Y289523D01*
X390112Y292137D02*
X389111Y294553D01*
X387263Y296401D01*
X384847Y297402D01*
X382233Y297402D01*
X379817Y296401D01*
X377969Y294553D01*
X376968Y292137D01*
X376968Y289523D01*
X377969Y287107D01*
X379817Y285259D01*
X382233Y284258D01*
X384847Y284258D01*
X387263Y285259D01*
X389111Y287107D01*
X390112Y289523D01*
X348485Y391082D02*
X346632Y392935D01*
X344210Y393938D01*
X341590Y393938D01*
X339168Y392935D01*
X337315Y391082D01*
X336550Y389235D01*
X335785Y391082D01*
X333932Y392935D01*
X331510Y393938D01*
X328890Y393938D01*
X326468Y392935D01*
X324615Y391082D01*
X323612Y388660D01*
X323612Y386040D01*
X324615Y383618D01*
X326468Y381765D01*
X328890Y380762D01*
X331510Y380762D01*
X333932Y381765D01*
X335785Y383618D01*
X336550Y385465D01*
X337315Y383618D01*
X339168Y381765D01*
X341590Y380762D01*
X344210Y380762D01*
X346632Y381765D01*
X348485Y383618D01*
X349250Y385465D01*
X350015Y383618D01*
X351868Y381765D01*
X354290Y380762D01*
X356910Y380762D01*
X359332Y381765D01*
X361185Y383618D01*
X362188Y386040D01*
X362188Y388660D01*
X361185Y391082D01*
X359332Y392935D01*
X356910Y393938D01*
X354290Y393938D01*
X351868Y392935D01*
X350015Y391082D01*
X349250Y389235D01*
X348485Y391082D01*
X259318Y368340D02*
X259318Y365720D01*
X259318Y368340D02*
X258546Y370205D01*
X259318Y372070D01*
X259318Y374690D01*
X258315Y377112D01*
X256462Y378965D01*
X254040Y379968D01*
X251420Y379968D01*
X248998Y378965D01*
X247145Y377112D01*
X246142Y374690D01*
X246142Y372070D01*
X246914Y370205D01*
X246142Y368340D01*
X246142Y365720D01*
X247145Y363298D01*
X248998Y361445D01*
X251420Y360442D01*
X254040Y360442D01*
X256462Y361445D01*
X258315Y363298D01*
X259318Y365720D01*
X57278Y12192D02*
X24638Y12192D01*
X82422Y12192D02*
X82678Y12192D01*
X107822Y12192D02*
X108078Y12192D01*
X133222Y12192D02*
X133478Y12192D01*
X158622Y12192D02*
X183642Y12192D01*
X58557Y18288D02*
X24165Y18288D01*
X81143Y18288D02*
X83957Y18288D01*
X106543Y18288D02*
X109357Y18288D01*
X131943Y18288D02*
X134757Y18288D01*
X157343Y18288D02*
X189738Y18288D01*
X65206Y24384D02*
X25332Y24384D01*
X74494Y24384D02*
X90606Y24384D01*
X99894Y24384D02*
X116006Y24384D01*
X125294Y24384D02*
X141406Y24384D01*
X150694Y24384D02*
X195834Y24384D01*
X11853Y30480D02*
X11430Y30480D01*
X21167Y30480D02*
X46991Y30480D01*
X67309Y30480D02*
X72391Y30480D01*
X92709Y30480D02*
X97791Y30480D01*
X118109Y30480D02*
X123191Y30480D01*
X143509Y30480D02*
X201930Y30480D01*
X44578Y36576D02*
X11430Y36576D01*
X69722Y36576D02*
X69978Y36576D01*
X95122Y36576D02*
X95378Y36576D01*
X120522Y36576D02*
X120778Y36576D01*
X145922Y36576D02*
X149827Y36576D01*
X157513Y36576D02*
X208026Y36576D01*
X45436Y42672D02*
X11430Y42672D01*
X68864Y42672D02*
X70836Y42672D01*
X94264Y42672D02*
X96236Y42672D01*
X119664Y42672D02*
X121636Y42672D01*
X145064Y42672D02*
X146098Y42672D01*
X161242Y42672D02*
X214122Y42672D01*
X13392Y48768D02*
X11430Y48768D01*
X32328Y48768D02*
X50053Y48768D01*
X64247Y48768D02*
X75453Y48768D01*
X89647Y48768D02*
X100853Y48768D01*
X115047Y48768D02*
X126253Y48768D01*
X140447Y48768D02*
X148550Y48768D01*
X158790Y48768D02*
X170872Y48768D01*
X189808Y48768D02*
X220218Y48768D01*
X165662Y54864D02*
X37537Y54864D01*
X195017Y54864D02*
X226314Y54864D01*
X163767Y60960D02*
X39433Y60960D01*
X196913Y60960D02*
X232410Y60960D01*
X100297Y67056D02*
X39010Y67056D01*
X107983Y67056D02*
X138397Y67056D01*
X146083Y67056D02*
X164190Y67056D01*
X196490Y67056D02*
X238506Y67056D01*
X96568Y73152D02*
X35884Y73152D01*
X111712Y73152D02*
X134668Y73152D01*
X207676Y73152D02*
X215684Y73152D01*
X238976Y73152D02*
X244602Y73152D01*
X65756Y79248D02*
X26310Y79248D01*
X207676Y79248D02*
X208235Y79248D01*
X246425Y79248D02*
X250698Y79248D01*
X31251Y85344D02*
X22352Y85344D01*
X57649Y85344D02*
X63568Y85344D01*
X250000Y85344D02*
X256794Y85344D01*
X26114Y91440D02*
X22135Y91440D01*
X62786Y91440D02*
X66264Y91440D01*
X251968Y91440D02*
X262890Y91440D01*
X23622Y97536D02*
X22482Y97536D01*
X65278Y97536D02*
X137922Y97536D01*
X251968Y97536D02*
X268986Y97536D01*
X23622Y103632D02*
X22352Y103632D01*
X65278Y103632D02*
X137922Y103632D01*
X179578Y103632D02*
X181875Y103632D01*
X250421Y103632D02*
X275082Y103632D01*
X25273Y109728D02*
X22129Y109728D01*
X63627Y109728D02*
X139573Y109728D01*
X177927Y109728D02*
X181875Y109728D01*
X247441Y109728D02*
X281178Y109728D01*
X142776Y115824D02*
X59681Y115824D01*
X173981Y115824D02*
X181875Y115824D01*
X246410Y115824D02*
X287274Y115824D01*
X39081Y121920D02*
X35167Y121920D01*
X49819Y121920D02*
X137208Y121920D01*
X152352Y121920D02*
X153381Y121920D01*
X164119Y121920D02*
X181875Y121920D01*
X248852Y121920D02*
X293370Y121920D01*
X24466Y128016D02*
X17629Y128016D01*
X28874Y128016D02*
X138898Y128016D01*
X159886Y128016D02*
X181520Y128016D01*
X248442Y128016D02*
X279763Y128016D01*
X287020Y128016D02*
X287020Y128016D01*
X294277Y128016D02*
X299466Y128016D01*
X29084Y134112D02*
X22158Y134112D01*
X47370Y134112D02*
X54484Y134112D01*
X72770Y134112D02*
X95302Y134112D01*
X101600Y134112D02*
X101600Y134112D01*
X107898Y134112D02*
X130430Y134112D01*
X174116Y134112D02*
X180898Y134112D01*
X250122Y134112D02*
X279973Y134112D01*
X287020Y134112D02*
X287020Y134112D01*
X294067Y134112D02*
X305562Y134112D01*
X25671Y140208D02*
X20601Y140208D01*
X50783Y140208D02*
X51071Y140208D01*
X76183Y140208D02*
X96692Y140208D01*
X101600Y140208D02*
X101600Y140208D01*
X106508Y140208D02*
X127017Y140208D01*
X152129Y140208D02*
X152417Y140208D01*
X177529Y140208D02*
X186705Y140208D01*
X192285Y140208D02*
X215900Y140208D01*
X231140Y140208D02*
X235682Y140208D01*
X246918Y140208D02*
X311658Y140208D01*
X26092Y146304D02*
X22352Y146304D01*
X50362Y146304D02*
X51492Y146304D01*
X75762Y146304D02*
X127438Y146304D01*
X151708Y146304D02*
X152838Y146304D01*
X177108Y146304D02*
X215900Y146304D01*
X231140Y146304D02*
X317754Y146304D01*
X30100Y152400D02*
X20006Y152400D01*
X46354Y152400D02*
X55500Y152400D01*
X71754Y152400D02*
X131446Y152400D01*
X147700Y152400D02*
X156846Y152400D01*
X173100Y152400D02*
X209002Y152400D01*
X231140Y152400D02*
X319615Y152400D01*
X180838Y158496D02*
X36332Y158496D01*
X197622Y158496D02*
X201767Y158496D01*
X238639Y158496D02*
X239736Y158496D01*
X250484Y158496D02*
X314398Y158496D01*
X181049Y164592D02*
X36121Y164592D01*
X197411Y164592D02*
X200926Y164592D01*
X252682Y164592D02*
X312293Y164592D01*
X215900Y170688D02*
X22352Y170688D01*
X231140Y170688D02*
X241880Y170688D01*
X248340Y170688D02*
X312293Y170688D01*
X33145Y176784D02*
X22150Y176784D01*
X63375Y176784D02*
X181018Y176784D01*
X187960Y176784D02*
X187960Y176784D01*
X194902Y176784D02*
X215900Y176784D01*
X246836Y176784D02*
X314813Y176784D01*
X345587Y176784D02*
X348234Y176784D01*
X28637Y182880D02*
X22051Y182880D01*
X67883Y182880D02*
X180598Y182880D01*
X187960Y182880D02*
X187960Y182880D01*
X195322Y182880D02*
X215900Y182880D01*
X247257Y182880D02*
X321409Y182880D01*
X338991Y182880D02*
X354330Y182880D01*
X26438Y188976D02*
X20894Y188976D01*
X70082Y188976D02*
X220110Y188976D01*
X247152Y188976D02*
X283039Y188976D01*
X305239Y188976D02*
X355161Y188976D01*
X26438Y195072D02*
X22352Y195072D01*
X70082Y195072D02*
X226206Y195072D01*
X246941Y195072D02*
X278123Y195072D01*
X310155Y195072D02*
X318392Y195072D01*
X342008Y195072D02*
X350245Y195072D01*
X28218Y201168D02*
X11430Y201168D01*
X68302Y201168D02*
X229648Y201168D01*
X246022Y201168D02*
X276232Y201168D01*
X312046Y201168D02*
X316103Y201168D01*
X344297Y201168D02*
X348354Y201168D01*
X32133Y207264D02*
X11430Y207264D01*
X64387Y207264D02*
X216236Y207264D01*
X220644Y207264D02*
X234818Y207264D01*
X247782Y207264D02*
X276440Y207264D01*
X311838Y207264D02*
X316625Y207264D01*
X343775Y207264D02*
X348562Y207264D01*
X41525Y213360D02*
X11430Y213360D01*
X54996Y213360D02*
X180118Y213360D01*
X193262Y213360D02*
X196277Y213360D01*
X199963Y213360D02*
X206437Y213360D01*
X228600Y213360D02*
X228600Y213360D01*
X235962Y213360D02*
X278975Y213360D01*
X309303Y213360D02*
X320424Y213360D01*
X339976Y213360D02*
X351097Y213360D01*
X381425Y213360D02*
X384810Y213360D01*
X91277Y219456D02*
X11430Y219456D01*
X104303Y219456D02*
X182222Y219456D01*
X228600Y219456D02*
X228600Y219456D01*
X235542Y219456D02*
X286591Y219456D01*
X301687Y219456D02*
X358713Y219456D01*
X373809Y219456D02*
X390906Y219456D01*
X90436Y225552D02*
X11430Y225552D01*
X105144Y225552D02*
X187294Y225552D01*
X211350Y225552D02*
X318585Y225552D01*
X341815Y225552D02*
X397002Y225552D01*
X15949Y231648D02*
X11430Y231648D01*
X32311Y231648D02*
X35318Y231648D01*
X51202Y231648D02*
X67318Y231648D01*
X83202Y231648D02*
X313971Y231648D01*
X346429Y231648D02*
X403098Y231648D01*
X15738Y237744D02*
X11430Y237744D01*
X54877Y237744D02*
X63643Y237744D01*
X86877Y237744D02*
X312293Y237744D01*
X348107Y237744D02*
X400020Y237744D01*
X32109Y243840D02*
X11430Y243840D01*
X54411Y243840D02*
X64109Y243840D01*
X86411Y243840D02*
X271232Y243840D01*
X282488Y243840D02*
X312714Y243840D01*
X347686Y243840D02*
X397578Y243840D01*
X415222Y243840D02*
X415290Y243840D01*
X36442Y249936D02*
X11430Y249936D01*
X50078Y249936D02*
X68442Y249936D01*
X82078Y249936D02*
X269288Y249936D01*
X284432Y249936D02*
X315551Y249936D01*
X344849Y249936D02*
X369276Y249936D01*
X380024Y249936D02*
X400020Y249936D01*
X412780Y249936D02*
X419100Y249936D01*
X35934Y256032D02*
X11430Y256032D01*
X50586Y256032D02*
X67934Y256032D01*
X82586Y256032D02*
X232985Y256032D01*
X244878Y256032D02*
X274243Y256032D01*
X279477Y256032D02*
X323896Y256032D01*
X336504Y256032D02*
X367078Y256032D01*
X382222Y256032D02*
X404572Y256032D01*
X31898Y262128D02*
X11430Y262128D01*
X54622Y262128D02*
X63898Y262128D01*
X86622Y262128D02*
X231359Y262128D01*
X251460Y262128D02*
X251460Y262128D01*
X257960Y262128D02*
X325219Y262128D01*
X344832Y262128D02*
X371420Y262128D01*
X377880Y262128D02*
X400518Y262128D01*
X31854Y268224D02*
X11430Y268224D01*
X54667Y268224D02*
X63854Y268224D01*
X86667Y268224D02*
X168011Y268224D01*
X182509Y268224D02*
X237082Y268224D01*
X240780Y268224D02*
X247700Y268224D01*
X251460Y268224D02*
X251460Y268224D01*
X255220Y268224D02*
X295011Y268224D01*
X309509Y268224D02*
X316693Y268224D01*
X353359Y268224D02*
X399796Y268224D01*
X35826Y274320D02*
X11430Y274320D01*
X50694Y274320D02*
X67826Y274320D01*
X82694Y274320D02*
X88053Y274320D01*
X97367Y274320D02*
X100753Y274320D01*
X110067Y274320D02*
X168642Y274320D01*
X181878Y274320D02*
X237076Y274320D01*
X242984Y274320D02*
X295642Y274320D01*
X308878Y274320D02*
X312672Y274320D01*
X357380Y274320D02*
X364139Y274320D01*
X380081Y274320D02*
X401780Y274320D01*
X83888Y280416D02*
X11430Y280416D01*
X114232Y280416D02*
X229720Y280416D01*
X246602Y280416D02*
X251287Y280416D01*
X261793Y280416D02*
X270337Y280416D01*
X278303Y280416D02*
X310388Y280416D01*
X359664Y280416D02*
X363508Y280416D01*
X380712Y280416D02*
X405588Y280416D01*
X85055Y286512D02*
X11430Y286512D01*
X113065Y286512D02*
X228678Y286512D01*
X241989Y286512D02*
X246353Y286512D01*
X262829Y286512D02*
X264241Y286512D01*
X280908Y286512D02*
X310388Y286512D01*
X359664Y286512D02*
X369293Y286512D01*
X374927Y286512D02*
X378564Y286512D01*
X388516Y286512D02*
X400939Y286512D01*
X40298Y292608D02*
X11430Y292608D01*
X56222Y292608D02*
X171664Y292608D01*
X181396Y292608D02*
X213283Y292608D01*
X218517Y292608D02*
X224577Y292608D01*
X242792Y292608D02*
X247754Y292608D01*
X275634Y292608D02*
X311620Y292608D01*
X358432Y292608D02*
X377163Y292608D01*
X389917Y292608D02*
X399796Y292608D01*
X31625Y298704D02*
X11430Y298704D01*
X64895Y298704D02*
X115540Y298704D01*
X125760Y298704D02*
X135899Y298704D01*
X138430Y298704D02*
X138430Y298704D01*
X140961Y298704D02*
X168958Y298704D01*
X196923Y298704D02*
X208328Y298704D01*
X240439Y298704D02*
X256917Y298704D01*
X268863Y298704D02*
X314153Y298704D01*
X355899Y298704D02*
X401360Y298704D01*
X28008Y304800D02*
X11430Y304800D01*
X68512Y304800D02*
X111828Y304800D01*
X129472Y304800D02*
X130756Y304800D01*
X138430Y304800D02*
X138430Y304800D01*
X146104Y304800D02*
X172172Y304800D01*
X180888Y304800D02*
X183056Y304800D01*
X197944Y304800D02*
X206081Y304800D01*
X221528Y304800D02*
X221894Y304800D01*
X240205Y304800D02*
X293711Y304800D01*
X299720Y304800D02*
X299720Y304800D01*
X305729Y304800D02*
X320249Y304800D01*
X349803Y304800D02*
X407511Y304800D01*
X26438Y310896D02*
X11430Y310896D01*
X70082Y310896D02*
X113100Y310896D01*
X128200Y310896D02*
X132305Y310896D01*
X138430Y310896D02*
X138430Y310896D01*
X144555Y310896D02*
X206620Y310896D01*
X217560Y310896D02*
X294250Y310896D01*
X305190Y310896D02*
X419100Y310896D01*
X26438Y316992D02*
X11430Y316992D01*
X70082Y316992D02*
X91820Y316992D01*
X98680Y316992D02*
X204518Y316992D01*
X219662Y316992D02*
X292064Y316992D01*
X307208Y316992D02*
X395702Y316992D01*
X409478Y316992D02*
X419100Y316992D01*
X26393Y323088D02*
X11430Y323088D01*
X67672Y323088D02*
X86543Y323088D01*
X103957Y323088D02*
X135988Y323088D01*
X143510Y323088D02*
X143510Y323088D01*
X151032Y323088D02*
X205954Y323088D01*
X218226Y323088D02*
X296205Y323088D01*
X303068Y323088D02*
X393768Y323088D01*
X411412Y323088D02*
X419100Y323088D01*
X20608Y329184D02*
X11430Y329184D01*
X62867Y329184D02*
X87385Y329184D01*
X103116Y329184D02*
X136876Y329184D01*
X143510Y329184D02*
X143510Y329184D01*
X150144Y329184D02*
X204525Y329184D01*
X226959Y329184D02*
X396718Y329184D01*
X408462Y329184D02*
X419100Y329184D01*
X21239Y335280D02*
X11430Y335280D01*
X37181Y335280D02*
X60153Y335280D01*
X91231Y335280D02*
X213092Y335280D01*
X226328Y335280D02*
X419100Y335280D01*
X54495Y341376D02*
X11430Y341376D01*
X96889Y341376D02*
X174976Y341376D01*
X181610Y341376D02*
X181610Y341376D01*
X188244Y341376D02*
X400528Y341376D01*
X412272Y341376D02*
X419100Y341376D01*
X51970Y347472D02*
X11430Y347472D01*
X99414Y347472D02*
X174088Y347472D01*
X181610Y347472D02*
X181610Y347472D01*
X189132Y347472D02*
X397578Y347472D01*
X415222Y347472D02*
X419100Y347472D01*
X12416Y353568D02*
X11430Y353568D01*
X23144Y353568D02*
X51054Y353568D01*
X100330Y353568D02*
X140686Y353568D01*
X153954Y353568D02*
X203626Y353568D01*
X208280Y353568D02*
X208280Y353568D01*
X212934Y353568D02*
X274655Y353568D01*
X284145Y353568D02*
X286337Y353568D01*
X297863Y353568D02*
X399512Y353568D01*
X413288Y353568D02*
X419100Y353568D01*
X51128Y359664D02*
X26602Y359664D01*
X100256Y359664D02*
X138498Y359664D01*
X156142Y359664D02*
X201931Y359664D01*
X208280Y359664D02*
X208280Y359664D01*
X214629Y359664D02*
X272900Y359664D01*
X285900Y359664D02*
X286127Y359664D01*
X298073Y359664D02*
X419100Y359664D01*
X53653Y365760D02*
X25176Y365760D01*
X97731Y365760D02*
X141194Y365760D01*
X153446Y365760D02*
X246142Y365760D01*
X259318Y365760D02*
X419100Y365760D01*
X58121Y371856D02*
X11430Y371856D01*
X93263Y371856D02*
X246230Y371856D01*
X259230Y371856D02*
X395448Y371856D01*
X409732Y371856D02*
X419100Y371856D01*
X67725Y377952D02*
X11430Y377952D01*
X94518Y377952D02*
X136622Y377952D01*
X150398Y377952D02*
X247985Y377952D01*
X257475Y377952D02*
X393768Y377952D01*
X414558Y377952D02*
X419100Y377952D01*
X80078Y384048D02*
X11430Y384048D01*
X97722Y384048D02*
X134688Y384048D01*
X152332Y384048D02*
X239647Y384048D01*
X248033Y384048D02*
X285512Y384048D01*
X298688Y384048D02*
X324437Y384048D01*
X335963Y384048D02*
X337137Y384048D01*
X348663Y384048D02*
X349837Y384048D01*
X361363Y384048D02*
X396972Y384048D01*
X417762Y384048D02*
X419100Y384048D01*
X81758Y390144D02*
X11430Y390144D01*
X96042Y390144D02*
X137638Y390144D01*
X149382Y390144D02*
X236744Y390144D01*
X250936Y390144D02*
X288117Y390144D01*
X296083Y390144D02*
X324227Y390144D01*
X336173Y390144D02*
X336927Y390144D01*
X348873Y390144D02*
X349627Y390144D01*
X361573Y390144D02*
X401798Y390144D01*
X416082Y390144D02*
X419100Y390144D01*
X15444Y396240D02*
X11430Y396240D01*
X35356Y396240D02*
X40844Y396240D01*
X60756Y396240D02*
X66244Y396240D01*
X86156Y396240D02*
X91644Y396240D01*
X111556Y396240D02*
X118568Y396240D01*
X125984Y396240D02*
X128016Y396240D01*
X135432Y396240D02*
X142444Y396240D01*
X162356Y396240D02*
X167844Y396240D01*
X187756Y396240D02*
X193244Y396240D01*
X213156Y396240D02*
X218644Y396240D01*
X238556Y396240D02*
X240628Y396240D01*
X247052Y396240D02*
X273274Y396240D01*
X288066Y396240D02*
X299041Y396240D01*
X303530Y396240D02*
X303530Y396240D01*
X308019Y396240D02*
X419100Y396240D01*
X128016Y402336D02*
X125984Y402336D01*
X242313Y402336D02*
X271848Y402336D01*
X289492Y402336D02*
X295756Y402336D01*
X303530Y402336D02*
X303530Y402336D01*
X311304Y402336D02*
X419100Y402336D01*
X275306Y408432D02*
X242824Y408432D01*
X286034Y408432D02*
X298378Y408432D01*
X303530Y408432D02*
X303530Y408432D01*
X308682Y408432D02*
X391892Y408432D01*
X403128Y408432D02*
X415798Y408432D01*
X388688Y414528D02*
X240588Y414528D01*
X406332Y414528D02*
X409702Y414528D01*
X12192Y49968D02*
X12192Y30620D01*
X12192Y200152D02*
X12192Y353792D01*
X12192Y367568D02*
X12192Y401118D01*
X18288Y46693D02*
X18288Y31672D01*
X18288Y127776D02*
X18288Y130084D01*
X18288Y200152D02*
X18288Y228316D01*
X18288Y241584D02*
X18288Y351858D01*
X18288Y369502D02*
X18288Y393950D01*
X24384Y18817D02*
X24384Y12446D01*
X24384Y26903D02*
X24384Y46165D01*
X24384Y79311D02*
X24384Y95617D01*
X24384Y107583D02*
X24384Y110778D01*
X24384Y127982D02*
X24384Y153214D01*
X24384Y169366D02*
X24384Y226128D01*
X24384Y243772D02*
X24384Y323920D01*
X24384Y339020D02*
X24384Y354808D01*
X24384Y366552D02*
X24384Y392176D01*
X30480Y47955D02*
X30480Y11430D01*
X30480Y77521D02*
X30480Y86115D01*
X30480Y127351D02*
X30480Y132716D01*
X30480Y152780D02*
X30480Y152793D01*
X30480Y169787D02*
X30480Y179449D01*
X30480Y205611D02*
X30480Y228824D01*
X30480Y241076D02*
X30480Y299849D01*
X30480Y340292D02*
X30480Y393108D01*
X36576Y53016D02*
X36576Y11430D01*
X36576Y72460D02*
X36576Y82317D01*
X36576Y120883D02*
X36576Y130176D01*
X36576Y155320D02*
X36576Y159086D01*
X36576Y163494D02*
X36576Y173750D01*
X36576Y211310D02*
X36576Y230390D01*
X36576Y250070D02*
X36576Y255390D01*
X36576Y275070D02*
X36576Y294150D01*
X36576Y336580D02*
X36576Y397460D01*
X42672Y80772D02*
X42672Y11430D01*
X42672Y122428D02*
X42672Y130981D01*
X42672Y154515D02*
X42672Y171225D01*
X42672Y213835D02*
X42672Y228546D01*
X42672Y251914D02*
X42672Y253546D01*
X42672Y276914D02*
X42672Y291625D01*
X42672Y334235D02*
X42672Y394412D01*
X48768Y28703D02*
X48768Y11430D01*
X48768Y47497D02*
X48768Y80845D01*
X48768Y122355D02*
X48768Y135510D01*
X48768Y149986D02*
X48768Y170708D01*
X48768Y214352D02*
X48768Y229865D01*
X48768Y250595D02*
X48768Y254865D01*
X48768Y275595D02*
X48768Y291108D01*
X48768Y334752D02*
X48768Y392176D01*
X54864Y25528D02*
X54864Y11430D01*
X54864Y50672D02*
X54864Y83370D01*
X54864Y119830D02*
X54864Y133732D01*
X54864Y151764D02*
X54864Y171646D01*
X54864Y213414D02*
X54864Y237713D01*
X54864Y242747D02*
X54864Y262713D01*
X54864Y267747D02*
X54864Y292046D01*
X54864Y333814D02*
X54864Y340569D01*
X54864Y368599D02*
X54864Y392687D01*
X60960Y26070D02*
X60960Y21589D01*
X60960Y50130D02*
X60960Y88655D01*
X60960Y114545D02*
X60960Y130245D01*
X60960Y155251D02*
X60960Y174369D01*
X60960Y210691D02*
X60960Y294769D01*
X60960Y331091D02*
X60960Y334473D01*
X60960Y374695D02*
X60960Y396444D01*
X67056Y30227D02*
X67056Y25151D01*
X67056Y45973D02*
X67056Y77948D01*
X67056Y92232D02*
X67056Y130561D01*
X67056Y154935D02*
X67056Y180884D01*
X67056Y204176D02*
X67056Y231910D01*
X67056Y248550D02*
X67056Y256910D01*
X67056Y273550D02*
X67056Y301284D01*
X67056Y324576D02*
X67056Y331493D01*
X67056Y377675D02*
X67056Y395428D01*
X73152Y29719D02*
X73152Y24940D01*
X73152Y46481D02*
X73152Y76268D01*
X73152Y93912D02*
X73152Y134494D01*
X73152Y151002D02*
X73152Y228546D01*
X73152Y251914D02*
X73152Y253546D01*
X73152Y276914D02*
X73152Y329946D01*
X73152Y379222D02*
X73152Y392267D01*
X79248Y25860D02*
X79248Y21081D01*
X79248Y50340D02*
X79248Y77470D01*
X79248Y92710D02*
X79248Y229235D01*
X79248Y251225D02*
X79248Y254235D01*
X79248Y276225D02*
X79248Y329946D01*
X79248Y379222D02*
X79248Y392267D01*
X85344Y25649D02*
X85344Y20573D01*
X85344Y50550D02*
X85344Y77470D01*
X85344Y92710D02*
X85344Y234043D01*
X85344Y246417D02*
X85344Y259043D01*
X85344Y271417D02*
X85344Y276830D01*
X85344Y287050D02*
X85344Y331914D01*
X85344Y392886D02*
X85344Y395428D01*
X91440Y29211D02*
X91440Y24730D01*
X91440Y46989D02*
X91440Y77470D01*
X91440Y92710D02*
X91440Y219162D01*
X91440Y227878D02*
X91440Y273118D01*
X91440Y290762D02*
X91440Y317149D01*
X91440Y333091D02*
X91440Y335489D01*
X91440Y373679D02*
X91440Y376313D01*
X91440Y393307D02*
X91440Y396444D01*
X97536Y30735D02*
X97536Y25272D01*
X97536Y45465D02*
X97536Y69817D01*
X97536Y92710D02*
X97536Y130759D01*
X97536Y135890D02*
X97536Y135890D01*
X97536Y141021D02*
X97536Y215948D01*
X97536Y231092D02*
X97536Y274390D01*
X97536Y289490D02*
X97536Y316518D01*
X97536Y333722D02*
X97536Y342938D01*
X97536Y366230D02*
X97536Y382606D01*
X97536Y387014D02*
X97536Y392687D01*
X103632Y26281D02*
X103632Y22097D01*
X103632Y49919D02*
X103632Y66088D01*
X103632Y92710D02*
X103632Y129670D01*
X103632Y135890D02*
X103632Y135890D01*
X103632Y142110D02*
X103632Y218654D01*
X103632Y228386D02*
X103632Y273128D01*
X103632Y290752D02*
X103632Y322303D01*
X103632Y327937D02*
X103632Y392176D01*
X109728Y25528D02*
X109728Y19184D01*
X109728Y50672D02*
X109728Y68540D01*
X109728Y92710D02*
X109728Y274180D01*
X109728Y289700D02*
X109728Y394412D01*
X115824Y28195D02*
X115824Y24309D01*
X115824Y48005D02*
X115824Y77470D01*
X115824Y92710D02*
X115824Y298520D01*
X115824Y313620D02*
X115824Y399366D01*
X121920Y32842D02*
X121920Y25272D01*
X121920Y43358D02*
X121920Y77470D01*
X121920Y92710D02*
X121920Y297248D01*
X121920Y314892D02*
X121920Y394201D01*
X128016Y26702D02*
X128016Y23113D01*
X128016Y49498D02*
X128016Y77470D01*
X128016Y92710D02*
X128016Y137797D01*
X128016Y147699D02*
X128016Y300960D01*
X128016Y311180D02*
X128016Y393224D01*
X134112Y25528D02*
X134112Y16731D01*
X134112Y50672D02*
X134112Y77470D01*
X134112Y92710D02*
X134112Y131402D01*
X134112Y154094D02*
X134112Y299606D01*
X134112Y306070D02*
X134112Y306070D01*
X134112Y312535D02*
X134112Y395281D01*
X140208Y27333D02*
X140208Y23888D01*
X140208Y48867D02*
X140208Y66306D01*
X140208Y111262D02*
X140208Y117054D01*
X140208Y129326D02*
X140208Y130176D01*
X140208Y155320D02*
X140208Y298497D01*
X140208Y306070D02*
X140208Y306070D01*
X140208Y313643D02*
X140208Y318073D01*
X140208Y325120D02*
X140208Y325120D01*
X140208Y332167D02*
X140208Y354046D01*
X140208Y364774D02*
X140208Y375359D01*
X140208Y391721D02*
X140208Y398665D01*
X146304Y41177D02*
X146304Y25272D01*
X146304Y45184D02*
X146304Y67147D01*
X146304Y153568D02*
X146304Y317863D01*
X146304Y325120D02*
X146304Y325120D01*
X146304Y332377D02*
X146304Y350588D01*
X146304Y368232D02*
X146304Y375148D01*
X146304Y391932D02*
X146304Y393529D01*
X152400Y35608D02*
X152400Y23678D01*
X152400Y50752D02*
X152400Y71120D01*
X152400Y121514D02*
X152400Y122158D01*
X152400Y137302D02*
X152400Y352014D01*
X152400Y366806D02*
X152400Y392176D01*
X158496Y37298D02*
X158496Y15505D01*
X158496Y49062D02*
X158496Y71120D01*
X158496Y122428D02*
X158496Y125118D01*
X158496Y153673D02*
X158496Y393529D01*
X164592Y57448D02*
X164592Y11430D01*
X164592Y68028D02*
X164592Y71120D01*
X164592Y121724D02*
X164592Y130176D01*
X164592Y155320D02*
X164592Y398665D01*
X170688Y48952D02*
X170688Y11430D01*
X170688Y119117D02*
X170688Y131507D01*
X170688Y153989D02*
X170688Y264374D01*
X170688Y276646D02*
X170688Y293584D01*
X170688Y303316D02*
X170688Y393950D01*
X176784Y46272D02*
X176784Y11430D01*
X176784Y112488D02*
X176784Y138410D01*
X176784Y147086D02*
X176784Y262945D01*
X176784Y278075D02*
X176784Y290878D01*
X176784Y306022D02*
X176784Y339315D01*
X176784Y345440D02*
X176784Y345440D01*
X176784Y351565D02*
X176784Y392176D01*
X182880Y46165D02*
X182880Y11430D01*
X182880Y137676D02*
X182880Y155164D01*
X182880Y167416D02*
X182880Y174426D01*
X182880Y180340D02*
X182880Y180340D01*
X182880Y186254D02*
X182880Y209146D01*
X182880Y220114D02*
X182880Y294092D01*
X182880Y302808D02*
X182880Y337766D01*
X182880Y345440D02*
X182880Y345440D01*
X182880Y353114D02*
X182880Y393108D01*
X188976Y48376D02*
X188976Y17526D01*
X188976Y140637D02*
X188976Y152468D01*
X188976Y170112D02*
X188976Y172616D01*
X188976Y180340D02*
X188976Y180340D01*
X188976Y188064D02*
X188976Y208463D01*
X188976Y227480D02*
X188976Y295419D01*
X188976Y310549D02*
X188976Y342909D01*
X188976Y345440D02*
X188976Y345440D01*
X188976Y347971D02*
X188976Y397460D01*
X195072Y54996D02*
X195072Y23622D01*
X195072Y139435D02*
X195072Y154656D01*
X195072Y167924D02*
X195072Y177196D01*
X195072Y180340D02*
X195072Y180340D01*
X195072Y183484D02*
X195072Y213859D01*
X195072Y228522D02*
X195072Y296848D01*
X195072Y309120D02*
X195072Y394412D01*
X201168Y67388D02*
X201168Y29718D01*
X201168Y139435D02*
X201168Y159943D01*
X201168Y165177D02*
X201168Y213859D01*
X201168Y228522D02*
X201168Y392176D01*
X207264Y72157D02*
X207264Y35814D01*
X207264Y139435D02*
X207264Y154988D01*
X207264Y170132D02*
X207264Y213138D01*
X207264Y227480D02*
X207264Y302940D01*
X207264Y307340D02*
X207264Y307340D01*
X207264Y333542D02*
X207264Y351690D01*
X207264Y358140D02*
X207264Y358140D01*
X207264Y364590D02*
X207264Y392687D01*
X213360Y74123D02*
X213360Y41910D01*
X213360Y139435D02*
X213360Y149908D01*
X213360Y168188D02*
X213360Y208504D01*
X213360Y223924D02*
X213360Y292576D01*
X213360Y307340D02*
X213360Y307340D01*
X213360Y335828D02*
X213360Y354000D01*
X213360Y358140D02*
X213360Y358140D01*
X213360Y362280D02*
X213360Y396444D01*
X219456Y71590D02*
X219456Y48006D01*
X219456Y188322D02*
X219456Y207078D01*
X219456Y224722D02*
X219456Y292997D01*
X219456Y306443D02*
X219456Y315497D01*
X219456Y319503D02*
X219456Y323898D01*
X219456Y339042D02*
X219456Y395428D01*
X225552Y70358D02*
X225552Y54102D01*
X225552Y194418D02*
X225552Y208748D01*
X225552Y223052D02*
X225552Y292204D01*
X225552Y307044D02*
X225552Y326604D01*
X225552Y336336D02*
X225552Y392267D01*
X231648Y70358D02*
X231648Y60198D01*
X231648Y139435D02*
X231648Y153718D01*
X231648Y168862D02*
X231648Y174976D01*
X231648Y205382D02*
X231648Y208748D01*
X231648Y215900D02*
X231648Y215900D01*
X231648Y223052D02*
X231648Y258590D01*
X231648Y262998D02*
X231648Y278734D01*
X231648Y307414D02*
X231648Y392267D01*
X237744Y72642D02*
X237744Y66294D01*
X237744Y141426D02*
X237744Y156726D01*
X237744Y165854D02*
X237744Y171518D01*
X237744Y211381D02*
X237744Y253222D01*
X237744Y268366D02*
X237744Y274043D01*
X237744Y307227D02*
X237744Y386064D01*
X237744Y393716D02*
X237744Y395428D01*
X237744Y417372D02*
X237744Y419100D01*
X243840Y76663D02*
X243840Y72390D01*
X243840Y113329D02*
X243840Y113949D01*
X243840Y141847D02*
X243840Y156258D01*
X243840Y171402D02*
X243840Y172944D01*
X243840Y199166D02*
X243840Y199679D01*
X243840Y211801D02*
X243840Y254995D01*
X243840Y266593D02*
X243840Y274726D01*
X243840Y285694D02*
X243840Y382794D01*
X243840Y396986D02*
X243840Y419100D01*
X249936Y85190D02*
X249936Y78486D01*
X249936Y104802D02*
X249936Y131146D01*
X249936Y135554D02*
X249936Y157948D01*
X249936Y169712D02*
X249936Y256541D01*
X249936Y269239D02*
X249936Y282334D01*
X249936Y294246D02*
X249936Y361057D01*
X249936Y379353D02*
X249936Y386064D01*
X249936Y393716D02*
X249936Y419100D01*
X256032Y258236D02*
X256032Y84582D01*
X256032Y262890D02*
X256032Y262890D01*
X256032Y267544D02*
X256032Y277892D01*
X256032Y294036D02*
X256032Y361267D01*
X256032Y379143D02*
X256032Y419100D01*
X262128Y280755D02*
X262128Y90678D01*
X262128Y288205D02*
X262128Y289322D01*
X262128Y302498D02*
X262128Y419100D01*
X268224Y283252D02*
X268224Y96774D01*
X268224Y299893D02*
X268224Y419100D01*
X274320Y241776D02*
X274320Y102870D01*
X274320Y256064D02*
X274320Y279162D01*
X274320Y295067D02*
X274320Y353903D01*
X274320Y362377D02*
X274320Y395194D01*
X274320Y407446D02*
X274320Y419100D01*
X280416Y126701D02*
X280416Y108966D01*
X280416Y130810D02*
X280416Y130810D01*
X280416Y134919D02*
X280416Y191599D01*
X280416Y214801D02*
X280416Y242197D01*
X280416Y255643D02*
X280416Y283252D01*
X280416Y288248D02*
X280416Y351552D01*
X280416Y364728D02*
X280416Y392498D01*
X280416Y410142D02*
X280416Y419100D01*
X286512Y123036D02*
X286512Y115062D01*
X286512Y130810D02*
X286512Y130810D01*
X286512Y138584D02*
X286512Y186977D01*
X286512Y219423D02*
X286512Y353145D01*
X286512Y360595D02*
X286512Y381085D01*
X286512Y388535D02*
X286512Y394686D01*
X286512Y407954D02*
X286512Y419100D01*
X292608Y125404D02*
X292608Y121158D01*
X292608Y130810D02*
X292608Y130810D01*
X292608Y136216D02*
X292608Y185293D01*
X292608Y221107D02*
X292608Y313495D01*
X292608Y319132D02*
X292608Y350282D01*
X292608Y363458D02*
X292608Y378222D01*
X292608Y391398D02*
X292608Y419100D01*
X298704Y185709D02*
X298704Y127254D01*
X298704Y220691D02*
X298704Y263787D01*
X298704Y277233D02*
X298704Y300890D01*
X298704Y307340D02*
X298704Y307340D01*
X298704Y323886D02*
X298704Y396465D01*
X298704Y402590D02*
X298704Y402590D01*
X298704Y408715D02*
X298704Y419100D01*
X304800Y188537D02*
X304800Y133350D01*
X304800Y217863D02*
X304800Y263366D01*
X304800Y277654D02*
X304800Y303200D01*
X304800Y307340D02*
X304800Y307340D01*
X304800Y321858D02*
X304800Y394916D01*
X304800Y402590D02*
X304800Y402590D01*
X304800Y410264D02*
X304800Y419100D01*
X310896Y196862D02*
X310896Y139446D01*
X310896Y209538D02*
X310896Y278607D01*
X310896Y290861D02*
X310896Y400059D01*
X310896Y402590D02*
X310896Y402590D01*
X310896Y405121D02*
X310896Y419100D01*
X316992Y155023D02*
X316992Y145542D01*
X316992Y179255D02*
X316992Y198250D01*
X316992Y208150D02*
X316992Y227145D01*
X316992Y251377D02*
X316992Y267925D01*
X316992Y301543D02*
X316992Y419100D01*
X323088Y190887D02*
X323088Y183575D01*
X323088Y215513D02*
X323088Y222825D01*
X323088Y255698D02*
X323088Y263011D01*
X323088Y306457D02*
X323088Y419100D01*
X329184Y189103D02*
X329184Y185046D01*
X329184Y217297D02*
X329184Y221354D01*
X329184Y257168D02*
X329184Y260486D01*
X329184Y308982D02*
X329184Y380762D01*
X329184Y393938D02*
X329184Y419100D01*
X335280Y190046D02*
X335280Y184417D01*
X335280Y216354D02*
X335280Y221983D01*
X335280Y256539D02*
X335280Y260096D01*
X335280Y309372D02*
X335280Y383113D01*
X335280Y391587D02*
X335280Y419100D01*
X341376Y194440D02*
X341376Y181287D01*
X341376Y211960D02*
X341376Y225113D01*
X341376Y253409D02*
X341376Y260696D01*
X341376Y308772D02*
X341376Y380850D01*
X341376Y393850D02*
X341376Y419100D01*
X347472Y234166D02*
X347472Y176022D01*
X347472Y244356D02*
X347472Y263221D01*
X347472Y306247D02*
X347472Y382605D01*
X347472Y392095D02*
X347472Y419100D01*
X353568Y190569D02*
X353568Y182118D01*
X353568Y215831D02*
X353568Y268433D01*
X353568Y301035D02*
X353568Y381061D01*
X353568Y393639D02*
X353568Y419100D01*
X359664Y382097D02*
X359664Y219850D01*
X359664Y392603D02*
X359664Y419100D01*
X365760Y272004D02*
X365760Y221107D01*
X365760Y284256D02*
X365760Y419100D01*
X371856Y248231D02*
X371856Y220265D01*
X371856Y262309D02*
X371856Y269308D01*
X371856Y286952D02*
X371856Y419100D01*
X377952Y248442D02*
X377952Y216833D01*
X377952Y262098D02*
X377952Y271496D01*
X377952Y284764D02*
X377952Y287147D01*
X377952Y294513D02*
X377952Y419100D01*
X384048Y284258D02*
X384048Y212598D01*
X384048Y297402D02*
X384048Y419100D01*
X390144Y410180D02*
X390144Y218694D01*
X396240Y224790D02*
X396240Y316454D01*
X396240Y328706D02*
X396240Y371064D01*
X396240Y383316D02*
X396240Y406468D01*
X402336Y235975D02*
X402336Y230886D01*
X402336Y251706D02*
X402336Y258268D01*
X402336Y275132D02*
X402336Y283668D01*
X402336Y300532D02*
X402336Y313758D01*
X402336Y331402D02*
X402336Y340115D01*
X402336Y355846D02*
X402336Y368368D01*
X402336Y390682D02*
X402336Y407740D01*
X408432Y253619D02*
X408432Y252547D01*
X408432Y305181D02*
X408432Y315946D01*
X408432Y329214D02*
X408432Y339273D01*
X408432Y356687D02*
X408432Y370556D01*
X408432Y393632D02*
X408432Y415798D01*
X414528Y252476D02*
X414528Y247270D01*
X414528Y306324D02*
X414528Y344550D01*
X414528Y351410D02*
X414528Y377922D01*
X414528Y391698D02*
X414528Y409702D01*
D18*
X138430Y306070D03*
X143510Y325120D03*
D19*
X212090Y307340D03*
X208280Y358140D03*
X299720Y307340D03*
X251460Y262890D03*
D18*
X187960Y180340D03*
X228600Y215900D03*
D19*
X101600Y135890D03*
D18*
X287020Y130810D03*
X181610Y345440D03*
X303530Y402590D03*
D19*
X215900Y299720D03*
X227426Y299624D03*
D21*
X208280Y219710D03*
X240030Y280210D03*
D19*
X176530Y298450D03*
X190500Y302984D03*
D21*
X241300Y205740D03*
D19*
X152400Y129730D03*
X214630Y157480D03*
X104140Y73660D03*
X208280Y162560D03*
X142240Y73660D03*
X144780Y123190D03*
D18*
X238760Y191770D03*
X189495Y131815D03*
X241300Y133350D03*
D23*
X223520Y131815D02*
X189495Y131815D01*
X223520Y131815D02*
X239765Y131815D01*
X241300Y133350D01*
X238760Y191770D02*
X233680Y191770D01*
X223520Y181610D02*
X223520Y131815D01*
X223520Y181610D02*
X233680Y191770D01*
D18*
X72390Y85090D03*
D23*
X189495Y99325D02*
X189495Y131815D01*
X143510Y85090D02*
X72390Y85090D01*
X143510Y85090D02*
X149860Y78740D01*
X168910Y78740D01*
X189495Y99325D01*
D21*
X236220Y200660D03*
D19*
X153670Y43180D03*
D24*
X292100Y384810D03*
X292100Y356870D03*
D21*
X252730Y288290D03*
X383540Y290830D03*
D24*
X342900Y387350D03*
X252730Y367030D03*
X330200Y387350D03*
X252730Y373380D03*
D25*
X243840Y389890D03*
D24*
X355600Y387350D03*
X279400Y358140D03*
X274320Y285750D03*
X269240Y290830D03*
X262890Y295910D03*
X256540Y284480D03*
M02*
