G04 EAGLE Gerber RS-274X export*
G75*
%MOMM*%
%FSLAX34Y34*%
%LPD*%
%INCopper Layer 3*%
%IPPOS*%
%AMOC8*
5,1,8,0,0,1.08239X$1,22.5*%
G01*
%ADD10C,0.177800*%
%ADD11C,1.422400*%
%ADD12C,3.450000*%
%ADD13C,2.400300*%
%ADD14C,1.600000*%
%ADD15C,1.905000*%
%ADD16C,2.667000*%
%ADD17C,1.930400*%
%ADD18C,0.850000*%
%ADD19C,0.600000*%
%ADD20C,0.304800*%
%ADD21C,4.013200*%
%ADD22C,0.400000*%
%ADD23C,0.403200*%
%ADD24C,0.504800*%


D10*
X16891Y187071D02*
X8509Y187071D01*
X8509Y183346D01*
X8509Y179946D02*
X16891Y177152D01*
X8509Y174358D01*
X10605Y175056D02*
X10605Y179247D01*
X16891Y170802D02*
X12933Y168008D01*
X16891Y165214D01*
X12933Y168008D02*
X8509Y168008D01*
X8509Y160858D02*
X8509Y157133D01*
X8509Y160858D02*
X16891Y160858D01*
X16891Y157133D01*
X13166Y158064D02*
X13166Y160858D01*
X16891Y152869D02*
X8509Y152869D01*
X16891Y152869D02*
X16891Y150540D01*
X16889Y150445D01*
X16883Y150350D01*
X16874Y150256D01*
X16860Y150162D01*
X16843Y150068D01*
X16822Y149976D01*
X16797Y149884D01*
X16768Y149794D01*
X16736Y149704D01*
X16700Y149616D01*
X16660Y149530D01*
X16618Y149445D01*
X16571Y149362D01*
X16521Y149281D01*
X16468Y149203D01*
X16412Y149126D01*
X16353Y149052D01*
X16291Y148980D01*
X16226Y148911D01*
X16158Y148844D01*
X16088Y148781D01*
X16014Y148720D01*
X15939Y148662D01*
X15861Y148608D01*
X15781Y148556D01*
X15699Y148508D01*
X15616Y148464D01*
X15530Y148422D01*
X15443Y148385D01*
X15354Y148351D01*
X15264Y148320D01*
X15173Y148293D01*
X15081Y148270D01*
X14988Y148251D01*
X14894Y148236D01*
X14800Y148224D01*
X14705Y148216D01*
X14610Y148212D01*
X14516Y148212D01*
X14421Y148216D01*
X14326Y148224D01*
X14232Y148236D01*
X14138Y148251D01*
X14045Y148270D01*
X13953Y148293D01*
X13862Y148320D01*
X13772Y148351D01*
X13683Y148385D01*
X13596Y148422D01*
X13510Y148464D01*
X13427Y148508D01*
X13345Y148556D01*
X13265Y148608D01*
X13187Y148662D01*
X13112Y148720D01*
X13038Y148781D01*
X12968Y148844D01*
X12900Y148911D01*
X12835Y148980D01*
X12773Y149052D01*
X12714Y149126D01*
X12658Y149203D01*
X12605Y149281D01*
X12555Y149362D01*
X12508Y149445D01*
X12466Y149530D01*
X12426Y149616D01*
X12390Y149704D01*
X12358Y149794D01*
X12329Y149884D01*
X12304Y149976D01*
X12283Y150068D01*
X12266Y150162D01*
X12252Y150256D01*
X12243Y150350D01*
X12237Y150445D01*
X12235Y150540D01*
X12234Y150540D02*
X12234Y152869D01*
X12234Y150075D02*
X8509Y148212D01*
X8509Y138942D02*
X8509Y136613D01*
X8511Y136518D01*
X8517Y136423D01*
X8526Y136329D01*
X8540Y136235D01*
X8557Y136141D01*
X8578Y136049D01*
X8603Y135957D01*
X8632Y135867D01*
X8664Y135777D01*
X8700Y135689D01*
X8740Y135603D01*
X8782Y135518D01*
X8829Y135435D01*
X8879Y135354D01*
X8932Y135276D01*
X8988Y135199D01*
X9047Y135125D01*
X9109Y135053D01*
X9174Y134984D01*
X9242Y134917D01*
X9312Y134854D01*
X9386Y134793D01*
X9461Y134735D01*
X9539Y134681D01*
X9619Y134629D01*
X9701Y134581D01*
X9784Y134537D01*
X9870Y134495D01*
X9957Y134458D01*
X10046Y134424D01*
X10136Y134393D01*
X10227Y134366D01*
X10319Y134343D01*
X10412Y134324D01*
X10506Y134309D01*
X10600Y134297D01*
X10695Y134289D01*
X10790Y134285D01*
X10884Y134285D01*
X10979Y134289D01*
X11074Y134297D01*
X11168Y134309D01*
X11262Y134324D01*
X11355Y134343D01*
X11447Y134366D01*
X11538Y134393D01*
X11628Y134424D01*
X11717Y134458D01*
X11804Y134495D01*
X11890Y134537D01*
X11973Y134581D01*
X12055Y134629D01*
X12135Y134681D01*
X12213Y134735D01*
X12288Y134793D01*
X12362Y134854D01*
X12432Y134917D01*
X12500Y134984D01*
X12565Y135053D01*
X12627Y135125D01*
X12686Y135199D01*
X12742Y135276D01*
X12795Y135354D01*
X12845Y135435D01*
X12892Y135518D01*
X12934Y135603D01*
X12974Y135689D01*
X13010Y135777D01*
X13042Y135867D01*
X13071Y135957D01*
X13096Y136049D01*
X13117Y136141D01*
X13134Y136235D01*
X13148Y136329D01*
X13157Y136423D01*
X13163Y136518D01*
X13165Y136613D01*
X16891Y136148D02*
X16891Y138942D01*
X16891Y136148D02*
X16889Y136063D01*
X16883Y135979D01*
X16874Y135894D01*
X16860Y135811D01*
X16843Y135728D01*
X16822Y135645D01*
X16797Y135564D01*
X16769Y135484D01*
X16737Y135406D01*
X16701Y135329D01*
X16662Y135253D01*
X16620Y135180D01*
X16574Y135109D01*
X16525Y135039D01*
X16473Y134972D01*
X16418Y134908D01*
X16360Y134846D01*
X16300Y134786D01*
X16236Y134730D01*
X16171Y134676D01*
X16102Y134626D01*
X16032Y134579D01*
X15959Y134535D01*
X15885Y134494D01*
X15809Y134457D01*
X15731Y134423D01*
X15652Y134393D01*
X15571Y134366D01*
X15490Y134343D01*
X15407Y134324D01*
X15324Y134309D01*
X15240Y134297D01*
X15155Y134289D01*
X15070Y134285D01*
X14986Y134285D01*
X14901Y134289D01*
X14816Y134297D01*
X14732Y134309D01*
X14649Y134324D01*
X14566Y134343D01*
X14485Y134366D01*
X14404Y134393D01*
X14325Y134423D01*
X14247Y134457D01*
X14171Y134494D01*
X14096Y134535D01*
X14024Y134579D01*
X13954Y134626D01*
X13885Y134676D01*
X13820Y134730D01*
X13756Y134786D01*
X13696Y134846D01*
X13638Y134908D01*
X13583Y134972D01*
X13531Y135039D01*
X13482Y135109D01*
X13436Y135180D01*
X13394Y135253D01*
X13355Y135329D01*
X13319Y135406D01*
X13287Y135484D01*
X13259Y135564D01*
X13234Y135645D01*
X13213Y135728D01*
X13196Y135811D01*
X13182Y135894D01*
X13173Y135979D01*
X13167Y136063D01*
X13165Y136148D01*
X13166Y136148D02*
X13166Y138010D01*
X12700Y125011D02*
X12892Y125009D01*
X13083Y125002D01*
X13275Y124990D01*
X13466Y124974D01*
X13657Y124953D01*
X13847Y124928D01*
X14036Y124898D01*
X14225Y124864D01*
X14413Y124825D01*
X14600Y124781D01*
X14786Y124733D01*
X14970Y124681D01*
X15153Y124624D01*
X15335Y124563D01*
X15515Y124498D01*
X15694Y124428D01*
X15871Y124354D01*
X16046Y124275D01*
X16219Y124193D01*
X16390Y124106D01*
X16559Y124015D01*
X16726Y123920D01*
X16890Y123821D01*
X17052Y123719D01*
X17212Y123612D01*
X17369Y123502D01*
X17523Y123387D01*
X17674Y123270D01*
X17823Y123148D01*
X12700Y125011D02*
X12508Y125009D01*
X12317Y125002D01*
X12125Y124990D01*
X11934Y124974D01*
X11743Y124953D01*
X11553Y124928D01*
X11364Y124898D01*
X11175Y124864D01*
X10987Y124825D01*
X10800Y124781D01*
X10614Y124733D01*
X10430Y124681D01*
X10247Y124624D01*
X10065Y124563D01*
X9885Y124498D01*
X9706Y124428D01*
X9529Y124354D01*
X9354Y124275D01*
X9181Y124193D01*
X9010Y124106D01*
X8841Y124015D01*
X8674Y123920D01*
X8510Y123821D01*
X8348Y123719D01*
X8188Y123612D01*
X8031Y123502D01*
X7877Y123387D01*
X7726Y123270D01*
X7577Y123148D01*
X11769Y118986D02*
X11769Y113398D01*
X8975Y116192D02*
X14563Y116192D01*
X8509Y108767D02*
X8509Y105973D01*
X8511Y105889D01*
X8516Y105806D01*
X8526Y105723D01*
X8539Y105640D01*
X8556Y105558D01*
X8576Y105477D01*
X8600Y105397D01*
X8628Y105318D01*
X8659Y105241D01*
X8693Y105165D01*
X8731Y105090D01*
X8773Y105017D01*
X8817Y104947D01*
X8865Y104878D01*
X8915Y104811D01*
X8969Y104747D01*
X9025Y104686D01*
X9085Y104626D01*
X9146Y104570D01*
X9210Y104516D01*
X9277Y104466D01*
X9346Y104418D01*
X9416Y104374D01*
X9489Y104332D01*
X9564Y104294D01*
X9640Y104260D01*
X9717Y104229D01*
X9796Y104201D01*
X9876Y104177D01*
X9957Y104157D01*
X10039Y104140D01*
X10122Y104127D01*
X10205Y104117D01*
X10288Y104112D01*
X10372Y104110D01*
X11303Y104110D01*
X11387Y104112D01*
X11470Y104118D01*
X11553Y104127D01*
X11636Y104140D01*
X11718Y104157D01*
X11799Y104177D01*
X11879Y104201D01*
X11958Y104229D01*
X12035Y104260D01*
X12111Y104294D01*
X12186Y104332D01*
X12259Y104374D01*
X12329Y104418D01*
X12398Y104466D01*
X12465Y104516D01*
X12529Y104570D01*
X12590Y104626D01*
X12650Y104686D01*
X12706Y104747D01*
X12760Y104811D01*
X12810Y104878D01*
X12858Y104947D01*
X12902Y105017D01*
X12944Y105090D01*
X12982Y105165D01*
X13016Y105241D01*
X13047Y105318D01*
X13075Y105397D01*
X13099Y105477D01*
X13119Y105558D01*
X13136Y105640D01*
X13149Y105723D01*
X13159Y105806D01*
X13164Y105889D01*
X13166Y105973D01*
X13166Y108767D01*
X16891Y108767D01*
X16891Y104110D01*
X16891Y100088D02*
X8509Y97294D01*
X16891Y94500D01*
X12700Y89085D02*
X12508Y89087D01*
X12316Y89094D01*
X12125Y89106D01*
X11934Y89122D01*
X11743Y89143D01*
X11553Y89168D01*
X11364Y89198D01*
X11175Y89232D01*
X10987Y89271D01*
X10800Y89315D01*
X10614Y89363D01*
X10430Y89415D01*
X10247Y89472D01*
X10065Y89533D01*
X9885Y89598D01*
X9706Y89668D01*
X9529Y89742D01*
X9354Y89821D01*
X9181Y89903D01*
X9010Y89990D01*
X8841Y90081D01*
X8674Y90176D01*
X8510Y90275D01*
X8348Y90377D01*
X8188Y90484D01*
X8031Y90594D01*
X7877Y90709D01*
X7726Y90826D01*
X7577Y90948D01*
X12700Y89085D02*
X12892Y89087D01*
X13084Y89094D01*
X13275Y89106D01*
X13466Y89122D01*
X13657Y89143D01*
X13847Y89168D01*
X14036Y89198D01*
X14225Y89232D01*
X14413Y89271D01*
X14600Y89315D01*
X14786Y89363D01*
X14970Y89415D01*
X15153Y89472D01*
X15335Y89533D01*
X15515Y89598D01*
X15694Y89668D01*
X15871Y89742D01*
X16046Y89821D01*
X16219Y89903D01*
X16390Y89990D01*
X16559Y90081D01*
X16726Y90176D01*
X16890Y90275D01*
X17052Y90377D01*
X17212Y90484D01*
X17369Y90594D01*
X17523Y90709D01*
X17674Y90826D01*
X17823Y90948D01*
D11*
X75260Y265230D03*
X75260Y240230D03*
X43260Y240230D03*
X43260Y265230D03*
D12*
X48260Y192530D03*
X48260Y312930D03*
D13*
X22860Y62738D03*
X180340Y62738D03*
D14*
X38227Y142748D03*
X63627Y142748D03*
X139573Y142748D03*
X164973Y142748D03*
X57150Y38100D03*
X69850Y12700D03*
X82550Y38100D03*
X95250Y12700D03*
X107950Y38100D03*
X120650Y12700D03*
X133350Y38100D03*
X146050Y12700D03*
D15*
X330200Y203200D03*
D16*
X366261Y203200D03*
X330200Y239261D03*
X294139Y203200D03*
X330200Y167139D03*
D17*
X414020Y292100D03*
X414020Y266700D03*
X76200Y406400D03*
X101600Y406400D03*
X127000Y406400D03*
X152400Y406400D03*
X177800Y406400D03*
X203200Y406400D03*
X228600Y406400D03*
X50800Y406400D03*
X25400Y406400D03*
D18*
X17780Y360680D03*
X120650Y306070D03*
D19*
X212090Y317500D03*
X219710Y331470D03*
D18*
X402590Y322580D03*
X143510Y383540D03*
D19*
X299636Y316314D03*
X238931Y260794D03*
X175260Y270510D03*
X97790Y223520D03*
X276860Y248920D03*
D18*
X189230Y161290D03*
X218440Y215900D03*
X238760Y180340D03*
D19*
X245110Y163830D03*
X231600Y161290D03*
D18*
X240030Y121920D03*
X406400Y243840D03*
X199390Y76200D03*
X26670Y119380D03*
X16510Y22860D03*
X24130Y234950D03*
X27940Y161290D03*
X397510Y415290D03*
X408940Y384810D03*
X280670Y401320D03*
X147320Y359410D03*
X95250Y325120D03*
X29210Y331470D03*
D20*
X92710Y281940D02*
X97636Y281940D01*
X92710Y281940D02*
X92710Y281940D01*
X105410Y281940D01*
X105410Y281940D01*
X97636Y281940D01*
X50799Y145249D02*
X50799Y140247D01*
X50799Y145249D02*
X48885Y149869D01*
X45348Y153406D01*
X40728Y155320D01*
X35726Y155320D01*
X33541Y154415D01*
X35419Y156293D01*
X36762Y159535D01*
X36762Y163045D01*
X35419Y166287D01*
X32937Y168769D01*
X29695Y170112D01*
X26185Y170112D01*
X22943Y168769D01*
X21985Y167811D01*
X21951Y168008D01*
X22657Y172103D01*
X21507Y173731D01*
X21949Y175056D01*
X22787Y176732D01*
X22647Y177152D01*
X22787Y177571D01*
X21949Y179247D01*
X21356Y181024D01*
X20961Y181222D01*
X20764Y181617D01*
X19561Y182018D01*
X22352Y184809D01*
X22352Y189333D01*
X19153Y192532D01*
X11430Y192532D01*
X11430Y354554D01*
X12783Y353201D01*
X16025Y351858D01*
X19535Y351858D01*
X22777Y353201D01*
X25259Y355683D01*
X26602Y358925D01*
X26602Y362435D01*
X25259Y365677D01*
X22777Y368159D01*
X19535Y369502D01*
X16025Y369502D01*
X12783Y368159D01*
X11430Y366806D01*
X11430Y401320D01*
X11910Y401800D01*
X13341Y398343D01*
X17343Y394341D01*
X22571Y392176D01*
X28229Y392176D01*
X33457Y394341D01*
X37459Y398343D01*
X38100Y399891D01*
X38741Y398343D01*
X42743Y394341D01*
X47971Y392176D01*
X53629Y392176D01*
X58857Y394341D01*
X62859Y398343D01*
X64051Y401221D01*
X64931Y399494D01*
X66150Y397816D01*
X67616Y396350D01*
X69294Y395131D01*
X71142Y394189D01*
X73115Y393548D01*
X75163Y393224D01*
X75184Y393224D01*
X75184Y405384D01*
X77216Y405384D01*
X77216Y393224D01*
X77237Y393224D01*
X79285Y393548D01*
X81258Y394189D01*
X83106Y395131D01*
X84784Y396350D01*
X86250Y397816D01*
X87469Y399494D01*
X88349Y401221D01*
X89541Y398343D01*
X93543Y394341D01*
X98771Y392176D01*
X104429Y392176D01*
X109657Y394341D01*
X113659Y398343D01*
X114300Y399891D01*
X114941Y398343D01*
X118943Y394341D01*
X124171Y392176D01*
X129829Y392176D01*
X135057Y394341D01*
X139059Y398343D01*
X139700Y399891D01*
X140341Y398343D01*
X144343Y394341D01*
X149571Y392176D01*
X155229Y392176D01*
X160457Y394341D01*
X164459Y398343D01*
X165100Y399891D01*
X165741Y398343D01*
X169743Y394341D01*
X174971Y392176D01*
X180629Y392176D01*
X185857Y394341D01*
X189859Y398343D01*
X190500Y399891D01*
X191141Y398343D01*
X195143Y394341D01*
X200371Y392176D01*
X206029Y392176D01*
X211257Y394341D01*
X215259Y398343D01*
X215900Y399891D01*
X216541Y398343D01*
X220543Y394341D01*
X225771Y392176D01*
X231429Y392176D01*
X236657Y394341D01*
X240659Y398343D01*
X242824Y403571D01*
X242824Y409229D01*
X240659Y414457D01*
X236657Y418459D01*
X235109Y419100D01*
X389539Y419100D01*
X388688Y417045D01*
X388688Y413535D01*
X390031Y410293D01*
X392513Y407811D01*
X395755Y406468D01*
X399265Y406468D01*
X402507Y407811D01*
X404989Y410293D01*
X406332Y413535D01*
X406332Y417045D01*
X405729Y418501D01*
X419100Y405130D01*
X419100Y305392D01*
X416849Y306324D01*
X411191Y306324D01*
X405963Y304159D01*
X401961Y300157D01*
X399796Y294929D01*
X399796Y289271D01*
X401961Y284043D01*
X405963Y280041D01*
X407511Y279400D01*
X405963Y278759D01*
X401961Y274757D01*
X399796Y269529D01*
X399796Y263871D01*
X401961Y258643D01*
X405963Y254641D01*
X411191Y252476D01*
X416849Y252476D01*
X419100Y253408D01*
X419100Y247650D01*
X415222Y243772D01*
X415222Y245595D01*
X413879Y248837D01*
X411397Y251319D01*
X408155Y252662D01*
X404645Y252662D01*
X401403Y251319D01*
X398921Y248837D01*
X397578Y245595D01*
X397578Y242085D01*
X398921Y238843D01*
X401403Y236361D01*
X404645Y235018D01*
X406468Y235018D01*
X382424Y210974D01*
X381442Y213343D01*
X376405Y218381D01*
X369823Y221107D01*
X362699Y221107D01*
X356118Y218381D01*
X351080Y213343D01*
X348354Y206762D01*
X348354Y199638D01*
X351080Y193057D01*
X356118Y188019D01*
X358488Y187038D01*
X346362Y174912D01*
X345381Y177282D01*
X340343Y182320D01*
X333762Y185046D01*
X326638Y185046D01*
X320057Y182320D01*
X315019Y177282D01*
X312293Y170701D01*
X312293Y163577D01*
X315019Y156995D01*
X320057Y151958D01*
X322426Y150976D01*
X182880Y11430D01*
X158622Y11430D01*
X158622Y15201D01*
X156708Y19821D01*
X153171Y23358D01*
X148551Y25272D01*
X143549Y25272D01*
X138929Y23358D01*
X135392Y19821D01*
X133478Y15201D01*
X133478Y11430D01*
X133222Y11430D01*
X133222Y15201D01*
X131308Y19821D01*
X127771Y23358D01*
X123151Y25272D01*
X118149Y25272D01*
X113529Y23358D01*
X109992Y19821D01*
X108078Y15201D01*
X108078Y11430D01*
X107822Y11430D01*
X107822Y15201D01*
X105908Y19821D01*
X102371Y23358D01*
X97751Y25272D01*
X92749Y25272D01*
X88129Y23358D01*
X84592Y19821D01*
X82678Y15201D01*
X82678Y11430D01*
X82422Y11430D01*
X82422Y15201D01*
X80508Y19821D01*
X76971Y23358D01*
X72351Y25272D01*
X67349Y25272D01*
X62729Y23358D01*
X59192Y19821D01*
X57278Y15201D01*
X57278Y11430D01*
X25400Y11430D01*
X21466Y15364D01*
X21507Y15381D01*
X23989Y17863D01*
X25332Y21105D01*
X25332Y24615D01*
X23989Y27857D01*
X21507Y30339D01*
X18265Y31682D01*
X14755Y31682D01*
X11513Y30339D01*
X11430Y30256D01*
X11430Y50730D01*
X13472Y48688D01*
X19563Y46165D01*
X26157Y46165D01*
X32248Y48688D01*
X36910Y53350D01*
X39433Y59441D01*
X39433Y66035D01*
X36910Y72126D01*
X32248Y76788D01*
X26157Y79311D01*
X19563Y79311D01*
X13472Y76788D01*
X11430Y74746D01*
X11430Y83624D01*
X15067Y83624D01*
X19516Y85242D01*
X19516Y85242D01*
X21330Y86763D01*
X23064Y88216D01*
X23461Y92722D01*
X22455Y93923D01*
X22787Y94919D01*
X21600Y97294D01*
X22787Y99669D01*
X22134Y101630D01*
X22352Y101848D01*
X22352Y111029D01*
X19737Y113643D01*
X19834Y113740D01*
X21673Y111901D01*
X24915Y110558D01*
X25617Y110558D01*
X23622Y105743D01*
X23622Y97457D01*
X26793Y89802D01*
X32652Y83943D01*
X40307Y80772D01*
X48593Y80772D01*
X56248Y83943D01*
X62107Y89802D01*
X65278Y97457D01*
X65278Y105743D01*
X62107Y113398D01*
X56248Y119257D01*
X48593Y122428D01*
X40307Y122428D01*
X35492Y120433D01*
X35492Y121135D01*
X34149Y124377D01*
X31667Y126859D01*
X28425Y128202D01*
X24915Y128202D01*
X21822Y126921D01*
X21330Y127333D01*
X19516Y128854D01*
X19516Y128854D01*
X17989Y129409D01*
X19555Y129918D01*
X19555Y129918D01*
X22352Y133768D01*
X22352Y141204D01*
X19488Y144068D01*
X22352Y148009D01*
X22352Y154402D01*
X22943Y153811D01*
X26185Y152468D01*
X29695Y152468D01*
X30502Y152802D01*
X27569Y149869D01*
X25655Y145249D01*
X25655Y140247D01*
X27569Y135627D01*
X31106Y132090D01*
X35726Y130176D01*
X40728Y130176D01*
X45348Y132090D01*
X48885Y135627D01*
X50799Y140247D01*
X250936Y388479D02*
X250936Y391301D01*
X249856Y393910D01*
X247860Y395906D01*
X245251Y396986D01*
X242429Y396986D01*
X239820Y395906D01*
X237824Y393910D01*
X236744Y391301D01*
X236744Y388479D01*
X237824Y385870D01*
X239820Y383874D01*
X242429Y382794D01*
X245251Y382794D01*
X247860Y383874D01*
X249856Y385870D01*
X250936Y388479D01*
X261580Y289322D02*
X262734Y289322D01*
X263655Y287098D01*
X265508Y285245D01*
X267790Y284300D01*
X268735Y282018D01*
X270588Y280165D01*
X273010Y279162D01*
X275630Y279162D01*
X278052Y280165D01*
X279905Y282018D01*
X280908Y284440D01*
X280908Y287060D01*
X279905Y289482D01*
X278052Y291335D01*
X275770Y292280D01*
X274825Y294562D01*
X272972Y296415D01*
X270550Y297418D01*
X269396Y297418D01*
X268475Y299642D01*
X266622Y301495D01*
X264200Y302498D01*
X261580Y302498D01*
X259158Y301495D01*
X257305Y299642D01*
X256302Y297220D01*
X256302Y294600D01*
X256717Y293597D01*
X256453Y293861D01*
X254037Y294862D01*
X251423Y294862D01*
X249007Y293861D01*
X247159Y292013D01*
X246158Y289597D01*
X246158Y286983D01*
X247159Y284567D01*
X249007Y282719D01*
X250373Y282153D01*
X250955Y280748D01*
X252808Y278895D01*
X255230Y277892D01*
X257850Y277892D01*
X260272Y278895D01*
X262125Y280748D01*
X263128Y283170D01*
X263128Y285790D01*
X262125Y288212D01*
X260615Y289721D01*
X261580Y289322D01*
X81212Y86845D02*
X81212Y83335D01*
X81212Y86845D02*
X79869Y90087D01*
X77387Y92569D01*
X74145Y93912D01*
X70635Y93912D01*
X67393Y92569D01*
X64911Y90087D01*
X63568Y86845D01*
X63568Y83335D01*
X64911Y80093D01*
X67393Y77611D01*
X70635Y76268D01*
X74145Y76268D01*
X77387Y77611D01*
X79869Y80093D01*
X81212Y83335D01*
X198317Y130060D02*
X198317Y133570D01*
X196974Y136812D01*
X194492Y139294D01*
X191250Y140637D01*
X187740Y140637D01*
X184498Y139294D01*
X182016Y136812D01*
X180673Y133570D01*
X180673Y130060D01*
X182016Y126818D01*
X184498Y124336D01*
X187740Y122993D01*
X191250Y122993D01*
X194492Y124336D01*
X196974Y126818D01*
X198317Y130060D01*
X109172Y134384D02*
X109172Y137396D01*
X108019Y140179D01*
X105889Y142309D01*
X103106Y143462D01*
X100094Y143462D01*
X97311Y142309D01*
X95181Y140179D01*
X94028Y137396D01*
X94028Y134384D01*
X95181Y131601D01*
X97311Y129471D01*
X100094Y128318D01*
X103106Y128318D01*
X105889Y129471D01*
X108019Y131601D01*
X109172Y134384D01*
X152332Y323365D02*
X152332Y326875D01*
X150989Y330117D01*
X148507Y332599D01*
X145265Y333942D01*
X141755Y333942D01*
X138513Y332599D01*
X136031Y330117D01*
X134688Y326875D01*
X134688Y323365D01*
X136031Y320123D01*
X138513Y317641D01*
X141755Y316298D01*
X145265Y316298D01*
X148507Y317641D01*
X150989Y320123D01*
X152332Y323365D01*
X147252Y307825D02*
X147252Y304315D01*
X147252Y307825D02*
X145909Y311067D01*
X143427Y313549D01*
X140185Y314892D01*
X136675Y314892D01*
X133433Y313549D01*
X130951Y311067D01*
X129608Y307825D01*
X129608Y304315D01*
X130951Y301073D01*
X133433Y298591D01*
X136675Y297248D01*
X140185Y297248D01*
X143427Y298591D01*
X145909Y301073D01*
X147252Y304315D01*
X406400Y347980D02*
X406400Y355754D01*
X406400Y347980D02*
X406400Y347980D01*
X406400Y355754D01*
X405634Y355754D01*
X404132Y355455D01*
X402718Y354869D01*
X401444Y354018D01*
X400362Y352936D01*
X399511Y351662D01*
X398925Y350248D01*
X398626Y348746D01*
X398626Y347980D01*
X406400Y347980D01*
X406400Y347980D01*
X398626Y347980D01*
X398626Y347214D01*
X398925Y345712D01*
X399511Y344298D01*
X400362Y343024D01*
X401444Y341942D01*
X402718Y341091D01*
X404132Y340505D01*
X405634Y340206D01*
X406400Y340206D01*
X406400Y347980D01*
X406400Y347980D01*
X406400Y340206D01*
X407166Y340206D01*
X408668Y340505D01*
X410082Y341091D01*
X411356Y341942D01*
X412438Y343024D01*
X413289Y344298D01*
X413875Y345712D01*
X414174Y347214D01*
X414174Y347980D01*
X406400Y347980D01*
X406400Y347980D01*
X414174Y347980D01*
X414174Y348746D01*
X413875Y350248D01*
X413289Y351662D01*
X412438Y352936D01*
X411356Y354018D01*
X410082Y354869D01*
X408668Y355455D01*
X407166Y355754D01*
X406400Y355754D01*
X104072Y326875D02*
X104072Y323365D01*
X104072Y326875D02*
X102729Y330117D01*
X100247Y332599D01*
X97005Y333942D01*
X93495Y333942D01*
X90253Y332599D01*
X87771Y330117D01*
X86428Y326875D01*
X86428Y323365D01*
X87771Y320123D01*
X90253Y317641D01*
X93495Y316298D01*
X97005Y316298D01*
X100247Y317641D01*
X102729Y320123D01*
X104072Y323365D01*
X156142Y357655D02*
X156142Y361165D01*
X154799Y364407D01*
X152317Y366889D01*
X149075Y368232D01*
X145565Y368232D01*
X142323Y366889D01*
X139841Y364407D01*
X138498Y361165D01*
X138498Y357655D01*
X139841Y354413D01*
X142323Y351931D01*
X145565Y350588D01*
X149075Y350588D01*
X152317Y351931D01*
X154799Y354413D01*
X156142Y357655D01*
X289492Y399565D02*
X289492Y403075D01*
X288149Y406317D01*
X285667Y408799D01*
X282425Y410142D01*
X278915Y410142D01*
X275673Y408799D01*
X273191Y406317D01*
X271848Y403075D01*
X271848Y399565D01*
X273191Y396323D01*
X275673Y393841D01*
X278915Y392498D01*
X282425Y392498D01*
X285667Y393841D01*
X288149Y396323D01*
X289492Y399565D01*
X417762Y386565D02*
X417762Y383055D01*
X417762Y386565D02*
X416419Y389807D01*
X413937Y392289D01*
X410695Y393632D01*
X407185Y393632D01*
X403943Y392289D01*
X401461Y389807D01*
X400118Y386565D01*
X400118Y384581D01*
X398908Y384079D01*
X397634Y383228D01*
X396552Y382146D01*
X395701Y380872D01*
X395115Y379458D01*
X394816Y377956D01*
X394816Y377190D01*
X402590Y377190D01*
X402590Y377190D01*
X394816Y377190D01*
X394816Y376424D01*
X395115Y374922D01*
X395701Y373508D01*
X396552Y372234D01*
X397634Y371152D01*
X398908Y370301D01*
X400322Y369715D01*
X401824Y369416D01*
X402590Y369416D01*
X402590Y377190D01*
X402590Y377190D01*
X402590Y369416D01*
X403356Y369416D01*
X404858Y369715D01*
X406272Y370301D01*
X407546Y371152D01*
X408628Y372234D01*
X409479Y373508D01*
X410065Y374922D01*
X410277Y375988D01*
X410695Y375988D01*
X413937Y377331D01*
X416419Y379813D01*
X417762Y383055D01*
X411412Y324335D02*
X411412Y320825D01*
X411412Y324335D02*
X410069Y327577D01*
X407587Y330059D01*
X404345Y331402D01*
X400835Y331402D01*
X397593Y330059D01*
X395111Y327577D01*
X393768Y324335D01*
X393768Y320825D01*
X395111Y317583D01*
X397593Y315101D01*
X400835Y313758D01*
X404345Y313758D01*
X407587Y315101D01*
X410069Y317583D01*
X411412Y320825D01*
X227282Y329964D02*
X227282Y332976D01*
X226129Y335759D01*
X223999Y337889D01*
X221216Y339042D01*
X218204Y339042D01*
X215421Y337889D01*
X213291Y335759D01*
X213072Y335232D01*
X210584Y335232D01*
X207801Y334079D01*
X205671Y331949D01*
X204518Y329166D01*
X204518Y326154D01*
X205671Y323371D01*
X206462Y322580D01*
X205671Y321789D01*
X204518Y319006D01*
X204518Y315994D01*
X205671Y313211D01*
X206462Y312420D01*
X205671Y311629D01*
X204518Y308846D01*
X204518Y305834D01*
X205671Y303051D01*
X207801Y300921D01*
X208328Y300702D01*
X208328Y298214D01*
X209481Y295431D01*
X211611Y293301D01*
X214394Y292148D01*
X217406Y292148D01*
X220189Y293301D01*
X221615Y294727D01*
X223137Y293205D01*
X225920Y292052D01*
X228932Y292052D01*
X229648Y292348D01*
X229648Y292063D01*
X230649Y289647D01*
X230736Y289560D01*
X229379Y288203D01*
X228378Y285787D01*
X228378Y283173D01*
X229379Y280757D01*
X231227Y278909D01*
X233643Y277908D01*
X233870Y277908D01*
X234459Y276487D01*
X236307Y274639D01*
X238723Y273638D01*
X241337Y273638D01*
X243753Y274639D01*
X245601Y276487D01*
X246602Y278903D01*
X246602Y281517D01*
X245601Y283933D01*
X243753Y285781D01*
X241337Y286782D01*
X241110Y286782D01*
X240521Y288203D01*
X240434Y288290D01*
X241791Y289647D01*
X242792Y292063D01*
X242792Y294677D01*
X241791Y297093D01*
X240363Y298521D01*
X241043Y300162D01*
X241043Y302777D01*
X240042Y305192D01*
X238193Y307041D01*
X235778Y308041D01*
X233163Y308041D01*
X230748Y307041D01*
X230326Y306619D01*
X228932Y307196D01*
X225920Y307196D01*
X223137Y306043D01*
X221711Y304617D01*
X220189Y306139D01*
X219662Y306358D01*
X219662Y308846D01*
X218509Y311629D01*
X217718Y312420D01*
X218509Y313211D01*
X219662Y315994D01*
X219662Y319006D01*
X218509Y321789D01*
X217718Y322580D01*
X218509Y323371D01*
X218728Y323898D01*
X221216Y323898D01*
X223999Y325051D01*
X226129Y327181D01*
X227282Y329964D01*
X312046Y206762D02*
X312046Y199638D01*
X312046Y206762D02*
X309320Y213343D01*
X304282Y218381D01*
X297701Y221107D01*
X290577Y221107D01*
X283995Y218381D01*
X278958Y213343D01*
X276232Y206762D01*
X276232Y199638D01*
X278958Y193057D01*
X283995Y188019D01*
X290577Y185293D01*
X297701Y185293D01*
X304282Y188019D01*
X309320Y193057D01*
X312046Y199638D01*
X344297Y200396D02*
X344297Y206004D01*
X342151Y211185D01*
X338185Y215151D01*
X333004Y217297D01*
X327396Y217297D01*
X322215Y215151D01*
X318249Y211185D01*
X316103Y206004D01*
X316103Y200396D01*
X318249Y195215D01*
X322215Y191249D01*
X327396Y189103D01*
X333004Y189103D01*
X338185Y191249D01*
X342151Y195215D01*
X344297Y200396D01*
X145922Y40601D02*
X145922Y35599D01*
X145922Y40601D02*
X144008Y45221D01*
X140471Y48758D01*
X135851Y50672D01*
X130849Y50672D01*
X126229Y48758D01*
X122692Y45221D01*
X120778Y40601D01*
X120778Y35599D01*
X122692Y30979D01*
X126229Y27442D01*
X130849Y25528D01*
X135851Y25528D01*
X140471Y27442D01*
X144008Y30979D01*
X145922Y35599D01*
X95122Y35599D02*
X95122Y40601D01*
X93208Y45221D01*
X89671Y48758D01*
X85051Y50672D01*
X80049Y50672D01*
X75429Y48758D01*
X71892Y45221D01*
X69978Y40601D01*
X69978Y35599D01*
X71892Y30979D01*
X75429Y27442D01*
X80049Y25528D01*
X85051Y25528D01*
X89671Y27442D01*
X93208Y30979D01*
X95122Y35599D01*
X86944Y262906D02*
X86944Y267554D01*
X85165Y271848D01*
X81878Y275135D01*
X77584Y276914D01*
X72936Y276914D01*
X68642Y275135D01*
X65355Y271848D01*
X63576Y267554D01*
X63576Y262906D01*
X65355Y258612D01*
X68642Y255325D01*
X72936Y253546D01*
X77584Y253546D01*
X81878Y255325D01*
X85165Y258612D01*
X86944Y262906D01*
X86944Y242554D02*
X86944Y237906D01*
X86944Y242554D02*
X85165Y246848D01*
X81878Y250135D01*
X77584Y251914D01*
X72936Y251914D01*
X68642Y250135D01*
X65355Y246848D01*
X63576Y242554D01*
X63576Y237906D01*
X65355Y233612D01*
X68642Y230325D01*
X72936Y228546D01*
X77584Y228546D01*
X81878Y230325D01*
X85165Y233612D01*
X86944Y237906D01*
X54944Y237906D02*
X54944Y242554D01*
X53165Y246848D01*
X49878Y250135D01*
X45584Y251914D01*
X40936Y251914D01*
X36642Y250135D01*
X33355Y246848D01*
X31576Y242554D01*
X31576Y239980D01*
X29127Y242429D01*
X25885Y243772D01*
X22375Y243772D01*
X19133Y242429D01*
X16651Y239947D01*
X15308Y236705D01*
X15308Y233195D01*
X16651Y229953D01*
X19133Y227471D01*
X22375Y226128D01*
X25885Y226128D01*
X29127Y227471D01*
X31609Y229953D01*
X32952Y233195D01*
X32952Y234584D01*
X33355Y233612D01*
X36642Y230325D01*
X40936Y228546D01*
X45584Y228546D01*
X49878Y230325D01*
X53165Y233612D01*
X54944Y237906D01*
X54944Y262906D02*
X54944Y267554D01*
X53165Y271848D01*
X49878Y275135D01*
X45584Y276914D01*
X40936Y276914D01*
X36642Y275135D01*
X33355Y271848D01*
X31576Y267554D01*
X31576Y262906D01*
X33355Y258612D01*
X36642Y255325D01*
X40936Y253546D01*
X45584Y253546D01*
X49878Y255325D01*
X53165Y258612D01*
X54944Y262906D01*
X70082Y196871D02*
X70082Y188189D01*
X70082Y196871D02*
X66760Y204891D01*
X60621Y211030D01*
X52601Y214352D01*
X43919Y214352D01*
X35899Y211030D01*
X29760Y204891D01*
X26438Y196871D01*
X26438Y188189D01*
X29760Y180169D01*
X35899Y174030D01*
X43919Y170708D01*
X52601Y170708D01*
X60621Y174030D01*
X66760Y180169D01*
X70082Y188189D01*
X70082Y308589D02*
X70082Y317271D01*
X66760Y325291D01*
X60621Y331430D01*
X52601Y334752D01*
X43919Y334752D01*
X38032Y332313D01*
X38032Y333225D01*
X36689Y336467D01*
X34207Y338949D01*
X30965Y340292D01*
X27455Y340292D01*
X24213Y338949D01*
X21731Y336467D01*
X20388Y333225D01*
X20388Y329715D01*
X21731Y326473D01*
X24213Y323991D01*
X27455Y322648D01*
X28665Y322648D01*
X26438Y317271D01*
X26438Y308589D01*
X29760Y300569D01*
X35899Y294430D01*
X43919Y291108D01*
X52601Y291108D01*
X60621Y294430D01*
X66760Y300569D01*
X70082Y308589D01*
X76199Y145249D02*
X76199Y140247D01*
X76199Y145249D02*
X74285Y149869D01*
X70748Y153406D01*
X66128Y155320D01*
X61126Y155320D01*
X56506Y153406D01*
X52969Y149869D01*
X51055Y145249D01*
X51055Y140247D01*
X52969Y135627D01*
X56506Y132090D01*
X61126Y130176D01*
X66128Y130176D01*
X70748Y132090D01*
X74285Y135627D01*
X76199Y140247D01*
X69722Y40601D02*
X69722Y35599D01*
X69722Y40601D02*
X67808Y45221D01*
X64271Y48758D01*
X59651Y50672D01*
X54649Y50672D01*
X50029Y48758D01*
X46492Y45221D01*
X44578Y40601D01*
X44578Y35599D01*
X46492Y30979D01*
X50029Y27442D01*
X54649Y25528D01*
X59651Y25528D01*
X64271Y27442D01*
X67808Y30979D01*
X69722Y35599D01*
X120522Y35599D02*
X120522Y40601D01*
X118608Y45221D01*
X115071Y48758D01*
X110451Y50672D01*
X105449Y50672D01*
X100829Y48758D01*
X97292Y45221D01*
X95378Y40601D01*
X95378Y35599D01*
X97292Y30979D01*
X100829Y27442D01*
X105449Y25528D01*
X110451Y25528D01*
X115071Y27442D01*
X118608Y30979D01*
X120522Y35599D01*
X179578Y97457D02*
X179578Y105743D01*
X176407Y113398D01*
X170548Y119257D01*
X162893Y122428D01*
X154607Y122428D01*
X152257Y121455D01*
X152352Y121684D01*
X152352Y122158D01*
X153906Y122158D01*
X156689Y123311D01*
X158819Y125441D01*
X159972Y128224D01*
X159972Y131212D01*
X162472Y130176D01*
X167474Y130176D01*
X172094Y132090D01*
X175631Y135627D01*
X177545Y140247D01*
X177545Y145249D01*
X175631Y149869D01*
X172094Y153406D01*
X167474Y155320D01*
X162472Y155320D01*
X157852Y153406D01*
X154315Y149869D01*
X152401Y145249D01*
X152401Y140247D01*
X153621Y137302D01*
X150925Y137302D01*
X152145Y140247D01*
X152145Y145249D01*
X150231Y149869D01*
X146694Y153406D01*
X142074Y155320D01*
X137072Y155320D01*
X132452Y153406D01*
X128915Y149869D01*
X127001Y145249D01*
X127001Y140247D01*
X128915Y135627D01*
X132452Y132090D01*
X137072Y130176D01*
X141859Y130176D01*
X140491Y129609D01*
X138361Y127479D01*
X137208Y124696D01*
X137208Y121684D01*
X138361Y118901D01*
X140491Y116771D01*
X143274Y115618D01*
X143313Y115618D01*
X141093Y113398D01*
X137922Y105743D01*
X137922Y97457D01*
X141093Y89802D01*
X146952Y83943D01*
X154607Y80772D01*
X162893Y80772D01*
X170548Y83943D01*
X176407Y89802D01*
X179578Y97457D01*
X348107Y235699D02*
X348107Y242823D01*
X345381Y249405D01*
X340343Y254442D01*
X333762Y257168D01*
X326638Y257168D01*
X320057Y254442D01*
X315019Y249405D01*
X312293Y242823D01*
X312293Y235699D01*
X315019Y229118D01*
X320057Y224080D01*
X326638Y221354D01*
X333762Y221354D01*
X340343Y224080D01*
X345381Y229118D01*
X348107Y235699D01*
X129472Y304315D02*
X129472Y307825D01*
X128129Y311067D01*
X125647Y313549D01*
X122405Y314892D01*
X118895Y314892D01*
X115653Y313549D01*
X113171Y311067D01*
X111828Y307825D01*
X111828Y304315D01*
X113171Y301073D01*
X115653Y298591D01*
X118895Y297248D01*
X122405Y297248D01*
X125647Y298591D01*
X128129Y301073D01*
X129472Y304315D01*
X152332Y381785D02*
X152332Y385295D01*
X150989Y388537D01*
X148507Y391019D01*
X145265Y392362D01*
X141755Y392362D01*
X138513Y391019D01*
X136031Y388537D01*
X134688Y385295D01*
X134688Y381785D01*
X136031Y378543D01*
X138513Y376061D01*
X141755Y374718D01*
X145265Y374718D01*
X148507Y376061D01*
X150989Y378543D01*
X152332Y381785D01*
X307208Y317820D02*
X307208Y314807D01*
X307208Y317820D02*
X306056Y320603D01*
X303926Y322733D01*
X301143Y323886D01*
X298130Y323886D01*
X295347Y322733D01*
X293217Y320603D01*
X292064Y317820D01*
X292064Y314807D01*
X293217Y312024D01*
X293457Y311785D01*
X293301Y311629D01*
X292148Y308846D01*
X292148Y305834D01*
X293301Y303051D01*
X295431Y300921D01*
X298214Y299768D01*
X301226Y299768D01*
X304009Y300921D01*
X306139Y303051D01*
X307292Y305834D01*
X307292Y308846D01*
X306139Y311629D01*
X305900Y311869D01*
X306056Y312024D01*
X307208Y314807D01*
X243220Y267213D02*
X240437Y268366D01*
X237425Y268366D01*
X234642Y267213D01*
X232512Y265083D01*
X231359Y262300D01*
X231359Y259288D01*
X232512Y256505D01*
X234642Y254375D01*
X237425Y253222D01*
X240437Y253222D01*
X243220Y254375D01*
X245350Y256505D01*
X245874Y257768D01*
X247171Y256471D01*
X249954Y255318D01*
X252966Y255318D01*
X255749Y256471D01*
X257879Y258601D01*
X259032Y261384D01*
X259032Y264396D01*
X257879Y267179D01*
X255749Y269309D01*
X252966Y270462D01*
X249954Y270462D01*
X247171Y269309D01*
X245041Y267179D01*
X244518Y265916D01*
X243220Y267213D01*
X182832Y269004D02*
X182832Y272016D01*
X181679Y274799D01*
X179549Y276929D01*
X176766Y278082D01*
X173754Y278082D01*
X170971Y276929D01*
X168841Y274799D01*
X167688Y272016D01*
X167688Y269004D01*
X168841Y266221D01*
X170971Y264091D01*
X173754Y262938D01*
X176766Y262938D01*
X179549Y264091D01*
X181679Y266221D01*
X182832Y269004D01*
X105362Y225026D02*
X105362Y222014D01*
X105362Y225026D02*
X104209Y227809D01*
X102079Y229939D01*
X99296Y231092D01*
X96284Y231092D01*
X93501Y229939D01*
X91371Y227809D01*
X90218Y225026D01*
X90218Y222014D01*
X91371Y219231D01*
X93501Y217101D01*
X96284Y215948D01*
X99296Y215948D01*
X102079Y217101D01*
X104209Y219231D01*
X105362Y222014D01*
X284432Y247414D02*
X284432Y250426D01*
X283279Y253209D01*
X281149Y255339D01*
X278366Y256492D01*
X275354Y256492D01*
X272571Y255339D01*
X270441Y253209D01*
X269288Y250426D01*
X269288Y247414D01*
X270441Y244631D01*
X272571Y242501D01*
X275354Y241348D01*
X278366Y241348D01*
X281149Y242501D01*
X283279Y244631D01*
X284432Y247414D01*
X198052Y163045D02*
X198052Y159535D01*
X198052Y163045D02*
X196709Y166287D01*
X194227Y168769D01*
X190985Y170112D01*
X187475Y170112D01*
X184233Y168769D01*
X181751Y166287D01*
X180408Y163045D01*
X180408Y159535D01*
X181751Y156293D01*
X184233Y153811D01*
X187475Y152468D01*
X190985Y152468D01*
X194227Y153811D01*
X196709Y156293D01*
X198052Y159535D01*
X247582Y178585D02*
X247582Y182095D01*
X246239Y185337D01*
X245521Y186055D01*
X246239Y186773D01*
X247582Y190015D01*
X247582Y193525D01*
X246239Y196767D01*
X243757Y199249D01*
X243280Y199447D01*
X245023Y200169D01*
X246871Y202017D01*
X247872Y204433D01*
X247872Y207047D01*
X246871Y209463D01*
X245023Y211311D01*
X242607Y212312D01*
X239993Y212312D01*
X237577Y211311D01*
X235729Y209463D01*
X234782Y207178D01*
X232497Y206231D01*
X230649Y204383D01*
X229648Y201967D01*
X229648Y199353D01*
X230649Y196937D01*
X231146Y196440D01*
X229938Y193525D01*
X229938Y190015D01*
X231281Y186773D01*
X231999Y186055D01*
X231281Y185337D01*
X229938Y182095D01*
X229938Y178585D01*
X231281Y175343D01*
X233763Y172861D01*
X237005Y171518D01*
X240515Y171518D01*
X243757Y172861D01*
X246239Y175343D01*
X247582Y178585D01*
X252682Y165336D02*
X252682Y162324D01*
X252682Y165336D02*
X251529Y168119D01*
X249399Y170249D01*
X246616Y171402D01*
X243604Y171402D01*
X240821Y170249D01*
X238691Y168119D01*
X237750Y165848D01*
X235889Y167709D01*
X233106Y168862D01*
X230094Y168862D01*
X227311Y167709D01*
X225181Y165579D01*
X224028Y162796D01*
X224028Y159784D01*
X225181Y157001D01*
X227311Y154871D01*
X230094Y153718D01*
X233106Y153718D01*
X235889Y154871D01*
X238019Y157001D01*
X238960Y159272D01*
X240821Y157411D01*
X243604Y156258D01*
X246616Y156258D01*
X249399Y157411D01*
X251529Y159541D01*
X252682Y162324D01*
X248852Y123675D02*
X248852Y120165D01*
X248852Y123675D02*
X247509Y126917D01*
X247426Y127000D01*
X248779Y128353D01*
X250122Y131595D01*
X250122Y135105D01*
X248779Y138347D01*
X246297Y140829D01*
X243055Y142172D01*
X239545Y142172D01*
X236303Y140829D01*
X233821Y138347D01*
X232478Y135105D01*
X232478Y131595D01*
X233821Y128353D01*
X233904Y128270D01*
X232551Y126917D01*
X231208Y123675D01*
X231208Y120165D01*
X231428Y119634D01*
X222429Y119634D01*
X213374Y115883D01*
X206443Y108952D01*
X202692Y99897D01*
X202692Y90095D01*
X206030Y82036D01*
X204387Y83679D01*
X201145Y85022D01*
X197635Y85022D01*
X194393Y83679D01*
X191911Y81197D01*
X190568Y77955D01*
X190568Y75948D01*
X189728Y76788D01*
X183637Y79311D01*
X177043Y79311D01*
X170952Y76788D01*
X166290Y72126D01*
X163767Y66035D01*
X163767Y59441D01*
X166290Y53350D01*
X170952Y48688D01*
X177043Y46165D01*
X183637Y46165D01*
X189728Y48688D01*
X194390Y53350D01*
X196913Y59441D01*
X196913Y66035D01*
X196092Y68017D01*
X197635Y67378D01*
X201145Y67378D01*
X204387Y68721D01*
X206869Y71203D01*
X208212Y74445D01*
X208212Y77955D01*
X207282Y80201D01*
X213374Y74109D01*
X222429Y70358D01*
X232231Y70358D01*
X241286Y74109D01*
X248217Y81040D01*
X251968Y90095D01*
X251968Y99897D01*
X248217Y108952D01*
X243402Y113768D01*
X245027Y114441D01*
X247509Y116923D01*
X248852Y120165D01*
X105410Y281940D02*
X105410Y289714D01*
X105410Y281940D02*
X105410Y281940D01*
X105410Y289714D01*
X104644Y289714D01*
X103142Y289415D01*
X101728Y288829D01*
X100454Y287978D01*
X99372Y286896D01*
X99060Y286429D01*
X98748Y286896D01*
X97666Y287978D01*
X96392Y288829D01*
X94978Y289415D01*
X93476Y289714D01*
X92710Y289714D01*
X92710Y281940D01*
X92710Y281940D01*
X92710Y289714D01*
X91944Y289714D01*
X90442Y289415D01*
X89028Y288829D01*
X87754Y287978D01*
X86672Y286896D01*
X85821Y285622D01*
X85235Y284208D01*
X84936Y282706D01*
X84936Y281940D01*
X92710Y281940D01*
X92710Y281940D01*
X84936Y281940D01*
X84936Y281174D01*
X85235Y279672D01*
X85821Y278258D01*
X86672Y276984D01*
X87754Y275902D01*
X89028Y275051D01*
X90442Y274465D01*
X91944Y274166D01*
X92710Y274166D01*
X92710Y281940D01*
X92710Y281940D01*
X92710Y274166D01*
X93476Y274166D01*
X94978Y274465D01*
X96392Y275051D01*
X97666Y275902D01*
X98748Y276984D01*
X99060Y277451D01*
X99372Y276984D01*
X100454Y275902D01*
X101728Y275051D01*
X103142Y274465D01*
X104644Y274166D01*
X105410Y274166D01*
X105410Y281940D01*
X105410Y281940D01*
X105410Y274166D01*
X106176Y274166D01*
X107678Y274465D01*
X109092Y275051D01*
X110366Y275902D01*
X111448Y276984D01*
X112299Y278258D01*
X112885Y279672D01*
X113184Y281174D01*
X113184Y281940D01*
X105410Y281940D01*
X105410Y281940D01*
X113184Y281940D01*
X113184Y282706D01*
X112885Y284208D01*
X112299Y285622D01*
X111448Y286896D01*
X110366Y287978D01*
X109092Y288829D01*
X107678Y289415D01*
X106176Y289714D01*
X105410Y289714D01*
X88900Y384810D02*
X88900Y392584D01*
X88900Y384810D02*
X88900Y384810D01*
X88900Y392584D01*
X88134Y392584D01*
X86632Y392285D01*
X85218Y391699D01*
X83944Y390848D01*
X82862Y389766D01*
X82011Y388492D01*
X81425Y387078D01*
X81126Y385576D01*
X81126Y384810D01*
X88900Y384810D01*
X88900Y384810D01*
X81126Y384810D01*
X81126Y384044D01*
X81425Y382542D01*
X82011Y381128D01*
X82862Y379854D01*
X83944Y378772D01*
X85218Y377921D01*
X86632Y377335D01*
X88134Y377036D01*
X88900Y377036D01*
X88900Y384810D01*
X88900Y384810D01*
X88900Y377036D01*
X89666Y377036D01*
X91168Y377335D01*
X92582Y377921D01*
X93856Y378772D01*
X94938Y379854D01*
X95789Y381128D01*
X96375Y382542D01*
X96674Y384044D01*
X96674Y384810D01*
X88900Y384810D01*
X88900Y384810D01*
X96674Y384810D01*
X96674Y385576D01*
X96375Y387078D01*
X95789Y388492D01*
X94938Y389766D01*
X93856Y390848D01*
X92582Y391699D01*
X91168Y392285D01*
X89666Y392584D01*
X88900Y392584D01*
X372110Y285904D02*
X372110Y278130D01*
X372110Y278130D01*
X372110Y285904D01*
X371344Y285904D01*
X369842Y285605D01*
X368428Y285019D01*
X367154Y284168D01*
X366072Y283086D01*
X365221Y281812D01*
X364635Y280398D01*
X364336Y278896D01*
X364336Y278130D01*
X372110Y278130D01*
X372110Y278130D01*
X364336Y278130D01*
X364336Y277364D01*
X364635Y275862D01*
X365221Y274448D01*
X366072Y273174D01*
X367154Y272092D01*
X368428Y271241D01*
X369842Y270655D01*
X371344Y270356D01*
X372110Y270356D01*
X372110Y278130D01*
X372110Y278130D01*
X372110Y270356D01*
X372876Y270356D01*
X374378Y270655D01*
X375792Y271241D01*
X377066Y272092D01*
X378148Y273174D01*
X378999Y274448D01*
X379585Y275862D01*
X379884Y277364D01*
X379884Y278130D01*
X372110Y278130D01*
X372110Y278130D01*
X379884Y278130D01*
X379884Y278896D01*
X379585Y280398D01*
X378999Y281812D01*
X378148Y283086D01*
X377066Y284168D01*
X375792Y285019D01*
X374378Y285605D01*
X372876Y285904D01*
X372110Y285904D01*
X100330Y349683D02*
X100330Y359485D01*
X96579Y368540D01*
X89648Y375471D01*
X80593Y379222D01*
X70791Y379222D01*
X61736Y375471D01*
X54805Y368540D01*
X51054Y359485D01*
X51054Y349683D01*
X54805Y340628D01*
X61736Y333697D01*
X70791Y329946D01*
X80593Y329946D01*
X89648Y333697D01*
X96579Y340628D01*
X100330Y349683D01*
X359664Y289635D02*
X359664Y279833D01*
X359664Y289635D02*
X355913Y298690D01*
X348982Y305621D01*
X339927Y309372D01*
X330125Y309372D01*
X321070Y305621D01*
X314139Y298690D01*
X310388Y289635D01*
X310388Y279833D01*
X314139Y270778D01*
X321070Y263847D01*
X330125Y260096D01*
X339927Y260096D01*
X348982Y263847D01*
X355913Y270778D01*
X359664Y279833D01*
X382222Y256776D02*
X382222Y253764D01*
X382222Y256776D02*
X381069Y259559D01*
X378939Y261689D01*
X376156Y262842D01*
X373144Y262842D01*
X370361Y261689D01*
X368231Y259559D01*
X367078Y256776D01*
X367078Y253764D01*
X368231Y250981D01*
X370361Y248851D01*
X373144Y247698D01*
X376156Y247698D01*
X378939Y248851D01*
X381069Y250981D01*
X382222Y253764D01*
X193262Y215274D02*
X193262Y213323D01*
X194397Y214139D02*
X193262Y215274D01*
X194397Y214139D02*
X196813Y213138D01*
X199427Y213138D01*
X201843Y214139D01*
X203200Y215496D01*
X204557Y214139D01*
X206973Y213138D01*
X209587Y213138D01*
X209970Y213296D01*
X210961Y210903D01*
X213443Y208421D01*
X216685Y207078D01*
X220195Y207078D01*
X223437Y208421D01*
X223520Y208504D01*
X223603Y208421D01*
X226845Y207078D01*
X230355Y207078D01*
X233597Y208421D01*
X236079Y210903D01*
X237422Y214145D01*
X237422Y217655D01*
X236079Y220897D01*
X233597Y223379D01*
X230355Y224722D01*
X226845Y224722D01*
X223603Y223379D01*
X223520Y223296D01*
X223437Y223379D01*
X220195Y224722D01*
X216685Y224722D01*
X213770Y223514D01*
X212003Y225281D01*
X209587Y226282D01*
X208462Y226282D01*
X206923Y227821D01*
X204507Y228822D01*
X201893Y228822D01*
X199477Y227821D01*
X198120Y226464D01*
X196763Y227821D01*
X194347Y228822D01*
X191733Y228822D01*
X189317Y227821D01*
X187469Y225973D01*
X186468Y223557D01*
X186468Y221202D01*
X185383Y221202D01*
X182967Y220201D01*
X181119Y218353D01*
X180118Y215937D01*
X180118Y213323D01*
X181119Y210907D01*
X182967Y209059D01*
X185383Y208058D01*
X187997Y208058D01*
X190413Y209059D01*
X192261Y210907D01*
X193262Y213323D01*
X309832Y269004D02*
X309832Y272016D01*
X308679Y274799D01*
X306549Y276929D01*
X303766Y278082D01*
X300754Y278082D01*
X297971Y276929D01*
X295841Y274799D01*
X294688Y272016D01*
X294688Y269004D01*
X295841Y266221D01*
X297971Y264091D01*
X300754Y262938D01*
X303766Y262938D01*
X306549Y264091D01*
X308679Y266221D01*
X309832Y269004D01*
X215852Y356634D02*
X215852Y359646D01*
X214699Y362429D01*
X212569Y364559D01*
X209786Y365712D01*
X206774Y365712D01*
X203991Y364559D01*
X201861Y362429D01*
X200708Y359646D01*
X200708Y356634D01*
X201861Y353851D01*
X203991Y351721D01*
X206774Y350568D01*
X209786Y350568D01*
X212569Y351721D01*
X214699Y353851D01*
X215852Y356634D01*
X196782Y182095D02*
X196782Y178585D01*
X196782Y182095D02*
X195439Y185337D01*
X192957Y187819D01*
X189715Y189162D01*
X186205Y189162D01*
X182963Y187819D01*
X180481Y185337D01*
X179138Y182095D01*
X179138Y178585D01*
X180481Y175343D01*
X182963Y172861D01*
X186205Y171518D01*
X189715Y171518D01*
X192957Y172861D01*
X195439Y175343D01*
X196782Y178585D01*
X295842Y132565D02*
X295842Y129055D01*
X295842Y132565D02*
X294499Y135807D01*
X292017Y138289D01*
X288775Y139632D01*
X285265Y139632D01*
X282023Y138289D01*
X279541Y135807D01*
X278198Y132565D01*
X278198Y129055D01*
X279541Y125813D01*
X282023Y123331D01*
X285265Y121988D01*
X288775Y121988D01*
X292017Y123331D01*
X294499Y125813D01*
X295842Y129055D01*
X190432Y343685D02*
X190432Y347195D01*
X189089Y350437D01*
X186607Y352919D01*
X183365Y354262D01*
X179855Y354262D01*
X176613Y352919D01*
X174131Y350437D01*
X172788Y347195D01*
X172788Y343685D01*
X174131Y340443D01*
X176613Y337961D01*
X179855Y336618D01*
X183365Y336618D01*
X186607Y337961D01*
X189089Y340443D01*
X190432Y343685D01*
X312352Y400835D02*
X312352Y404345D01*
X311009Y407587D01*
X308527Y410069D01*
X305285Y411412D01*
X301775Y411412D01*
X298533Y410069D01*
X296051Y407587D01*
X294708Y404345D01*
X294708Y400835D01*
X296051Y397593D01*
X298533Y395111D01*
X301775Y393768D01*
X305285Y393768D01*
X308527Y395111D01*
X311009Y397593D01*
X312352Y400835D01*
X184102Y298674D02*
X184102Y296944D01*
X184102Y298674D02*
X186211Y296565D01*
X188994Y295412D01*
X192006Y295412D01*
X194789Y296565D01*
X196919Y298695D01*
X198072Y301478D01*
X198072Y304490D01*
X196919Y307273D01*
X194789Y309403D01*
X192006Y310556D01*
X188994Y310556D01*
X186211Y309403D01*
X184081Y307273D01*
X182928Y304490D01*
X182928Y302760D01*
X180819Y304869D01*
X178036Y306022D01*
X175024Y306022D01*
X172241Y304869D01*
X170111Y302739D01*
X168958Y299956D01*
X168958Y296944D01*
X170111Y294161D01*
X172241Y292031D01*
X175024Y290878D01*
X178036Y290878D01*
X180819Y292031D01*
X182949Y294161D01*
X184102Y296944D01*
X222202Y158986D02*
X222202Y155974D01*
X222202Y158986D02*
X221049Y161769D01*
X218919Y163899D01*
X216136Y165052D01*
X215444Y165052D01*
X214699Y166849D01*
X212569Y168979D01*
X209786Y170132D01*
X206774Y170132D01*
X203991Y168979D01*
X201861Y166849D01*
X200708Y164066D01*
X200708Y161054D01*
X201861Y158271D01*
X203991Y156141D01*
X206774Y154988D01*
X207466Y154988D01*
X208211Y153191D01*
X210341Y151061D01*
X213124Y149908D01*
X216136Y149908D01*
X218919Y151061D01*
X221049Y153191D01*
X222202Y155974D01*
X111712Y75166D02*
X111712Y72154D01*
X111712Y75166D02*
X110559Y77949D01*
X108429Y80079D01*
X105646Y81232D01*
X102634Y81232D01*
X99851Y80079D01*
X97721Y77949D01*
X96568Y75166D01*
X96568Y72154D01*
X97721Y69371D01*
X99851Y67241D01*
X102634Y66088D01*
X105646Y66088D01*
X108429Y67241D01*
X110559Y69371D01*
X111712Y72154D01*
X149812Y72154D02*
X149812Y75166D01*
X148659Y77949D01*
X146529Y80079D01*
X143746Y81232D01*
X140734Y81232D01*
X137951Y80079D01*
X135821Y77949D01*
X134668Y75166D01*
X134668Y72154D01*
X135821Y69371D01*
X137951Y67241D01*
X140734Y66088D01*
X143746Y66088D01*
X146529Y67241D01*
X148659Y69371D01*
X149812Y72154D01*
X161242Y44686D02*
X161242Y41674D01*
X161242Y44686D02*
X160089Y47469D01*
X157959Y49599D01*
X155176Y50752D01*
X152164Y50752D01*
X149381Y49599D01*
X147251Y47469D01*
X146098Y44686D01*
X146098Y41674D01*
X147251Y38891D01*
X149381Y36761D01*
X152164Y35608D01*
X155176Y35608D01*
X157959Y36761D01*
X160089Y38891D01*
X161242Y41674D01*
X298688Y383500D02*
X298688Y386120D01*
X297685Y388542D01*
X295832Y390395D01*
X293410Y391398D01*
X290790Y391398D01*
X288368Y390395D01*
X286515Y388542D01*
X285512Y386120D01*
X285512Y383500D01*
X286515Y381078D01*
X288368Y379225D01*
X290790Y378222D01*
X293410Y378222D01*
X295832Y379225D01*
X297685Y381078D01*
X298688Y383500D01*
X298688Y358180D02*
X298688Y355560D01*
X298688Y358180D02*
X297685Y360602D01*
X295832Y362455D01*
X293410Y363458D01*
X290790Y363458D01*
X288368Y362455D01*
X286515Y360602D01*
X285988Y359329D01*
X285988Y359450D01*
X284985Y361872D01*
X283132Y363725D01*
X280710Y364728D01*
X278090Y364728D01*
X275668Y363725D01*
X273815Y361872D01*
X272812Y359450D01*
X272812Y356830D01*
X273815Y354408D01*
X275668Y352555D01*
X278090Y351552D01*
X280710Y351552D01*
X283132Y352555D01*
X284985Y354408D01*
X285512Y355681D01*
X285512Y355560D01*
X286515Y353138D01*
X288368Y351285D01*
X290790Y350282D01*
X293410Y350282D01*
X295832Y351285D01*
X297685Y353138D01*
X298688Y355560D01*
X390112Y292137D02*
X390112Y289523D01*
X390112Y292137D02*
X389111Y294553D01*
X387263Y296401D01*
X384847Y297402D01*
X382233Y297402D01*
X379817Y296401D01*
X377969Y294553D01*
X376968Y292137D01*
X376968Y289523D01*
X377969Y287107D01*
X379817Y285259D01*
X382233Y284258D01*
X384847Y284258D01*
X387263Y285259D01*
X389111Y287107D01*
X390112Y289523D01*
X348485Y391082D02*
X346632Y392935D01*
X344210Y393938D01*
X341590Y393938D01*
X339168Y392935D01*
X337315Y391082D01*
X336550Y389235D01*
X335785Y391082D01*
X333932Y392935D01*
X331510Y393938D01*
X328890Y393938D01*
X326468Y392935D01*
X324615Y391082D01*
X323612Y388660D01*
X323612Y386040D01*
X324615Y383618D01*
X326468Y381765D01*
X328890Y380762D01*
X331510Y380762D01*
X333932Y381765D01*
X335785Y383618D01*
X336550Y385465D01*
X337315Y383618D01*
X339168Y381765D01*
X341590Y380762D01*
X344210Y380762D01*
X346632Y381765D01*
X348485Y383618D01*
X349250Y385465D01*
X350015Y383618D01*
X351868Y381765D01*
X354290Y380762D01*
X356910Y380762D01*
X359332Y381765D01*
X361185Y383618D01*
X362188Y386040D01*
X362188Y388660D01*
X361185Y391082D01*
X359332Y392935D01*
X356910Y393938D01*
X354290Y393938D01*
X351868Y392935D01*
X350015Y391082D01*
X349250Y389235D01*
X348485Y391082D01*
X259318Y368340D02*
X259318Y365720D01*
X259318Y368340D02*
X258546Y370205D01*
X259318Y372070D01*
X259318Y374690D01*
X258315Y377112D01*
X256462Y378965D01*
X254040Y379968D01*
X251420Y379968D01*
X248998Y378965D01*
X247145Y377112D01*
X246142Y374690D01*
X246142Y372070D01*
X246914Y370205D01*
X246142Y368340D01*
X246142Y365720D01*
X247145Y363298D01*
X248998Y361445D01*
X251420Y360442D01*
X254040Y360442D01*
X256462Y361445D01*
X258315Y363298D01*
X259318Y365720D01*
X57278Y12192D02*
X24638Y12192D01*
X82422Y12192D02*
X82678Y12192D01*
X107822Y12192D02*
X108078Y12192D01*
X133222Y12192D02*
X133478Y12192D01*
X158622Y12192D02*
X183642Y12192D01*
X58557Y18288D02*
X24165Y18288D01*
X81143Y18288D02*
X83957Y18288D01*
X106543Y18288D02*
X109357Y18288D01*
X131943Y18288D02*
X134757Y18288D01*
X157343Y18288D02*
X189738Y18288D01*
X65206Y24384D02*
X25332Y24384D01*
X74494Y24384D02*
X90606Y24384D01*
X99894Y24384D02*
X116006Y24384D01*
X125294Y24384D02*
X141406Y24384D01*
X150694Y24384D02*
X195834Y24384D01*
X11853Y30480D02*
X11430Y30480D01*
X21167Y30480D02*
X46991Y30480D01*
X67309Y30480D02*
X72391Y30480D01*
X92709Y30480D02*
X97791Y30480D01*
X118109Y30480D02*
X123191Y30480D01*
X143509Y30480D02*
X201930Y30480D01*
X44578Y36576D02*
X11430Y36576D01*
X69722Y36576D02*
X69978Y36576D01*
X95122Y36576D02*
X95378Y36576D01*
X120522Y36576D02*
X120778Y36576D01*
X145922Y36576D02*
X149827Y36576D01*
X157513Y36576D02*
X208026Y36576D01*
X45436Y42672D02*
X11430Y42672D01*
X68864Y42672D02*
X70836Y42672D01*
X94264Y42672D02*
X96236Y42672D01*
X119664Y42672D02*
X121636Y42672D01*
X145064Y42672D02*
X146098Y42672D01*
X161242Y42672D02*
X214122Y42672D01*
X13392Y48768D02*
X11430Y48768D01*
X32328Y48768D02*
X50053Y48768D01*
X64247Y48768D02*
X75453Y48768D01*
X89647Y48768D02*
X100853Y48768D01*
X115047Y48768D02*
X126253Y48768D01*
X140447Y48768D02*
X148550Y48768D01*
X158790Y48768D02*
X170872Y48768D01*
X189808Y48768D02*
X220218Y48768D01*
X165662Y54864D02*
X37537Y54864D01*
X195017Y54864D02*
X226314Y54864D01*
X163767Y60960D02*
X39433Y60960D01*
X196913Y60960D02*
X232410Y60960D01*
X100297Y67056D02*
X39010Y67056D01*
X107983Y67056D02*
X138397Y67056D01*
X146083Y67056D02*
X164190Y67056D01*
X196490Y67056D02*
X238506Y67056D01*
X96568Y73152D02*
X35884Y73152D01*
X111712Y73152D02*
X134668Y73152D01*
X149812Y73152D02*
X167316Y73152D01*
X207676Y73152D02*
X215684Y73152D01*
X238976Y73152D02*
X244602Y73152D01*
X19410Y79248D02*
X11430Y79248D01*
X26310Y79248D02*
X65756Y79248D01*
X79024Y79248D02*
X99020Y79248D01*
X109260Y79248D02*
X137120Y79248D01*
X147360Y79248D02*
X176890Y79248D01*
X183790Y79248D02*
X191104Y79248D01*
X207676Y79248D02*
X208235Y79248D01*
X246425Y79248D02*
X250698Y79248D01*
X31251Y85344D02*
X19637Y85344D01*
X57649Y85344D02*
X63568Y85344D01*
X81212Y85344D02*
X145551Y85344D01*
X171949Y85344D02*
X204660Y85344D01*
X250000Y85344D02*
X256794Y85344D01*
X26114Y91440D02*
X23348Y91440D01*
X62786Y91440D02*
X66264Y91440D01*
X78516Y91440D02*
X140414Y91440D01*
X177086Y91440D02*
X202692Y91440D01*
X251968Y91440D02*
X262890Y91440D01*
X23622Y97536D02*
X21720Y97536D01*
X65278Y97536D02*
X137922Y97536D01*
X179578Y97536D02*
X202692Y97536D01*
X251968Y97536D02*
X268986Y97536D01*
X23622Y103632D02*
X22352Y103632D01*
X65278Y103632D02*
X137922Y103632D01*
X179578Y103632D02*
X204239Y103632D01*
X250421Y103632D02*
X275082Y103632D01*
X25273Y109728D02*
X22352Y109728D01*
X63627Y109728D02*
X139573Y109728D01*
X177927Y109728D02*
X207219Y109728D01*
X247441Y109728D02*
X281178Y109728D01*
X142776Y115824D02*
X59681Y115824D01*
X173981Y115824D02*
X213315Y115824D01*
X246410Y115824D02*
X287274Y115824D01*
X39081Y121920D02*
X35167Y121920D01*
X49819Y121920D02*
X137208Y121920D01*
X152352Y121920D02*
X153381Y121920D01*
X164119Y121920D02*
X231208Y121920D01*
X248852Y121920D02*
X293370Y121920D01*
X24466Y128016D02*
X20515Y128016D01*
X28874Y128016D02*
X138898Y128016D01*
X159886Y128016D02*
X181520Y128016D01*
X197470Y128016D02*
X233650Y128016D01*
X248442Y128016D02*
X278628Y128016D01*
X295412Y128016D02*
X299466Y128016D01*
X29084Y134112D02*
X22352Y134112D01*
X47370Y134112D02*
X54484Y134112D01*
X72770Y134112D02*
X94141Y134112D01*
X109059Y134112D02*
X130430Y134112D01*
X174116Y134112D02*
X180898Y134112D01*
X198092Y134112D02*
X232478Y134112D01*
X250122Y134112D02*
X278839Y134112D01*
X295201Y134112D02*
X305562Y134112D01*
X25671Y140208D02*
X22352Y140208D01*
X50783Y140208D02*
X51071Y140208D01*
X76183Y140208D02*
X95210Y140208D01*
X107990Y140208D02*
X127017Y140208D01*
X152129Y140208D02*
X152417Y140208D01*
X177529Y140208D02*
X186705Y140208D01*
X192285Y140208D02*
X235682Y140208D01*
X246918Y140208D02*
X311658Y140208D01*
X26092Y146304D02*
X21113Y146304D01*
X50362Y146304D02*
X51492Y146304D01*
X75762Y146304D02*
X127438Y146304D01*
X151708Y146304D02*
X152838Y146304D01*
X177108Y146304D02*
X317754Y146304D01*
X30100Y152400D02*
X22352Y152400D01*
X46354Y152400D02*
X55500Y152400D01*
X71754Y152400D02*
X131446Y152400D01*
X147700Y152400D02*
X156846Y152400D01*
X173100Y152400D02*
X209002Y152400D01*
X220258Y152400D02*
X319615Y152400D01*
X180838Y158496D02*
X36332Y158496D01*
X197622Y158496D02*
X201767Y158496D01*
X222202Y158496D02*
X224561Y158496D01*
X238639Y158496D02*
X239736Y158496D01*
X250484Y158496D02*
X314398Y158496D01*
X181049Y164592D02*
X36121Y164592D01*
X197411Y164592D02*
X200926Y164592D01*
X217247Y164592D02*
X224772Y164592D01*
X252682Y164592D02*
X312293Y164592D01*
X241880Y170688D02*
X22413Y170688D01*
X248340Y170688D02*
X312293Y170688D01*
X33145Y176784D02*
X22770Y176784D01*
X63375Y176784D02*
X179884Y176784D01*
X196036Y176784D02*
X230684Y176784D01*
X246836Y176784D02*
X314813Y176784D01*
X345587Y176784D02*
X348234Y176784D01*
X28637Y182880D02*
X20423Y182880D01*
X67883Y182880D02*
X179463Y182880D01*
X196457Y182880D02*
X230263Y182880D01*
X247257Y182880D02*
X321409Y182880D01*
X338991Y182880D02*
X354330Y182880D01*
X26438Y188976D02*
X22352Y188976D01*
X70082Y188976D02*
X185756Y188976D01*
X190164Y188976D02*
X230368Y188976D01*
X247152Y188976D02*
X283039Y188976D01*
X305239Y188976D02*
X355161Y188976D01*
X26438Y195072D02*
X11430Y195072D01*
X70082Y195072D02*
X230579Y195072D01*
X246941Y195072D02*
X278123Y195072D01*
X310155Y195072D02*
X318392Y195072D01*
X342008Y195072D02*
X350245Y195072D01*
X28218Y201168D02*
X11430Y201168D01*
X68302Y201168D02*
X229648Y201168D01*
X246022Y201168D02*
X276232Y201168D01*
X312046Y201168D02*
X316103Y201168D01*
X344297Y201168D02*
X348354Y201168D01*
X32133Y207264D02*
X11430Y207264D01*
X64387Y207264D02*
X216236Y207264D01*
X220644Y207264D02*
X226396Y207264D01*
X230804Y207264D02*
X234818Y207264D01*
X247782Y207264D02*
X276440Y207264D01*
X311838Y207264D02*
X316625Y207264D01*
X343775Y207264D02*
X348562Y207264D01*
X41525Y213360D02*
X11430Y213360D01*
X54996Y213360D02*
X180118Y213360D01*
X193262Y213360D02*
X196277Y213360D01*
X199963Y213360D02*
X206437Y213360D01*
X237097Y213360D02*
X278975Y213360D01*
X309303Y213360D02*
X320424Y213360D01*
X339976Y213360D02*
X351097Y213360D01*
X381425Y213360D02*
X384810Y213360D01*
X91277Y219456D02*
X11430Y219456D01*
X104303Y219456D02*
X182222Y219456D01*
X236676Y219456D02*
X286591Y219456D01*
X301687Y219456D02*
X358713Y219456D01*
X373809Y219456D02*
X390906Y219456D01*
X90436Y225552D02*
X11430Y225552D01*
X105144Y225552D02*
X187294Y225552D01*
X211350Y225552D02*
X318585Y225552D01*
X341815Y225552D02*
X397002Y225552D01*
X15949Y231648D02*
X11430Y231648D01*
X32311Y231648D02*
X35318Y231648D01*
X51202Y231648D02*
X67318Y231648D01*
X83202Y231648D02*
X313971Y231648D01*
X346429Y231648D02*
X403098Y231648D01*
X15738Y237744D02*
X11430Y237744D01*
X54877Y237744D02*
X63643Y237744D01*
X86877Y237744D02*
X312293Y237744D01*
X348107Y237744D02*
X400020Y237744D01*
X32109Y243840D02*
X11430Y243840D01*
X54411Y243840D02*
X64109Y243840D01*
X86411Y243840D02*
X271232Y243840D01*
X282488Y243840D02*
X312714Y243840D01*
X347686Y243840D02*
X397578Y243840D01*
X415222Y243840D02*
X415290Y243840D01*
X36442Y249936D02*
X11430Y249936D01*
X50078Y249936D02*
X68442Y249936D01*
X82078Y249936D02*
X269288Y249936D01*
X284432Y249936D02*
X315551Y249936D01*
X344849Y249936D02*
X369276Y249936D01*
X380024Y249936D02*
X400020Y249936D01*
X412780Y249936D02*
X419100Y249936D01*
X35934Y256032D02*
X11430Y256032D01*
X50586Y256032D02*
X67934Y256032D01*
X82586Y256032D02*
X232985Y256032D01*
X244878Y256032D02*
X248230Y256032D01*
X254690Y256032D02*
X274243Y256032D01*
X279477Y256032D02*
X323896Y256032D01*
X336504Y256032D02*
X367078Y256032D01*
X382222Y256032D02*
X404572Y256032D01*
X31898Y262128D02*
X11430Y262128D01*
X54622Y262128D02*
X63898Y262128D01*
X86622Y262128D02*
X231359Y262128D01*
X259032Y262128D02*
X325219Y262128D01*
X344832Y262128D02*
X371420Y262128D01*
X377880Y262128D02*
X400518Y262128D01*
X31854Y268224D02*
X11430Y268224D01*
X54667Y268224D02*
X63854Y268224D01*
X86667Y268224D02*
X168011Y268224D01*
X182509Y268224D02*
X237082Y268224D01*
X240780Y268224D02*
X246086Y268224D01*
X256834Y268224D02*
X295011Y268224D01*
X309509Y268224D02*
X316693Y268224D01*
X353359Y268224D02*
X399796Y268224D01*
X35826Y274320D02*
X11430Y274320D01*
X50694Y274320D02*
X67826Y274320D01*
X82694Y274320D02*
X91170Y274320D01*
X92710Y274320D02*
X92710Y274320D01*
X94250Y274320D02*
X103870Y274320D01*
X105410Y274320D02*
X105410Y274320D01*
X106950Y274320D02*
X168642Y274320D01*
X181878Y274320D02*
X237076Y274320D01*
X242984Y274320D02*
X295642Y274320D01*
X308878Y274320D02*
X312672Y274320D01*
X357380Y274320D02*
X365306Y274320D01*
X372110Y274320D02*
X372110Y274320D01*
X378914Y274320D02*
X401780Y274320D01*
X85087Y280416D02*
X11430Y280416D01*
X92710Y280416D02*
X92710Y280416D01*
X105410Y280416D02*
X105410Y280416D01*
X113033Y280416D02*
X229720Y280416D01*
X246602Y280416D02*
X251287Y280416D01*
X261793Y280416D02*
X270337Y280416D01*
X278303Y280416D02*
X310388Y280416D01*
X359664Y280416D02*
X364642Y280416D01*
X372110Y280416D02*
X372110Y280416D01*
X379578Y280416D02*
X405588Y280416D01*
X86415Y286512D02*
X11430Y286512D01*
X92710Y286512D02*
X92710Y286512D01*
X99005Y286512D02*
X99115Y286512D01*
X105410Y286512D02*
X105410Y286512D01*
X111705Y286512D02*
X228678Y286512D01*
X241989Y286512D02*
X246353Y286512D01*
X262829Y286512D02*
X264241Y286512D01*
X280908Y286512D02*
X310388Y286512D01*
X359664Y286512D02*
X378564Y286512D01*
X388516Y286512D02*
X400939Y286512D01*
X40298Y292608D02*
X11430Y292608D01*
X56222Y292608D02*
X171664Y292608D01*
X181396Y292608D02*
X213283Y292608D01*
X218517Y292608D02*
X224577Y292608D01*
X242792Y292608D02*
X247754Y292608D01*
X275634Y292608D02*
X311620Y292608D01*
X358432Y292608D02*
X377163Y292608D01*
X389917Y292608D02*
X399796Y292608D01*
X31625Y298704D02*
X11430Y298704D01*
X64895Y298704D02*
X115540Y298704D01*
X125760Y298704D02*
X133320Y298704D01*
X143540Y298704D02*
X168958Y298704D01*
X196923Y298704D02*
X208328Y298704D01*
X240439Y298704D02*
X256917Y298704D01*
X268863Y298704D02*
X314153Y298704D01*
X355899Y298704D02*
X401360Y298704D01*
X28008Y304800D02*
X11430Y304800D01*
X68512Y304800D02*
X111828Y304800D01*
X129472Y304800D02*
X129608Y304800D01*
X147252Y304800D02*
X172172Y304800D01*
X180888Y304800D02*
X183056Y304800D01*
X197944Y304800D02*
X204946Y304800D01*
X221528Y304800D02*
X221894Y304800D01*
X240205Y304800D02*
X292576Y304800D01*
X306864Y304800D02*
X320249Y304800D01*
X349803Y304800D02*
X407511Y304800D01*
X26438Y310896D02*
X11430Y310896D01*
X70082Y310896D02*
X113100Y310896D01*
X128200Y310896D02*
X130880Y310896D01*
X145980Y310896D02*
X205367Y310896D01*
X218813Y310896D02*
X292997Y310896D01*
X306443Y310896D02*
X419100Y310896D01*
X26438Y316992D02*
X11430Y316992D01*
X70082Y316992D02*
X91820Y316992D01*
X98680Y316992D02*
X140080Y316992D01*
X146940Y316992D02*
X204518Y316992D01*
X219662Y316992D02*
X292064Y316992D01*
X307208Y316992D02*
X395702Y316992D01*
X409478Y316992D02*
X419100Y316992D01*
X26393Y323088D02*
X11430Y323088D01*
X67672Y323088D02*
X86543Y323088D01*
X103957Y323088D02*
X134803Y323088D01*
X152217Y323088D02*
X205954Y323088D01*
X218226Y323088D02*
X296205Y323088D01*
X303068Y323088D02*
X393768Y323088D01*
X411412Y323088D02*
X419100Y323088D01*
X20608Y329184D02*
X11430Y329184D01*
X62867Y329184D02*
X87385Y329184D01*
X103116Y329184D02*
X135645Y329184D01*
X151376Y329184D02*
X204525Y329184D01*
X226959Y329184D02*
X396718Y329184D01*
X408462Y329184D02*
X419100Y329184D01*
X21239Y335280D02*
X11430Y335280D01*
X37181Y335280D02*
X60153Y335280D01*
X91231Y335280D02*
X213092Y335280D01*
X226328Y335280D02*
X419100Y335280D01*
X54495Y341376D02*
X11430Y341376D01*
X96889Y341376D02*
X173744Y341376D01*
X189475Y341376D02*
X402291Y341376D01*
X406400Y341376D02*
X406400Y341376D01*
X410509Y341376D02*
X419100Y341376D01*
X51970Y347472D02*
X11430Y347472D01*
X99414Y347472D02*
X172903Y347472D01*
X190317Y347472D02*
X398626Y347472D01*
X406400Y347472D02*
X406400Y347472D01*
X414174Y347472D02*
X419100Y347472D01*
X12416Y353568D02*
X11430Y353568D01*
X23144Y353568D02*
X51054Y353568D01*
X100330Y353568D02*
X140686Y353568D01*
X153954Y353568D02*
X178180Y353568D01*
X185040Y353568D02*
X202144Y353568D01*
X214416Y353568D02*
X274655Y353568D01*
X284145Y353568D02*
X286337Y353568D01*
X297863Y353568D02*
X400994Y353568D01*
X406400Y353568D02*
X406400Y353568D01*
X411806Y353568D02*
X419100Y353568D01*
X51128Y359664D02*
X26602Y359664D01*
X100256Y359664D02*
X138498Y359664D01*
X156142Y359664D02*
X200715Y359664D01*
X215845Y359664D02*
X272900Y359664D01*
X285900Y359664D02*
X286127Y359664D01*
X298073Y359664D02*
X419100Y359664D01*
X53653Y365760D02*
X25176Y365760D01*
X97731Y365760D02*
X141194Y365760D01*
X153446Y365760D02*
X246142Y365760D01*
X259318Y365760D02*
X419100Y365760D01*
X58121Y371856D02*
X11430Y371856D01*
X93263Y371856D02*
X246230Y371856D01*
X259230Y371856D02*
X396930Y371856D01*
X402590Y371856D02*
X402590Y371856D01*
X408250Y371856D02*
X419100Y371856D01*
X67725Y377952D02*
X11430Y377952D01*
X83659Y377952D02*
X85171Y377952D01*
X88900Y377952D02*
X88900Y377952D01*
X92629Y377952D02*
X136622Y377952D01*
X150398Y377952D02*
X247985Y377952D01*
X257475Y377952D02*
X394816Y377952D01*
X414558Y377952D02*
X419100Y377952D01*
X81126Y384048D02*
X11430Y384048D01*
X88900Y384048D02*
X88900Y384048D01*
X96674Y384048D02*
X134688Y384048D01*
X152332Y384048D02*
X239647Y384048D01*
X248033Y384048D02*
X285512Y384048D01*
X298688Y384048D02*
X324437Y384048D01*
X335963Y384048D02*
X337137Y384048D01*
X348663Y384048D02*
X349837Y384048D01*
X361363Y384048D02*
X398861Y384048D01*
X417762Y384048D02*
X419100Y384048D01*
X83240Y390144D02*
X11430Y390144D01*
X88900Y390144D02*
X88900Y390144D01*
X94560Y390144D02*
X137638Y390144D01*
X149382Y390144D02*
X236744Y390144D01*
X250936Y390144D02*
X288117Y390144D01*
X296083Y390144D02*
X324227Y390144D01*
X336173Y390144D02*
X336927Y390144D01*
X348873Y390144D02*
X349627Y390144D01*
X361573Y390144D02*
X401798Y390144D01*
X416082Y390144D02*
X419100Y390144D01*
X15444Y396240D02*
X11430Y396240D01*
X35356Y396240D02*
X40844Y396240D01*
X60756Y396240D02*
X67768Y396240D01*
X75184Y396240D02*
X77216Y396240D01*
X84632Y396240D02*
X91644Y396240D01*
X111556Y396240D02*
X117044Y396240D01*
X136956Y396240D02*
X142444Y396240D01*
X162356Y396240D02*
X167844Y396240D01*
X187756Y396240D02*
X193244Y396240D01*
X213156Y396240D02*
X218644Y396240D01*
X238556Y396240D02*
X240628Y396240D01*
X247052Y396240D02*
X273274Y396240D01*
X288066Y396240D02*
X297404Y396240D01*
X309656Y396240D02*
X419100Y396240D01*
X77216Y402336D02*
X75184Y402336D01*
X242313Y402336D02*
X271848Y402336D01*
X289492Y402336D02*
X294708Y402336D01*
X312352Y402336D02*
X419100Y402336D01*
X275306Y408432D02*
X242824Y408432D01*
X286034Y408432D02*
X296896Y408432D01*
X310164Y408432D02*
X391892Y408432D01*
X403128Y408432D02*
X415798Y408432D01*
X388688Y414528D02*
X240588Y414528D01*
X406332Y414528D02*
X409702Y414528D01*
X12192Y49968D02*
X12192Y30620D01*
X12192Y75508D02*
X12192Y83624D01*
X12192Y192532D02*
X12192Y353792D01*
X12192Y367568D02*
X12192Y401118D01*
X18288Y46693D02*
X18288Y31672D01*
X18288Y78783D02*
X18288Y84796D01*
X18288Y129300D02*
X18288Y129506D01*
X18288Y192532D02*
X18288Y228316D01*
X18288Y241584D02*
X18288Y351858D01*
X18288Y369502D02*
X18288Y393950D01*
X24384Y18817D02*
X24384Y12446D01*
X24384Y26903D02*
X24384Y46165D01*
X24384Y79311D02*
X24384Y95617D01*
X24384Y107583D02*
X24384Y110778D01*
X24384Y127982D02*
X24384Y153214D01*
X24384Y169366D02*
X24384Y226128D01*
X24384Y243772D02*
X24384Y323920D01*
X24384Y339020D02*
X24384Y354808D01*
X24384Y366552D02*
X24384Y392176D01*
X30480Y47955D02*
X30480Y11430D01*
X30480Y77521D02*
X30480Y86115D01*
X30480Y127351D02*
X30480Y132716D01*
X30480Y152780D02*
X30480Y152793D01*
X30480Y169787D02*
X30480Y179449D01*
X30480Y205611D02*
X30480Y228824D01*
X30480Y241076D02*
X30480Y299849D01*
X30480Y340292D02*
X30480Y393108D01*
X36576Y53016D02*
X36576Y11430D01*
X36576Y72460D02*
X36576Y82317D01*
X36576Y120883D02*
X36576Y130176D01*
X36576Y155320D02*
X36576Y159086D01*
X36576Y163494D02*
X36576Y173750D01*
X36576Y211310D02*
X36576Y230390D01*
X36576Y250070D02*
X36576Y255390D01*
X36576Y275070D02*
X36576Y294150D01*
X36576Y336580D02*
X36576Y397460D01*
X42672Y80772D02*
X42672Y11430D01*
X42672Y122428D02*
X42672Y130981D01*
X42672Y154515D02*
X42672Y171225D01*
X42672Y213835D02*
X42672Y228546D01*
X42672Y251914D02*
X42672Y253546D01*
X42672Y276914D02*
X42672Y291625D01*
X42672Y334235D02*
X42672Y394412D01*
X48768Y28703D02*
X48768Y11430D01*
X48768Y47497D02*
X48768Y80845D01*
X48768Y122355D02*
X48768Y135510D01*
X48768Y149986D02*
X48768Y170708D01*
X48768Y214352D02*
X48768Y229865D01*
X48768Y250595D02*
X48768Y254865D01*
X48768Y275595D02*
X48768Y291108D01*
X48768Y334752D02*
X48768Y392176D01*
X54864Y25528D02*
X54864Y11430D01*
X54864Y50672D02*
X54864Y83370D01*
X54864Y119830D02*
X54864Y133732D01*
X54864Y151764D02*
X54864Y171646D01*
X54864Y213414D02*
X54864Y237713D01*
X54864Y242747D02*
X54864Y262713D01*
X54864Y267747D02*
X54864Y292046D01*
X54864Y333814D02*
X54864Y340569D01*
X54864Y368599D02*
X54864Y392687D01*
X60960Y26070D02*
X60960Y21589D01*
X60960Y50130D02*
X60960Y88655D01*
X60960Y114545D02*
X60960Y130245D01*
X60960Y155251D02*
X60960Y174369D01*
X60960Y210691D02*
X60960Y294769D01*
X60960Y331091D02*
X60960Y334473D01*
X60960Y374695D02*
X60960Y396444D01*
X67056Y30227D02*
X67056Y25151D01*
X67056Y45973D02*
X67056Y77948D01*
X67056Y92232D02*
X67056Y130561D01*
X67056Y154935D02*
X67056Y180884D01*
X67056Y204176D02*
X67056Y231910D01*
X67056Y248550D02*
X67056Y256910D01*
X67056Y273550D02*
X67056Y301284D01*
X67056Y324576D02*
X67056Y331493D01*
X67056Y377675D02*
X67056Y396910D01*
X73152Y29719D02*
X73152Y24940D01*
X73152Y46481D02*
X73152Y76268D01*
X73152Y93912D02*
X73152Y134494D01*
X73152Y151002D02*
X73152Y228546D01*
X73152Y251914D02*
X73152Y253546D01*
X73152Y276914D02*
X73152Y329946D01*
X73152Y379222D02*
X73152Y393543D01*
X79248Y25860D02*
X79248Y21081D01*
X79248Y50340D02*
X79248Y79472D01*
X79248Y90708D02*
X79248Y229235D01*
X79248Y251225D02*
X79248Y254235D01*
X79248Y276225D02*
X79248Y329946D01*
X79248Y379222D02*
X79248Y393543D01*
X85344Y25649D02*
X85344Y20573D01*
X85344Y50550D02*
X85344Y234043D01*
X85344Y246417D02*
X85344Y259043D01*
X85344Y271417D02*
X85344Y279409D01*
X85344Y281940D02*
X85344Y281940D01*
X85344Y284471D02*
X85344Y331914D01*
X85344Y377254D02*
X85344Y377868D01*
X85344Y384810D02*
X85344Y384810D01*
X85344Y391752D02*
X85344Y396910D01*
X91440Y29211D02*
X91440Y24730D01*
X91440Y46989D02*
X91440Y219162D01*
X91440Y227878D02*
X91440Y274266D01*
X91440Y281940D02*
X91440Y281940D01*
X91440Y289614D02*
X91440Y317149D01*
X91440Y333091D02*
X91440Y335489D01*
X91440Y373679D02*
X91440Y377448D01*
X91440Y384810D02*
X91440Y384810D01*
X91440Y392172D02*
X91440Y396444D01*
X97536Y30735D02*
X97536Y25272D01*
X97536Y45465D02*
X97536Y69817D01*
X97536Y77503D02*
X97536Y129377D01*
X97536Y142403D02*
X97536Y215948D01*
X97536Y231092D02*
X97536Y275815D01*
X97536Y281940D02*
X97536Y281940D01*
X97536Y288065D02*
X97536Y316518D01*
X97536Y333722D02*
X97536Y342938D01*
X97536Y366230D02*
X97536Y392687D01*
X103632Y26281D02*
X103632Y22097D01*
X103632Y49919D02*
X103632Y66088D01*
X103632Y81232D02*
X103632Y128536D01*
X103632Y143244D02*
X103632Y218654D01*
X103632Y228386D02*
X103632Y274367D01*
X103632Y281940D02*
X103632Y281940D01*
X103632Y289513D02*
X103632Y322303D01*
X103632Y327937D02*
X103632Y392176D01*
X109728Y25528D02*
X109728Y19184D01*
X109728Y50672D02*
X109728Y68540D01*
X109728Y78780D02*
X109728Y275475D01*
X109728Y281940D02*
X109728Y281940D01*
X109728Y288404D02*
X109728Y394412D01*
X115824Y28195D02*
X115824Y24309D01*
X115824Y48005D02*
X115824Y298520D01*
X115824Y313620D02*
X115824Y397460D01*
X121920Y32842D02*
X121920Y25272D01*
X121920Y43358D02*
X121920Y297248D01*
X121920Y314892D02*
X121920Y393108D01*
X128016Y26702D02*
X128016Y23113D01*
X128016Y49498D02*
X128016Y137797D01*
X128016Y147699D02*
X128016Y300960D01*
X128016Y311180D02*
X128016Y392176D01*
X134112Y25528D02*
X134112Y16731D01*
X134112Y50672D02*
X134112Y131402D01*
X134112Y154094D02*
X134112Y298310D01*
X134112Y313830D02*
X134112Y393950D01*
X140208Y27333D02*
X140208Y23888D01*
X140208Y48867D02*
X140208Y66306D01*
X140208Y81014D02*
X140208Y91938D01*
X140208Y111262D02*
X140208Y117054D01*
X140208Y129326D02*
X140208Y130176D01*
X140208Y155320D02*
X140208Y297258D01*
X140208Y314882D02*
X140208Y316939D01*
X140208Y333301D02*
X140208Y354046D01*
X140208Y364774D02*
X140208Y375359D01*
X140208Y391721D02*
X140208Y398665D01*
X146304Y41177D02*
X146304Y25272D01*
X146304Y45184D02*
X146304Y67147D01*
X146304Y80172D02*
X146304Y84591D01*
X146304Y153568D02*
X146304Y302027D01*
X146304Y310113D02*
X146304Y316728D01*
X146304Y333512D02*
X146304Y350588D01*
X146304Y368232D02*
X146304Y375148D01*
X146304Y391932D02*
X146304Y393529D01*
X152400Y35608D02*
X152400Y23678D01*
X152400Y50752D02*
X152400Y81686D01*
X152400Y121514D02*
X152400Y122158D01*
X152400Y137302D02*
X152400Y352014D01*
X152400Y366806D02*
X152400Y392176D01*
X158496Y37298D02*
X158496Y15505D01*
X158496Y49062D02*
X158496Y80772D01*
X158496Y122428D02*
X158496Y125118D01*
X158496Y153673D02*
X158496Y393529D01*
X164592Y57448D02*
X164592Y11430D01*
X164592Y68028D02*
X164592Y81476D01*
X164592Y121724D02*
X164592Y130176D01*
X164592Y155320D02*
X164592Y398665D01*
X170688Y48952D02*
X170688Y11430D01*
X170688Y76524D02*
X170688Y84083D01*
X170688Y119117D02*
X170688Y131507D01*
X170688Y153989D02*
X170688Y264374D01*
X170688Y276646D02*
X170688Y293584D01*
X170688Y303316D02*
X170688Y393950D01*
X176784Y46272D02*
X176784Y11430D01*
X176784Y79204D02*
X176784Y90712D01*
X176784Y112488D02*
X176784Y138410D01*
X176784Y147086D02*
X176784Y262945D01*
X176784Y278075D02*
X176784Y290878D01*
X176784Y306022D02*
X176784Y337890D01*
X176784Y352990D02*
X176784Y392176D01*
X182880Y46165D02*
X182880Y11430D01*
X182880Y79311D02*
X182880Y125954D01*
X182880Y137676D02*
X182880Y155164D01*
X182880Y167416D02*
X182880Y172944D01*
X182880Y187736D02*
X182880Y209146D01*
X182880Y220114D02*
X182880Y294092D01*
X182880Y302808D02*
X182880Y336618D01*
X182880Y354262D02*
X182880Y393108D01*
X188976Y48376D02*
X188976Y17526D01*
X188976Y77100D02*
X188976Y122993D01*
X188976Y140637D02*
X188976Y152468D01*
X188976Y170112D02*
X188976Y171518D01*
X188976Y189162D02*
X188976Y208463D01*
X188976Y227480D02*
X188976Y295419D01*
X188976Y310549D02*
X188976Y340330D01*
X188976Y350550D02*
X188976Y397460D01*
X195072Y54996D02*
X195072Y23622D01*
X195072Y83960D02*
X195072Y124916D01*
X195072Y138714D02*
X195072Y154656D01*
X195072Y167924D02*
X195072Y174976D01*
X195072Y185704D02*
X195072Y213859D01*
X195072Y228522D02*
X195072Y296848D01*
X195072Y309120D02*
X195072Y394412D01*
X201168Y67388D02*
X201168Y29718D01*
X201168Y85012D02*
X201168Y159943D01*
X201168Y165177D02*
X201168Y213859D01*
X201168Y228522D02*
X201168Y355523D01*
X201168Y360757D02*
X201168Y392176D01*
X207264Y72157D02*
X207264Y35814D01*
X207264Y109773D02*
X207264Y154988D01*
X207264Y170132D02*
X207264Y213138D01*
X207264Y227480D02*
X207264Y301458D01*
X207264Y333542D02*
X207264Y350568D01*
X207264Y365712D02*
X207264Y392687D01*
X213360Y74123D02*
X213360Y41910D01*
X213360Y115869D02*
X213360Y149908D01*
X213360Y168188D02*
X213360Y208504D01*
X213360Y223924D02*
X213360Y292576D01*
X213360Y335828D02*
X213360Y352512D01*
X213360Y363768D02*
X213360Y396444D01*
X219456Y71590D02*
X219456Y48006D01*
X219456Y118402D02*
X219456Y151598D01*
X219456Y163362D02*
X219456Y207078D01*
X219456Y224722D02*
X219456Y292997D01*
X219456Y309343D02*
X219456Y315497D01*
X219456Y319503D02*
X219456Y323898D01*
X219456Y339042D02*
X219456Y395428D01*
X225552Y70358D02*
X225552Y54102D01*
X225552Y119634D02*
X225552Y156630D01*
X225552Y165950D02*
X225552Y207614D01*
X225552Y224186D02*
X225552Y292204D01*
X225552Y307044D02*
X225552Y326604D01*
X225552Y336336D02*
X225552Y392267D01*
X231648Y70358D02*
X231648Y60198D01*
X231648Y124737D02*
X231648Y153718D01*
X231648Y168862D02*
X231648Y174976D01*
X231648Y185704D02*
X231648Y186406D01*
X231648Y205382D02*
X231648Y207614D01*
X231648Y224186D02*
X231648Y258590D01*
X231648Y262998D02*
X231648Y278734D01*
X231648Y307414D02*
X231648Y392267D01*
X237744Y72642D02*
X237744Y66294D01*
X237744Y141426D02*
X237744Y156726D01*
X237744Y165854D02*
X237744Y171518D01*
X237744Y211381D02*
X237744Y253222D01*
X237744Y268366D02*
X237744Y274043D01*
X237744Y307227D02*
X237744Y386064D01*
X237744Y393716D02*
X237744Y395428D01*
X237744Y417372D02*
X237744Y419100D01*
X243840Y76663D02*
X243840Y72390D01*
X243840Y113329D02*
X243840Y113949D01*
X243840Y141847D02*
X243840Y156258D01*
X243840Y171402D02*
X243840Y172944D01*
X243840Y199166D02*
X243840Y199679D01*
X243840Y211801D02*
X243840Y254995D01*
X243840Y266593D02*
X243840Y274726D01*
X243840Y285694D02*
X243840Y382794D01*
X243840Y396986D02*
X243840Y419100D01*
X249936Y85190D02*
X249936Y78486D01*
X249936Y104802D02*
X249936Y131146D01*
X249936Y135554D02*
X249936Y157948D01*
X249936Y169712D02*
X249936Y255325D01*
X249936Y270455D02*
X249936Y282334D01*
X249936Y294246D02*
X249936Y361057D01*
X249936Y379353D02*
X249936Y386064D01*
X249936Y393716D02*
X249936Y419100D01*
X256032Y256754D02*
X256032Y84582D01*
X256032Y269026D02*
X256032Y277892D01*
X256032Y294036D02*
X256032Y361267D01*
X256032Y379143D02*
X256032Y419100D01*
X262128Y280755D02*
X262128Y90678D01*
X262128Y288205D02*
X262128Y289322D01*
X262128Y302498D02*
X262128Y419100D01*
X268224Y283252D02*
X268224Y96774D01*
X268224Y299893D02*
X268224Y419100D01*
X274320Y241776D02*
X274320Y102870D01*
X274320Y256064D02*
X274320Y279162D01*
X274320Y295067D02*
X274320Y353903D01*
X274320Y362377D02*
X274320Y395194D01*
X274320Y407446D02*
X274320Y419100D01*
X280416Y124938D02*
X280416Y108966D01*
X280416Y136682D02*
X280416Y191599D01*
X280416Y214801D02*
X280416Y242197D01*
X280416Y255643D02*
X280416Y283252D01*
X280416Y288248D02*
X280416Y351552D01*
X280416Y364728D02*
X280416Y392498D01*
X280416Y410142D02*
X280416Y419100D01*
X286512Y121988D02*
X286512Y115062D01*
X286512Y139632D02*
X286512Y186977D01*
X286512Y219423D02*
X286512Y353145D01*
X286512Y360595D02*
X286512Y381085D01*
X286512Y388535D02*
X286512Y394686D01*
X286512Y407954D02*
X286512Y419100D01*
X292608Y123922D02*
X292608Y121158D01*
X292608Y137698D02*
X292608Y185293D01*
X292608Y221107D02*
X292608Y304723D01*
X292608Y309957D02*
X292608Y313495D01*
X292608Y319132D02*
X292608Y350282D01*
X292608Y363458D02*
X292608Y378222D01*
X292608Y391398D02*
X292608Y419100D01*
X298704Y185709D02*
X298704Y127254D01*
X298704Y220691D02*
X298704Y263787D01*
X298704Y277233D02*
X298704Y299768D01*
X298704Y323886D02*
X298704Y395040D01*
X298704Y410140D02*
X298704Y419100D01*
X304800Y188537D02*
X304800Y133350D01*
X304800Y217863D02*
X304800Y263366D01*
X304800Y277654D02*
X304800Y301712D01*
X304800Y321858D02*
X304800Y393768D01*
X304800Y411412D02*
X304800Y419100D01*
X310896Y196862D02*
X310896Y139446D01*
X310896Y209538D02*
X310896Y278607D01*
X310896Y290861D02*
X310896Y397480D01*
X310896Y407700D02*
X310896Y419100D01*
X316992Y155023D02*
X316992Y145542D01*
X316992Y179255D02*
X316992Y198250D01*
X316992Y208150D02*
X316992Y227145D01*
X316992Y251377D02*
X316992Y267925D01*
X316992Y301543D02*
X316992Y419100D01*
X323088Y190887D02*
X323088Y183575D01*
X323088Y215513D02*
X323088Y222825D01*
X323088Y255698D02*
X323088Y263011D01*
X323088Y306457D02*
X323088Y419100D01*
X329184Y189103D02*
X329184Y185046D01*
X329184Y217297D02*
X329184Y221354D01*
X329184Y257168D02*
X329184Y260486D01*
X329184Y308982D02*
X329184Y380762D01*
X329184Y393938D02*
X329184Y419100D01*
X335280Y190046D02*
X335280Y184417D01*
X335280Y216354D02*
X335280Y221983D01*
X335280Y256539D02*
X335280Y260096D01*
X335280Y309372D02*
X335280Y383113D01*
X335280Y391587D02*
X335280Y419100D01*
X341376Y194440D02*
X341376Y181287D01*
X341376Y211960D02*
X341376Y225113D01*
X341376Y253409D02*
X341376Y260696D01*
X341376Y308772D02*
X341376Y380850D01*
X341376Y393850D02*
X341376Y419100D01*
X347472Y234166D02*
X347472Y176022D01*
X347472Y244356D02*
X347472Y263221D01*
X347472Y306247D02*
X347472Y382605D01*
X347472Y392095D02*
X347472Y419100D01*
X353568Y190569D02*
X353568Y182118D01*
X353568Y215831D02*
X353568Y268433D01*
X353568Y301035D02*
X353568Y381061D01*
X353568Y393639D02*
X353568Y419100D01*
X359664Y382097D02*
X359664Y219850D01*
X359664Y392603D02*
X359664Y419100D01*
X365760Y273641D02*
X365760Y221107D01*
X365760Y278130D02*
X365760Y278130D01*
X365760Y282619D02*
X365760Y419100D01*
X371856Y248231D02*
X371856Y220265D01*
X371856Y262309D02*
X371856Y270356D01*
X371856Y278130D02*
X371856Y278130D01*
X371856Y285904D02*
X371856Y419100D01*
X377952Y248442D02*
X377952Y216833D01*
X377952Y262098D02*
X377952Y272978D01*
X377952Y278130D02*
X377952Y278130D01*
X377952Y283282D02*
X377952Y287147D01*
X377952Y294513D02*
X377952Y419100D01*
X384048Y284258D02*
X384048Y212598D01*
X384048Y297402D02*
X384048Y419100D01*
X390144Y410180D02*
X390144Y218694D01*
X396240Y224790D02*
X396240Y316454D01*
X396240Y328706D02*
X396240Y372701D01*
X396240Y377190D02*
X396240Y377190D01*
X396240Y381679D02*
X396240Y406468D01*
X402336Y235975D02*
X402336Y230886D01*
X402336Y251706D02*
X402336Y258268D01*
X402336Y275132D02*
X402336Y283668D01*
X402336Y300532D02*
X402336Y313758D01*
X402336Y331402D02*
X402336Y341346D01*
X402336Y347980D02*
X402336Y347980D01*
X402336Y354614D02*
X402336Y369416D01*
X402336Y377190D02*
X402336Y377190D01*
X402336Y390682D02*
X402336Y407740D01*
X408432Y253619D02*
X408432Y252547D01*
X408432Y305181D02*
X408432Y315946D01*
X408432Y329214D02*
X408432Y340458D01*
X408432Y347980D02*
X408432Y347980D01*
X408432Y355502D02*
X408432Y372038D01*
X408432Y393632D02*
X408432Y415798D01*
X414528Y252476D02*
X414528Y247270D01*
X414528Y306324D02*
X414528Y377922D01*
X414528Y391698D02*
X414528Y409702D01*
D18*
X92710Y281940D03*
X105410Y281940D03*
X88900Y384810D03*
X402590Y377190D03*
X406400Y347980D03*
X372110Y278130D03*
D21*
X75692Y354584D03*
X335026Y284734D03*
X227330Y94996D03*
D19*
X212090Y327660D03*
X374650Y255270D03*
D22*
X186690Y214630D03*
D19*
X302260Y270510D03*
D22*
X234471Y301469D03*
X193040Y222250D03*
X236220Y293370D03*
X198120Y219710D03*
X203200Y222250D03*
X234950Y284480D03*
D18*
X138430Y306070D03*
X143510Y325120D03*
D19*
X212090Y307340D03*
X208280Y358140D03*
X299720Y307340D03*
X251460Y262890D03*
D18*
X187960Y180340D03*
X228600Y215900D03*
D19*
X101600Y135890D03*
D18*
X287020Y130810D03*
X181610Y345440D03*
X303530Y402590D03*
D19*
X215900Y299720D03*
X227426Y299624D03*
D22*
X208280Y219710D03*
X240030Y280210D03*
D19*
X176530Y298450D03*
X190500Y302984D03*
D22*
X241300Y205740D03*
D19*
X152400Y129730D03*
X214630Y157480D03*
X104140Y73660D03*
X208280Y162560D03*
X142240Y73660D03*
X144780Y123190D03*
D18*
X238760Y191770D03*
X189495Y131815D03*
X241300Y133350D03*
X72390Y85090D03*
D22*
X236220Y200660D03*
D19*
X153670Y43180D03*
D23*
X292100Y384810D03*
X292100Y356870D03*
D22*
X252730Y288290D03*
X383540Y290830D03*
D23*
X342900Y387350D03*
X252730Y367030D03*
X330200Y387350D03*
X252730Y373380D03*
D24*
X243840Y389890D03*
D23*
X355600Y387350D03*
X279400Y358140D03*
X274320Y285750D03*
X269240Y290830D03*
X262890Y295910D03*
X256540Y284480D03*
M02*
