M48
;GenerationSoftware,Autodesk,EAGLE,9.6.0*%
;CreationDate,2020-07-24T11:15:51Z*%
FMAT,2
ICI,OFF
METRIC,TZ,000.000
T14C0.200
T13C0.203
T12C0.300
T11C0.305
T10C0.450
T9C0.889
T8C0.900
T7C1.016
T6C1.270
T5C1.600
T4C1.778
T3C2.200
T2C2.300
T1C3.251
%
G90
M71
T1
X15875Y10160
X4445Y10160
T2
X4826Y31293
X4826Y19253
T3
X7569Y35458
X33503Y28473
X22733Y9500
T4
X33020Y23926
X36626Y20320
X33020Y16714
X29414Y20320
T5
X18034Y6274
X2286Y6274
T6
X33020Y20320
T7
X16497Y14275
X13957Y14275
X6363Y14275
X2540Y40640
X3823Y14275
X10160Y40640
X7620Y40640
X41402Y26670
X41402Y29210
X12700Y40640
X15240Y40640
X17780Y40640
X20320Y40640
X22860Y40640
X5080Y40640
T8
X4326Y26523
X7526Y26523
X4326Y24023
X7526Y24023
T9
X6985Y1270
X5715Y3810
X13335Y3810
X12065Y1270
X10795Y3810
X9525Y1270
X8255Y3810
X14605Y1270
T10
X40640Y24384
X19939Y7620
X2667Y11938
X1651Y2286
X2413Y23495
X2794Y16129
X39751Y41529
X40894Y38481
X28067Y40132
X14732Y35941
X9525Y32512
X2921Y33147
X9271Y28194
X10541Y28194
X8890Y38481
X40259Y37719
X40640Y34798
X37211Y27813
X13843Y30607
X14351Y32512
X18796Y18034
X22860Y21590
X28702Y13081
X18161Y34544
X30353Y40259
X24003Y12192
X23876Y19177
X18950Y13181
X24130Y13335
X7239Y8509
X1778Y36068
X12065Y30607
X40259Y32258
X14351Y38354
X18923Y16129
X21844Y21590
X23876Y18034
T11
X24384Y38989
T12
X15367Y4318
X21209Y32766
X23160Y16129
X24511Y16383
X27686Y24892
X9779Y22352
X30226Y27051
X17526Y27051
X23893Y26079
X29964Y31631
X21971Y33147
X21209Y31750
X14478Y12319
X15240Y12973
X21463Y15748
X19050Y30298
X17653Y29845
X10414Y7366
X20828Y16256
X22743Y29962
X21590Y29972
X10160Y13589
X25146Y26289
X29972Y30734
X20828Y35814
X21209Y30734
X14224Y7366
X37465Y25527
T13
X29210Y38481
X29210Y35687
X34290Y38735
X33020Y38735
X25273Y37338
X35560Y38735
X27940Y35814
X27432Y28575
X26924Y29083
X26289Y29591
X25654Y28448
X25273Y36703
T14
X25273Y28829
X38354Y29083
X24003Y28021
X20828Y21971
X19812Y21971
X24130Y20574
X23622Y29337
X19304Y22225
X23447Y30147
X23495Y28448
X18669Y21463
X20320Y22225
X23622Y20066
M30